<svg xmlns="http://www.w3.org/2000/svg" viewBox="0 0 284.08 278.41"><defs><style>.cls-1{fill:#eba01e;}.cls-2,.cls-3,.cls-4{fill:none;stroke-miterlimit:10;}.cls-2,.cls-3,.cls-4,.cls-5{stroke:#83570b;}.cls-2{stroke-width:12px;}.cls-3{stroke-width:5px;}.cls-4{stroke-width:4px;}.cls-5{fill:#83570b;}</style></defs><g id="Layer_2" data-name="Layer 2"><g id="Layer_2-2" data-name="Layer 2"><path class="cls-1" d="M273.71,123c0,67-61.72,135.7-134.1,135.7S3.68,204.23,8.56,137.46c2.41-33,21-64.89,44.77-87,23.48-21.83,56.59-30.78,92.2-30.78C217.91,19.72,273.71,56,273.71,123Z"/><path class="cls-2" d="M273.71,127.49c0,67-61.72,135.69-134.1,135.69S3.68,208.73,8.56,142c2.41-33,21-64.89,44.77-87,23.48-21.82,56.59-30.78,92.2-30.78C217.91,24.21,273.71,60.53,273.71,127.49Z"/><path class="cls-3" d="M281.58,118.1c0,68.61-61.72,139-134.1,139S11.55,201.35,16.42,132.92c2.41-33.82,21-66.49,44.78-89.1,23.48-22.37,56.59-31.54,92.2-31.54C225.78,12.28,281.58,49.5,281.58,118.1Z"/><path class="cls-4" d="M157.61,267.42c-68.6,0-139-61.72-139-134.1S74.37-2.61,142.79,2.26c33.83,2.41,66.5,21,89.1,44.78,22.37,23.48,31.55,56.59,31.55,92.2C263.44,211.62,226.22,267.42,157.61,267.42Z"/><path class="cls-4" d="M148.54,276.41C76.24,276.41,2,214.69,2,142.3S60.81,6.37,132.92,11.25c35.65,2.41,70.08,21,93.91,44.77,23.58,23.48,33.25,56.6,33.25,92.2C260.08,220.6,220.85,276.41,148.54,276.41Z"/><path class="cls-5" d="M193.44,106.58C180.17,94,163.37,85,145,84.16c-18.7-.82-33.85,8.34-34.4,20.61-.62,14.1,16,21,45.13,28.71,30.06,8.09,45.18,20.43,44.3,40.36-1.08,24.53-26.81,43.67-61.15,42.16a103.88,103.88,0,0,1-53.58-18l1-23.31c15.06,13.57,33.39,23,52.4,23.82,20.85.92,38.23-10,38.84-23.79.65-14.72-15.1-20-42.73-27.38-27-7.34-46.11-20.16-45.15-41.93,1.07-24.22,24.81-40.07,56.69-38.67,18.4.82,35.94,7.12,48.12,16.57Z"/><path class="cls-5" d="M129.25,40.19l13.7.6-8.86,200.77-13.7-.61Z"/><path class="cls-5" d="M155.1,41.33l13.7.6L159.94,242.7l-13.7-.61Z"/></g></g></svg>