<svg xmlns="http://www.w3.org/2000/svg" viewBox="0 0 331.72 298.88"><defs><style>.cls-1{fill:#00a0e9;}.cls-2{fill:#10b7ee;}.cls-3{fill:#a4daf7;}.cls-4{fill:#4dc1f0;}.cls-5{fill:#fff;}</style></defs><g id="Layer_2" data-name="Layer 2"><g id="Layer_2-2" data-name="Layer 2"><path d="M330.07,298.88q-49.24-.37-98.49-.77L14.51,296.29c-7.48-.06-7.36-.07-7.83-7.58C4.47,253.41,2.15,218.12,0,182.82a12,12,0,0,1,1.61-6.88Q47.82,105.5,94.31,35.27a9.91,9.91,0,0,1,4.82-3.72c32.1-10.28,64.25-20.4,96.39-30.58,6.24-2,8.16-1.19,10.74,4.79Q258.1,126,310,246.26c7.21,16.73,14.51,33.42,21.77,50.12Zm-13.14-9.32.56-1L184.59,126.2,110.45,238.7Zm-3.13-16.05.62-.54L203.15,14.84a4.72,4.72,0,0,0-1.66,3.05c-4.3,32.5-8.67,65-12.74,97.54a11.77,11.77,0,0,0,2.39,7.93C213,150.36,235,177.19,257,204.07Q285.41,238.78,313.8,273.51Zm-166-211.09c-16.67,6.23-32.38,12-48,18-1.8.69-3.39,2.58-4.52,4.28Q70.56,122.1,46,159.62a15,15,0,0,0-2.33,7.77c0,16.25.35,32.51.61,48.76a27,27,0,0,0,.56,3.5C60.13,210.58,75,201.84,89.7,192.89c1.88-1.14,3.29-3.23,4.55-5.13,11.39-17.15,22.4-34.56,34.14-51.45,6.39-9.21,10.61-18.76,12-30C142.27,91.93,145.21,77.66,147.84,62.42ZM296.35,292.21l-.14-.9q-93.49-23-187-45.86a12.24,12.24,0,0,0-7.89.89c-18.66,9.74-37.18,19.77-55.73,29.72q-11.92,6.39-23.83,12.82l.22,1ZM105.83,232.12l72.08-109.37c-11.45,1.19-22.18,2.17-32.86,3.53a8.12,8.12,0,0,0-5,3.36q-20.59,30.84-40.84,61.92c-1,1.53-1.8,3.81-1.45,5.47C100.24,208.52,103,219.94,105.83,232.12ZM144.7,119.45c11.08-1.13,21.42-2.38,31.8-3.16,4-.29,5.63-1.47,6.15-5.69,3.56-28.64,7.44-57.24,11.2-85.85.43-3.31.79-6.62,1.31-11-11.73,13.23-22.41,25.7-33.59,37.7a29.63,29.63,0,0,0-8.35,18c-.63,6.25-2.09,12.42-3.16,18.62C148.3,98.29,146.56,108.53,144.7,119.45ZM91.4,199.66c-14,8.33-27.33,16.41-40.83,24.16-4.49,2.58-8,5.5-9.84,10.57s-4.67,9.88-7,14.83Q26,265.54,18.34,281.89a136.25,136.25,0,0,0,18-8.53c20.18-10.81,40.38-21.57,60.48-32.54,1.45-.78,3.23-3.24,3-4.52C97.3,224.3,94.38,212.38,91.4,199.66ZM99.2,73.79c16.74-6.26,32.91-12.26,49-18.38a9.67,9.67,0,0,0,3.47-2.66q11.16-12.36,22.2-24.82C179,22.19,184,16.39,189,10.62c-29,8.31-57.41,17.28-85.83,26.37A3.78,3.78,0,0,0,101,39.68C100.32,50.87,99.8,62.08,99.2,73.79Zm-93,107.65c2.06,32.11,4.1,63.91,6.15,95.71C19,265.06,24,252.55,30.51,240.9a56.37,56.37,0,0,0,7.28-34.7c-.38-3.61-.1-7.29-.15-10.94-.14-9-.29-18.09-.45-27.79Zm6.36-10.2c8-3.61,15.13-6.64,22.06-10.05a14.31,14.31,0,0,0,5.43-4.72Q65.2,118.72,90,80.79c.89-1.36,2.06-2.87,2.17-4.37.68-9,1.08-18.05,1.66-28.5Z"/><path class="cls-1" d="M316.93,289.56,110.45,238.7l74.14-112.5,132.9,162.32Z"/><path class="cls-2" d="M313.8,273.51Q285.4,238.8,257,204.07c-22-26.88-44-53.71-65.88-80.71a11.77,11.77,0,0,1-2.39-7.93c4.07-32.54,8.44-65,12.74-97.54a4.72,4.72,0,0,1,1.66-3.05L314.42,273Z"/><path class="cls-3" d="M147.84,62.42c-2.63,15.24-5.57,29.51-7.41,43.92-1.43,11.21-5.65,20.76-12,30-11.74,16.89-22.75,34.3-34.14,51.45-1.26,1.9-2.67,4-4.55,5.13-14.72,9-29.57,17.69-44.83,26.76a27,27,0,0,1-.56-3.5c-.26-16.25-.6-32.51-.61-48.76A15,15,0,0,1,46,159.62Q70.5,122.06,95.32,84.75c1.13-1.7,2.72-3.59,4.52-4.28C115.46,74.43,131.17,68.65,147.84,62.42Z"/><path class="cls-2" d="M296.35,292.21l-274.41-2.3-.22-1q11.91-6.42,23.83-12.82c18.55-9.95,37.07-20,55.73-29.72a12.24,12.24,0,0,1,7.89-.89q93.55,22.77,187,45.86Z"/><path class="cls-4" d="M105.83,232.12c-2.82-12.18-5.59-23.6-8-35.09-.35-1.66.46-3.94,1.45-5.47q20.26-31,40.84-61.92a8.12,8.12,0,0,1,5-3.36c10.68-1.36,21.41-2.34,32.86-3.53Z"/><path class="cls-1" d="M144.7,119.45c1.86-10.92,3.6-21.16,5.36-31.41,1.07-6.2,2.53-12.37,3.16-18.62a29.63,29.63,0,0,1,8.35-18c11.18-12,21.86-24.47,33.59-37.7-.52,4.39-.88,7.7-1.31,11-3.76,28.61-7.64,57.21-11.2,85.85-.52,4.22-2.18,5.4-6.15,5.69C166.12,117.07,155.78,118.32,144.7,119.45Z"/><path class="cls-1" d="M91.4,199.66c3,12.72,5.9,24.64,8.39,36.64.27,1.28-1.51,3.74-3,4.52-20.1,11-40.3,21.73-60.48,32.54a136.25,136.25,0,0,1-18,8.53Q26,265.56,33.73,249.22c2.33-4.95,5.11-9.73,7-14.83s5.35-8,9.84-10.57C64.07,216.07,77.38,208,91.4,199.66Z"/><path class="cls-4" d="M99.2,73.79c.6-11.71,1.12-22.92,1.84-34.11A3.78,3.78,0,0,1,103.19,37C131.61,27.9,160.07,18.93,189,10.62c-5,5.77-10,11.57-15.12,17.31q-11,12.47-22.2,24.82a9.67,9.67,0,0,1-3.47,2.66C132.11,61.53,115.94,67.53,99.2,73.79Z"/><path class="cls-4" d="M6.24,181.44l30.95-14c.16,9.7.31,18.75.45,27.79,0,3.65-.23,7.33.15,10.94a56.37,56.37,0,0,1-7.28,34.7C24,252.55,19,265.06,12.39,277.15,10.34,245.35,8.3,213.55,6.24,181.44Z"/><path class="cls-1" d="M12.6,171.24,93.87,47.92c-.58,10.45-1,19.49-1.66,28.5-.11,1.5-1.28,3-2.17,4.37q-24.92,37.89-49.95,75.68a14.31,14.31,0,0,1-5.43,4.72C27.73,164.6,20.62,167.63,12.6,171.24Z"/><polygon class="cls-5" points="264.38 267.37 143.6 210.24 130.65 233.72 264.38 267.37"/><polygon class="cls-5" points="174.48 283.94 78.3 270.8 60.6 284.51 174.48 283.94"/><polygon class="cls-5" points="138.68 73.39 128.43 117.04 120.14 95.83 89.51 108.52 103.04 87.99 138.68 73.39"/></g></g></svg>