<svg xmlns="http://www.w3.org/2000/svg" viewBox="0 0 1000 1000"><defs><style>.cls-1{fill:#f4a6be;}.cls-2{fill:#fff;}.cls-3{fill:#e86795;}.cls-4{fill:#e52421;}.cls-5{fill:#753c15;stroke:#1d1d1b;stroke-miterlimit:10;}.cls-6{fill:#fad211;}.cls-7{fill:#532c13;}.cls-8{fill:#e8e8e8;}.cls-9{fill:#af1b1c;}.cls-10{fill:#c21e1f;}.cls-11{fill:#f2af19;}.cls-12{fill:#b44672;}.cls-13{fill:#1d1d1b;}.cls-14{fill:#0a0809;}.cls-15{fill:#050404;}</style></defs><g id="Layer_3" data-name="Layer 3"><path class="cls-1" d="M706.94,274.74c30.37,100.36-29.07,232.19-196.31,232.19S205.12,482.7,211.68,345.58C218.29,207.41,325.77,71.72,487.34,86.77,633.63,100.39,681.05,189.18,706.94,274.74Z"/><path class="cls-1" d="M223,522.75c-23.43-10.19-57.74-20.79-57.74-47l-20.86-40.08c0-26.21,4.56-16.29,30.77-16.29l11.07-25c21,34.39,39.64,45.66,39.64,71.87l23,17.16"/><path class="cls-1" d="M744.93,493.49c23.43-10.19,56.49-23.56,56.49-49.77l18.32-22.88c0-26.21-4.56-16.29-30.77-16.29l-11.07-25c-21,34.39-39.64,45.66-39.64,71.87L733,467.75"/><polygon class="cls-1" points="253.15 210.45 326.12 128.87 251.68 67.76 173.1 115.13 253.15 210.45"/><rect class="cls-1" x="216.61" y="166.94" width="53.86" height="70.11"/><path class="cls-1" d="M683.45,185.21l-9.9,3.57c-14,0-88.59-66.35-85-79.84L636.4,85.11c4.2-15.76,35.46-22,47.05-10.57l60.46,50.9c-25.23,24-18.53,48.1-30.49,55.2l-4.08,21.79C706.06,204.37,687.26,185.21,683.45,185.21Z"/><path class="cls-2" d="M463,285.52c0,59.9-35.71,119.15-82.4,121.59-103.1,5.39-103.75-107.7-91.25-135.62,26.09-58.23,49.11-94.43,95.86-94.43S463,225.62,463,285.52Z"/><path class="cls-2" d="M704.34,310.08c0,59.9-50.22,83-79.7,59.94-68.48-53.58-77.37-122.67-64.86-150.6,26.08-58.23,28.65-43.49,48.76-42.36C655.23,179.7,704.34,250.18,704.34,310.08Z"/><path class="cls-3" d="M626.39,345.32c0,41.78-49.3,68.38-105,68.38s-108.12.71-108.12-48.85c0-56.31,53.69-68.23,109.42-68.23S626.39,318,626.39,345.32Z"/><polygon class="cls-4" points="513.26 534.8 469.53 553.93 465.19 515.76 513.26 515.76 513.26 534.8"/><polygon class="cls-5" points="448.02 853.25 345.81 840.53 356.91 734.07 474.67 778.09 448.02 853.25"/><polygon class="cls-5" points="653.57 852.1 539.51 855.95 525.71 780.58 633.95 740.4 653.57 852.1"/><path class="cls-5" d="M567.33,782.4,463,772.33C437.24,789.06,304.18,700,300.76,655.05l-17.83-65.3c-17.88-5.75,154.31,81,252.05,50l153.9-43c30.07,8.07-15.56,131-52.67,152.38L608.5,768.47C600.29,778.94,580.62,782,567.33,782.4Z"/><path class="cls-6" d="M264.18,914.86c-26.21,16.32-68.66,17.88-110.56,17.88s-81.39,3.15-81.39-20.28,44.4-59.21,86.31-59.21S284.07,902.47,264.18,914.86Z"/><path class="cls-6" d="M969.46,874.29c0,23.44-67.15-9.16-109.05-9.16S726.13,885,726.13,861.53s92.37-106.4,134.28-106.4S969.46,850.85,969.46,874.29Z"/><path class="cls-3" d="M227.47,205.85l-6.27,33.62,4.91.66-.69-53.66c0-3.21-5-3.22-5,0l.69,53.66c0,2.72,4.37,3.53,4.91.67l6.27-33.62c.59-3.15-4.23-4.49-4.82-1.33Z"/><path class="cls-3" d="M235.19,229.05c12.72-14.58,12.64-34.73.6-49.62-4.24-5.26-13.26-4.42-17.67,0-5.2,5.19-4.26,12.4,0,17.67,2.86,3.55,2.38,10.85-.6,14.27-4.44,5.09-5,12.68,0,17.68,4.52,4.53,13.22,5.11,17.67,0Z"/><path class="cls-3" d="M245.85,74.5a289.42,289.42,0,0,0-8.95,114.17c.83,6.69,5.15,12.5,12.5,12.5,6.11,0,13.33-5.76,12.5-12.5A271,271,0,0,1,270,81.15c4.4-15.51-19.72-22.12-24.11-6.65Z"/><path class="cls-3" d="M623,94.76a395.62,395.62,0,0,0,39.41,85.9c8.41,13.69,30,1.15,21.58-12.61a367.92,367.92,0,0,1-36.88-79.94c-2.07-6.42-8.67-10.57-15.38-8.73-6.31,1.74-10.8,8.93-8.73,15.38Z"/><path class="cls-3" d="M611.82,102.61l9.2,29.15c4.82,15.29,29,8.76,24.1-6.64L635.93,96c-4.82-15.29-29-8.76-24.11,6.64Z"/><path class="cls-3" d="M641,152.92c16.09,0,16.12-25,0-25s-16.11,25,0,25Z"/><path class="cls-3" d="M602,100l-4.13,11.92c-1.29,3.71-.06,7.92,2.24,10.89,2.61,3.38,5.72,4.4,9.81,4.93l12,1.57c2.94.38,6.85-1.67,8.84-3.66a12.51,12.51,0,0,0,0-17.68c-2.61-2.4-5.35-3.2-8.84-3.66l-12-1.57L622,118.57l4.13-11.91c2.15-6.18-2.44-13.94-8.73-15.38-7-1.58-13.08,2.11-15.38,8.73Z"/><path class="cls-7" d="M305.63,614C333.78,681.06,388,734.56,455.07,762.67a257.09,257.09,0,0,0,56.46,16.48c6.65,1.12,13.46-1.76,15.38-8.73,1.65-6-2-14.25-8.73-15.38-64.3-10.9-123.33-47.67-161.26-100.08a249.56,249.56,0,0,1-27.19-47.65c-2.61-6.22-8.27-10.69-15.37-8.73-5.87,1.61-11.36,9.11-8.73,15.37Z"/><path class="cls-7" d="M526.51,779.5l60.9-1.59v-25c-37.29,1.8-74.91-5.82-107.68-22.49-29.85-15.2-55.37-36.23-76.78-62.06A256,256,0,0,1,372.72,622c-3.08-6-11.51-7.75-17.11-4.48-6.1,3.57-7.57,11.07-4.48,17.1,33,64.36,92,116.45,162.38,135.42a240.77,240.77,0,0,0,73.9,7.92c6.74-.33,12.5-5.51,12.5-12.5,0-6.64-5.72-12.68-12.5-12.5l-60.9,1.59c-16.06.42-16.12,25.42,0,25Z"/><path class="cls-7" d="M324.38,636.1l38.46,55,19.63-15.15-75.86-80.28c-8.52-9-24.54.28-20.9,12.16C305,670.64,350.09,724.68,408,755.6a244.82,244.82,0,0,0,51.82,20.52c15.56,4.16,22.2-20,6.65-24.11-57.11-15.29-106.75-54-136.59-105.1a208.89,208.89,0,0,1-20.1-45.76l-20.89,12.16,75.86,80.29c9.55,10.1,27.9-3.34,19.63-15.15l-38.45-55c-3.86-5.52-10.94-8.09-17.1-4.48-5.47,3.19-8.38,11.54-4.49,17.1Z"/><path class="cls-7" d="M579.45,767.4a201.89,201.89,0,0,0-10.37,82c.55,6.72,5.35,12.5,12.5,12.5,6.34,0,13-5.74,12.5-12.5a183.29,183.29,0,0,1,9.48-75.35c2.2-6.38-2.52-13.67-8.73-15.38-6.87-1.89-13.17,2.33-15.38,8.73Z"/><path class="cls-7" d="M582.42,772.37c-17.58-4.47-39-6.14-50.44,11.1-10.37,15.56-1.68,35.84,2.76,51.93,2.17,7.86,4.79,16.17,12.08,20.79,9,5.74,20.64,2.36,26.55-6.15,5.46-7.87,4.63-17.61,4.62-26.73q0-15,0-30c0-7.91-8-14.48-15.83-12.06-12,3.73-18.83,13.21-20.4,25.41-.86,6.71,6.36,12.5,12.5,12.5,7.47,0,11.64-5.77,12.5-12.5-.26,2,.93-.78.34-.13l.77-.76c1.31-.84,1.62-1,.94-.41l-15.82-12c0,12.65.15,25.31,0,38,0,.41.22,5-.35,5,0-.7.46-1.19,1.42-1.48l4.41-.47,2.61,1.47q.82,1.3.12.15c-.19.13-1.31-3-.58-1.06-.3-.79-.51-1.61-.75-2.41-.91-3.1-1.72-6.25-2.58-9.37-1.48-5.37-3.13-10.72-4.37-16.15-.67-3-1.45-7.72-.29-9.58a6.88,6.88,0,0,1,2.79-2.3s2.23-.72,2.64-.82c.17,0,2.2-.37,1-.23,5.63-.68,11.31,1.06,16.69,2.43,15.6,4,22.26-20.13,6.65-24.11Z"/><path class="cls-7" d="M617.06,781.53c-2.37,2.1-3,1,.55,1.33-.6-.05-1.68-.18,1,.15,1.6.2,3.19.51,4.8.59,5.53.28,11.54-1.18,15.68-5,7.21-6.7,8.11-18.73.93-25.85a15.9,15.9,0,0,0-15.63-3.54c-5.84,1.74-9.63,6.64-12.42,11.77a236,236,0,0,0-12.36,27,218,218,0,0,0-8.81,27.78c-2.09,8.54-4.28,17.86-1.31,26.46,3.86,11.17,15.07,16.74,26.43,14.37,9.33-1.95,16.85-8.74,22.23-16.28,11.13-15.62,11.89-37.19,2.71-53.85-4.73-8.58-16.64-7.6-21.59,0-14.48,22.23-6.52,52.81,16.9,65.21,6,3.15,13.6,1.51,17.11-4.49,3.3-5.65,1.5-13.93-4.49-17.1-11.77-6.23-15.55-19.31-7.93-31H619.3a24.08,24.08,0,0,1,3,13.3,28.55,28.55,0,0,1-4.16,13.06,19.69,19.69,0,0,1-5.12,5.69c-.28.22-2.52,1.8-3.17,1.11-1.6-1.69,4.48,1.84,3.38,2.11-.22.05-.17-1.91-.15-2.08a73.51,73.51,0,0,1,1.46-8.09,204.76,204.76,0,0,1,15.32-43.25c1.55-3.14,4.33-6.74,5.33-10.09q-17.14,1.65-14.83-7.5l1.85-3a4.78,4.78,0,0,1,2.71-1.64c-1.5-.17-1.92-.16-1.26,0-8.49-1.32-16.92-1.28-24.25,5.19-5.06,4.47-4.56,13.11,0,17.68,5,5,12.61,4.48,17.68,0Z"/><path class="cls-7" d="M446.27,774.68,437.42,805,433,820.09c-1.06,3.61-2.11,8.53-3.56,11.4a8.76,8.76,0,0,1-2.51,3.22c.48-.43-.8.26-1.51.47-2.92.88-3.93.86-7.8.74a100.2,100.2,0,0,1-24-4.12c-6.82-2-13.37-5.18-16.37-10.79s-1.21-15-.45-22l6.77-62.91h-25c1,19.35,15.25,33,32.63,39.46,15.9,5.87,34.51,3.93,49.66,11.74,1,.53,3.71,2.32,4.06,2.37q-2.25-5.48,2.58-11.3c1.3-.55,1.21-.6-.25-.16,2.11.44-1.53,0-2.2,0-1.73,0-3.42.08-5.14.26a49.39,49.39,0,0,0-26.81,11.36C398.58,802,393.23,822.79,399,840.6c1.26,3.9,4.42,7.95,8.73,8.73,18.62,3.37,35.28-9.09,40.34-27,2.7-9.55,1.58-20-1-29.47-2.2-8.07-5.11-17.07-9.5-24.2-5.08-8.23-13.9-13.64-23.75-11.29-9.33,2.22-15.25,11.22-20.39,18.58a147,147,0,0,0-21.59,47.6c-1.8,7,2.33,12.88,8.73,15.37,9.52,3.71,20.16-1.48,25.44-9.62,4.5-6.94,5.56-16.19,5.64-24.28a72.86,72.86,0,0,0-14.47-44.25c-6.84-9-18.58-7.4-22.85,3-5.61,13.68-3.68,30.09,4.33,42.41,3.68,5.66,11.08,8,17.1,4.49,5.63-3.29,8.18-11.42,4.49-17.11-4.91-7.55-5.24-14.79-1.81-23.14l-22.85,3A52.54,52.54,0,0,1,386.29,798a51.65,51.65,0,0,1,0,12.61c0,.32-1.24,4.6-1.09,4.77s5.57.92,2-.49l8.73,15.38a125,125,0,0,1,12.69-31.59A112,112,0,0,1,418,784.48c.64-.8,2.79-3.23,2.86-3.19a3.8,3.8,0,0,1-3.75.07,2.39,2.39,0,0,1-2-1c1,.13.72.76.85,1,2.28,3.54,3.85,8.37,5.62,13.75,1.85,5.61,3.55,11.54,3,17.52a15.16,15.16,0,0,1-3.72,8.93,10.69,10.69,0,0,1-3.89,3.14c.44-.19-2.15.62-2.37.65,1.89-.26-2.05-.42-.19-.09L423.1,834c-4.23-13.06,2.36-26.52,15.61-30,6.25-1.63,14.59,0,21.37-4,9.94-5.75,11.19-18.87,3.42-27-12.3-12.93-32.32-14.5-48.83-17.29-7.75-1.3-15.72-2.84-22.46-7.1a30.65,30.65,0,0,1-5.95-5.48c-2.05-2.91-2.61-4.71-2.73-6.94-.36-6.74-5.48-12.5-12.5-12.5-7.36,0-11.77,5.76-12.5,12.5l-6.14,57c-1.92,17.83-3.92,35.65,10.16,49.38,12.86,12.54,31.4,15.74,48.54,17.85,15.88,2,33.2-1.89,40.59-17.65,4.44-9.48,6.64-20.16,9.57-30.17l9.13-31.23c4.52-15.47-19.6-22.08-24.11-6.64Z"/><path class="cls-8" d="M255.34,485.79A119.09,119.09,0,0,0,269,572.16c1.64,2.77,6,.26,4.32-2.52a113.84,113.84,0,0,1-13.11-82.52c.7-3.14-4.12-4.47-4.82-1.33Z"/><path class="cls-8" d="M226,540c5,13.35,15.79,21.27,27.66,28.34,9.17,5.46,17.72-5.09,13.68-13.68A90.31,90.31,0,0,1,261,497.25c1.93-8.85-10-18.1-16.72-9.73-7.47,9.24-15.59,18.23-22.48,27.92-3.4,4.77-4.83,10.46-2.9,16.07s7.86,10.22,14,9.49c5.36-.63,10-4.14,10-10,0-4.91-4.6-10.63-10-10l1.53.37L238,525a5.43,5.43,0,0,1-1.37-2.35l1.37,5c-.14-1.15,1.47-2.62,2.34-3.7l6.23-7.69,11.82-14.61-16.72-9.73a113,113,0,0,0,8.38,72.82l13.68-13.68c-6.68-4-15.55-8.62-18.47-16.38-1.9-5.05-6.75-8.51-12.3-7-4.85,1.34-8.89,7.22-7,12.3Z"/><path class="cls-8" d="M252.61,476.69c-9.92,31.92-7.27,66.14,6.37,96.52,2.21,4.93,9.38,6.11,13.68,3.59,5.07-3,5.81-8.74,3.59-13.69-11.42-25.43-12.59-54.6-4.36-81.11,3.83-12.32-15.47-17.59-19.28-5.31Z"/><path class="cls-8" d="M701.51,449.37q-1,61.61-7.74,122.91l19.65-2.66-8.52-61.4c-1.4-10.07-2.82-20.13-4.19-30.21-.35-2.6-2.94-16.41,2.25-16.79l-9.64-12.66-5.16,20.93c-3.08,12.49,16.2,17.82,19.28,5.31q2.58-10.46,5.17-20.92c1.45-5.9-3-13.14-9.65-12.66-11.77.85-20.5,9.6-22.44,21.15-2,12.19,1.53,25.44,3.2,37.53l10.41,75c.67,4.85,6.62,7.81,11,7.16,5.26-.79,8.11-4.73,8.67-9.82q6.75-61.24,7.74-122.91c.2-12.88-19.8-12.88-20,0Z"/><path class="cls-8" d="M681.47,470.64c12.87,0,12.89-20,0-20s-12.89,20,0,20Z"/><path class="cls-8" d="M322.71,505.69a185.22,185.22,0,0,1,71.68,48.82L406.5,538.8l-37.91-26.18c-4.45-3.07-11.11-.83-13.69,3.58-2.9,5-.87,10.61,3.59,13.68l37.92,26.19c9.7,6.7,19.47-7.66,12.12-15.71A206.68,206.68,0,0,0,328,486.41c-5.06-1.9-11,2.1-12.3,7-1.54,5.6,1.9,10.4,7,12.3Z"/><path class="cls-8" d="M537.65,521.11a154.72,154.72,0,0,1,77.57,17.16L622.93,520l-67.65-18.62c-12.42-3.43-17.72,15.86-5.31,19.28l67.64,18.63c10.7,3,18-12.94,7.7-18.28a175.29,175.29,0,0,0-87.66-19.89c-12.83.5-12.89,20.5,0,20Z"/><path class="cls-8" d="M576.26,536.83l33,7.34c12.54,2.79,17.9-16.49,5.32-19.29l-32.95-7.34c-12.54-2.79-17.9,16.49-5.32,19.29Z"/><path class="cls-8" d="M295.8,508.1l78.47,66.5c4.12,3.49,10.11,4,14.15,0,3.58-3.58,4.14-10.63,0-14.14L309.94,494c-4.12-3.49-10.1-4-14.14,0-3.58,3.58-4.14,10.64,0,14.14Z"/><path class="cls-8" d="M521.2,540.12l90.4,21.45c12.51,3,17.85-16.31,5.32-19.29l-90.4-21.45c-12.51-3-17.86,16.31-5.32,19.29Z"/><path class="cls-8" d="M438.61,548l6.82,12.11c3.25,5.77,11.1,6.35,15.71,2A18,18,0,0,0,467,547.41c-.42-4.44-2.81-8.4-7.34-9.64-4.1-1.13-9.28.69-11.29,4.6-7.68,14.89-15.18,31.4-10.93,48.5,1.94,7.84,6.47,14.6,11.1,21.08q8.06,11.26,16.15,22.49c3.15,4.38,8.71,6.5,13.68,3.59,4.33-2.53,6.76-9.27,3.59-13.68l-13.84-19.28c-3.75-5.22-8.27-10.59-10.56-16.66-4.59-12.13,2.62-25.37,8.08-35.95L447,547.41c.33,3.45.45.2.05.58l15.7,2-6.82-12.11c-6.32-11.21-23.6-1.14-17.27,10.09Z"/><path class="cls-9" d="M479.37,552c-7.73,9.31-16.11,19.83-15.43,32.66.32,6.14,3.16,11.31,6.55,16.29,4.11,6,8.37,12,12.56,18,1.83,2.62,6.17.12,4.32-2.52l-10-14.35c-3.17-4.54-6.91-9.21-8.05-14.76-2.51-12.2,6.41-23,13.63-31.74,2-2.46-1.48-6-3.54-3.54Z"/><path class="cls-4" d="M458.84,533.26l4.66,6.63a8,8,0,0,0,4.48,3.45,7.68,7.68,0,0,0,5.78-.76c3.18-2.05,5.1-6.82,2.69-10.26l-4.66-6.63a8,8,0,0,0-4.48-3.44,7.63,7.63,0,0,0-5.78.75c-3.18,2-5.1,6.83-2.69,10.26Z"/><path class="cls-4" d="M473.13,559.77l-5.34,30.05h14.47c-2.95-7.6-1.83-14.81,3.14-21.26L472.45,561c-12.27,19.81-6.35,46,11.79,59.87,4,3.07,9.77-.34,11-4.48,2.23-7.41,4.41-14.83,6.7-22.22.45-1.46,4.37-8.67-2.19-5.12-.81.44-3.62,3.65-5.09,4.79l12.53,3.31-10.07-43.37c-2-8.48-14.42-6.24-14.74,2l-1.76,45.33c-.37,9.65,14.63,9.64,15,0l1.76-45.33-14.73,2,10.08,43.37c1.41,6.06,8.39,6.52,12.53,3.31,5.37-4.17,10-9.57,9.32-16.78s-6.61-13.13-14.06-12.08c-6.86,1-10.53,7.08-12.58,13.1-2.66,7.8-4.79,15.82-7.17,23.71l11-4.48c-11.78-9-14-27.12-6.41-39.34a7.62,7.62,0,0,0-2.69-10.27c-3.84-2.3-7.8-.5-10.26,2.69a34.3,34.3,0,0,0-4.66,32.83c2.38,6.11,13,8.07,14.47,0l5.33-30c1.67-9.44-12.78-13.49-14.46-4Z"/><path class="cls-4" d="M496.27,570.76l1,14.62c.27,4,3.25,7.5,7.5,7.5,3.84,0,7.77-3.44,7.5-7.5l-1-14.62c-.27-4-3.25-7.5-7.5-7.5-3.85,0-7.78,3.44-7.5,7.5Z"/><path class="cls-10" d="M470.92,556.41c-2.94,12.27-10.57,23-9,36.15,1.56,12.71,10.38,22.59,19,31.39,6.76,6.92,17.36-3.69,10.61-10.6-6.31-6.45-14.47-14.25-14.9-23.89-.45-10,6.44-19.51,8.72-29.06,2.25-9.39-12.21-13.39-14.46-4Z"/><path class="cls-10" d="M463,528.21l5.82,15.94c2.06,5.63,10.5,7.94,13.71,1.79L496,520.11c4.46-8.55-8.49-16.14-12.95-7.57l-13.47,25.83,13.71,1.79-5.82-15.94c-3.28-9-17.78-5.11-14.46,4Z"/><path class="cls-11" d="M91.24,903c12.48,8.54,30.13,6.42,40.55-4.39,6.7-7-3.89-17.57-10.61-10.61a17.14,17.14,0,0,1-22.37,2c-8-5.46-15.5,7.53-7.57,13Z"/><path class="cls-11" d="M146.64,890.53c16,11.81,36.44,15.74,55.84,11.76,9.45-1.93,5.45-16.39-4-14.46C182.83,891,167,887,154.21,877.57c-3.29-2.42-8.34-.52-10.26,2.7-2.27,3.78-.56,7.87,2.69,10.26Z"/><path class="cls-11" d="M133,855.75c-7.61-5.48-17.7,2.17-16.58,10.8,1.51,11.65,14.25,11.92,23.3,12.17,9.45.26,19.75,1.74,29.11.16s16.13-9.58,14-19.16c-2.13-9.41-16.6-5.42-14.47,4-.29-1.31.46-.49-.54,0a9.65,9.65,0,0,1-4,.6c-3.86.14-7.79-.17-11.65-.28l-11.46-.32-5.72-.16-2.73-.1q-4.73-1.41-6.79,5.21c3.31,2.39,8.32.55,10.26-2.69,2.25-3.75.58-7.9-2.69-10.26Z"/><path class="cls-11" d="M204.18,894.08c5.45,7.75,14.8,12.22,24.28,9.63s15.24-11.17,16-20.59c.79-9.62-14.22-9.57-15,0a6.82,6.82,0,0,1-12.33,3.39c-5.52-7.83-18.53-.35-12.95,7.57Z"/><path class="cls-11" d="M105.17,928a105.88,105.88,0,0,0,70.05-5.61c3.74-1.64,4.53-7,2.69-10.26-2.19-3.86-6.57-4.31-10.26-2.7a89.27,89.27,0,0,1-58.49,4.11c-9.34-2.49-13.32,12-4,14.46Z"/><path class="cls-11" d="M199.57,930.07a66.39,66.39,0,0,0,70.68-8.68c3.16-2.59,2.63-7.92,0-10.61-3.07-3.13-7.49-2.55-10.61,0-14.38,11.76-35.74,14.28-52.5,6.34-8.67-4.12-16.29,8.81-7.57,13Z"/><path class="cls-11" d="M723.25,859.9c17.8,13.15,43.39,11,59.67-3.47,7.22-6.43-3.42-17-10.61-10.61C760.7,856.16,743.05,856,730.82,847c-3.28-2.43-8.34-.52-10.26,2.69-2.27,3.79-.55,7.87,2.69,10.26Z"/><path class="cls-11" d="M765.77,810.32c-6.72-.16-13.16,4.51-14.19,11.35-.46,3,.23,7,3.45,8.47,25.7,11.61,56.71,6.58,76.84-13.49,6.84-6.83-3.76-17.43-10.61-10.61-15,15-39.17,20-58.66,11.15l3.44,8.47c.51-3.38.08-.33-.27-.34,9.65.25,9.65-14.75,0-15Z"/><path class="cls-11" d="M793.8,854.2c22.84,15.28,54.81,14.81,77.06-1.41,3.3-2.41,4.84-6.49,2.69-10.26-1.85-3.25-7-5.08-10.26-2.69a54.18,54.18,0,0,1-61.92,1.41c-8-5.38-15.57,7.61-7.57,13Z"/><path class="cls-11" d="M885.9,865.7l30.34,2.19c9.63.7,9.59-14.31,0-15L885.9,850.7c-9.63-.7-9.59,14.3,0,15Z"/><path class="cls-11" d="M882.42,876.78a74.51,74.51,0,0,0,55.32,5.68c9.25-2.68,5.31-17.16-4-14.46A58.82,58.82,0,0,1,890,863.83c-8.55-4.46-16.14,8.48-7.57,12.95Z"/><path class="cls-11" d="M876.74,823.05c19.29,12.5,45-2.33,43.76-25.34-.54-9.59-15.55-9.66-15,0,.67,11.91-11.14,18.9-21.19,12.39-8.13-5.26-15.66,7.72-7.57,12.95Z"/><path class="cls-11" d="M851.38,792.06c17.23,11.47,38.43-.54,40.51-20.14.42-4-3.76-7.5-7.5-7.5-4.41,0-7.07,3.45-7.5,7.5-1,9.15-11.12,11.73-17.94,7.19-8.06-5.36-15.58,7.62-7.57,12.95Z"/><path class="cls-11" d="M804.17,792.84l28,13.6c8.65,4.2,16.26-8.73,7.57-13l-28-13.6c-8.65-4.2-16.27,8.73-7.57,13Z"/><path class="cls-11" d="M829.38,775.74l39.34-5.52c4-.56,6.23-5.68,5.23-9.22-1.2-4.32-5.18-5.81-9.22-5.24l-39.34,5.51c-4,.56-6.23,5.69-5.24,9.23,1.21,4.31,5.18,5.8,9.23,5.24Z"/><path class="cls-12" d="M478.8,351.51c-.89,2.35-7,20.83-8.15,20.73l3.78,1c1.22,1.16,1.48,2.12.79,2.87-.21.23-.07.13.41-.31.89-.17,2.34-1.46,3.2-2a23.05,23.05,0,0,0,6-5,13.6,13.6,0,0,0,1.64-15.3c-4.36-8.62-17.3-1-12.95,7.57q.45-2.88-.93-1.07c-.67.43-1.35.85-2,1.24a39.89,39.89,0,0,0-4.1,2.72,15.36,15.36,0,0,0-5.66,8.08c-1.76,6.78,1.75,13.67,8.83,15,6.92,1.35,12.5-3.66,15.12-9.56,3.19-7.17,5.7-14.71,8.5-22,3.44-9-11-12.93-14.47-4Z"/><path class="cls-12" d="M539.4,353.64c1.19,7.06,3.35,14.26,9.53,18.53,5.93,4.08,14.71,4.36,19.86-1.22,4.93-5.33,4.9-13.6,1.36-19.69s-10.28-9.32-15.89-13.44c-3.26-2.4-8.36-.55-10.26,2.69-2.22,3.81-.58,7.85,2.69,10.26,2.75,2,5.84,3.61,8.46,5.78,1.68,1.38,1.59,2.59,2.57,4.26-.23.55.06.36.89-.57a.85.85,0,0,1-.64-.11c-.07-.19-1.14-.78-1.31-1-2.09-2.24-2.31-6.65-2.8-9.5-.67-4-5.6-6.24-9.22-5.24-4.23,1.16-5.92,5.21-5.24,9.22Z"/><path class="cls-3" d="M242.59,226.41c-18.5,39.65-33.22,82.93-29,127.31,2,20.78,7.69,41.23,18.43,59.24,9.91,16.6,23.54,30.69,38.65,42.64,17.31,13.7,36.23,25,55.27,36.08,8.37,4.86,15.93-8.1,7.57-12.95C303,461,270.25,442.27,249.65,412.68c-22.68-32.59-25.8-74-17.66-111.95,5-23.16,13.56-45.33,23.55-66.75,4.06-8.7-8.87-16.32-12.95-7.57Z"/><path class="cls-8" d="M329.22,507.86a318.57,318.57,0,0,0,129.72,11.76c5.37-.63,10-4.15,10-10,0-4.92-4.6-10.64-10-10a304.13,304.13,0,0,1-124.4-11c-12.34-3.76-17.62,15.53-5.32,19.28Z"/><path class="cls-8" d="M566.87,520.23A208.4,208.4,0,0,0,660,493.7c11.22-6.31,1.15-23.6-10.09-17.27a186,186,0,0,1-83.06,23.8c-12.82.56-12.89,20.57,0,20Z"/><path class="cls-8" d="M648.59,491.32c12.14,3.84,25-1.46,31.87-11.87,3-4.5.88-11.06-3.59-13.68-4.89-2.86-10.7-.93-13.68,3.59a8.38,8.38,0,0,1-3.61,2.73c-2.55.88-3.14.75-5.68-.06-12.29-3.89-17.56,15.41-5.31,19.29Z"/><path class="cls-8" d="M373.88,572.28a20.46,20.46,0,0,0,19.32,9.19c9.13-.83,15.5-6.75,22.22-12.35a100.75,100.75,0,0,1,40.39-19.9c12.49-3.08,7.2-22.38-5.32-19.29A121.06,121.06,0,0,0,414,545.56a157.44,157.44,0,0,0-15.84,12.1,31.11,31.11,0,0,1-6.37,3.94c-.34.17-1.37-.51-.62.58-3-4.45-8.79-6.45-13.68-3.59-4.42,2.59-6.65,9.2-3.59,13.69Z"/><path class="cls-8" d="M521,537.82l51.87,14.49,25,7c7.46,2.09,15.31,4.74,23.17,4.41,17.17-.72,24.34-14,30.72-27.87q11.07-24,22.13-48c2.26-4.9,1.39-10.77-3.58-13.68-4.32-2.52-11.41-1.34-13.69,3.59q-9.83,21.33-19.67,42.67c-2.82,6.11-5.26,12.7-8.9,18.39-2.71,4.23-5.95,5.39-10.93,4.77-7.27-.91-14.58-3.73-21.62-5.7l-23.05-6.44-46.12-12.89c-12.41-3.47-17.71,15.82-5.31,19.29Z"/><path class="cls-8" d="M283.71,581.41a345.41,345.41,0,0,0,176.45,54.24c12.87.36,12.86-19.64,0-20a325.27,325.27,0,0,1-166.35-51.51c-10.87-7-20.91,10.33-10.1,17.27Z"/><path class="cls-8" d="M505.07,641.25A416.81,416.81,0,0,0,696,591.46c11.33-6.11,1.25-23.38-10.09-17.27a394.7,394.7,0,0,1-180.8,47.06c-12.86.2-12.9,20.2,0,20Z"/><path class="cls-3" d="M247.21,202.55l-13.44,29.52,12.95,7.57,13.6-31.25-14-3.79c.42,9-3.06,18-10.41,23.46-3.27,2.44-4.86,6.46-2.69,10.26,1.83,3.22,7,5.11,10.26,2.69,11.57-8.64,18.53-21.79,17.84-36.41-.32-6.71-10.78-11.12-14-3.78l-13.59,31.25c-1.63,3.74-1.08,8,2.69,10.26,3.2,1.92,8.58,1,10.26-2.69l13.44-29.52c1.7-3.71,1-8-2.69-10.26-3.2-1.92-8.58-1-10.26,2.69Z"/><path class="cls-3" d="M248.3,211.89l-10.73,25.58c-1.57,3.76,1.71,8.22,5.24,9.23,4.31,1.23,7.67-1.52,9.23-5.24l10.72-25.59c1.58-3.76-1.7-8.21-5.23-9.22-4.31-1.24-7.67,1.52-9.23,5.24Z"/><path class="cls-3" d="M214.57,453.67a174.46,174.46,0,0,1,1.21,62.27c-.65,4,1.05,8,5.24,9.23,3.57,1,8.58-1.25,9.23-5.24A195.16,195.16,0,0,0,229,449.68c-1.89-9.45-16.35-5.45-14.46,4Z"/><path class="cls-3" d="M224.8,484l1.13,5.62a7.55,7.55,0,0,0,3.44,4.48,7.5,7.5,0,0,0,11-8.47L239.27,480a7.51,7.51,0,0,0-14.47,4Z"/><path class="cls-3" d="M739.14,429.18a107.64,107.64,0,0,0,12.81,61L762.21,480c-8.25-4.61-13.66-14.13-12.11-23.72.66-4-1-8-5.23-9.22-3.58-1-8.58,1.24-9.23,5.24-2.63,16.21,4.44,32.52,19,40.65,6.64,3.7,13.84-3.67,10.27-10.26a93.39,93.39,0,0,1-10.77-53.47c.88-9.61-14.13-9.55-15,0Z"/><path class="cls-3" d="M216.33,459.31c2.26,16.11,5.12,43.7-15.46,49.59-9.26,2.66-5.32,17.14,4,14.47,12-3.45,20.45-13,24.85-24.43,5.35-13.92,3.09-29.28,1.08-43.61-.56-4-5.68-6.23-9.22-5.24-4.32,1.21-5.81,5.18-5.24,9.22Z"/></g><g id="Layer_1" data-name="Layer 1"><path class="cls-13" d="M591.38,119a169.76,169.76,0,0,1,77.79-40.28c9.42-2.09,5.43-16.56-4-14.46a184.92,184.92,0,0,0-84.41,44.13c-7.14,6.53,3.49,17.12,10.61,10.61Z"/><path class="cls-13" d="M669.48,78.46c9.65,0,9.67-15,0-15s-9.67,15,0,15Z"/><path class="cls-13" d="M668.88,77.26A105.77,105.77,0,0,1,708.36,98.9a109.69,109.69,0,0,1,15,15.94c4.4,5.78,10.28,13.4,11.82,20.61v-4c.8-.31.48-.06-1,.77l-1.27.92c-1.57,1.16-3.1,2.37-4.56,3.66a56.45,56.45,0,0,0-6.5,6.8,78.67,78.67,0,0,0-10.62,17c-6.41,14.15-9.15,29.29-11.66,44.51l13.71-1.79c-7.33-10.74-14.66-21.5-21.11-32.79-3.14-5.48-6.09-11.09-8.68-16.86-2.5-5.54-4.28-11.38-6.88-16.88-4.29-9.08-10.59-17-15.81-25.53-4.22-6.9-8.89-15.49-5.33-23.67,1.63-3.74,1.07-8-2.69-10.26-3.16-1.89-8.65-1-10.26,2.69-10,23,7.86,40.59,18.5,59.31,2.91,5.12,4.71,10.56,7,16a195,195,0,0,0,9,18.85c7,12.74,15.15,24.75,23.32,36.73,3.24,4.75,12.57,5.11,13.71-1.79,3-17.94,5.91-36.64,16.31-52a51,51,0,0,1,6.88-8.14c2.91-2.79,6.76-4.62,9.5-7.51,6.65-7,.89-16.25-3-23A122.62,122.62,0,0,0,672.87,62.8c-9.27-2.76-13.23,11.71-4,14.46Z"/><path class="cls-13" d="M677.26,178.69a69.67,69.67,0,0,0-2.21,21.61c.55,9.6,15.56,9.66,15,0a55.91,55.91,0,0,1,1.67-17.62c2.43-9.35-12-13.34-14.46-4Z"/><path class="cls-13" d="M324.91,140.41c9.65,0,9.67-15,0-15s-9.66,15,0,15Z"/><path class="cls-13" d="M332,128.74c-10.87-15-22.13-30.19-35.34-43.2-12.13-11.94-26.32-21-43.52-22.85-4-.43-7.5,3.76-7.5,7.5,0,4.41,3.46,7.07,7.5,7.5,14,1.51,25.69,11,35.17,20.74,11.3,11.65,21.21,24.78,30.74,37.88,2.4,3.3,6.49,4.84,10.26,2.69,3.26-1.85,5.07-7,2.69-10.26Z"/><path class="cls-13" d="M249.19,65.32c-9.4,5-9.82,16.61-10.91,25.94-1.43,12.25-2.19,24.56-2.52,36.89-.66,24.71.46,49.42,1.57,74.1l14-3.78a233.26,233.26,0,0,0-32.2-47.05,224.34,224.34,0,0,0-19.79-19.82q-5.26-4.65-10.79-8.94-2.72-2.11-5.46-4.16c-1.11-.82-2.22-1.63-3.34-2.43l-1.35-.95q-1.68-1.35.42,1.07v4c-.83.59-.59.28.71-.94.74-.79,1.49-1.58,2.25-2.36,1.13-1.17,2.29-2.33,3.46-3.46q4.09-4,8.48-7.65a149.86,149.86,0,0,1,18.35-13.1A156.49,156.49,0,0,1,253.67,75c9.33-2.46,5.37-16.94-4-14.46a171,171,0,0,0-75.07,42.27c-4.54,4.4-12,10.17-10.27,17.37,1.6,6.69,10.54,10.66,15.52,14.62a223.16,223.16,0,0,1,31.34,30.35A217.05,217.05,0,0,1,238.36,206c3.39,6.56,14.3,3.55,14-3.79-1-22.09-2-44.19-1.72-66.31.13-10.71.56-21.42,1.43-32.09.45-5.5,1-11,1.72-16.46.4-3.07.61-7.84,3-9.12,8.52-4.54.95-17.49-7.57-13Z"/><path class="cls-13" d="M203.61,155.75a707.81,707.81,0,0,1,11.26,98.87c.42,9.62,15.43,9.67,15,0a737.43,737.43,0,0,0-11.79-102.86c-1.77-9.47-16.23-5.46-14.47,4Z"/><path class="cls-13" d="M318.33,129.67c-37.79,33.9-73.91,71.76-96.4,117.81-21.29,43.59-29.7,95.69-14.32,142.55,15.06,45.91,52.44,78.68,96,97.19C354.75,508.94,411.3,511,466,513.32c51.18,2.16,104.63,2.86,152.56-17.81,43.23-18.65,75.8-55.12,93.46-98.34,38.38-93.93-4.95-202.86-81.83-263.13A263.26,263.26,0,0,0,500.7,79.62c-49.93-6.26-101.5,2.76-146.76,24.57a252.71,252.71,0,0,0-31.6,18.2c-8,5.38-.47,18.38,7.57,13A250.3,250.3,0,0,1,463.45,92.76a243.6,243.6,0,0,1,129.6,33.92c79.42,46.87,134.42,142.23,114.12,235.58-9,41.51-32.87,80.6-68.12,104.9-40.19,27.7-90,32.57-137.53,32.17-25.42-.21-50.89-1.44-76.25-3-26.84-1.67-53.68-4.43-79.82-10.95-42.79-10.66-85.6-32.75-109.91-70.91-25-39.25-25.41-89.07-11.57-132.35,14.62-45.67,45.51-84.31,79.14-117.6,8.39-8.31,17-16.34,25.82-24.23,7.2-6.46-3.43-17-10.6-10.6Z"/><path class="cls-13" d="M517.3,419.76c9.66,0,9.67-15,0-15s-9.66,15,0,15Z"/><path class="cls-13" d="M516.57,404.37c-30.55,2.78-73.09,6.19-91.12-25.14-7.28-12.65-5.36-27.42,1.88-39.61,8-13.39,20.92-22.6,35.5-27.62,16.45-5.66,33.86-6.93,51.12-7.59,18.38-.7,37.43-2,55.55,1.85,14.51,3.08,29,9.91,37.91,22.19,8.59,11.77,9.46,26.61,2.87,39.54-18.7,36.72-64.34,36.94-100,36.43-9.65-.14-9.66,14.86,0,15,39.21.57,83.36-1.22,108.33-36.24,10.16-14.24,14.49-33.2,8.2-49.93-6.16-16.38-19.79-28.81-35.64-35.76-19.49-8.54-41.07-9.09-62-8.55-20.71.52-41.89.9-62.06,6.12-18.21,4.72-35.13,13.85-46.94,28.76-11,13.87-17.06,31.53-13.12,49.17,4.35,19.48,20.64,33.84,38.44,41.23,22.47,9.32,47.48,7.3,71.11,5.15,9.54-.86,9.63-15.87,0-15Z"/><path class="cls-13" d="M466.73,346c-7.45,10.11-16.31,26.38-10.38,39.11a16.46,16.46,0,0,0,16.22,9.43c7.9-.56,13.86-5.53,18.13-11.86,7.42-11,14.74-27.06,6.55-39.53-7.49-11.41-25.46-10.34-29.86,3.13-3,9.2,11.47,13.14,14.46,4-.23.72-.29-.79,1-.23.26.1.55.15.82.26,1.93.78,2.27,4.39,2.21,6.06-.26,6.42-5.05,15.07-9.06,19.93-1,1.24-4.57,4.73-6.57,3.13-1.27-1-.83-4-.64-5.3,1.09-7.42,5.67-14.64,10-20.55,2.42-3.29.52-8.34-2.69-10.26-3.78-2.27-7.87-.56-10.26,2.69Z"/><path class="cls-13" d="M527.76,347c2.38,12.78,6.23,27.28,18.53,34,12.07,6.62,28,3.72,33.16-10.15,5.28-14.26-4.54-29.41-15.93-37.45-11-7.75-28.59-7.17-35,6.25-4.15,8.66,8.78,16.28,13,7.57,6.51-13.61,31.56,9.9,22.95,20.32-3.71,4.47-11.15,1.09-14.26-2.41-5.25-5.92-6.53-14.65-7.93-22.14-1.77-9.48-16.23-5.47-14.46,4Z"/><path class="cls-13" d="M468,297.11c-2-39.09-5.19-81.65-34.12-111.18-12.49-12.75-28.81-21.41-46.78-22.6-19.85-1.32-39.21,7.08-54.37,19.39S306.14,212,297.33,229.3c-9.42,18.54-16.08,38.37-18.65,59.05-4.6,37,6.27,77,34.33,102.68,30,27.55,77.2,32.54,110.09,7.1,3.23-2.49,2.57-8,0-10.6-3.13-3.2-7.42-2.47-10.61,0-24.07,18.62-60,15.15-83.47-2.55-25.54-19.28-37.35-52.31-36.38-83.5.55-18.09,5.09-36,12.07-52.66,6.68-15.95,15.57-31.75,27.2-44.63s26.58-23,44-25.5c15-2.14,29.89,2.81,41.47,12.4,31.11,25.78,33.71,68.63,35.61,106,.49,9.6,15.49,9.66,15,0Z"/><path class="cls-13" d="M569.67,289.52a173.74,173.74,0,0,1-6-46.48c.11-12.33,1.38-25.3,6.73-36.58,5.18-10.92,13.93-18.88,26-21.23,12.5-2.43,25.78,1.34,36.38,8,11.24,7.09,20.22,17.42,27.84,28.19a288.71,288.71,0,0,1,22.79,37.79c12,24.14,19,53.2,8,79.06-10,23.42-39.22,39.78-62.93,25.25-8.26-5.06-15.8,7.91-7.57,12.95,25.4,15.58,58.88,5,76-17.84,19.4-25.94,17.92-61.62,6.77-90.55-6.28-16.32-15-31.51-24.54-46.12-8.59-13.17-18.2-26-30.61-35.87-23.8-18.84-62.08-25-83.46,1.1-10.44,12.72-14.54,29-15.85,45.09-1.68,20.46.79,41.41,6.08,61.2,2.49,9.32,17,5.37,14.46-4Z"/><path class="cls-13" d="M297.51,477.92C270.8,531.77,268,596.5,291.33,652.08c20.58,49,60.54,89.72,109.39,110.84,29.27,12.65,60.79,17.9,92.43,20.1,32.1,2.23,65.78,2.78,96.56-7.93,49.71-17.29,85-61.34,101.68-110.06,20.59-60.1,11.26-126.23-6.62-185.74q-3.51-11.66-7.46-23.17c-3.1-9.08-17.59-5.18-14.47,4,19.53,57.29,33.58,120.23,19.9,180.48-10.43,45.93-37.94,90.18-80.32,112.7-25.85,13.74-55.29,16.48-84.11,15.89-30.88-.63-62.19-3.45-91.81-12.61-47.71-14.76-88.57-48.59-112.68-92.25-30.12-54.54-31-123.12-3.36-178.83,4.28-8.62-8.65-16.23-12.95-7.57Z"/><path class="cls-13" d="M284.7,591.5c9.65,0,9.66-15,0-15s-9.67,15,0,15Z"/><path class="cls-13" d="M280.12,591.81C379.81,650.13,501.34,665,612,631.86a422.84,422.84,0,0,0,89.77-38.73c8.37-4.82.82-17.78-7.57-13-96.71,55.76-213.84,69.16-320.59,36.45a405.08,405.08,0,0,1-85.94-37.77c-8.35-4.88-15.91,8.07-7.58,12.95Z"/><path class="cls-13" d="M345.72,730.59a274.35,274.35,0,0,1-7.14,107.95c-1,3.65,1.22,8.5,5.24,9.23L444.1,865.91c4.22.76,7.77-1.12,9.23-5.24l28.57-80.58c3.24-9.12-11.25-13-14.46-4q-14.29,40.29-28.58,80.59l9.23-5.24L347.8,833.3l5.24,9.23a293.18,293.18,0,0,0,7.14-115.92c-.55-4-5.7-6.23-9.23-5.24-4.33,1.21-5.79,5.18-5.23,9.22Z"/><path class="cls-13" d="M631.09,743.87c-4.88,38.15,1,76.69,16,112l6.47-11.28-111.91,8.12,7.23,5.51-15.95-79.64c-1.89-9.46-16.35-5.46-14.46,4l15.94,79.65a7.52,7.52,0,0,0,7.24,5.5l111.91-8.12c6.12-.45,8.76-5.94,6.48-11.29-14-32.85-18.48-69.11-14-104.44.52-4-3.82-7.5-7.5-7.5-4.48,0-7,3.46-7.5,7.5Z"/><path class="cls-14" d="M368.07,850.73a249.15,249.15,0,0,1-65.5,40.42c-4.84,2-9.89,4-13.63,7.69s-5.83,9.62-3.44,14.3c3,5.91,11,6.78,17.63,6.88l106.11,1.61c7.16.11,14.93,0,20.58-4.36,7.93-6.17,8.26-18,6.63-27.88S432,868.94,436,859.72"/><path class="cls-13" d="M362.77,845.43a245.67,245.67,0,0,1-57.55,36.43c-9.63,4.38-21.07,7.63-26,17.94-4.72,9.76-1,20.83,9,25.14,9.84,4.2,22.17,2.69,32.6,2.85l38.32.58,38.32.58c10.9.17,23.63,1.85,33.61-3.58,9.83-5.35,13.64-16.24,13.67-26.9,0-12.24-6.13-24.82-1.49-36.75,1.48-3.8-1.63-8.19-5.24-9.23-4.23-1.21-7.77,1.48-9.23,5.24-3.8,9.8-1.94,20.11-.17,30.13,1.18,6.65,2.81,15.88-1.65,21.74-4.81,6.32-15.77,4.56-22.62,4.46l-33.41-.51q-32.91-.49-65.83-1c-4.48-.07-17.59,0-11.53-7.72,2.3-3,6.55-4.54,9.88-6,4.73-2,9.48-4,14.13-6.26A259.7,259.7,0,0,0,373.37,856c7.37-6.26-3.29-16.83-10.6-10.6Z"/><path class="cls-15" d="M622.71,857.7c4.1,11.65,16.16,18.48,27.88,22.38s24.32,6.1,34.5,13.1c5.61,3.87,10.49,11.67,6.36,17.09-2.72,3.57-7.85,3.94-12.34,4l-83,1.15c-10.3.14-21.75-.14-29.21-7.26-5.69-5.42-7.68-13.85-7.06-21.69s3.53-15.29,6.42-22.6"/><path class="cls-13" d="M615.48,859.69c5.54,14.43,18.33,22.54,32.44,27.39,7.69,2.65,15.68,4.36,23.27,7.29a40,40,0,0,1,10.11,5.29c1.08.84,5.27,4.6,4.11,6.34-.64,1-5.31.75-6.3.77-4.93.12-9.87.14-14.81.21l-28.64.39-29.63.41c-7.73.11-15.89.86-23.55-.51-7.89-1.4-13.51-5.73-14.9-13.92-1.59-9.4,2.6-18.94,6-27.49,1.49-3.8-1.64-8.19-5.24-9.22-4.24-1.22-7.75,1.48-9.23,5.23-6.84,17.41-12.25,40.42,5.19,53.74,7.19,5.5,16.33,7,25.17,7.27,10.77.36,21.63-.17,32.4-.32l33.58-.46,16.79-.23c5.15-.08,10.7.28,15.74-1,8.8-2.33,14.46-10.75,11.9-19.79s-10.74-15-19-18.77c-10-4.51-20.74-6.55-31-10.36C642,869,633.12,864,629.94,855.71c-3.42-8.92-17.93-5.05-14.46,4Z"/><path class="cls-13" d="M304.18,498.48c9.65,0,9.67-15,0-15s-9.67,15,0,15Z"/><path class="cls-13" d="M300.44,495.78l88.92,74c2.54,2.12,6.08,3,9.09,1.17l83.66-51.42c8.21-5.05.68-18-7.57-13L390.88,558l9.09,1.17L311,485.18c-7.37-6.13-18,4.42-10.6,10.6Z"/><path class="cls-13" d="M653.62,465.5q-10.53,27.5-21,55c-2.21,5.76-4.73,14.07-10.79,16.91-6.94,3.24-16.69-1.42-23.37-3.38L484.68,500.62c-9.28-2.73-13.24,11.74-4,14.46l97.48,28.64c7.91,2.32,15.82,4.69,23.74,7,7.12,2,14.69,3.67,22,1.79,13.94-3.58,19.19-17.77,23.8-29.82l20.34-53.17c3.45-9-11-12.93-14.46-4Z"/><path class="cls-13" d="M452.49,537.8c9.66,0,9.67-15,0-15s-9.66,15,0,15Z"/><path class="cls-13" d="M451.1,533.52c5.94,13.77,16.09,28.93,33.34,26.22,7.34-1.16,13.71-5.54,18.89-10.7s9.46-11.65,15.9-15.58c8.23-5,.7-18-7.57-13-5.24,3.2-9.46,7.42-13.5,12-3.68,4.15-7.37,8.78-12.45,11.28C474,549.52,467.65,534.3,464.05,526c-1.62-3.74-7.05-4.51-10.26-2.69-3.87,2.2-4.29,6.57-2.69,10.26Z"/><path class="cls-13" d="M463.05,550.15c-8.26,13.05-16.81,28.69-11.56,44.58,2.57,7.78,8.23,13.92,13.15,20.3l16.73,21.72c3.46,4.48,9.61,5.11,13,0l15.23-23.29c4.76-7.27,11.65-15.13,14.36-23.45,2.79-8.57-2.22-15-6.69-21.86L502.08,545c-5.27-8-18.26-.53-12.95,7.57l12.54,19.13c2.09,3.19,4.23,6.35,6.27,9.57s2.14,3.84,0,7.27c-8.57,13.7-17.71,27.08-26.56,40.61h13L480,610.56c-4.26-5.54-9.19-11-12.7-17-6.92-11.95,2.4-25.82,8.72-35.81,5.18-8.18-7.79-15.72-12.95-7.57Z"/><path class="cls-13" d="M677.34,461.44c10.8-6.4,28.27-16.66,39.56-5.85,4.94,4.73,7.66,11.61,10.48,17.71l11.78,25.5c3.14,6.8,9.59,16.31,8.86,24.1-.7,7.38-9.56,14.27-14.19,19.37l-38.34,42.17c-6.48,7.13,4.09,17.77,10.6,10.61l35.66-39.21c10.55-11.62,24.12-22.83,20.54-40.18-1.63-7.89-6-15.4-9.36-22.67l-11-23.75c-5.74-12.42-11.53-25.83-25.19-31.17-16-6.26-33.35,2.33-47,10.42-8.3,4.91-.76,17.89,7.57,12.95Z"/><path class="cls-13" d="M735.5,456.05A249.44,249.44,0,0,0,789,363.72l-14.73-2c.34,12.24-.32,25,1.31,37.13,1.3,9.69,8,16.78,17.72,18.28a27.84,27.84,0,0,0,24.34-8.25c7.25-7.57,10.45-17.81,13.17-27.68l-14.73-2c-2.58,21.61-8.46,43.11-19.33,62.07S770.31,475.57,751.78,487c-8.2,5.06-.67,18,7.57,12.95,20.67-12.76,38.21-30,50.32-51.1,12.27-21.39,18.48-45.31,21.38-69.64,1-8.55-12.54-9.92-14.73-2-2.63,9.52-7,27-20.23,25.28-7-.9-6-8.12-6.1-13.57l-.75-27.21c-.24-8.53-12.15-10.08-14.73-2a231.86,231.86,0,0,1-49.61,85.7c-6.5,7.12,4.08,17.75,10.6,10.61Z"/><path class="cls-13" d="M298.56,492.86c9.65,0,9.67-15,0-15s-9.67,15,0,15Z"/><path class="cls-13" d="M291.49,480.53c-3.9,3.1-14.87-7.35-17.87-9-7.24-3.88-15.34-4.43-22.64-.38-7,3.9-11.81,10.83-16.13,17.37-5,7.52-9.54,15.23-12.8,23.65-6.5,16.78-3.63,34,8,47.75,11.88,14,29.87,20.31,46.75,26,9.18,3.08,13.11-11.4,4-14.46-14.23-4.79-29.5-9.79-39.63-21.54-10.35-12-8.73-26.43-1.8-39.73a134.72,134.72,0,0,1,11.86-19c3.11-4.12,7.39-9.22,13.08-7.48,6.55,2,11.34,8.11,17.92,10.47,7.17,2.57,14,1.66,19.92-3.07,3.2-2.54,2.6-7.94,0-10.6-3.1-3.17-7.45-2.51-10.61,0Z"/><path class="cls-13" d="M254.18,478.07a249.92,249.92,0,0,1-61.6-102.24c-2.07-6.65-12.9-7.6-14.47,0l-4.21,20.46c-.77,3.72-1.51,7.44-2.3,11.16-.49,2.3-.79,5.35-2.3,7.25-2.45,3.07-7.23,2.73-10.54,1.38-5.53-2.26-9.67-7.28-13.59-11.59-4.21-4.63-13.28-1.16-12.8,5.3,4.07,54.66,35.15,106.05,88,125.35,9.08,3.31,13-11.18,4-14.47-46.18-16.85-73.46-63.35-77-110.88l-12.81,5.31c10.19,11.19,25.55,23,41.08,13.73,7.38-4.42,9.38-12.32,11-20.18l5.94-28.83H178.11a266.18,266.18,0,0,0,65.47,108.86c6.82,6.85,17.42-3.75,10.6-10.61Z"/><path class="cls-13" d="M440.81,313.46c2.57-25.89-.63-52.93-10.22-77.19-4-10.16-10.1-20.46-21.41-23.47s-22.88,2-30.86,9.87c-8.4,8.25-14.11,19.55-19.58,29.83-6.22,11.68-11.71,24-15,36.8-5.71,22.16-4.88,47.37,7.59,67.21,12.87,20.48,38.47,32.93,62.32,25.86,9.24-2.74,5.3-17.22-4-14.47-15.86,4.71-33.13-2.63-43-15.49-11.12-14.46-13.3-34.61-10-52.09,3.86-20.46,13.75-39.5,24.68-57,4.57-7.31,10.68-15.51,20-16.34,8.59-.76,12.78,7.91,15.37,14.71a158.14,158.14,0,0,1,9.15,71.8c-.4,4,3.73,7.5,7.5,7.5,4.39,0,7.09-3.45,7.5-7.5Z"/><path class="cls-13" d="M597.1,294.37A166.54,166.54,0,0,1,602,239.55c1.49-5.66,3.26-15.49,9.35-18.22,7-3.13,13.67,4.78,16.93,9.81,9.64,14.91,17.27,31.65,23.84,48.11q5.08,12.72,9.19,25.82c2.18,6.95,4.86,14.7,3.71,22.1-1.27,8.1-8.59,11.37-16.16,10.55-8.85-1-16.64-7.23-23.4-12.51-3.22-2.51-7.46-3.08-10.61,0-2.62,2.56-3.19,8.12,0,10.6,8.39,6.55,17.16,13.5,27.76,16,9.71,2.26,20.43.82,28.23-5.71,17.24-14.45,6.72-40.74.58-58-7.73-21.72-17.19-43.51-29.35-63.16-5.43-8.78-12.93-16.93-23.58-18.73s-19.84,3.65-25,12.84c-5.72,10.3-8,23.12-9.76,34.63a183.05,183.05,0,0,0-1.67,40.71c.69,9.57,15.7,9.65,15,0Z"/><path class="cls-13" d="M427.93,316.94a411.63,411.63,0,0,0-2.1-45.1c-.67-6.53-1.5-13-2.45-19.54-.92-6.27-1.59-12.84-4.46-18.6-5.56-11.16-18.87-13.55-29.06-7-5.26,3.36-8.91,8.51-12.44,13.52-3.78,5.39-7.52,10.81-11.08,16.34-12.78,19.85-23.68,42.94-20.94,67.15,2.31,20.46,13.11,41.06,32.68,49.66,12.16,5.34,26.93,4.73,34.1-8,3.49-6.19,4.92-13.55,6.83-20.34l6.74-24c1.88-6.66-5.34-11.25-11-8.47-11.53,5.65-18,17.15-18.4,29.77-.11,3.68,1.62,13.69-2.59,16.15-3.92,2.27-8.68-6.59-10.42-9.07L370.68,331.3c-1.86-2.66-4-5.28-5.59-8.1,0,0-1.18-2.53-1.3-2.58a6.71,6.71,0,0,0-2.77.82l.92,1c2.71,6.47,7.53,12.7,11.09,18.76L385,361.5c3.6,6.12,14.52,3.87,14-3.79a65.38,65.38,0,0,1,19.68-51.93l-12.54-7.29c-2.67,6.81-8.69,22.21-18.85,18.76-7.55-2.57-3.85-17-5.26-22.86-2.5-10.39-14.51-15.27-22.67-7.38-9.47,9.15-3.05,21.29,4,29.36,4,4.6,10.72,1.57,12.54-3.31l23.43-62.89c1.14-3.07-.76-6.91-3.45-8.47-3.11-1.82-6.42-.91-9.09,1.17-14.54,11.37-20.46,31.83-14.84,49.31,2.18,6.8,12.58,7.46,14.46,0l8.75-34.69a44.77,44.77,0,0,1,1.8-6.68,11.64,11.64,0,0,0,.9-1.66c.17.7-2-.24-2.05-.13,0-.09,2.14,3.54,2.29,3.91a71.78,71.78,0,0,1,2.05,7.37c3.89,15,7.76,41.82-12.53,47.28l8.47,3.45c-7-13.25-5.53-30.52,4.07-42.17l-12.81-5.3L386.75,305h15l-.46-19.36c-.13-5.54-6.32-9.53-11.29-6.47a41,41,0,0,0-18.14,23.55c-2.73,9.52-2.14,22.7,8.58,26.85,8.16,3.15,17.54-1.62,21.77-8.86,6-10.23.55-22.17-4.69-31.39-2.95-5.21-9.84-4.48-12.95,0A47.39,47.39,0,0,0,378,328.88c2.55,9.3,17,5.35,14.46-4a32.8,32.8,0,0,1,5-28H384.57c2.28,4,6.67,10.47,5,15.37a4.76,4.76,0,0,1-2.17,2.7c-1.33.8-2.07.09-1.47.78-2.21-2.56.31-9.61,1.43-12.13a25.57,25.57,0,0,1,10.18-11.49l-11.29-6.48.46,19.36c.23,9.64,14.87,9.68,15,0l.56-41.46c.09-6.08-8.56-10.45-12.8-5.3a54.6,54.6,0,0,0-6.41,60.34,7.61,7.61,0,0,0,8.47,3.44c12.65-3.4,21.43-14.08,25.07-26.35,4.36-14.72.78-31.88-3.91-46.12-1.91-5.84-5.31-12.31-11.55-14.38-6.47-2.14-13.06.83-16.48,6.59-3.73,6.26-4.72,14.4-6.48,21.36l-6.31,25.05h14.46c-4.16-12.94.36-26.4,11-34.71l-12.53-7.3-23.44,62.89,12.54-3.31c-1.39-1.58-3.41-3.51-4.1-5.58a10.19,10.19,0,0,0-.46-1.48c-.5-1,.95-.27,0-.92-3.06-2.07-1.64,4.15-1.68,5.81-.23,9.32,1.29,19.07,9.31,25,7.84,5.77,18.86,4.73,26.71-.54,8.9-6,13.06-16,16.84-25.57,2.88-7.32-7.55-12.12-12.54-7.29a79.89,79.89,0,0,0-24.07,62.53l14-3.78-12.43-21.16c-4-6.76-7.49-14.36-12.51-20.4-4.15-5-11.16-7.84-17.25-4.37s-8,11.15-6,17.52c2.17,6.91,7.78,13,11.87,18.85,4.59,6.56,8.94,13.39,13.93,19.64,4,5.06,9.46,9.55,16.21,9.87s12.58-3.52,15.94-9.17c4.54-7.64,3-15.88,3.77-24.25.65-6.86,4.83-12,10.88-15l-11-8.47c-3.12,11.06-6.17,22.14-9.34,33.19-1,3.48-1.91,8.28-5.15,10.42s-8.28.84-11.7-.52c-14.18-5.67-22.11-20.7-24.48-35.07-3-18.13,4-36,12.85-51.43,5.12-8.94,11-17.44,16.9-25.87,3-4.29,11.87-15.6,15.71-6.12,1.94,4.79,2.24,10.58,3,15.64.94,6.47,1.67,13,2.25,19.46,1.21,13.38,1.72,26.79,1.63,40.22-.07,9.65,14.93,9.66,15,0Z"/><path class="cls-13" d="M392.71,248.15l4.22,52.65,9.5-7.23c-5.42-2.07-8.23-9.11-11.4-13.48-4-5.49-9.06-10.4-15.91-11.93-6.19-1.39-12.67.26-16.81,5.18S357,285.81,361,291.23c2.39,3.31,6.5,4.83,10.26,2.69,3.26-1.85,5.05-7,2.69-10.26-.9-1.24-.73-.47-.2-.66a3.2,3.2,0,0,1,2.84,0c3.6,1.2,5.88,5.07,7.84,8,4.86,7.37,9.55,13.74,18.06,17,4.36,1.67,9.86-2.66,9.49-7.23l-4.22-52.65c-.77-9.56-15.78-9.64-15,0Z"/><path class="cls-13" d="M604.34,302.15l3.2-38.95c.49-6.06.93-12.14,1.5-18.2.49-5.23,1.23-11.68,5.4-15.4,8.34-7.45,13.67,7.67,16.29,13.31l16.17,34.75c5.07,10.88,11.13,21.76,14.66,33.27,1.49,4.84,2.77,10.34,1.61,15.39s-4.45,5.47-9,4.23c-18.65-5.1-34.82-21.08-42.08-38.69a70.67,70.67,0,0,1-5-31.83,66.88,66.88,0,0,1,3.28-16.2c.16-.48,2.71-6.25.16-3.82-1,.92.95-2.73,0,.46-.32,1.09-.12,2.42-.54,3.66-1.82,5.37-5,10.15-6.6,15.67a62,62,0,0,0-2.4,17.07,60.94,60.94,0,0,0,8.94,32,62.85,62.85,0,0,0,21.13,20.65c7.35,4.37,20.17,10.71,28.47,5.5,5.12-3.22,6.09-9.19,4.75-14.69-1.51-6.17-4-12.25-6-18.28q-6.24-18.81-12.47-37.62L639,243.73c-1.94-5.82-3.3-12.63-6.71-17.81-3.2-4.86-8.68-7.81-14.53-6.22-5.46,1.48-8.62,6.82-10.07,11.92-6.9,24.33-1,52.86,11.06,74.52,3.74,6.74,13.68,3.39,14-3.79L635,246.86c.33-8.37-12.92-10.31-14.74-2a112.56,112.56,0,0,0,10.25,76.39c3.5,6.69,14,3.45,14-3.79l-.25-40.61h-15l4,40.86c1,10.62,2.72,21.44,14.55,24.75a22.33,22.33,0,0,0,24.57-9.64c5.77-9.49,3.9-21.7-1.67-30.78-4.13-6.73-13.26-3.36-14,3.79l-1.54,15.48c-.41,4,3.73,7.5,7.5,7.5,4.39,0,7.09-3.45,7.5-7.5l1.54-15.48-14,3.78c2.67,4.37,5.16,11.67,1.29,16.21-2,2.38-7.13,3.7-9.28.88-1.59-2.1-1.27-6.49-1.51-9l-1.32-13.62-2.64-27.24c-.91-9.43-15.05-9.84-15,0l.25,40.61,14-3.78a96.05,96.05,0,0,1-8.74-64.83l-14.73-2-2.26,55.49,14-3.79a90.91,90.91,0,0,1-10.92-33.23,93.77,93.77,0,0,1-.44-17,74.39,74.39,0,0,1,.9-8.15c.17-1,1.53-6,1.27-6.31l-2.78.14.28.59c-.06.17,1.41,3.73,1.4,3.72,1.05,3.13,2.08,6.27,3.12,9.4l6.86,20.69L643.87,306l3.11,9.41c.32.94,2.2,8.76,2.91,8.88l2.13-2.43c-.74-.15-1.46-.33-2.19-.54-1-.26-1.9-.55-2.83-.87a43.1,43.1,0,0,1-7.65-3.53,46.49,46.49,0,0,1-19.82-22.18,47.39,47.39,0,0,1-.55-34.19c3.76-10.14,11.56-21.18,2.15-31a13.53,13.53,0,0,0-14.27-3.69c-5.58,1.94-8.42,7.14-10.34,12.35a80.15,80.15,0,0,0-4.13,35.29,83.51,83.51,0,0,0,31,57.15c14.42,11.39,47.35,27.63,54.21-.38,2.93-11.92-1.4-24.24-6.14-35.06-5.27-12.06-11.06-23.91-16.61-35.85l-9.54-20.48c-2.68-5.78-5.1-11.76-9-16.86-7.88-10.31-21.19-12.73-31.4-4-10.8,9.19-10.72,24.42-11.79,37.4l-3.83,46.74c-.79,9.62,14.21,9.57,15,0Z"/><path class="cls-13" d="M433.06,456c32.62,14.21,69.64,22,105.28,18C570,470.46,602,454.38,612,422c2.87-9.23-11.6-13.18-14.47-4C589,445.53,559.44,457.6,533,459.49c-31.34,2.23-63.6-4-92.34-16.47-3.74-1.63-8-1.07-10.26,2.69-1.89,3.16-1,8.65,2.69,10.26Z"/><path class="cls-13" d="M67.39,901.33c-7.1-1.9-15-3.18-21.44,1.25-5.07,3.49-8,10-6.56,16.08,1.75,7.32,9,9.75,15.62,10.37,8.17.76,16.4,1.09,24.59,1.63,11.27.74,35.7,5.75,34.28-12.94-.49-6.54-5.2-11.62-11.25-13.7s-13.46.53-18.9-2.32c-8.54-4.48-16.13,8.46-7.57,12.95a26.48,26.48,0,0,0,10.93,3c3.28.22,7-.48,10.14.42l1.62.49q.5,1.69,1.72-1.64l-1.55,0c-1.8-.83-5.5-.34-7.5-.47l-6-.4-25.83-1.7c-.63,0-5.61-.86-5.94-.5-1-.4-.93.16.19,1.66-.26.47-.21.38.12-.27-.22-.06,2.94-.75,2.79-.75a24.43,24.43,0,0,1,6.52,1.3c9.33,2.5,13.32-12,4-14.46Z"/><path class="cls-13" d="M84.27,889.05l-1.12,1.12a7.74,7.74,0,0,0-2.2,5.3,5.64,5.64,0,0,0,.65,2.89,5.54,5.54,0,0,0,1.55,2.42,7.54,7.54,0,0,0,5.3,2.19,7.82,7.82,0,0,0,5.3-2.19l1.13-1.13a7.73,7.73,0,0,0,2.19-5.3,8.28,8.28,0,0,0-2.19-5.3,7.53,7.53,0,0,0-5.31-2.2,7.8,7.8,0,0,0-5.3,2.2Z"/><path class="cls-13" d="M91,896.11c2.39-7.8,12.8-9.93,19.77-11.14a103.11,103.11,0,0,1,35.35.28V870.78l-24.66,7.86c-9.16,2.92-5.25,17.4,4,14.46l24.65-7.85c6.5-2.07,7.75-13.08,0-14.47-15.37-2.74-31.19-3-46.51.34-11.79,2.56-23.32,8.81-27,21-2.83,9.25,11.64,13.21,14.46,4Z"/><path class="cls-13" d="M126.64,918.9l29,.9c7.57.23,16.15.49,20.87-6.6a12.65,12.65,0,0,0-4.41-18.12,20.53,20.53,0,0,0-9.83-2.48c-3.38,0-7.3,1.62-10.19-.54-3.27-2.44-8.35-.51-10.26,2.69-2.28,3.8-.54,7.85,2.69,10.26,4.17,3.12,9.29,3.3,14.28,2.85.87-.08,4.7.37,5.26,0l.48.18a1.89,1.89,0,0,1-.42-2.31c.54-1,.48-1.34-.17-1a3.3,3.3,0,0,1-1.39.22c-11.75-1.29-24.07-.67-35.9-1-9.65-.3-9.64,14.7,0,15Z"/><path class="cls-13" d="M107.55,940.24l91.87-.55c10-.05,26.6,1.61,30.43-10.78a13.82,13.82,0,0,0-5.95-15.58c-6.16-4-13.31-2.81-19.89-.6-9.11,3.06-5.2,17.55,4,14.46,2.16-.72,4.6-.91,6.67-1.62.3-.1,1.16.43,1.17.42-.56.42-.12-2.31,0-2.26-.34-.19-2.48.69-3,.76a39.08,39.08,0,0,1-5.52.16l-33.58.2-66.19.39c-9.65.06-9.67,15.06,0,15Z"/><path class="cls-13" d="M158.15,888.69a50,50,0,0,0,18.36-.79c5.94-1.29,11.84-3.47,18-3.4,3.77,0,8.78,1.11,10.11,5.2.3.92.62,2.13-.14,2.88a5,5,0,0,1-.76.47c-.93.67-1-.31-.78-.12-6.95-6.71-17.57,3.88-10.6,10.6a16.28,16.28,0,0,0,22,.3c6.83-6,6.9-16.56,2-23.83-5.12-7.61-14.48-10.82-23.37-10.48-10.24.38-20.62,6.22-30.86,4.71-4-.6-8,1-9.23,5.24-1,3.52,1.24,8.63,5.24,9.22Z"/><path class="cls-13" d="M141.7,862.22c9.47-6.43,22.85-7.05,32.16.26l3.3-12.54-8.68,2.34c-9.31,2.52-5.36,17,4,14.47l8.68-2.35c5-1.34,7.89-8.94,3.31-12.53-14.44-11.34-34.82-13.13-50.33-2.6-7.95,5.39-.45,18.39,7.57,13Z"/><path class="cls-13" d="M164.85,852h-1.12a7.73,7.73,0,0,0-5.3,2.19,8.42,8.42,0,0,0-2.2,5.31,7.55,7.55,0,0,0,2.2,5.3,7.77,7.77,0,0,0,5.3,2.2h1.12a7.74,7.74,0,0,0,5.31-2.2,8.28,8.28,0,0,0,2.19-5.3,7.58,7.58,0,0,0-2.19-5.31,7.83,7.83,0,0,0-5.31-2.19Z"/><path class="cls-13" d="M212.05,874.24a30.56,30.56,0,0,1,20.62,7.92L236,869.62l-12.4,3.08c-9.36,2.33-5.39,16.8,4,14.47l12.4-3.08c5.31-1.33,7.48-8.77,3.3-12.54a46.62,46.62,0,0,0-31.22-12.31c-9.65-.08-9.66,14.92,0,15Z"/><path class="cls-13" d="M240,911.71c4-1.66,9.9-4.76,14.36-3.38,1.67.52,4,2.34,2.55,3.36-2.05,1.44-6.81-.53-8.76-1.16-4.89-1.59-9.63-3.12-14.84-2.81-9.59.57-9.66,15.58,0,15,7.73-.46,14.62,4.62,22.53,4.19,7.5-.4,14.73-4.71,16.36-12.46s-3.24-15.38-9.9-19c-8.36-4.53-18.12-1.58-26.29,1.79-3.73,1.54-6.42,5-5.24,9.22,1,3.54,5.45,6.8,9.23,5.24Z"/><path class="cls-13" d="M748.91,825.39c-4.81-.49-10.06.05-14.07,3a12.25,12.25,0,0,0-3.61,15.85c3.14,5.75,9.22,7.58,15.3,8.15,6.9.65,13.87.89,20.79,1.32,9.83.62,25.33,2.93,29.11-9.51,1.72-5.66-.78-11.55-5.18-15.19-5.1-4.2-11.61-4.35-17.87-3.65-4,.46-7.5,3.13-7.5,7.5,0,3.71,3.45,8,7.5,7.5a58.19,58.19,0,0,1,7.46-.2c1.56,0,.33.91,1.3,0a.76.76,0,0,0,.11-1.09c-.42-.28-4.57.3-5.28.27-3.22-.13-6.44-.4-9.65-.61L749,837.51a18.73,18.73,0,0,0-3.39-.3q-2.19-1.35-1.88,1.53c-.89,1.64-1,2.25-.32,1.84-.07-.08,5.47-.2,5.52-.19,4,.41,7.5-3.75,7.5-7.5,0-4.4-3.46-7.09-7.5-7.5Z"/><path class="cls-13" d="M770.47,824.32c9.65,0,9.67-15,0-15s-9.67,15,0,15Z"/><path class="cls-13" d="M774.75,814.08c1.39-6,13.16-5.72,17.71-5.68a54.39,54.39,0,0,1,13.9,1.93c2.15.59,8.84,1.85,9.15,4.18v-4c-.33,2.26-6.34-2.7-7.37-3.49-3.25-2.48-8.37-.48-10.27,2.69-2.29,3.83-.51,7.81,2.7,10.26,8,6.13,20.29,9.86,27.21-.18a12.57,12.57,0,0,0,0-14.61c-3-4.34-8.34-6.29-13.15-8-15.26-5.39-49.32-8.65-54.33,12.88-2.18,9.39,12.28,13.4,14.47,4Z"/><path class="cls-13" d="M791.82,823.2c9.65,0,9.67-15,0-15s-9.67,15,0,15Z"/><path class="cls-13" d="M805,846.77a78.63,78.63,0,0,0,30.42,7.38c9,.26,19.6-.65,26.67-6.93a16.18,16.18,0,0,0,.78-23.77c-8.06-8.11-19.38-6.44-29.28-3.36-9.19,2.86-5.27,17.35,4,14.46,3.15-1,12.45-4.72,14.84-.41,1.32,2.39-3.48,3.7-5.57,4.2-11.07,2.65-24.1.12-34.28-4.52-3.71-1.69-8-1-10.26,2.69-1.92,3.21-1,8.59,2.69,10.26Z"/><path class="cls-13" d="M834.57,804.88l19.65,4,9.36,1.89c2.11.44,4,.46,4.54,1.81l-1-3.78c-.11-.87,1,.54,0-.21s-3.59-1.27-4.84-1.88c-8.63-4.25-16.24,8.68-7.57,13,6.81,3.36,14.49,5.9,21.4,1.28,5.75-3.85,7.95-11.54,4.12-17.51s-11.08-6.8-17.34-8.07l-24.33-4.91c-9.42-1.91-13.46,12.55-4,14.46Z"/><path class="cls-13" d="M805.79,794.14a105.14,105.14,0,0,1,24.91-10.31,73.49,73.49,0,0,1,12.72-2.55c2.07-.17,3.82.55,5.7.63a.85.85,0,0,0,.71.49,1.57,1.57,0,0,1,1.15-1.59c-9.65-.43-9.63,14.57,0,15,8.49.39,15.28-7.8,13.58-16.11-1.62-8-9-12.68-16.71-13.37-8.28-.74-17.49,1.81-25.36,4.25a123.53,123.53,0,0,0-24.27,10.61c-8.39,4.78-.84,17.74,7.57,12.95Z"/><path class="cls-13" d="M822.17,770.85a75,75,0,0,1,58.63-4c9.16,3.11,13.09-11.37,4-14.47a90.28,90.28,0,0,0-70.19,5.52c-8.59,4.42-1,17.37,7.57,13Z"/><path class="cls-13" d="M879.1,758.36l-3.43,4.45c-1.11,1.43-1.21,4.13-.76,5.78a7.52,7.52,0,0,0,9.23,5.24l1.79-.76a7.62,7.62,0,0,0,2.69-2.69l3.43-4.45c1.1-1.43,1.21-4.13.76-5.78a7.67,7.67,0,0,0-3.45-4.48,7.59,7.59,0,0,0-5.78-.76l-1.79.76a7.54,7.54,0,0,0-2.69,2.69Z"/><path class="cls-13" d="M876.09,759.88h-3.37a7.74,7.74,0,0,0-5.3,2.2,7.5,7.5,0,0,0,0,10.61,7.8,7.8,0,0,0,5.3,2.19h3.37a7.49,7.49,0,0,0,7.5-7.5,7.55,7.55,0,0,0-2.2-5.3,7.77,7.77,0,0,0-5.3-2.2Z"/><path class="cls-13" d="M882.8,787.93c7.13-2.19,18.54-3.61,25,1.44,1.61,1.27,2.66,2,.73,2.63-3,1-7.37-4.1-9.18-5.82-7-6.67-17.6,3.92-10.6,10.6,6.34,6.06,13.74,11.58,23,9.85,8.09-1.5,13.76-8.62,12.66-16.91-2.64-19.82-31.08-20.71-45.57-16.25-9.2,2.83-5.27,17.32,4,14.46Z"/><path class="cls-13" d="M895.17,830.4a108.12,108.12,0,0,0,30.48,7.7c9.7,1,21.26,1.32,28.24-6.69,6.2-7.11,5.06-17.35-1.95-23.46-8.28-7.21-19-5.55-28.72-2.72-9.25,2.69-5.32,17.17,4,14.46,4.11-1.19,10.86-3.91,14.66-.7,4,3.38-3.78,4.56-6.11,4.61-12.55.32-25.09-2.85-36.6-7.66-3.76-1.57-8.21,1.7-9.22,5.24-1.23,4.3,1.52,7.67,5.24,9.22Z"/><path class="cls-13" d="M879.66,851.44l23.47,3.3c6.65.94,13.94,2.53,19.18-2.94,4.61-4.82,4-13-1.7-16.63-4.91-3.14-10.92-1.54-15.76.76-8.71,4.15-1.11,17.09,7.57,13,3.15-1.5.49,1.31-1-1.9l-1-3.78c2.39-1.92,2.45-2.73.17-2.45l-3.43-.47-7.82-1.1L883.65,837c-4-.56-8,1-9.22,5.24-1,3.51,1.23,8.66,5.23,9.23Z"/><path class="cls-13" d="M776.05,874.72a635.65,635.65,0,0,0,84,3.77c6.84-.15,13.7-.33,20.53-.79,5.31-.36,11-1.54,14.25-6.19A10.88,10.88,0,0,0,892,856.27c-5.44-3.76-11.66-2-17,1-8.39,4.76-.84,17.72,7.58,13A11.13,11.13,0,0,1,885.1,869q1.42-8.32-3-6.43a56.45,56.45,0,0,0-6.34.38q-6.86.31-13.7.5-14.19.34-28.38.07-28.87-.57-57.6-3.8c-4-.44-7.5,3.77-7.5,7.5,0,4.43,3.45,7.06,7.5,7.5Z"/><path class="cls-13" d="M930.23,869.92c12,.09,27.21-3,29.42-17.25.94-6-1.65-12.34-7.35-15-5.33-2.51-12.6-.37-15.06,5.18-1.64,3.7-1.08,8.06,2.69,10.27,3.19,1.86,8.61,1,10.26-2.7l-2.7,1.16-2.6-1.47s0,.71-.13.81c-1,.76-1.48,1.88-2.71,2.55-3.48,1.87-8,1.5-11.82,1.47-9.65-.07-9.66,14.92,0,15Z"/><path class="cls-13" d="M711.61,846.73a16.12,16.12,0,0,0-1.18,19.9c3.83,5.81,10.77,8.33,17.33,9.44a103.72,103.72,0,0,0,49.16-3.59c6.11-2,7.45-10.28,1.8-13.71l-6.45-3.91c-8.28-5-15.82,7.95-7.57,13l6.44,3.91,1.8-13.71a90.67,90.67,0,0,1-30.44,4.53,68.93,68.93,0,0,1-13.66-1.5c-1.71-.4-4.15-.82-5.4-2.18a4.58,4.58,0,0,1-.89-1.29c-.42-.87.44-1.16-.34-.24,6.2-7.34-4.36-18-10.6-10.61Z"/><path class="cls-13" d="M955.87,886.12c9.65,0,9.66-15,0-15s-9.67,15,0,15Z"/><path class="cls-13" d="M978.8,867.12c1.61-6.27-2.14-13.24-8.59-14.8-3.81-.91-8.31,1.21-9.23,5.24-.87,3.86,1.16,8.25,5.24,9.23a5,5,0,0,1,.83.27l-1.79-.76a6.79,6.79,0,0,1,.74.43l-1.52-1.17a5.47,5.47,0,0,1,1,1l-1.17-1.51a6.25,6.25,0,0,1,.57,1l-.76-1.79a6.33,6.33,0,0,1,.31,1.11l-.27-2a4.92,4.92,0,0,1,0,1.15l.27-2a3.39,3.39,0,0,1-.13.57c-1,3.8,1.25,8.32,5.24,9.23a7.64,7.64,0,0,0,9.23-5.24Z"/><path class="cls-13" d="M966,867c9.65,0,9.67-15,0-15s-9.67,15,0,15Z"/><path class="cls-13" d="M962,868.38c3.19.93-1.22,4.75-2.29,5.23-5.56,2.55-12.45-.44-17.77-2.26-9.16-3.13-13.09,11.35-4,14.46,12,4.09,27,6.58,36-4.7,7.37-9.24,3.71-23.78-7.95-27.2-9.28-2.72-13.25,11.75-4,14.47Z"/></g></svg>