<svg id="Layer_1" data-name="Layer 1" xmlns="http://www.w3.org/2000/svg" viewBox="0 0 48.8 48.8"><defs><style>.cls-1{fill:none;stroke:#000;stroke-miterlimit:10;stroke-width:2px;}</style></defs><path d="M28.11,29.28v6.77a3.19,3.19,0,0,1-.15,1,3.11,3.11,0,0,1-6-.31,3.35,3.35,0,0,1-.07-.71V22.42A3.11,3.11,0,0,1,28,21.74a3.23,3.23,0,0,1,.07.69v6.85Z" transform="translate(-0.6 -1)"/><path d="M28.2,14.79A3.2,3.2,0,1,1,25,11.59,3.2,3.2,0,0,1,28.2,14.79Z" transform="translate(-0.6 -1)"/><circle class="cls-1" cx="24.4" cy="24.4" r="23.4"/></svg>