<svg xmlns="http://www.w3.org/2000/svg" viewBox="0 0 1000 1000"><defs><style>.cls-1{fill:#f4a6be;}.cls-2{fill:#fff;}.cls-3{fill:#e86795;}.cls-4{fill:#753c15;stroke:#1d1d1b;stroke-miterlimit:10;}.cls-5{fill:#0a0809;}.cls-6{fill:#1d1d1b;}.cls-7{fill:#050404;}.cls-8{fill:#fbd210;}.cls-9{fill:#522c14;}.cls-10{fill:#e52722;}.cls-11{fill:#c31e20;}.cls-12{fill:#e8e8e8;}.cls-13{fill:#f2af19;}.cls-14{fill:#98d3dc;}.cls-15{fill:#81cac8;}.cls-16{fill:#e6f3f3;}.cls-17{fill:#b44672;}</style></defs><g id="Layer_2" data-name="Layer 2"><path class="cls-1" d="M754.07,284.39C784.44,384.76,725,516.58,557.76,516.58s-305.51-24.22-299-161.35C265.41,217.07,372.9,81.37,534.47,96.42,680.75,110,728.18,198.83,754.07,284.39Z"/><path class="cls-2" d="M508.57,290.14c0,59.9-35.71,119.15-82.4,121.59-103.1,5.4-103.75-107.69-91.24-135.62,26.08-58.23,49.1-94.43,95.85-94.43S508.57,230.24,508.57,290.14Z"/><path class="cls-2" d="M751.53,320.16c0,59.9-50.21,83-79.7,59.94C603.36,326.52,594.47,257.43,607,229.51c26.08-58.23,37-44.34,48.77-42.36C701.85,194.9,751.53,260.26,751.53,320.16Z"/><path class="cls-3" d="M670.29,354.31c0,41.78-49.3,68.38-105,68.38s-108.12.71-108.12-48.86c0-56.3,53.69-68.22,109.42-68.22S670.29,326.94,670.29,354.31Z"/><polygon class="cls-1" points="302.67 217.68 375.63 136.1 301.19 74.99 222.61 122.36 302.67 217.68"/><path class="cls-1" d="M730.42,195.94l-9.89,3.56c-14,0-88.6-66.35-85-79.84l47.84-23.83c4.21-15.76,35.46-22,47-10.57l60.47,50.91c-25.24,24-18.53,48.09-30.49,55.19l-4.08,21.79C753,215.1,734.24,195.94,730.42,195.94Z"/><rect class="cls-1" x="266.13" y="176.88" width="53.86" height="70.11"/><path class="cls-4" d="M510.13,780.25l-79-25.69c-26.81-18.22-30.95-7.28-72.73-66.7l-13-47.71c-17.87-5.74,157,66.68,254.76,35.64l137.22-45.38c-4.57,31.9-36.3,108.71-73.41,130l-81.15,24C574.62,795,523.43,779.8,510.13,780.25Z"/><polygon class="cls-4" points="494.93 860.97 392.72 848.26 403.82 741.8 521.58 785.82 494.93 860.97"/><polygon class="cls-4" points="699.54 863.71 585.48 867.56 571.68 792.19 679.91 752.02 699.54 863.71"/><path class="cls-5" d="M414,858.85a249,249,0,0,1-65.5,40.42c-4.84,2-9.89,4-13.63,7.69s-5.83,9.63-3.44,14.3c3,5.92,11,6.78,17.63,6.88l106.11,1.61c7.16.11,14.93,0,20.58-4.36,7.93-6.16,8.26-18,6.63-27.88S478,877.06,482,867.85"/><path class="cls-6" d="M408.74,853.55A245.71,245.71,0,0,1,351.19,890c-9.63,4.37-21.07,7.62-26,17.93-4.72,9.76-1,20.84,9,25.14,9.84,4.21,22.17,2.69,32.6,2.85l38.32.58,38.32.59c10.9.16,23.63,1.85,33.61-3.59s13.64-16.24,13.67-26.89c0-12.25-6.13-24.83-1.49-36.76,1.48-3.8-1.63-8.19-5.24-9.22-4.23-1.21-7.77,1.48-9.23,5.23-3.8,9.8-1.94,20.11-.17,30.13,1.18,6.65,2.81,15.88-1.65,21.75-4.81,6.31-15.77,4.55-22.62,4.45l-33.41-.51q-32.91-.49-65.83-1c-4.48-.07-17.59,0-11.53-7.71,2.3-3,6.56-4.55,9.88-6,4.73-2.05,9.48-4,14.13-6.27a259.33,259.33,0,0,0,55.8-36.56c7.37-6.26-3.29-16.82-10.6-10.6Z"/><path class="cls-7" d="M672.55,865.44c4.1,11.66,16.16,18.48,27.88,22.39s24.32,6.09,34.49,13.09c5.62,3.87,10.5,11.67,6.36,17.09-2.71,3.57-7.85,3.94-12.33,4l-83,1.15c-10.31.14-21.76-.14-29.21-7.25-5.69-5.43-7.69-13.86-7.06-21.7s3.53-15.28,6.41-22.6"/><path class="cls-6" d="M665.32,867.44c5.54,14.43,18.33,22.53,32.44,27.39,7.68,2.64,15.67,4.36,23.27,7.28a40.45,40.45,0,0,1,10.11,5.29c1.08.84,5.27,4.6,4.11,6.34-.65,1-5.31.75-6.3.77-4.94.13-9.88.14-14.81.21l-28.64.4-29.63.41c-7.73.1-15.89.85-23.55-.51-7.89-1.41-13.52-5.73-14.9-13.92-1.59-9.4,2.6-19,6-27.49,1.5-3.8-1.63-8.2-5.23-9.23-4.24-1.21-7.75,1.49-9.23,5.24-6.84,17.4-12.25,40.41,5.19,53.73,7.19,5.5,16.32,7,25.17,7.28,10.77.35,21.62-.17,32.4-.32l33.58-.47,16.79-.23c5.14-.07,10.7.28,15.73-1.05,8.81-2.33,14.46-10.75,11.91-19.78s-10.75-15-19-18.78c-10-4.5-20.73-6.54-30.95-10.36-7.86-2.93-16.77-7.93-19.94-16.19-3.42-8.92-17.93-5.05-14.46,4Z"/><path class="cls-8" d="M446.78,58.41l13.35,32.14c2.89,7,11.65,7.21,14.46,0l18.86-48.29c1.19-3-.79-6.92-3.44-8.47-3.08-1.8-6.47-.95-9.09,1.17-6.87,5.57-7.55,14.68-6.33,22.82.84,5.56,5.6,15.55.72,20.19-4.25,4-1.9,10.87,3.3,12.54,11.8,3.77,25.27,6.61,36.06-1.36,11-8.11,10-21.53,7.32-33.47-1.16-5.12-9-7.73-12.53-3.31l-15.52,19.5,11.78,1.52L494,51.63c-4.59-8.49-17.54-.93-12.95,7.57L492.77,81c2.1,3.9,8.78,5.28,11.78,1.52L520.07,63l-12.54-3.31c1.35,5.92,3.68,14.61-2.95,18.2s-15.33.3-22-1.82l3.31,12.53c6.77-6.43,7-15.54,5.41-24.16-1-5.56-5.15-14.51.21-18.85L479,38.27l-18.86,48.3h14.46L461.24,54.42c-1.54-3.72-5-6.43-9.22-5.24-3.53,1-6.81,5.45-5.24,9.23Z"/><path class="cls-1" d="M218.17,546.88c-4.25,14-6.43,32,8.46,40.69,12.82,7.49,26.82-2.28,29.58-15.57,2.24-10.75,1.14-35.89-16-31.86-15.48,3.63-17,27.28-13.77,39.4,2.52,9.31,17,5.36,14.46-4a27.17,27.17,0,0,1-.85-11,25.85,25.85,0,0,1,1.23-4.9c.27-.76,2.75-4.49,2.67-4.88l-3-1.13a6.78,6.78,0,0,1,.47,1.71c0,1.31.33,2.73.43,4.06.29,3.73.71,8.07-.84,11.62-1.91,4.35-5.8,5.6-9,1.68-4.86-6-1.26-15.42.67-21.82,2.81-9.26-11.67-13.22-14.46-4Z"/><path class="cls-1" d="M234.43,560.24l4.5,15.73c2.66,9.26,17.14,5.32,14.47-4l-4.51-15.73c-2.65-9.26-17.13-5.32-14.46,4Z"/><path class="cls-1" d="M198.84,583.43l5.62,1.12a8,8,0,0,0,5.78-.75,7.66,7.66,0,0,0,3.45-4.48c.85-3.73-1.13-8.41-5.24-9.23L202.83,569a8,8,0,0,0-5.78.76,7.62,7.62,0,0,0-3.44,4.48c-.85,3.73,1.12,8.4,5.23,9.23Z"/><path class="cls-1" d="M742.35,636.33a66.1,66.1,0,0,0,4.44,55.88c3.68,6.52,14,3.58,14-3.79l0-25.35V649.43c0-1.92-.14-3.95,0-5.85.19-2.63,1.38-2.92-2.41-1.94s-2.83,1.66-2.49,5.09c.17,1.65.4,3.32.73,4.95a42.82,42.82,0,0,0,3.35,9.57c3.06,6.48,7.83,11.56,13.46,15.86,3.24,2.48,8.36.48,10.26-2.69,2.3-3.83.51-7.81-2.69-10.26-6.53-5-9.7-12.58-10.32-20.55-.39-5-1.3-9.45-5.23-12.85a11.34,11.34,0,0,0-13.24-1.3c-8.2,4.9-6.42,16.86-6.42,24.84l0,34.12,14-3.78a51.55,51.55,0,0,1-2.92-44.32c3.46-9-11-12.92-14.47-4Z"/><path class="cls-3" d="M263.81,194.35,268,238.4c.63,6.63,10.45,11.18,14,3.79l12.74-26.78c4.13-8.67-8.8-16.29-12.95-7.57L269,234.62l14,3.78-4.21-44.05c-.91-9.53-15.91-9.62-15,0Z"/><path class="cls-3" d="M294.51,86.46a163.83,163.83,0,0,0,21.74,94c4.84,8.34,17.81.8,12.95-7.57a149.75,149.75,0,0,1-19.69-86.42c.72-9.63-14.28-9.59-15,0Z"/><path class="cls-3" d="M289.15,138.29l5,62.31c.29,3.71,2.62,6.91,6.5,7.37,3.32.39,7.69-1.64,8.23-5.37l4.93-34-13.71,1.8a39.47,39.47,0,0,1,4.74,20.25c-.25,9.72,14.35,9.55,15,0l.81-12.16c.65-9.64-14.35-9.6-15,0l-.81,12.16h15A55.16,55.16,0,0,0,313,162.85c-2.83-5.25-12.76-4.74-13.7,1.79l-4.93,34,14.73,2-5-62.31c-.77-9.56-15.77-9.64-15,0Z"/><path class="cls-3" d="M705.46,81.49A96.36,96.36,0,0,0,668,147.19c-.49,4,3.79,7.5,7.5,7.5,4.45,0,7-3.46,7.5-7.5a79.64,79.64,0,0,1,30-52.75c3.24-2.49,4.88-6.42,2.69-10.26-1.81-3.18-7.05-5.16-10.26-2.69Z"/><path class="cls-3" d="M692.58,111.09,679.17,141c-1.67,3.72-1,8,2.69,10.26,3.3,2,8.47.93,10.27-2.69l19.57-39.42L698,103.33a98.72,98.72,0,0,0-4.56,55.88l12.54-7.3-12.36-13.27c-5.68-6.1-16.89,2.12-11.78,9.09a324.14,324.14,0,0,0,34.54,40c5.09,5,15.09,0,12.53-7.3l-15.56-44.59c-3.16-9.06-17.65-5.16-14.46,4l15.56,44.59,12.53-7.3a302,302,0,0,1-32.19-37L683,149.25l12.36,13.27c5.43,5.82,13.93-.39,12.54-7.3a84.3,84.3,0,0,1,4.56-47.9c3.1-7.88-10-13.35-13.71-5.78L679.17,141l13,7.57,13.41-29.87c1.67-3.72,1-8-2.69-10.26-3.19-1.91-8.61-1-10.27,2.69Z"/><path class="cls-3" d="M206.74,543.8a69.74,69.74,0,0,0,28,41.37l7.57-13-14.44-8.48c-8.34-4.9-15.9,8.06-7.57,12.95l14.44,8.49c8.47,5,15.29-7.44,7.57-13a54.2,54.2,0,0,1-21.07-32.39c-2.13-9.41-16.6-5.43-14.46,4Z"/><path class="cls-3" d="M233.26,586.6a24.63,24.63,0,0,0,21.61,6.07c3.2-.56,5.5-4.16,5.5-7.23a7.74,7.74,0,0,0-5.5-7.23l-11.83-4c-3.84-1.29-8.2,1.49-9.23,5.24a7.64,7.64,0,0,0,5.24,9.22l11.83,4V578.21c.58,0,.39,0-.57,0a14,14,0,0,1-1.71,0c1.06.12-1.46-.35-1.39-.34a9.38,9.38,0,0,1-3.35-1.88,7.65,7.65,0,0,0-10.6,0c-2.77,2.77-3,7.87,0,10.61Z"/><path class="cls-3" d="M740.22,639.29l1,40.46c.24,9.63,15.24,9.67,15,0l-1-40.46c-.24-9.63-15.25-9.67-15,0Z"/><path class="cls-9" d="M478.27,690.49c26.64,58.12,86.91,97.89,150.61,100.62,9.65.41,9.63-14.59,0-15-58.77-2.52-113.22-39.88-137.66-93.19-1.7-3.71-7-4.55-10.26-2.69-3.81,2.17-4.37,6.6-2.69,10.26Z"/><path class="cls-9" d="M479.13,682.91l-123-31.5c-6.58-1.69-11.38,5.24-8.47,11,31.8,62.9,93.56,107.7,163.39,117.75a225.53,225.53,0,0,0,63.45.07c3.68-.51,5.81-5,5.37-8.23-.53-4-3.59-6.06-7.36-6.5a75.42,75.42,0,0,1-39.71-17.15c-11.93-10.18-20.54-23.46-30.89-35.1-19.58-22-46.45-34.85-74.38-42.91-16.07-4.64-32.5-7.83-48.93-10.9-3.62-.68-8.55,1-9.22,5.23a42.49,42.49,0,0,0,26.13,46.41c6.61,2.72,11.06-5.84,8.47-11l-16-32.17-10.26,10.27,98.31,55c7,3.9,13.27-3.68,10.27-10.26-10.28-22.51-33.59-37.28-58.17-38-7.31-.2-10.39,10.53-3.79,14l94.59,49.48,5.78-13.71-50.34-19c-7.62-2.88-11.69,7.42-7.29,12.54a133.27,133.27,0,0,0,62.67,40.5l4-14.46c-50.42-7.86-98.59-28.44-138.62-60.19-7.38-5.86-17.52,3.5-10.61,10.6a166.67,166.67,0,0,0,89.84,47.8c6.37,1.13,11.75-5,8.47-11-16.78-31.12-48.38-53.62-83.41-58.82-3.35-.49-6.65.34-8.47,3.45-1.59,2.72-1.32,6.94,1.17,9.09a211.18,211.18,0,0,0,85.25,44.72l2-14.73c-24.34-1.59-46.65-13.91-61.74-32.93-2.54-3.2-8-2.6-10.61,0-3.16,3.1-2.5,7.45,0,10.61,17.57,22.14,44.27,35.49,72.35,37.32,8.5.55,10.1-12.65,2-14.73a194.51,194.51,0,0,1-78.63-40.87l-7.3,12.54A101.46,101.46,0,0,1,469.8,749l8.47-11a153.16,153.16,0,0,1-83.22-43.93l-10.61,10.6a311.4,311.4,0,0,0,145.24,64.05c9.33,1.45,13.46-11.62,4-14.46a119,119,0,0,1-56.06-36.65l-7.29,12.54,50.33,19c8,3,13.25-9.8,5.78-13.71L431.84,686l-3.78,14c19.68.56,37.1,12.78,45.21,30.55l10.27-10.26-98.32-55c-6.8-3.8-13.55,3.68-10.26,10.26L391,707.64l8.47-11c-10.44-4.3-17.41-16.82-15.66-28l-9.22,5.24c28.67,5.36,58.31,10.9,84.32,24.72a117.08,117.08,0,0,1,34,27.12c10.17,11.78,18.9,24.91,31.11,34.78a93.33,93.33,0,0,0,48.44,20l-2-14.73C503.6,775,435.35,749.35,390.54,699.09a205.49,205.49,0,0,1-29.94-44.24l-8.47,11,123,31.5c9.35,2.4,13.35-12.07,4-14.46Z"/><path class="cls-9" d="M499.16,787.91c-6.37,18.31-12.63,36.66-19.13,54.93-.93,2.62-1.64,5.35-4.68,5.88-3.54.62-7.66-1-11-2q-13.89-3.87-27.75-7.77l-14.36-4c-2.85-.8-7.27-1.35-9.7-3.28-2.89-2.27-1.53-7.14-1.23-10.35q.63-6.9,1.3-13.81l5.55-59.17c.9-9.61-14.11-9.55-15,0l-5.09,54.24c-1.37,14.56-7.5,35.58,9.33,43.27,7.3,3.34,15.59,4.89,23.3,7l26.79,7.5c7,2,14.5,4.4,21.85,2.77,7.84-1.75,12-7.91,14.67-15,6.95-18.59,13.08-37.55,19.61-56.3,3.19-9.13-11.3-13.06-14.46-4Z"/><path class="cls-9" d="M417.75,774l-8,43,44.2,6-1.82-59-38.41,15.91A75.33,75.33,0,0,0,445.39,800c6.27,2.1,12.94,2.84,19.5,3.38,1.42.12,2.85.25,4.28.34,3,.2-3.65-1.11-.91,0,3.17,1.27,1.32.43-.66-.55,3.11,1.54-1.24-1.18-2.08-2.38-1.93-2.73-4.26-10.56-.6-13a17.71,17.71,0,0,0-1.57,2.63c1.78-2.22,2.12-2.72,1-1.49a15.06,15.06,0,0,1-1.12,1.14c-3.6,3.5-8,6.1-11.5,9.7-11.8,12.06-16.74,30.65-7.47,45.77,6.16,10,20.42,14.75,30.79,8.07,10.06-6.49,14.66-20.05,8.07-30.79-2.92-4.76,1,9.63,1.22,5.39.15-2.69-1.41,5.64,0,1-.36,1.16-1.91,3.9-.32,1.46-2.76,4.22-1,1.44.08.37,3.61-3.49,8-6.11,11.5-9.71,12.9-13.13,17.1-32.57,5.3-47.85a37.77,37.77,0,0,0-19.86-13,69,69,0,0,0-11.89-1.8c-1.42-.14-2.86-.22-4.28-.34-.79-.06-5.76-.28-2-.14,3.5.13-1.08-.35-1.7-.51-1-.25-2.06-.55-3.07-.87-.27-.08-5.09-1.9-1.78-.55s-1-.56-1.63-.91c-1.17-.63-2.32-1.31-3.43-2-.45-.28-.9-.57-1.33-.88q-2-1.43,1.36,1.14c-.3-1.4-4.68-4.32-5.76-5.5-13.11-14.22-39-3.28-38.41,15.91L409,823c.34,11.24,8.3,20.59,19.51,22.09,10.25,1.38,22.63-5.08,24.68-16.11l8-43c2.14-11.53-3.18-24.82-15.72-27.68-11.05-2.51-25.37,3.34-27.68,15.72Z"/><path class="cls-9" d="M583,791.45l-2.52,10.95h28.93l-2.32-12.82c-1.32-7.33-9.68-11.66-16.45-10.75-7,.94-13.5,7.26-13,14.73,1.18,18.11,1.67,36.43,3.62,54.47,1.22,11.36,7.08,21.45,18.79,24.48,8.29,2.15,17.21.75,25.62.23l27.49-1.68c8.36-.52,16.84-.85,24.64-4.16,8.92-3.77,16.09-11.47,17.79-21.25,1.76-10.1-.81-19.24-5.29-28.28-4.15-8.36-7.23-13.31-8.64-22.72,0-.35-.22-2.4-.29-4.42a66.51,66.51,0,0,1,.14-6.77c0-.24.4-3.65.19-2.2-.11.76.37-1.84.44-2.17a68.58,68.58,0,0,1,2-7.34c1.83-5.63-.81-12.35-5.38-15.77-5-3.76-11.08-4-16.66-1.17-14.75,7.43-29.86,14.41-44.32,22.39-8.27,4.56-14.62,11-17.91,19.95-2.89,7.86-2.05,16.4-.76,24.48,2.7,16.88,10.24,35,29.76,36.5,9.22.71,18-4.37,23.51-11.47,5.73-7.37,7.37-16,8.56-25,2-15-1.45-32.72-18-37.72-17.17-5.2-34.64,10.31-42.56,24.29-4.89,8.63-6.14,19.17-1.29,28.12,4.08,7.55,12.08,12.92,20.4,14.68,7.57,1.6,15.54,1.22,23.18.31,9-1.06,17.64-3.35,24.5-9.68,13.78-12.74,11.53-40.17-9.12-44.44-10.21-2.1-20.95,2.22-26.15,11.44s-3.09,22.29,5,29.12c6.2,5.21,15.13,6.08,21.21,0,5.35-5.35,6.23-16,0-21.21-1.94-1.62.5,1.13.73,2.41a7.23,7.23,0,0,1-3.15,6.74,6.4,6.4,0,0,1-8-1.4,10.08,10.08,0,0,1-1.21-2.08c-.78-1.46-.28,2.18-.37-1.37,0-.8-.26-1.93.15-1,.09.21-.71,3.15-.29,1.06.31-1.52-.08-.12-.42.34s1.55-2.22,1.71-1.83a24.81,24.81,0,0,1-2.63,1.48c.37-.16,1.62-.63,0-.2-1,.27-2,.5-3,.72-2.48.54,1.93-.15-.63.12a109.87,109.87,0,0,1-12.44.58c-2,0-1.27.12-3.57-.61-1.65-.52.06,0,.33.14-1.88-.59-.59-1.16,0,.31s.24,3.53.54,1.08c-.28,2.36-.26,1.38.78-.34,1.39-2.29,3.85-4.73,6.67-7.5-.06.06,3.64-2.63,3.64-2.58,0,.8-3.18-.16-3.28-.21-.86-.38-3.68-3.43-2-1.36l-.31-.68c-.35-.87-.4-.9-.13-.07.37-.07.4,3.43.22.43.37,6,.17,14.14-3,18.1.94-1.17.14-.17,0-.24l-.52.51a1.78,1.78,0,0,1,1.23-.77c1.45-.5-.71.21-.85.22a7.13,7.13,0,0,1,2.47-.3c.57.13,1,.59,1.49.74,1.53.46-1.26-1.48-.33-.2s-.4-.64-.45-.75c-2.26-4.33,0,.66-.85-2a77.64,77.64,0,0,1-2.54-11.6c-.43-2.65.12,1.81-.11-.87-.07-.8-.14-1.61-.17-2.42a31.06,31.06,0,0,1,0-3.2c-.15,2,.12-.59.38-1.38.2-.62.42-.69,1.06-1.27,1.27-1.14.37-.33.09-.13a34.61,34.61,0,0,1,3.47-2.08c4.65-2.56,9.47-4.83,14.21-7.22l30.11-15.17-22-16.94a80,80,0,0,0,3.59,57.8c1.94,4.25,4.56,8.22,6.37,12.53a25.11,25.11,0,0,0,.87,2.73q.54,2.7.21.42a20.88,20.88,0,0,1,0,3c.23-1.57.14-1.47-.28.29a2.64,2.64,0,0,1,1-1.71c-1.27,1.2-1.3,1.27-.11.21-1.54.8-1.58.88-.14.23a28.87,28.87,0,0,1-5.52,1.34c3-.49-1.84.1-2.45.14-10,.69-20.1,1.24-30.16,1.85l-13.74.85c-2,.12-4.07.12-6.1.23-1.82-.12-1.85-.08-.1.11-1.69-.49-1.71-.44-.07.13a5.37,5.37,0,0,1,2.73,3.26c-.38-1.81-.46-2-.24-.7-.36-2.45-.34-5-.5-7.49l-.9-13.81-2-31.58-29.46,4,2.31,12.83c2.65,14.69,25.72,13.91,28.93,0l2.52-11c1.76-7.63-2.35-16.6-10.47-18.46-7.65-1.74-16.57,2.3-18.46,10.48Z"/><path class="cls-10" d="M515.78,534.76l-.5,5.6,14-3.79-3.07-4.26c-3-4.15-10.28-5.54-13,0-4.2,8.7.1,18.55,9.11,22,9.55,3.67,20.57-2,27.6-8.38,7.34-6.71,8.39-18.48-.92-24-9.53-5.66-19,0-26.28,6.41s3.37,16.95,10.61,10.61c2.25-2,4.63-3,7-4.46a1.17,1.17,0,0,1,.82.2c.61.39.57-.05-.12-1.31a25,25,0,0,1-2.69,2.77c-2.24,1.69-5.92,4.27-8.9,4.36A9.84,9.84,0,0,1,527,540c-1.15-.2-.15-1.56-.84-.12h-13l3.07,4.26c4.43,6.15,13.3,3.84,14-3.78l.5-5.6c.86-9.61-14.15-9.55-15,0Z"/><path class="cls-10" d="M539.84,524.35l-12.86,13c-6.79,6.87,3.81,17.49,10.61,10.61l12.85-13c6.8-6.87-3.8-17.48-10.6-10.6Z"/><path class="cls-10" d="M514.05,560.51c-12.54,25-4.42,54.89,19.45,69.67a7.58,7.58,0,0,0,9.09-1.17c17.24-18.74,19.61-49.21,3.93-69.71-2.75-3.6-8.2-5.48-11.78-1.52a68.47,68.47,0,0,0-17.64,40.86c-.6,7.24,8.27,8.85,12.81,5.3,10.7-8.38,16.71-20.57,18.3-33.91,1-8.37-13-10.22-14.73-2l-9.41,45.43c-2,9.42,12.5,13.45,14.46,4L547.94,572l-14.73-2c-1.13,9.47-6.53,17.53-13.91,23.3l12.8,5.31a51.62,51.62,0,0,1,13.25-30.26l-11.78-1.51c11.52,15.07,11.49,37.32-1.59,51.53l9.09-1.17A37.84,37.84,0,0,1,527,568.08c4.31-8.6-8.62-16.21-13-7.57Z"/><path class="cls-11" d="M518.3,522.25c-4.73,7-8.66,15.79-4.21,23.92,3.63,6.64,10.72,9.6,17.62,11.68,9.27,2.8,13.22-11.67,4-14.46-2.25-.68-6.61-1.53-8-3.68-2-3,2-7.51,3.57-9.89,5.44-8-7.55-15.51-13-7.57Z"/><path class="cls-11" d="M521.84,560.14a40.06,40.06,0,0,0-10.39,36.69c2.85,13.13,11.74,24,20.1,34.07,6.18,7.43,16.74-3.23,10.61-10.61-11.38-13.7-25.21-33.36-9.72-49.54,6.68-7-3.91-17.6-10.6-10.61Z"/><path class="cls-12" d="M371.72,509.82a203.67,203.67,0,0,1,64.83,50.92c6.24,7.38,16.81-3.28,10.6-10.61a214.47,214.47,0,0,0-67.86-53.27c-8.62-4.29-16.22,8.64-7.57,13Z"/><path class="cls-12" d="M395.62,532.07l30.69,25.41c7.38,6.11,18.05-4.44,10.61-10.61l-30.7-25.41c-7.38-6.11-18.05,4.44-10.6,10.61Z"/><path class="cls-12" d="M349.36,517.81c7.34,1.13,13.12,5.09,18.73,9.77,7.19,6,14.25,12.14,21.37,18.21l43.18,36.84c7.3,6.23,18-4.33,10.61-10.61L397,532.6c-7.12-6.08-14.11-12.36-21.46-18.16-6.61-5.22-13.76-9.79-22.24-11.09-4-.62-8,1-9.22,5.23-1,3.55,1.24,8.61,5.24,9.23Z"/><path class="cls-12" d="M568,543.54,662.61,571c9.29,2.7,13.25-11.77,4-14.46L572,529.08c-9.29-2.69-13.26,11.78-4,14.46Z"/><path class="cls-12" d="M579.3,528.74a609.76,609.76,0,0,0,91.57,20.09c4,.57,8-1,9.22-5.23,1-3.51-1.23-8.67-5.23-9.23a611,611,0,0,1-91.57-20.09c-9.26-2.79-13.22,11.68-4,14.46Z"/><path class="cls-12" d="M488.23,554.27c5.71,6,5.63,12.86,3.16,20.25-2.7,8.12-4.64,15.69-1.38,24s9.27,15.19,14.45,22.24l17.68,24.09c2.41,3.29,6.48,4.84,10.26,2.69,3.24-1.84,5.08-7,2.69-10.26l-17.68-24.09c-3-4.12-6.14-8.19-9-12.39-2.26-3.25-4.78-6.81-5.2-10.86s1.49-7.83,2.7-11.47a38.72,38.72,0,0,0,2.34-12.23,32.67,32.67,0,0,0-9.36-22.61c-6.68-7-17.28,3.62-10.61,10.6Z"/><path class="cls-12" d="M317.39,523l-58.88,68.77c-5.54,6.46,1.29,15.71,9.08,11.78a172.34,172.34,0,0,0,69.84-65c4.28-7.12-6.16-15.71-11.78-9.09L293,568c-4.91,5.79-11.18,11.58-15,18.15-3.7,6.35-2,15,5.59,17.46,6.07,2,12.45-.88,17.85-3.52a61,61,0,0,0,15-10.57,62.36,62.36,0,0,0,18.23-33c1.84-9.45-11.36-13.2-14.46-4-1.93,5.71-4,11.84-8,16.51-5.07,6-12.13,5.39-19.28,4.29l3.31,12.54c6.28-5.09,15.28-.35,15.68,7.32l14-3.78-6.69-9.83c-5.4-7.93-18.41-.43-12.95,7.57l6.69,9.83c3.9,5.72,14.39,4.17,14-3.79-.48-9.2-5.37-17.9-13.88-22-9.36-4.48-19.59-2.29-27.41,4-4.16,3.36-2.05,11.71,3.31,12.53,11.59,1.78,22.82,2.12,32-6.25,7.13-6.49,10.67-16.13,13.67-25l-14.46-4a48,48,0,0,1-10.89,22.78,48.67,48.67,0,0,1-9.85,8.66,51.56,51.56,0,0,1-5.61,3.18c-1,.47-5.16,1.42-5.66,2.11-.39.52,2.49,4.25,3,4.1.71-.22,2.16-2.64,2.8-3.4l5.78-6.81,12.18-14.37,24.37-28.75L324.48,531A157.93,157.93,0,0,1,260,590.61l9.09,11.78L328,533.62c6.25-7.29-4.32-18-10.61-10.61Z"/><path class="cls-12" d="M739.44,547.1c.31,19.94.54,39.89.92,59.84.15,7.61,2.48,16.93,12.14,16.68s13.2-9.28,14.12-17.52c.45-4-3.77-7.5-7.5-7.5-4.43,0-7,3.45-7.5,7.5a13.11,13.11,0,0,1-.52,2.71q.27.33.15-.33l3.78,1c.63.29.11,1.53.4.64a11.92,11.92,0,0,0-.07-3.21c-.05-3-.09-6-.14-9L755,581l-.52-33.91c-.15-9.64-15.15-9.67-15,0Z"/><path class="cls-12" d="M750.73,570.74l.51,27.79c.17,9.64,15,9.68,15,0l0-17.92-12.8,5.31c1.69,1.45,2.46,2.6,1.86,4.89H769.8l-12.16-36.75c-3-9.12-17.51-5.21-14.46,4l12.16,36.75c2.25,6.79,12.5,7.45,14.46,0a19,19,0,0,0-5.72-19.49c-4.78-4.12-12.78-1.53-12.8,5.3l0,17.92h15l-.51-27.79c-.18-9.64-15.18-9.67-15,0Z"/><path class="cls-12" d="M757.74,597.41l1.12,5.62a7.58,7.58,0,0,0,3.45,4.48,7.49,7.49,0,0,0,11-8.47l-1.11-5.62a7.6,7.6,0,0,0-3.45-4.48,7.5,7.5,0,0,0-11,8.47Z"/><path class="cls-12" d="M306.38,478c-4.85-5.46-10.42-10.81-17.91-12.09-6.93-1.18-14.72,1.89-18.35,8.09a13.63,13.63,0,0,0,3.63,17.91c5.95,4.46,13.05,3.81,18.7-.63,4.86-3.82,1.36-10.82-3.31-12.54-10.79-4-20.57,8.59-15.42,18.39,5.79,11,19.61,9.55,27.42,1.86l-11.78-1.51c9.56,12.64,25.89,18.71,41.24,13.42,9.07-3.13,5.17-17.63-4-14.47-8.45,2.92-18.68.9-24.3-6.52-2.88-3.81-8-5.23-11.78-1.52-1.07,1.05-2.55,1.2-3.43,1.9.06,0-.28,3.53-1.94,2.92l-3.31-12.54c2.66-2.09.54-.25,1.24,0a.75.75,0,0,1-.07.83c-.19.31-.13.27.2-.14.28.06,1.37-.67,1.81-.73,4.14-.56,8.37,5.3,10.74,8,6.43,7.23,17-3.41,10.61-10.6Z"/><path class="cls-12" d="M721.7,459.21c3.66,9.49,12.63,16.16,23.12,14.75s17.37-10.25,18.37-20.37l-3.71,6.47q-1.87-3.06-4.36-2.56a.9.9,0,0,0-.6.44c-1,.14-2,.68-3,.86-3.13.56-6.38.71-9.54,1-4,.41-7.5,3.15-7.5,7.5,0,3.73,3.44,7.92,7.5,7.5,8-.82,17.62-.56,23.72-6.71,5.73-5.8,6.07-15.72-1.11-20.51a12.25,12.25,0,0,0-9.91-1.75,9.25,9.25,0,0,0-5.46,3.94c-1,1.69-.65,3.5-1.37,5.21-2.11,5-9.55,5.74-11.69.21-1.45-3.76-5-6.41-9.22-5.24-3.61,1-6.71,5.42-5.24,9.23Z"/><path class="cls-12" d="M697.43,862.24l-9.31-.6c-8.71-.55-9.79,12.27-2,14.74l40.81,12.9c5.77,1.82,12.54-5.72,8.47-11l-10.54-13.7c-3.06-4-6-8.63-10.89-10.43-10.71-3.89-19.72,8.31-12.33,17.12,3,3.6,9.71,2.54,11.78-1.51,3.92-7.69,15.07-8.59,18.18.46s17.61,5.17,14.46-4c-3.3-9.62-11.39-16.72-21.71-17.62-9.81-.86-19.45,4.89-23.88,13.57l11.77-1.51,1.1,1.57v4L711.81,868h-4c2.38.45,5,5.34,6.43,7.19l8.19,10.66,8.47-11-40.8-12.9-2,14.73,9.31.6c9.64.61,9.6-14.39,0-15Z"/><path class="cls-12" d="M721.88,859.42c-2.43,10.9-2.65,25,9.78,29.89,10.39,4.07,22-5.45,18.79-16.5-2-6.86-12.73-7.41-14.46,0a16.39,16.39,0,0,0,4.54,15.74c4.61,4.54,11.13,5.8,17.2,7.1L800.92,905c9.41,2,13.43-12.43,4-14.46-5.67-1.23-55.24-10.32-54.46-13.7H736c1.28,4.37-.49-4.88,1-1.43-.27-.63-1-1.15-1.28-1.83-1.3-3,0-7.15.68-10.14,2.09-9.4-12.37-13.42-14.46-4Z"/><path class="cls-12" d="M838.8,868.94c10.15,1,20.32,1.78,30.44,2.95,7.89.91,18.26,2.9,21.68,11.21,2.67,6.51-3.66,11.12-9.51,11.82-8.64,1-17-5.24-23.61-10-3.31-2.4-8.32-.55-10.26,2.69-2.25,3.76-.57,7.9,2.69,10.26,10.46,7.57,22.53,14,35.84,11.37,11.36-2.27,21.35-12.17,20.43-24.31-1-13.29-12.13-22.43-24.24-25.83-13.81-3.87-29.24-3.81-43.46-5.17-9.6-.93-9.53,14.08,0,15Z"/><path class="cls-12" d="M850.23,885.33l-34.84,2.1c-9.6.58-9.66,15.59,0,15l34.84-2.1c9.59-.58,9.65-15.58,0-15Z"/><path class="cls-12" d="M853.24,881.22a2.09,2.09,0,0,1-.24-.28l1.17,1.52a2.55,2.55,0,0,1-.25-.46l.76,1.79a2.51,2.51,0,0,1-.12-.49l.27,2a4.34,4.34,0,0,1,0-.51l-.27,2a4,4,0,0,1,.22-.84l-.75,1.79a4.13,4.13,0,0,1,.45-.79l-1.17,1.52a4.37,4.37,0,0,1,.64-.65L852.43,889a4.07,4.07,0,0,1,.76-.44l-1.79.76a2.72,2.72,0,0,1,.49-.13l-2,.26a2.9,2.9,0,0,1,.51,0l-2-.27a2.23,2.23,0,0,1,.51.12l-1.79-.76a2.49,2.49,0,0,1,.33.16,7.84,7.84,0,0,0,5.77.75,7.68,7.68,0,0,0,4.49-3.44c1.84-3.48,1-8.29-2.69-10.26a10.33,10.33,0,0,0-12.39,16.1,7.58,7.58,0,0,0,10.61,0,7.66,7.66,0,0,0,0-10.6Z"/><path class="cls-12" d="M766.67,864.5c3,8.22,10.49,14.53,19.6,14a19.94,19.94,0,0,0,18.17-15.81c1.85-9.43-12.6-13.46-14.47-4-.85,4.36-6.84,7.33-8.83,1.78-3.25-9-17.75-5.13-14.47,4Z"/><path class="cls-12" d="M550.32,865.16c-3.5,14,8.9,29,23.7,25.83,13.75-2.92,20.86-21,12.07-32.15-8.39-10.63-27.56-10-31.25,4.55-1.55,6.11.25,13.08,5.18,17.14a15.07,15.07,0,0,0,9.39,3.35c3.33.07,7.43-2,10.65-1.48,3.61.63,6.82,4.79,10.42,6.06a14.06,14.06,0,0,0,11.95-.79c6.83-4.12,7.74-16.1-.23-19.58-4.55-2-9.37-.52-11,4.48-1.15,3.51-3.75,7.3-7.82,7.39-2,0-6.21-2.18-4.16-4.63L566.39,870c-1.13,15.35,13.89,26.79,28.35,24,9.46-1.84,5.46-16.3-4-14.47-5.54,1.08-9.72-4.58-9.36-9.51.46-6.25-8.7-10.23-12.8-5.31-8.42,10.1-4.41,25.52,8.59,29.39s24.54-5.61,28.47-17.55l-11,4.48c3-3.89,3.06-6.22.24-7a22.81,22.81,0,0,1-2.53-1.7,34.91,34.91,0,0,0-5.08-3.23c-4.3-2-8.58-1.81-13.14-1-1.21.22-3.66,1.27-4.91.69,1.4.66-.29.53.06-.7.43-1.45-.24-1.42,1.24-1.84,5.36-1.49,5,6.3,2.57,8.62-3.92,3.78-9.46-1.15-8.3-5.8,2.34-9.36-12.12-13.36-14.46-4Z"/><path class="cls-12" d="M514.69,862.55c-1.7,2.42-3.51,5.16-6,6.89a7,7,0,0,1-2.75,1.28c-.88.1-1.81-.5-2.49-.43.42,0,.36.91-.22.92-.21,0-2.53-.65-2.23-.76-.14,0-1,1.84-1.28,2.2a20.69,20.69,0,0,1-4.17,3.27c-4.93,3.35-5,12.29,1.8,13.71l25,5.23c9.42,2,13.45-12.49,4-14.46l-25-5.24,1.79,13.71c8.11-5.5,16.64-14.59,11.25-25.12-4.93-9.62-19-9.49-24,0s2,20.21,11.93,21.69c11.57,1.73,19.28-6.77,25.34-15.35,5.57-7.9-7.43-15.4-13-7.57Z"/><path class="cls-12" d="M484.22,873.68l-4.49,10.11c-1.59,3.57-1.16,8.22,2.69,10.26,3.26,1.72,8.56,1.14,10.26-2.69l4.49-10.11c1.59-3.58,1.16-8.23-2.69-10.27-3.26-1.72-8.56-1.13-10.26,2.7Z"/><path class="cls-12" d="M382.1,871.92l4.95,1.61-1.79-13.7A67.66,67.66,0,0,1,340,869.4c-4-.6-8,1-9.23,5.24-1,3.54,1.24,8.63,5.24,9.23,19.8,3,39.64-.59,56.8-11.09,5.65-3.46,4.32-11.71-1.79-13.71l-5-1.62c-9.2-3-13.14,11.48-4,14.47Z"/><path class="cls-12" d="M214.8,895.45c-1,3.93-5,6-8.31,3l1.92,3.31-.19-.8v4q-7.4-2.4-6.9,1.42,0,.76,0,1.53c0,1.37-.17,2.72-.12,4.09a15.45,15.45,0,0,0,3.74,9.94c4.11,4.45,11.1,5.39,16.46,2.88,6.11-2.86,9-9.54,7.94-16.07a16.55,16.55,0,0,0-4-8.34,14.3,14.3,0,0,0-2.34-2.26,1.61,1.61,0,0,0-.95-.81q-.75,8.92-7,3.76c5.1,8.17,18.08.65,13-7.57a11.39,11.39,0,0,0-15.84-3.63c-5.57,3.54-6.12,10.71-2.5,15.82,1.37,1.92,3.24,3.12,4.72,4.85,1,1.2-.71,1.86,1.17.71-.27.17.33,1,.6.72a26.1,26.1,0,0,0,.12-4.09,18.22,18.22,0,0,0-2-9.45,11.34,11.34,0,0,0-15.92-4c-7,4.51-5.57,13.23,1,17.31,11.59,7.26,26.74.79,30-12.33,2.32-9.37-12.14-13.37-14.46-4Z"/><path class="cls-12" d="M261.81,891.23a33.23,33.23,0,0,1,29.08-7.4c9.4,2.1,13.42-12.36,4-14.46a49.08,49.08,0,0,0-43.66,11.25c-7.26,6.39,3.38,17,10.6,10.61Z"/><path class="cls-10" d="M238.07,877.56,300.34,866l31.13-5.77c9.41-1.74,19.14-3,28.31-5.76,21.22-6.51,36.86-22.9,40.38-45.11,3.22-20.29-.35-40.79-6.66-60.18-6.39-19.68-15.47-38.42-24.53-57l-28-57.36c-4.53-9.28-8.44-19.6-16.17-26.79-11.9-11.07-31.09-12.44-42.63.09-8.09,8.8-9.45,20.5-11.72,31.71L264.13,671,235.77,810.82c-2.35,11.6,3.24,24.68,15.72,27.67,18.86,4.53,36.73-4.73,46.8-20.75,7.58-12,10.29-27.47,14.07-41l23.25-83.12-44.2-6L287.16,806c-.32,8.91,5.91,17.22,13.83,20.56,8.95,3.78,17.28,1.17,24.58-4.65,26.88-21.49,37.58-57.53,31.66-90.66L316.1,748.56c4.21,7,8.1,14.14,11.86,21.42,2.15,4.18-1.26-3.8.48,1,.59,1.62,1.21,3.24,1.74,4.89.71,2.19,1.32,4.42,1.82,6.67.45,2.07,0,6.5.23.27-.13,3.11.38,6.22.15,9.37-.43,5.8,1-4-.08.45-.35,1.4-.65,2.78-1.07,4.16-.28.91-.58,1.81-.92,2.69q2-4.44.87-2.13c-.8,1.42-1.6,2.85-2.41,4.27-2.17,3.85,3.35-3.15.1-.16-1.15,1.06-6.08,4.89-.75,1.07-9.54,6.84-15.08,19.91-8.08,30.78,6.1,9.46,20.56,15.41,30.79,8.07a63.76,63.76,0,0,0,26.63-55.7c-1.14-22-11.42-41.35-22.5-59.84a22.59,22.59,0,0,0-28.1-9.21c-10.89,4.59-15,15.33-13,26.54.87,4.84-.25-4.64,0-.1.1,1.48.25,2.95.29,4.43a84.89,84.89,0,0,1-.28,8.88c-.38,5.17,1-5.18,0-.1-.3,1.45-.57,2.91-.92,4.35-.71,2.9-1.64,5.7-2.63,8.51-1.47,4.19,2.18-4.16,0,.09-.69,1.32-1.31,2.67-2,4-1.43,2.62-3.08,5.06-4.74,7.53-2.45,3.63,3.12-3.32-.15.1-.85.9-1.63,1.85-2.49,2.75a72.88,72.88,0,0,1-7.13,6.47L332.16,806l4.25-118.34c.4-11.19-8.87-20.67-19.51-22.1a22.51,22.51,0,0,0-24.69,16.12l-20,71.66c-3.22,11.51-6.2,23.13-9.71,34.56-.33,1.09-.72,2.17-1.05,3.27-1.57,5.09,1.48-2.46,0,.16-.68,1.23-1.35,2.48-2,3.73-1.74,3.25-.11-.77.61-.64.07,0-4.07,3.81-1.07,1.23s-1.53.59-1.53.59c.65-.73,4.24-1.66,1.21-.86,3.36-.33,4.16-.49,2.39-.5s-1,0,2.4.25l15.71,27.68L302,710.11l11.22-55.36L316,641.16c.36-1.8.87-3.6,1.16-5.41s1.83-2.89-1,1.76c2.32-3.86-5.08,4.47-5,4.43-4.4,2.53-11.59,2.6-15.77,0-.1-.06-3.33-3.34-2-1.54,3,3.93-1.46-3.08.34.45,2.09,4.07,4.12,8.16,6.13,12.28l25.39,52c4,8.18,8,16.34,11.92,24.57q2.53,5.34,4.94,10.74c.5,1.11,1,2.23,1.46,3.33,1.07,2.35-.39-1-.48-1.2,1,2.19,1.84,4.48,2.71,6.73a199.34,199.34,0,0,1,8,24.91c1,4.1,1.71,8.23,2.47,12.37.5,2.74-.25-1.74-.24-1.88a20.1,20.1,0,0,0,.29,2.85c.16,1.93.26,3.86.28,5.79,0,1.69,0,3.39-.13,5.08-.33,5.22.86-3.52.06.46-.33,1.62-.65,3.23-1.1,4.83-.2.67-.43,1.33-.62,2-1.26,4.35,1.74-3,.42-.91-.36.6-2.54,3.84-2.4,4.15-.09-.2,3.09-3.43,1.41-1.86a18.11,18.11,0,0,0-1.92,2c-1.5,2,1.81-1.42,1.7-1.15-.19.45-2.5,1.62-2.7,1.74-.69.4-1.44.71-2.13,1.11-2.26,1.35,4.15-1.29.16-.15-19.18,5.5-39.43,8-59,11.66l-64.21,11.9c-11.6,2.15-19.23,16.8-15.71,27.68,4,12.41,15.25,18,27.67,15.71Z"/><path class="cls-10" d="M378.34,762.88c11.77,0,23-10.35,22.5-22.5s-9.89-22.5-22.5-22.5c-11.77,0-23,10.35-22.5,22.5s9.88,22.5,22.5,22.5Z"/><path class="cls-10" d="M378.34,857.26c11.77,0,23-10.34,22.5-22.5s-9.89-22.5-22.5-22.5c-11.77,0-23,10.35-22.5,22.5s9.88,22.5,22.5,22.5Z"/><path class="cls-10" d="M229.54,840.8l-6.74,2.25a16.85,16.85,0,0,0-7.65,4,17,17,0,0,0-5.8,6.31,16.82,16.82,0,0,0-2.67,8.36,17.15,17.15,0,0,0,.4,9c1.77,5.44,5.14,10.69,10.34,13.44s11.59,4.19,17.34,2.27l6.74-2.25A25.12,25.12,0,0,0,255,873.85a16.82,16.82,0,0,0,2.67-8.36,17,17,0,0,0-.4-9c-1.76-5.45-5.14-10.7-10.34-13.45s-11.59-4.19-17.34-2.27Z"/><path class="cls-10" d="M287.33,639.29c11.77,0,23-10.35,22.5-22.5s-9.89-22.5-22.5-22.5c-11.77,0-23.05,10.35-22.5,22.5s9.88,22.5,22.5,22.5Z"/><path class="cls-10" d="M531.11,796.39a57.87,57.87,0,0,0-26.3,34.4c-3.66,13.34,6.93,29.44,21.7,28.48l38.08-2.48c12-.79,22.61-9.67,22.5-22.5-.14-15.1-3.15-32.18-15.28-42.55-7.25-6.19-15.95-10.19-25.62-10.49s-17.93,3.46-25.24,9.66c-9,7.64-8.46,24.06,0,31.82,9.58,8.8,22.21,8.15,31.82,0a11.74,11.74,0,0,1-5.6,3.25c1.79-.42,1.61-.43-.52,0q-3.25.34-.46.31-5.38-.9-2.77-.22c1.65.49.89.13-2.26-1.09a17.85,17.85,0,0,1,2.31,1.35L541,824.44q2.36,2.49-.84-1.34a16,16,0,0,1,1.17,2q1.15,2.25-.72-1.86c.64.2,1,3.69,1.23,4.49,1.34,4.66-.08-4.27,0,.26,0,2.1.2,4.2.22,6.31l22.5-22.5-38.08,2.48,21.69,28.48q.38-1.46.87-2.88-2.07,4.56-.49,1.24c.35-.57,3.23-6,1.47-2.78-1.61,2.95,1.6-1.46,2.27-2.18,1.83-1.58,1.49-1.34-1,.7.82-.57,1.67-1.11,2.54-1.6,10.12-6,14.7-20.51,8.08-30.78s-20-14.52-30.79-8.08Z"/><path class="cls-10" d="M294.07,535.16c7.84,0,15.36-6.9,15-15s-6.59-15-15-15c-7.85,0-15.37,6.9-15,15s6.59,15,15,15Z"/><path class="cls-10" d="M725.81,498.56a47.83,47.83,0,0,1,12,16.54,42.36,42.36,0,0,1,2.85,8.23c.47,1.78.85,3.58,1.19,5.39s.34,2.07.1.69q.16,1.58.24,3.15c.48,7.82,6.55,15.38,15,15,7.71-.35,15.51-6.61,15-15-1.29-20.95-9.9-40.69-25.21-55.21-5.88-5.58-15.38-5.84-21.21,0-5.63,5.62-5.9,15.61,0,21.21Z"/><path class="cls-10" d="M762.18,624.32l24.1,77.37c2.41,7.73,10.46,12.68,18.46,10.48,7.63-2.1,12.89-10.69,10.47-18.45l-24.1-77.37c-2.41-7.74-10.45-12.68-18.45-10.48-7.63,2.1-12.9,10.69-10.48,18.45Z"/><path class="cls-10" d="M771.6,713.81c7.84,0,15.36-6.9,15-15s-6.6-15-15-15c-7.85,0-15.37,6.9-15,15s6.59,15,15,15Z"/><path class="cls-10" d="M762.61,734c7.84,0,15.36-6.9,15-15s-6.59-15-15-15c-7.85,0-15.37,6.9-15,15s6.59,15,15,15Z"/><path class="cls-10" d="M750.25,706.28h-1.13a16.64,16.64,0,0,0-10.6,4.39,11.14,11.14,0,0,0-3.1,4.83,11.4,11.4,0,0,0-1.3,5.78l.54,4a15,15,0,0,0,3.86,6.62l3,2.34a14.94,14.94,0,0,0,7.57,2h1.13a15.41,15.41,0,0,0,15-15l-.54-4a15,15,0,0,0-3.86-6.62l-3-2.34a14.94,14.94,0,0,0-7.57-2.05Z"/><path class="cls-10" d="M734.52,731.79c7.84,0,15.36-6.9,15-15s-6.59-15-15-15c-7.85,0-15.37,6.9-15,15s6.59,15,15,15Z"/><path class="cls-10" d="M728.9,723.92c7.85,0,15.36-6.9,15-15s-6.59-15-15-15c-7.85,0-15.36,6.9-15,15s6.59,15,15,15Z"/><path class="cls-10" d="M726.65,714.93c7.85,0,15.36-6.9,15-15s-6.59-15-15-15c-7.84,0-15.36,6.9-15,15s6.59,15,15,15Z"/><path class="cls-10" d="M734.52,703.7c7.84,0,15.36-6.9,15-15s-6.59-15-15-15c-7.85,0-15.37,6.9-15,15s6.59,15,15,15Z"/><path class="cls-10" d="M712.21,707.41l-21.06,36.12a15,15,0,0,0,25.9,15.14l21.06-36.12a15,15,0,1,0-25.9-15.14Z"/><path class="cls-10" d="M684.35,759.13a284,284,0,0,1,2.58,74.51c-.73,7.84,7.42,15.34,15,15,8.75-.39,14.21-6.61,15-15a309.8,309.8,0,0,0-3.66-82.48c-1.39-8-11.17-12.48-18.45-10.48-8.43,2.32-11.87,10.44-10.47,18.45Z"/><path class="cls-10" d="M708.44,854.53A239.83,239.83,0,0,1,861.91,854c7.45,2.46,16.71-2.86,18.45-10.48A15.35,15.35,0,0,0,869.88,825a269.08,269.08,0,0,0-169.41.56c-7.67,2.6-12.71,10.32-10.48,18.45,2.06,7.48,10.75,13.09,18.45,10.48Z"/><path class="cls-10" d="M864.13,822.2a636.87,636.87,0,0,0-41.84-117.79c-3.43-7.34-14-9.21-20.52-5.38-7.52,4.39-8.82,13.15-5.38,20.52A599.3,599.3,0,0,1,835.2,830.18c1.94,7.87,10.8,12.58,18.46,10.48a15.24,15.24,0,0,0,10.47-18.46Z"/><path class="cls-10" d="M802.35,705.35c-4.38,1,2.35.18-2.15.43a42.8,42.8,0,0,1-4.67,0c2.46.14-1.72-.34-2.15-.45s-4.42-1.51-2.27-.57c-7.18-3.13-16.44-2.36-20.53,5.38-3.42,6.48-2.29,17.17,5.39,20.52,11.22,4.89,22.31,6.4,34.36,3.64,7.65-1.76,12.89-11,10.47-18.46a15.32,15.32,0,0,0-18.45-10.47Z"/><path class="cls-10" d="M776.71,704.17c-6.47,12.05-15.64,22.53-26.25,29.57a58.12,58.12,0,0,1-9.88,5.68c1-.4-2.86.8-2.93.81,1.19-.12.83-.15-1.07-.08a2.73,2.73,0,0,1,1.81.37c1.83,3,2.3,6.11-.28,9.15-.71.84-3.83.24.09.44a24.64,24.64,0,0,1,5,.9l-6.62-25.07a196.19,196.19,0,0,0-27.47,38.63C701.39,779,692,799,705.72,813.09c14,14.36,37.79,5.84,43.38-12.07,2.66-8.51.94-17.29-.74-25.77-.33-1.7-.21-5.54-.5-6-.4-.61.47-.76-.17.36-.12.21-1.4,1.52-.2.25s-.19.27-.35.25l-1.13.55a6.16,6.16,0,0,1-4.8-.25c-1-.39-4.15-3.49-2.56-1.6l-.32-.7c-.37-.9-.43-.94-.16-.12,0,0,.81,3.21.35,1-.34-1.58.11,2.21.12,3,0,2.09-.12,4.17-.21,6.25l-1.22,28.54c-.73,17,25.14,20.21,29.47,4l2.84-10.65c3.86-14.45-14.4-25.2-25.07-14.6l-22.66,22.53a15,15,0,0,0-1.17,19.69c5,6.26,12.31,7,19.35,3.87,23.25-10.32,41.36-33.68,45.76-58.74a100.43,100.43,0,0,0,1.34-20.11c-.08-3.3-.28-6.35.46-8.33l-.5,1c.93-1.47.91-1.62,0-.45q1.89-1.83,0-.33a5.21,5.21,0,0,1-2.61.47c-2.39-.09-2.64-1.27-4-2.64l.43,1.56c-.12-1.32-.13-1.05,0,.84,0-.09-.56,5.11-.14,2.52a52.2,52.2,0,0,1-6.79,19c-6.91,11.89-19.68,22.15-18.5,38.67,1.26,17.77,17.84,28.21,34.67,23.9,16.06-4.12,24.16-18.62,26.09-34.09.75-6,.58-12,.76-18,0,.2.47-5.18.06-2.7,0-.07,1.58-5.05.56-2.37l-.79.82q1.88-1.81,0-.29c-2,.15-3.47,1-5.43-.19-1.44-.89-1.68-3.15-1.05-.81-.86-3.2.26,1.07.31,1.36-.71-4.2-.68,1.91-.33-.17a34.54,34.54,0,0,1-2.16,6.71c-3,7.52-7,16.59-6.09,26,2,21,25.35,32.92,42.21,18.93,6.24-5.18,5.36-15.86,0-21.21-6.17-6.18-15-5.19-21.21,0,2.8-2.33,4-2.39,7.09-2.08-2.55-.26.32.4,1.28,1-2.67-1.74.23.89.46,1l0,.58c.16-1.88.1-2.29-.18-1.24.54-7.38,5.12-12.77,7.12-20.1,4.26-15.61-2-34.74-19.34-38.7-8.76-2-17.85,1.42-23.87,7.92s-8.1,15.09-8.56,23.78c-.33,6,.33,12.14-.61,18.11.43-2.69-.69,2.42-.67,2.33-.87,4.36.85-1.78-.86,2.31-1.93,4.62,1.36-2.19-.8,1.19q-1.89,1.68.12,0a19.24,19.24,0,0,1-2.18,1.21c3.09-1.48-.37-.13-1.07,0l1.61-.26c-1.45-.06-1.56,0-.32.14l.86.13q-2.42-.71.42.36c3.29,2.44-.56-1.51,1.18,1.07,1.18,1.76-.33,2.31.65.32-1.35,2.73,1-2.45,0,.19a25.42,25.42,0,0,1,2.53-4.29,39.1,39.1,0,0,1,2.79-3.56c9.2-11.52,16.36-24.37,19-39,1.59-8.73,1.9-17.69-2.3-25.8S795,715.55,785.78,715.25c-18.89-.61-28.61,17.39-28.78,34,0,3.94.32,7.87.14,11.81-.07,1.44-.17,2.89-.35,4.32.38-3-.27,1.09-.4,1.7a75.7,75.7,0,0,1-2.83,9.69c-1.49,4.23,1.32-2.25-.76,1.73-.89,1.71-1.73,3.44-2.71,5.11-.73,1.25-1.5,2.47-2.31,3.67-.53.8-1.09,1.59-1.66,2.37.74-.93.78-1,.13-.18a69.28,69.28,0,0,1-6.43,6.84c-1.06,1-2.14,1.93-3.27,2.83,2-1.64-2.36,1.6-2.8,1.88a65.65,65.65,0,0,1-8.92,4.74L743,829.32l22.65-22.52-25.07-14.6-2.84,10.66,29.46,4c.44-10.15.9-20.29,1.3-30.44.34-8.43-.32-17.41-5.13-24.63A23.56,23.56,0,0,0,732,744.21c-10.16,5.86-14.91,17.42-14.1,28.8.39,5.48,2,10.7,2.68,16.12-.32-2.64,0,3-.11,3.57.21-1.54.11-1.42-.29.34a2.91,2.91,0,0,1,1.05-1.78q2.22-1.46,0-.15a4,4,0,0,1,2.79-.76q-2.64,0,.36.15a6.53,6.53,0,0,1,2.52,1.37q2.55,5.29,1.41,1.67c.3,1.65.42,1.56.37-.29-.14,1.53,0,1.38.33-.45.28-1,.6-2,1-2.92q-.91,2,.35-.78c.49-1.06,1-2.11,1.49-3.16,1-2.1,2.08-4.17,3.18-6.23q3.29-6.16,7.07-12.05a146.09,146.09,0,0,1,15.7-20.51c7.16-7.95,5-22.45-6.62-25.07-8.44-1.91-16.89-3.05-25.1.33-7.47,3.07-13.53,9.23-15.31,17.26A24.32,24.32,0,0,0,719,763.28c7,6.06,16,7.81,25,6.18,12.9-2.33,25.13-11.41,34.77-19.87a109.18,109.18,0,0,0,23.9-30.27c3.83-7.14,1.78-16.34-5.39-20.53-6.81-4-16.67-1.77-20.52,5.38Z"/><path class="cls-11" d="M542.36,790.46l-13.62-1.23,2,14.73,11.32-1.73c4-.61,6.22-5.65,5.24-9.23-1.18-4.28-5.21-5.85-9.23-5.23l-11.32,1.73c-3.64.55-5.87,4.92-5.37,8.22.58,3.89,3.54,6.16,7.36,6.51l13.62,1.23c4,.36,7.5-3.71,7.5-7.5,0-4.36-3.45-7.14-7.5-7.5Z"/><path class="cls-11" d="M506.55,818.28a53.22,53.22,0,0,1-.61,22.42c-1.44,5.83.81,14.27,6.89,16.94,12.92,5.66,26.89,1.91,34.67-10.26,3.44-5.37,4.7-11.77,5.2-18,.22-2.73.16-5.45.13-8.18,0-1.09,0-2.18,0-3.27,0-.38.17-4.17.05-2.92a8.3,8.3,0,0,1,1.07-3.56c-1,1.16-.86.88.18.12-.4.3-3.17,1.79-1.54,1.16,1.38-.54-1.15.11-1.73.08-2.06-.14-3.43-2.38-4.92-2.74-.92-.23-.12-1.75-.09.37,0,2.76,0-.61.16,1,.44,5.51.9,11,1.26,16.53.07,1.07.14,2.14.15,3.21,0,.8,0,1.61,0,2.41l.06-.87c2.68-2.8,5.93-5.1,10.26-2.58l5.38,20.53c-1.2,1.29-1.41,1.56-.64.79s.52-.54-.8.68c-1.71.63-2,.79-1,.47s.73-.24-1.17.11c3.08,0-2.64-1,.48.13-.94-.33-3.87-2.67-2.11-.62,5.29,6.14,15.79,5.43,21.22,0,6.09-6.09,5.3-15.06,0-21.22-11.41-13.23-33.22-9.65-41.92,4.51-4.24,6.91-1.51,16.51,5.38,20.53,8.52,5,19,3.54,26.28-2.94,6.45-5.72,8.78-14.33,8.57-22.73-.17-7-.83-14.14-1.6-21.09-1-9.17-4.08-18.22-12.52-23.19-15.92-9.38-34.56,2.65-38.9,18.93-1.92,7.21-1.29,14.53-1.53,21.88,0,.82-.06,1.63-.13,2.45.18-1,.17-1,0,0a18.4,18.4,0,0,1-.61,2.32c.38-.82.35-.83-.1,0s-.47.79.2-.31c1.05-.7,1.14-.78.25-.24s-.8.46.44-.2a6.18,6.18,0,0,1,5.13.83l6.9,16.94a86,86,0,0,0,.61-38.36c-1.62-7.94-11-12.52-18.45-10.48-8.25,2.27-12.1,10.49-10.48,18.45Z"/><path class="cls-11" d="M746.15,708.92l.63-13.67-29.46,4c.08.25.87,4.53.71,2.31,0,.07-.21,4.68.1,2.42a25.92,25.92,0,0,1-1,4c-.23.79-.5,1.58-.8,2.35.32-.77.26-.7-.17.23-2.74,5.65-5.78,9.27-9.37,13.68-9.11,11.2-17.12,22.58-20,37-5.84,29.26,4.94,56.46,16.24,82.9l5.38-20.52-3.94,2.72c-6.66,4.59-9.69,13.16-5.38,20.52,3.85,6.6,13.82,10,20.52,5.39l3.94-2.73c7.32-5,8.79-12.55,5.39-20.52-4.63-10.82-9.75-23.39-12.4-35.71a60.88,60.88,0,0,1,1.37-32.12l.58-1.56c-.32.76-.27.68.16-.25.61-1.27,1.28-2.52,2-3.74.88-1.48,1.83-2.93,2.82-4.34,0,0,2.44-3.27,1.82-2.47,4.34-5.56,9.05-10.84,13-16.69,8-11.79,12.35-26.88,8-40.83-5.12-16.28-28.67-13-29.47,4l-.63,13.67c-.37,7.85,7.16,15.35,15,15a15.32,15.32,0,0,0,15-15Z"/><path class="cls-11" d="M723.74,724.9c23.08,10.82,49.15,4,64.22-16.48L771,715.31c10.51,4.1,22.91,6.09,33.05-.21,11.75-7.29,14-20.82,12-33.46-1.68-10.49-5.52-20.81-8.45-31l-10-34.57a15,15,0,1,0-28.93,8q7.66,26.63,15.34,53.26c1,3.6,2.16,7.19,2.84,10.89.19,1.09.18.95,0-.43.08.93.12,1.87.11,2.8q-.16,2.73.09,0c-.45,1.46-.48,1.67-.09.65a2.79,2.79,0,0,1,1.07-1.53q2-1.12-.32.2c2.41-.65,2.25-.59-.1-.74-1.07-.07-1-.06.23,0-1-.21-2-.47-3-.76-2-.57-3.9-1.3-5.82-2-6.61-2.57-13.25,1.89-16.94,6.9,1.78-2.42-1.72,1.62-2.12,2q-2,1.68-.12.22c-.73.52-1.49,1-2.26,1.49a37.28,37.28,0,0,1-3.59,1.9c2.83-1.31-2.2.6-2.82.75-.88.23-1.77.42-2.66.58,1.74-.2,1.72-.21-.06,0-1.35,0-2.72,0-4.07,0-1.79-.16-1.8-.12-.05.11-.89-.15-1.77-.33-2.65-.55-.66-.17-5.56-2.13-2.77-.82-7.33-3.43-16.18-2-20.53,5.38-3.8,6.51-2,17.07,5.39,20.52Z"/><path class="cls-11" d="M726.88,497l17.35,37.37c3.41,7.35,14,9.2,20.52,5.38,7.54-4.41,8.81-13.15,5.39-20.52l-17.36-37.37c-3.41-7.35-14-9.2-20.52-5.38-7.54,4.41-8.81,13.15-5.38,20.52Z"/><path class="cls-11" d="M283.47,626.06c.76.05,2.7.56.07-.08.64.16,1.31.24,1.94.44.83.27,4.56,1.86,2,.54,1.18.6,2.34,1.23,3.46,1.94.75.47,1.49,1,2.2,1.51-1.24-.92-.7-.61.12.22,2.33,2.32,4.61,4.56,6.72,7.1-1.45-1.74.72,1,1.12,1.54,1.12,1.57,2.19,3.18,3.22,4.8,9,14.2,16.6,29.47,24.72,44.21,8.65,15.69,17.52,31.29,25.88,47.14,7.34,13.9,13.83,28.56,15.95,43.79,2.74,19.72-.3,39.28-3.82,58.35-1.42,7.69,2.11,16.55,10.48,18.45,7.35,1.68,16.93-2.22,18.45-10.47,3.67-19.93,6.9-40.38,5.43-60.7s-7.81-39.05-16.86-57.29c-8.72-17.6-18.7-34.63-28.18-51.83-8.82-16-16.94-32.7-26.93-48-10.84-16.61-25.26-30.3-45.94-31.65-7.85-.52-15.35,7.26-15,15,.38,8.56,6.59,14.45,15,15Z"/><path class="cls-11" d="M317.66,629.54c7.85,0,15.37-6.9,15-15s-6.59-15-15-15c-7.84,0-15.36,6.9-15,15s6.59,15,15,15Z"/><path class="cls-11" d="M292.94,535.16c7.85,0,15.37-6.9,15-15s-6.59-15-15-15c-7.84,0-15.36,6.9-15,15s6.59,15,15,15Z"/><path class="cls-11" d="M228,759.17c5.86,16.35,13.27,32.14,18.42,48.74,4.74,15.3,7.21,30.41,3.59,45.22-1.86,7.6,2.42,16.61,10.47,18.45,7.74,1.76,16.46-2.33,18.46-10.48,4.67-19.1,2.83-38.86-2.54-57.62-5.12-17.91-13.2-34.78-19.47-52.28-2.73-7.62-10.22-12.74-18.45-10.48-7.37,2-13.22,10.79-10.48,18.45Z"/><path class="cls-11" d="M209.39,850l-3.34,15.74c-1.63,7.65,2.26,16.58,10.48,18.45,7.53,1.71,16.7-2.27,18.45-10.48L238.32,858c1.63-7.66-2.26-16.58-10.47-18.46-7.54-1.71-16.71,2.27-18.46,10.48Z"/><path class="cls-13" d="M445.89,61.32c-2.1,10-2.38,20.22,4.93,28.26,6.75,7.42,18.1,9.59,26.78,4.16,7.34-4.6,10.1-12.57,12.51-20.41L497.3,50c2.31-7.5-2.74-16.69-10.48-18.45A15.31,15.31,0,0,0,468.37,42l-7.19,23.34c-.5,1.62-1,3.25-1.51,4.86q1.06-2.19-.12.13l.81-1q6.58-4.73,12.1-.47L474.3,72c.1,1.06.15.62.13-1.32,0,1,.13.55.39-1.37,1.6-7.66-2.25-16.57-10.48-18.45-7.52-1.71-16.73,2.26-18.45,10.48Z"/><path class="cls-14" d="M98.35,191.89c-.78-4.11-.64,4,.14-.23a22,22,0,0,1-1,3.73c1.15-3-.6.63-.84,1.05-1,1.41-1,1.45,0,.1-.44.5-.9,1-1.38,1.43s-1,.91-1.46,1.33c1.3-1,1.25-1-.17-.05-.72.35-4.1,1.62-1.12.71-1.24.38-3.71.79-1,.55a20.21,20.21,0,0,1-2.58.07q2.75.51.11,0l9,22c12.13-27,30.94-47.94,56.45-61.61,1.29-.69,3.31-1.35,3.56-1.64,1.33-1.52.76.42.21-.24a20.3,20.3,0,0,0-1.84-.9c1.37.81,1.32,1.51-.05-.53-1.07-1.58-2.24-2.81-2.26-5,0-3.52.89-3.82,2.39-5.71-1.1,1.39-.53.21.45-.22-.45.2-4.09,2.12-2.62,1.46s-2.33.87-3,1.12c-3.74,1.48-7.43,2.91-10.7,5.26-13.78,9.9-20.22,26.29-17.65,42.95,1.3,8.39,5.61,15.93,13.11,20.19a28.61,28.61,0,0,0,27.06.06c16.54-9,18-32.53,3.93-44.52-16.2-13.78-42-3.3-44.82,17.65-2.89,21.57,18.18,35.18,37.57,34.58,17.71-.54,39.76-6.08,49-22.82,8.56-15.57,2-41.38-17.79-44.28v28.93l10.82-1.79c9.78-1.63,13.37-14.38,9-22l-7.23-12.55L186.5,173c.51.12,3.63.41,1.72.38-.84-.36-.89-.34-.14.07.9.57.72.39-.56-.54a23.94,23.94,0,0,1,1.74,1.75c-1.9-2.13,0,.57.1.56.38.76.39.73,0-.09-.42-1-.4-.85.08.55.35,1.85,0,.76.05-.34-.06.63-.67,3.5,0,1.67.91-2.45-2,2.88.2-1-.9,1.57-.59.48.28-.16-3.06,2.26,1.82-.81-.12.31-.76.44-3.09,1.41-.13.38-.76.26-1.52.47-2.29.7-3.7,1.14,1.95-.69-.15,0-1.31.43-3-1-.15.16-.7-.3-1.53-.4-2.26-.66,3.15,1.14.18-.29-.54-.81l-3.58,27.41q1.41-.34,2.85-.57c-1.36.19-1.48.25-.39.16,1.46-.05,2.89,0,4.35,0,1.09.09,1,.05-.39-.14q1.44.23,2.85.57a43.36,43.36,0,0,1,4.17,1.24c-2.49-.86,1.48.72,1.72.86a37.93,37.93,0,0,1,3.71,2.27c-2.14-1.48,1,.93,1.45,1.33a39.6,39.6,0,0,1,3.83,4.35c3.57,4.6,11.55,5.23,16.39,3.1,5.16-2.27,9.59-7.72,9.22-13.71l-.85-13.41c-.49-7.81-6.55-15.37-15-15-8.1.37-15,6.6-15,15,.09,21,.36,40.46-6.24,59.93a45.76,45.76,0,0,1-4.62,10.35c-1.09,1.94-2.28,3.83-3.54,5.67-.57.81-1.14,1.63-1.75,2.41,1.5-1.92-1.23,1.35-1.42,1.56-5.71,6.4-9.38,9.73-17.89,13.25,2.3-.95,0-.06-.41.05-1.14.32-2.26.73-3.41,1-.92.24-1.85.42-2.78.63-2.37.55,2.19-.14-.25.09a45.49,45.49,0,0,1-6.5.16c-1-.05-2-.12-2.93-.25,2.65.35-1-.33-1.69-.49a55.08,55.08,0,0,1-5.44-1.68c-2.81-1-.91-.41-.34-.13-.86-.42-1.71-.83-2.55-1.28a62,62,0,0,1-5.54-3.33c-.81-.54-1.6-1.1-2.38-1.66-1.19-.87.89.85-1-.82a143.2,143.2,0,0,1-18.62-19.83c1.32,1.71-2-2.72-2.26-3-1.19-1.62-2.36-3.26-3.52-4.9-1.31-1.84-2.56-3.69-3.72-5.62-.33-.54-.39-.55-.35-.57-.29-1.1-.34-.93-.13.51l-1.18,3.7-2.62,2.67a5.07,5.07,0,0,1-4.57,1c-1.12-.25-.92-.18.58.21l-1.11-.31c-1.71-1.63.09.13.32.4,1,1.1,2,2.16,2.92,3.3,4.09,5,8,10.05,12,15.08l24.73,31c4.08,5.11,12.9,5.43,18.17,2.35a15.31,15.31,0,0,0,6.9-16.94l-19.87-71.47-28.93,8,27.6,67.6c2.86,7,8.47,11.81,16.46,10.74,6.7-.9,13.82-7.3,13-14.73L161,249.21l-1.92-17.37c-.21-2,.13-5.86-.72-7.54-.58-1.14-.53,1.64-.16.34.45-1.61,1.3-2-.17-.3l-1.14,1.37L140.17,224c-.12-.19-1.25-2.68-.84-2.74-.08,0,.31,7.53.34,8.22l.67,17.93,1.38,36.85c.64,17.21,24,20,29.46,4l25-72.49H167.22a80.15,80.15,0,0,1,2,9.2c-.38-2.56.18,2.23.18,2.25.12,1.56.19,3.13.22,4.7a82.58,82.58,0,0,1-.3,8.62c-.06.79-.14,1.57-.23,2.35.17-1.14.17-1.17,0-.1-.25,1.55-.54,3.09-.88,4.63a71.45,71.45,0,0,1-4.84,14.94,86,86,0,0,1-8.71,14c-5.18,6.23-6.1,15.12,0,21.22,5.33,5.32,16,6.25,21.21,0,20.77-25,28.82-58.27,20.28-89.82-1.65-6.12-7.95-11.31-14.46-11a15.64,15.64,0,0,0-14.46,11l-25,72.48,29.47,4-1.79-47.81c-.28-7.43.34-15.74-1.86-22.91-3-9.86-13.07-16.67-23.41-14.12-7.9,2-13.39,9-15.28,16.68-1.79,7.25-.47,14.29.33,21.57L134.84,284l29.47-4-27.6-67.59c-3.06-7.5-10-12.81-18.45-10.48a15.2,15.2,0,0,0-10.48,18.45l19.87,71.47,25.07-14.59-27.2-34.07C117,232.44,108.7,219.24,93.37,219A22.76,22.76,0,0,0,73.32,230c-4.5,7.81-3.11,16.84.6,24.59C78.9,265,87.5,274.75,95,283.38c15.13,17.4,36.13,32.33,60.24,31.16,24.69-1.19,45.86-17.13,58.39-37.78,15.77-26,16.19-57.88,16.07-87.35h-30l.85,13.41,25.6-10.61c-12.37-16-34.06-22.12-53.34-17.8-5.76,1.3-10,6.89-10.74,12.48-.85,6.35,2.16,11.27,7.16,14.94,14.94,11,38.73,4.55,46.95-11.74,9-17.92-1.9-41.71-21.7-46.05-12.56-2.74-23.71,10.29-16.94,22l7.24,12.55,9-22-10.82,1.79c-6.17,1-11.28,8.42-11,14.47s4.4,13.49,11,14.46c1.77.26,2.88,1.48.44-.27,2.37,1.7-1.6-1.13-1.63-1.91,0,0,1.76,3.45.75,1.05s.18,1.15.24,1.36c-1-3.38-.22-.77-.17.51.15,3.54.52-2.15-.06-.08-.39,1.38,2.2-1.82,0,0-.79,1.21-.79,1.26,0,.14a21.76,21.76,0,0,1-2,2c1.93-1.7-.34.15-.95.52a31.45,31.45,0,0,1-3.15,1.65c2.75-1.22-1.66.47-1.84.53-1.17.36-2.35.67-3.53,1a65.26,65.26,0,0,1-8.19,1.54c2.11-.23-3.7.18-3.15.16-.4,0-4.7-.06-3.09.11-.25,0-5.46-1.68-2.48-.36.21.09-3.88-1.83-2.06-1.1l.4.3c-1.19-1.28-1.32-1.32-.4-.1l-.72-1.18q.82,2.26.09-.26a6.61,6.61,0,0,1-.42,3.9c.7-2-.13-.43-.08-.16l.95-.92c-1.31,1-1.23,1.06.22.17a3.67,3.67,0,0,1-2.58.79c-1.58-.37-1.85-.41-.82-.14,1.76.51-1.87-1.18-2.07-1.33,3.14,2.31-2.44-1.73.52.67l-.57-1.41q.63,2.52.16-.54c-.13.31-1,3.33.29-.51-1,3,.9-1.15,1.12-1.53l1.25-.86q-2.2,1.22.43,0c-.63-.1-2.79-.36.51.11q-2.6-.06.46.3-2.43-.7.29.38c-1.86-2.31.73.92,1.24,1.31s.65,2.81.2.08c-.13-.73-.53-4.57-.35-.91-.06-1.25,0-2.49-.05-3.74,0-1,.7-2.37-.08.25.35-1.18.65-2.45.94-3.65.86-3.54-1.5,2,.44-1,.68-1.07,1.24-2.16,2-3.2-2,2.8.55-.34.9-.76,2.19-2.62-2.16.87.86-.74.72-.38,1.48-.82,2.18-1.23-3,1.74.34-.12,1-.38,6.23-2.43,12.4-4.74,17.19-9.63,13-13.22,4.31-34-12.39-38.32-14-3.62-28.36,5.8-39.35,13.49C102.65,159.57,83.64,181.57,72,207.43c-3.72,8.27-1.35,19.78,9,22,27.16,5.95,51.45-18.59,46.33-45.55-1.51-8-11.1-12.5-18.45-10.48-8.34,2.29-12,10.46-10.48,18.45Z"/><path class="cls-15" d="M61,234.7c-2,18.75,15.81,30.6,28.49,40.82l41.66,33.56c6.31,5.07,15.06,6.16,21.22,0,5.25-5.26,6.34-16.11,0-21.22L115.22,258c-5.9-4.76-11.91-9.4-17.69-14.29a57.25,57.25,0,0,1-6-5.78c1.1,1.53-2-3.9-1-1.85a1.84,1.84,0,0,1,.27,1.59A12.59,12.59,0,0,1,91,234.7c.83-7.83-7.5-15.34-15-15-8.84.39-14.11,6.61-15,15Z"/><path class="cls-15" d="M113.11,242.19c8.9,27.25,25.86,50.08,48.89,67,6.53,4.8,16.74,1.1,20.53-5.38,4.45-7.61,1.16-15.71-5.39-20.52-15.58-11.46-29-30.41-35.1-49.09-2.51-7.7-10.38-12.7-18.45-10.48-7.55,2.08-13,10.72-10.48,18.46Z"/><path class="cls-15" d="M201.05,202.18a123.59,123.59,0,0,1-19.69,66c-4.34,6.84-1.43,16.54,5.38,20.52,7.23,4.23,16.17,1.48,20.53-5.38a154.31,154.31,0,0,0,23.78-81.16c.07-7.85-7-15.36-15-15s-14.92,6.59-15,15Z"/><path class="cls-15" d="M122,174.82q2.23-1.38-2,.27a6.53,6.53,0,0,1-5.12.41c2.44.56-2.32-1.36-.74-.42s3.11,1.65,4.67,2.39c5.62,2.68,11.68,4.33,17.87,2.48,13.95-4.18,16.87-19.2,13.32-31.63-2.16-7.54-10.69-13-18.46-10.48S118.73,148.21,121,156.29c.18.65.32,1.31.52,2,.73,2.46-.17-.92-.06-.9s0,2,0,2c-.47-.08,1-3.68,1.16-4A10.06,10.06,0,0,1,132.9,151c-2.17-.44.94.06,1,.54,0-.27-1.89-1-2.14-1.08-7.79-4.05-16.88-7.13-24.94-1.57-6.45,4.44-10,13.36-5.39,20.52,4.14,6.41,13.62,10.14,20.53,5.38Z"/><path class="cls-15" d="M85.79,179.59l-10,32.61a15.18,15.18,0,0,0,6.89,16.94c11,6,25.41,4.93,34.11-4.67,8.46-9.33,10-23.88,2.57-34.29a28,28,0,0,0-35.22-8.9c-12,6-16.66,19.11-14.2,31.72,1.55,8,11.07,12.51,18.45,10.48,8.31-2.29,12-10.48,10.48-18.45a3.62,3.62,0,0,1-.15,2.59q.73-2.52-.15-.25c.8-1.32.94-1.55.4-.68a2.55,2.55,0,0,1-1,1.15,2.66,2.66,0,0,1-1.88.43c1.67,0,2,0,1,0a2.11,2.11,0,0,1-1.38-.31,3,3,0,0,1-1.36-1.51c1.79,1.79.45.27,0-1,.35-1.66.31-1.61-.14.15a3.07,3.07,0,0,1,1-1.85c1.08-1,3.18-.42.58-.53a3.15,3.15,0,0,1,2.41,0q-2.55-.72-.29,0l6.9,16.94,10-32.61c2.29-7.5-2.73-16.69-10.48-18.45a15.31,15.31,0,0,0-18.45,10.47Z"/><path class="cls-15" d="M86.09,249.92l27.6,47.48a15,15,0,0,0,25.9-15.14L112,234.78a15,15,0,1,0-25.9,15.14Z"/><path class="cls-15" d="M120.71,183.8,107.51,224c-2.45,7.46,2.84,16.72,10.48,18.46A15.34,15.34,0,0,0,136.44,232l13.2-40.17c2.45-7.46-2.84-16.72-10.47-18.45a15.35,15.35,0,0,0-18.46,10.47Z"/><path class="cls-15" d="M187.71,167.13l7.9,15.71c3.53,7,14,9.58,20.52,5.38,7.18-4.63,9.16-13,5.38-20.52L213.61,152c-3.54-7-14-9.58-20.52-5.38-7.18,4.63-9.17,13-5.38,20.52Z"/><path class="cls-15" d="M138.91,132,124,158.77a15.27,15.27,0,0,0,5.38,20.52c6.9,4,16.58,1.72,20.52-5.38l14.9-26.81a15.29,15.29,0,0,0-5.38-20.52c-6.9-4-16.58-1.72-20.53,5.38Z"/><path class="cls-16" d="M158.73,150.24c-.12-.84,0-.05-.08.33-.32,2.46.2-.71-.09.69,0,.13-.42,1.43-.23.94s-.64,1.17-.66,1.2a5.16,5.16,0,0,1-2.69,2.18,7.67,7.67,0,0,0-5.23,9.23c1,3.77,5.36,6.51,9.22,5.24,10.35-3.4,15.8-13.24,14.23-23.79-.6-4-5.66-6.22-9.23-5.24-4.29,1.18-5.84,5.2-5.24,9.22Z"/><path class="cls-16" d="M169.61,234.11c1,.36-.44-.07-.55-.24,0,0,1.5,1,.37.15-.9-.71-.09,0,.09.15.7.71.06.67-.17-.29a4.35,4.35,0,0,0,.46.77c.59,1-.33-.41-.22-.55s.31,1.92.17.32c-.13-1.37,0,.15,0,.34,0,3.93,3.46,7.69,7.5,7.5a7.62,7.62,0,0,0,7.5-7.5,15.94,15.94,0,0,0-11.12-15.11c-3.71-1.27-8.36,1.45-9.22,5.24a7.67,7.67,0,0,0,5.24,9.22Z"/><path class="cls-16" d="M213.35,208.33l-7.89,19.09c-1.55,3.74,1.67,8.25,5.23,9.22,4.32,1.19,7.68-1.48,9.23-5.23l7.89-19.09c1.55-3.75-1.67-8.25-5.23-9.23-4.31-1.18-7.68,1.48-9.23,5.24Z"/><path class="cls-16" d="M82,250.29c1.4,8.39,10.33,15.19,18.81,14.15,3.88-.48,7.7-3.11,7.5-7.5-.16-3.65-3.33-8-7.5-7.5-.51.06-1.1,0-1.59.1s-.43,0,.41.11l-.62-.14-.61-.18c.7.33.8.38.31.14s-.92-.52-1.37-.82c.58.39.53.43,0-.07-1.23-1.25.18.63-.23-.22-.29-.62-.58-1.18-.23-.19a10.87,10.87,0,0,1-.46-1.87c-.65-3.88-5.64-6.39-9.22-5.23-4.19,1.35-5.94,5.06-5.24,9.22Z"/><path class="cls-16" d="M91.57,187.9l-9.16,12.23c-2.43,3.24-.53,8.38,2.69,10.26,3.83,2.24,7.82.56,10.26-2.69l9.16-12.23c2.43-3.25.53-8.39-2.69-10.27C98,183,94,184.64,91.57,187.9Z"/><path class="cls-16" d="M189.08,163.72l2.25,9a7.5,7.5,0,1,0,14.46-4l-2.24-9a7.5,7.5,0,0,0-14.47,4Z"/><path class="cls-17" d="M522.52,365.32a16.12,16.12,0,0,1-9.07,12.31l10.27,10.26,15.7-25.32c5.11-8.23-7.87-15.77-12.95-7.58l-15.71,25.33c-4.16,6.71,3.89,13.5,10.26,10.26a30.08,30.08,0,0,0,16-21.28c1.72-9.43-12.74-13.48-14.46-4Z"/><path class="cls-17" d="M587.09,361.22c4.52,10.32,12.92,17.54,23.15,21.85,3.78,1.59,8.2-1.75,9.22-5.24,3.65-12.51-2.14-26.55-13.83-32.51-8.58-4.38-16.18,8.56-7.57,12.95A13.06,13.06,0,0,1,605,373.84l9.22-5.24c-6.67-2.8-11.34-8.46-14.18-15-1.61-3.7-7.06-4.58-10.26-2.69-3.82,2.26-4.32,6.52-2.69,10.26Z"/><path class="cls-3" d="M298.37,213.93C278,259,256.45,307,259.74,357.68c2.61,40.19,21.47,78.56,50.52,106.28a159.32,159.32,0,0,0,57.83,35.37c9.14,3.16,13.06-11.32,4-14.47-34.91-12.08-63.78-38.41-81-70.88a141,141,0,0,1-15.91-51.23c-2.29-22.6,1-45.22,7.12-67,7.21-25.65,18.08-50,29-74.27,1.68-3.71,1-8-2.69-10.26-3.2-1.91-8.6-1-10.26,2.69Z"/><path class="cls-12" d="M383.91,518a769.19,769.19,0,0,0,130.38,9.39c9.64-.13,9.67-15.13,0-15a745.83,745.83,0,0,1-126.39-8.85c-4-.63-8,1-9.22,5.24-1,3.55,1.24,8.6,5.23,9.22Z"/><path class="cls-12" d="M582.11,528.62A167.39,167.39,0,0,0,716.77,488c7.29-6.53-3.26-16.61-10.61-10.61a165.87,165.87,0,0,1-81.39,35.27c-4,.57-6.23,5.67-5.24,9.22,1.21,4.31,5.19,5.82,9.23,5.24a179.87,179.87,0,0,0,88-39.12l-10.61-10.61c-32.16,28.79-77.23,42.82-120.06,36.8-4-.56-8,1-9.23,5.24-1,3.51,1.23,8.67,5.24,9.23Z"/><path class="cls-12" d="M444.39,585.92l49-26.62c8.48-4.6.92-17.56-7.58-12.95l-49,26.62c-8.49,4.61-.92,17.57,7.57,12.95Z"/><path class="cls-12" d="M669.44,571.15a29.4,29.4,0,0,0,18.76-34.79c-2.36-9.36-16.83-5.4-14.46,4,1.62,6.46-1.87,14-8.29,16.34-9,3.29-5.1,17.8,4,14.47Z"/><path class="cls-12" d="M705.11,485.35a262,262,0,0,0-29.68,62c-3,9.2,11.47,13.14,14.47,4a246.32,246.32,0,0,1,28.16-58.39c5.31-8.1-7.68-15.62-12.95-7.57Z"/><path class="cls-12" d="M337.87,640.5c99,44,213.26,50.08,316.65,18a438.48,438.48,0,0,0,83.42-35.71c8.43-4.71.88-17.67-7.57-13-91,50.74-200.49,66.19-302.26,44.43a419.6,419.6,0,0,1-82.67-26.7c-3.72-1.66-8-1-10.26,2.69-1.9,3.18-1,8.62,2.69,10.26Z"/></g><g id="Layer_1" data-name="Layer 1"><path class="cls-6" d="M637.35,126.71a169.84,169.84,0,0,1,77.79-40.27c9.42-2.1,5.43-16.56-4-14.47a185,185,0,0,0-84.41,44.14c-7.14,6.53,3.5,17.11,10.61,10.6Z"/><path class="cls-6" d="M715.45,86.2c9.65,0,9.67-15,0-15s-9.67,15,0,15Z"/><path class="cls-6" d="M714.85,85a105.77,105.77,0,0,1,39.48,21.64,110.2,110.2,0,0,1,15,15.94c4.4,5.79,10.28,13.4,11.82,20.61v-4c.8-.32.48-.06-1,.77l-1.27.92c-1.57,1.15-3.1,2.37-4.56,3.65a56.54,56.54,0,0,0-6.5,6.81,78.2,78.2,0,0,0-10.62,17c-6.41,14.14-9.15,29.28-11.66,44.51l13.71-1.8c-23.45-34.39-53.64-79.53-34.21-122.65,1.68-3.72,1-8-2.69-10.26-3.19-1.91-8.6-1-10.26,2.69-22.13,49.11,7,97.82,34.2,137.79,3.24,4.75,12.57,5.12,13.71-1.79,3-17.93,5.91-36.64,16.31-52a50.52,50.52,0,0,1,6.88-8.14c2.91-2.8,6.76-4.62,9.5-7.52,6.65-7,.89-16.24-3-23a122.66,122.66,0,0,0-70.89-55.66c-9.27-2.75-13.23,11.72-4,14.46Z"/><path class="cls-6" d="M723.23,186.43A69.76,69.76,0,0,0,721,208.05c.55,9.59,15.56,9.66,15,0a56,56,0,0,1,1.67-17.63c2.43-9.35-12-13.34-14.46-4Z"/><path class="cls-6" d="M370.88,148.16c9.66,0,9.67-15,0-15s-9.66,15,0,15Z"/><path class="cls-6" d="M378,136.49c-10.87-15-22.13-30.2-35.34-43.2-12.13-12-26.32-21-43.52-22.86-4-.43-7.5,3.76-7.5,7.5,0,4.42,3.46,7.07,7.5,7.5,14.05,1.51,25.69,10.95,35.17,20.74C345.59,117.82,355.5,131,365,144.06c2.4,3.3,6.49,4.83,10.26,2.69,3.26-1.86,5.07-7,2.69-10.26Z"/><path class="cls-6" d="M295.16,73.07c-9.4,5-9.82,16.61-10.91,25.93-1.43,12.25-2.19,24.57-2.52,36.89-.66,24.71.46,49.43,1.57,74.11l14-3.79a233.54,233.54,0,0,0-32.2-47.05,225.71,225.71,0,0,0-19.79-19.82Q240,134.7,234.5,130.4c-1.81-1.41-3.62-2.8-5.46-4.16-1.11-.82-2.22-1.62-3.34-2.42l-1.35-.95q-1.68-1.35.43,1.06v4c-.84.59-.6.27.7-.94q1.11-1.2,2.25-2.37,1.71-1.76,3.46-3.46c2.73-2.65,5.57-5.2,8.48-7.65A149.86,149.86,0,0,1,258,100.4a156.6,156.6,0,0,1,41.62-17.66c9.33-2.47,5.37-16.94-4-14.47a171,171,0,0,0-75.08,42.27c-4.54,4.4-12,10.17-10.27,17.38,1.61,6.69,10.54,10.66,15.52,14.62a222,222,0,0,1,31.34,30.35,217.3,217.3,0,0,1,27.16,40.89c3.39,6.56,14.3,3.56,14-3.78-1-22.09-2-44.2-1.72-66.32.13-10.71.56-21.41,1.43-32.09.45-5.49,1-11,1.72-16.45.4-3.08.61-7.85,3-9.12,8.52-4.54,1-17.5-7.57-13Z"/><path class="cls-6" d="M249.58,163.5a709,709,0,0,1,11.27,98.87c.41,9.61,15.42,9.66,15,0a738.78,738.78,0,0,0-11.8-102.86c-1.77-9.48-16.23-5.47-14.47,4Z"/><path class="cls-6" d="M364.3,137.41c-37.79,33.9-73.91,71.76-96.4,117.82-21.29,43.58-29.7,95.69-14.32,142.55,15.06,45.9,52.45,78.67,96,97.19,51.12,21.71,107.67,23.79,162.38,26.1,51.18,2.16,104.63,2.86,152.56-17.82,43.23-18.65,75.8-55.11,93.46-98.34,38.38-93.92-5-202.86-81.83-263.12a263.18,263.18,0,0,0-129.5-54.43c-49.93-6.25-101.5,2.77-146.76,24.58a251.47,251.47,0,0,0-31.6,18.2c-8,5.37-.47,18.37,7.57,13A250.3,250.3,0,0,1,509.42,100.5,243.67,243.67,0,0,1,639,134.43C718.44,181.29,773.44,276.65,753.14,370c-9,41.51-32.87,80.61-68.12,104.91-40.19,27.7-90,32.56-137.53,32.17-25.42-.21-50.89-1.45-76.25-3-26.84-1.67-53.67-4.44-79.82-10.95-42.79-10.66-85.6-32.76-109.91-70.92-25-39.24-25.41-89.07-11.57-132.34,14.62-45.67,45.51-84.32,79.14-117.61,8.39-8.3,17-16.34,25.82-24.22,7.2-6.46-3.43-17-10.6-10.61Z"/><path class="cls-6" d="M563.27,427.51c9.66,0,9.67-15,0-15s-9.66,15,0,15Z"/><path class="cls-6" d="M562.54,412.12C532,414.9,489.45,418.31,471.42,387c-7.28-12.65-5.36-27.43,1.88-39.62,8-13.38,20.92-22.6,35.5-27.62,16.45-5.66,33.86-6.93,51.12-7.58,18.38-.7,37.43-2,55.55,1.85,14.51,3.07,28.95,9.91,37.91,22.18,8.59,11.78,9.46,26.61,2.87,39.54-18.7,36.72-64.34,36.95-100,36.44-9.65-.14-9.66,14.86,0,15,39.21.56,83.36-1.23,108.33-36.25,10.16-14.24,14.49-33.2,8.2-49.92-6.16-16.39-19.79-28.82-35.64-35.76-19.49-8.55-41.07-9.09-62-8.56-20.71.53-41.89.9-62.06,6.13-18.21,4.72-35.13,13.85-46.94,28.75-11,13.87-17.06,31.53-13.12,49.17,4.35,19.48,20.65,33.84,38.44,41.23,22.47,9.33,47.48,7.31,71.11,5.16,9.54-.87,9.63-15.88,0-15Z"/><path class="cls-6" d="M512.7,353.73c-7.45,10.12-16.3,26.39-10.38,39.11a16.48,16.48,0,0,0,16.22,9.44c7.9-.57,13.86-5.53,18.13-11.87,7.42-11,14.75-27.05,6.55-39.53-7.49-11.41-25.46-10.34-29.86,3.13-3,9.2,11.47,13.14,14.46,4-.23.72-.29-.78,1-.23.26.11.55.16.82.26,1.93.79,2.27,4.4,2.21,6.06-.26,6.42-5,15.07-9.06,19.94-1,1.24-4.57,4.73-6.57,3.13-1.27-1-.83-4-.64-5.31,1.09-7.42,5.67-14.64,10-20.55,2.42-3.28.52-8.33-2.69-10.26-3.78-2.26-7.87-.55-10.26,2.69Z"/><path class="cls-6" d="M573.73,354.77c2.38,12.77,6.23,27.28,18.53,34,12.07,6.62,28,3.72,33.16-10.15,5.28-14.26-4.54-29.4-15.93-37.44-11-7.75-28.59-7.18-35,6.24-4.15,8.67,8.78,16.29,12.95,7.57,6.51-13.61,31.56,9.9,23,20.32-3.71,4.48-11.15,1.09-14.26-2.41-5.25-5.91-6.53-14.65-7.93-22.14-1.77-9.48-16.23-5.46-14.46,4Z"/><path class="cls-6" d="M513.92,304.85c-2-39.09-5.19-81.65-34.12-111.17C467.31,180.92,451,172.26,433,171.07c-19.85-1.32-39.21,7.08-54.37,19.39S352.11,219.72,343.3,237c-9.42,18.55-16.08,38.38-18.65,59.06-4.6,37,6.27,76.95,34.33,102.67,30,27.55,77.2,32.54,110.09,7.11,3.23-2.5,2.57-8,0-10.61-3.13-3.2-7.42-2.46-10.61,0-24.07,18.62-60,15.16-83.47-2.55-25.54-19.27-37.35-52.3-36.38-83.5.55-18.09,5.09-36,12.07-52.65,6.68-16,15.57-31.76,27.2-44.64s26.58-23,44-25.5c15-2.13,29.89,2.81,41.47,12.41,31.11,25.77,33.71,68.62,35.61,106,.49,9.61,15.49,9.66,15,0Z"/><path class="cls-6" d="M615.65,297.26a173.24,173.24,0,0,1-6-46.48c.11-12.33,1.38-25.29,6.73-36.57,5.18-10.92,13.93-18.89,26-21.23,12.5-2.43,25.78,1.33,36.38,8,11.24,7.09,20.22,17.43,27.84,28.2A288.6,288.6,0,0,1,729.37,267c12,24.14,19,53.2,8,79.07-10,23.42-39.22,39.78-62.93,25.25-8.26-5.06-15.8,7.91-7.57,12.95,25.4,15.57,58.88,5,76-17.84,19.4-25.95,17.92-61.62,6.77-90.56-6.28-16.31-15-31.51-24.54-46.12-8.59-13.16-18.2-26-30.61-35.86-23.8-18.85-62.07-25-83.46,1.09-10.43,12.72-14.54,29-15.85,45.1-1.68,20.46.79,41.41,6.08,61.2,2.49,9.31,17,5.36,14.47-4Z"/><path class="cls-6" d="M343.48,485.67C316.77,539.51,314,604.25,337.3,659.82c20.58,49,60.54,89.73,109.39,110.84,29.27,12.65,60.79,17.91,92.44,20.1,32.09,2.23,65.77,2.78,96.55-7.92,49.71-17.3,85-61.35,101.68-110.06C758,612.68,748.62,546.55,730.74,487q-3.51-11.66-7.46-23.17c-3.1-9.09-17.59-5.19-14.47,4,19.53,57.28,33.58,120.22,19.9,180.47C718.28,694.27,690.77,738.51,648.4,761c-25.86,13.74-55.29,16.47-84.12,15.89-30.88-.64-62.19-3.46-91.81-12.62-47.71-14.76-88.57-48.58-112.68-92.25-30.12-54.54-31-123.11-3.36-178.82,4.28-8.62-8.65-16.23-12.95-7.57Z"/><path class="cls-6" d="M330.67,599.24c9.65,0,9.66-15,0-15s-9.67,15,0,15Z"/><path class="cls-6" d="M391.69,738.34a274.29,274.29,0,0,1-7.14,107.94c-1,3.65,1.22,8.5,5.24,9.23l100.28,18.15c4.22.76,7.77-1.13,9.23-5.24l28.57-80.59c3.24-9.11-11.25-13-14.46-4q-14.28,40.3-28.58,80.59l9.23-5.24L393.77,841.05l5.24,9.22a293.18,293.18,0,0,0,7.14-115.92c-.54-4-5.7-6.23-9.23-5.24-4.32,1.21-5.78,5.18-5.23,9.23Z"/><path class="cls-6" d="M677.06,751.61c-4.88,38.15,1,76.7,16,112l6.47-11.29-111.91,8.13,7.23,5.51-16-79.65c-1.89-9.46-16.35-5.45-14.46,4L580.39,870a7.54,7.54,0,0,0,7.24,5.51l111.91-8.13c6.12-.44,8.76-5.93,6.48-11.29-14-32.84-18.48-69.11-14-104.44.52-4-3.82-7.5-7.5-7.5-4.48,0-7,3.46-7.5,7.5Z"/><path class="cls-6" d="M408.74,853.17a245.71,245.71,0,0,1-57.55,36.44c-9.63,4.37-21.07,7.62-26,17.93-4.72,9.76-1,20.84,9,25.14,9.84,4.21,22.17,2.69,32.6,2.85l38.32.58,38.32.59c10.9.16,23.63,1.85,33.61-3.58s13.64-16.25,13.67-26.9c0-12.24-6.13-24.82-1.49-36.76,1.48-3.8-1.63-8.19-5.24-9.22-4.23-1.21-7.77,1.48-9.23,5.24-3.8,9.79-1.94,20.1-.17,30.13,1.18,6.64,2.81,15.88-1.65,21.74-4.81,6.31-15.77,4.56-22.62,4.45l-33.41-.51q-32.91-.49-65.83-1c-4.48-.07-17.59,0-11.53-7.71,2.3-3,6.56-4.55,9.88-6,4.73-2.05,9.48-4,14.13-6.27a259.28,259.28,0,0,0,55.8-36.55c7.37-6.27-3.29-16.83-10.6-10.61Z"/><path class="cls-6" d="M661.45,867.44c5.54,14.43,18.33,22.53,32.44,27.39,7.69,2.64,15.68,4.36,23.27,7.28a40.28,40.28,0,0,1,10.11,5.29c1.08.84,5.27,4.6,4.11,6.34-.64,1-5.31.75-6.3.77-4.93.13-9.87.14-14.81.21l-28.64.4-29.63.41c-7.73.1-15.88.85-23.55-.51-7.89-1.41-13.51-5.73-14.9-13.92-1.59-9.4,2.6-19,6-27.49,1.49-3.8-1.64-8.2-5.24-9.23-4.24-1.21-7.75,1.49-9.23,5.24-6.83,17.4-12.25,40.41,5.19,53.73,7.19,5.5,16.33,7,25.17,7.28,10.78.35,21.63-.17,32.41-.32l33.57-.47,16.79-.23c5.15-.07,10.7.28,15.74-1.05,8.8-2.33,14.46-10.75,11.91-19.78s-10.75-15-19-18.78c-10-4.5-20.74-6.54-31-10.36-7.86-2.93-16.76-7.93-19.94-16.19-3.42-8.92-17.93-5.05-14.46,4Z"/><path class="cls-6" d="M350.15,506.22c9.65,0,9.67-15,0-15s-9.67,15,0,15Z"/><path class="cls-6" d="M346.41,503.53l88.92,73.94c2.54,2.12,6.08,3,9.09,1.18l83.66-51.42c8.21-5.05.68-18-7.57-13L436.85,565.7l9.09,1.17L357,492.92c-7.37-6.13-18,4.43-10.6,10.61Z"/><path class="cls-6" d="M699.59,473.24q-10.53,27.51-21,55c-2.21,5.75-4.73,14.07-10.79,16.9-6.93,3.25-16.68-1.42-23.37-3.38L530.65,508.36c-9.28-2.72-13.24,11.75-4,14.47l97.48,28.63c7.91,2.33,15.82,4.7,23.74,7,7.12,2,14.69,3.67,22,1.79,13.93-3.57,19.18-17.77,23.79-29.82l20.34-53.17c3.46-9-11-12.93-14.46-4Z"/><path class="cls-6" d="M498.46,545.55c9.66,0,9.67-15,0-15s-9.66,15,0,15Z"/><path class="cls-6" d="M497.07,541.27c5.94,13.76,16.1,28.92,33.34,26.21,7.34-1.15,13.71-5.54,18.89-10.69s9.46-11.66,15.9-15.58c8.23-5,.7-18-7.57-13-5.24,3.19-9.46,7.41-13.5,12-3.68,4.15-7.37,8.79-12.45,11.29C520,557.26,513.62,542,510,533.7c-1.62-3.75-7-4.52-10.26-2.69-3.87,2.2-4.29,6.56-2.69,10.26Z"/><path class="cls-6" d="M509,557.89c-8.26,13.05-16.81,28.69-11.56,44.58,2.57,7.78,8.23,13.92,13.15,20.3l16.74,21.72c3.45,4.48,9.6,5.11,12.95,0l15.23-23.29c4.76-7.26,11.65-15.13,14.36-23.45,2.79-8.57-2.22-15-6.69-21.86l-15.15-23.12c-5.27-8-18.26-.53-12.95,7.58l12.54,19.13c2.09,3.19,4.23,6.34,6.27,9.56s2.14,3.84,0,7.27c-8.56,13.7-17.71,27.08-26.55,40.61H540.3L526,618.3c-4.26-5.53-9.19-11-12.7-17-6.92-12,2.4-25.83,8.73-35.82,5.17-8.18-7.8-15.71-13-7.57Z"/><path class="cls-6" d="M344.53,500.6c9.65,0,9.67-15,0-15s-9.67,15,0,15Z"/><path class="cls-6" d="M486.78,321.2c2.57-25.88-.63-52.92-10.22-77.18-4-10.17-10.1-20.46-21.41-23.48s-22.88,2-30.86,9.87c-8.4,8.26-14.11,19.55-19.58,29.84-6.22,11.68-11.71,23.95-15,36.79-5.71,22.17-4.87,47.37,7.59,67.21,12.87,20.48,38.47,32.94,62.32,25.86,9.24-2.74,5.3-17.22-4-14.46-15.86,4.7-33.14-2.64-43-15.5-11.12-14.46-13.3-34.61-10-52.09,3.86-20.46,13.75-39.5,24.68-57,4.57-7.31,10.68-15.51,20-16.34,8.59-.77,12.79,7.9,15.37,14.7a158.15,158.15,0,0,1,9.15,71.8c-.4,4,3.73,7.5,7.5,7.5,4.39,0,7.09-3.45,7.5-7.5Z"/><path class="cls-6" d="M643.07,302.12A166.6,166.6,0,0,1,648,247.29c1.49-5.66,3.26-15.48,9.35-18.22,7-3.13,13.67,4.78,16.93,9.82,9.64,14.9,17.27,31.65,23.84,48.1q5.08,12.74,9.19,25.82c2.18,6.95,4.86,14.71,3.71,22.1-1.27,8.11-8.59,11.37-16.16,10.56-8.85-1-16.64-7.24-23.4-12.52-3.22-2.51-7.46-3.08-10.61,0-2.62,2.57-3.19,8.12,0,10.61,8.39,6.54,17.16,13.5,27.76,16,9.71,2.26,20.43.82,28.23-5.72,17.24-14.44,6.72-40.74.58-58-7.73-21.73-17.19-43.52-29.35-63.17-5.43-8.78-12.93-16.92-23.58-18.73s-19.84,3.65-25,12.85c-5.72,10.29-8,23.12-9.76,34.62a183.14,183.14,0,0,0-1.67,40.72c.69,9.57,15.7,9.64,15,0Z"/><path class="cls-6" d="M473.9,324.68a409.27,409.27,0,0,0-2.1-45.1c-.67-6.53-1.5-13-2.45-19.53-.92-6.27-1.59-12.84-4.46-18.6-5.56-11.17-18.87-13.56-29.06-7.06-5.26,3.36-8.91,8.51-12.44,13.53-3.78,5.38-7.52,10.8-11.08,16.34-12.78,19.85-23.68,42.93-20.94,67.14,2.31,20.46,13.11,41.06,32.68,49.66,12.16,5.34,26.93,4.73,34.1-8,3.49-6.2,4.92-13.55,6.83-20.34l6.74-24c1.88-6.66-5.34-11.25-11-8.47-11.53,5.65-18,17.15-18.4,29.76-.11,3.69,1.62,13.7-2.59,16.15-3.92,2.28-8.68-6.58-10.42-9.07L416.65,339c-1.86-2.65-4-5.28-5.59-8.1,0,0-1.18-2.53-1.3-2.58a6.58,6.58,0,0,0-2.77.83l.92,1c2.71,6.46,7.53,12.69,11.09,18.75l11.92,20.31c3.6,6.12,14.52,3.87,14-3.78a65.37,65.37,0,0,1,19.68-51.93L452,306.23c-2.67,6.81-8.69,22.21-18.85,18.76-7.54-2.57-3.85-17-5.26-22.85-2.5-10.4-14.51-15.28-22.67-7.39-9.47,9.15-3,21.3,4,29.36,4,4.6,10.72,1.57,12.54-3.31l23.43-62.89c1.14-3.07-.76-6.9-3.45-8.47-3.11-1.82-6.42-.91-9.09,1.17-14.54,11.37-20.46,31.83-14.84,49.31,2.18,6.8,12.58,7.46,14.46,0l8.75-34.69a43.62,43.62,0,0,1,1.81-6.68,12,12,0,0,0,.89-1.66c.17.71-2-.23-2.05-.13,0-.09,2.14,3.54,2.29,3.92a71.6,71.6,0,0,1,2.05,7.36c3.89,15,7.76,41.82-12.53,47.28l8.47,3.45c-7-13.25-5.53-30.52,4.07-42.16l-12.81-5.31-.56,41.47h15l-.46-19.36c-.13-5.55-6.32-9.53-11.28-6.48a41,41,0,0,0-18.15,23.55c-2.73,9.52-2.14,22.7,8.58,26.85,8.16,3.16,17.54-1.62,21.77-8.86,6-10.23.55-22.16-4.69-31.39-2.95-5.2-9.84-4.47-12.95,0A47.4,47.4,0,0,0,424,336.62c2.55,9.3,17,5.35,14.46-4a32.81,32.81,0,0,1,5-28H430.54c2.29,4,6.67,10.47,5,15.38a4.77,4.77,0,0,1-2.17,2.69c-1.33.8-2.07.09-1.47.78-2.21-2.56.31-9.61,1.43-12.13a25.68,25.68,0,0,1,10.18-11.49l-11.29-6.47.46,19.36c.23,9.64,14.87,9.67,15,0l.56-41.47c.09-6.07-8.56-10.45-12.8-5.3a54.6,54.6,0,0,0-6.41,60.34,7.62,7.62,0,0,0,8.47,3.45c12.65-3.41,21.43-14.08,25.07-26.35,4.36-14.73.78-31.88-3.9-46.13-1.92-5.83-5.31-12.3-11.56-14.37-6.47-2.15-13.06.82-16.48,6.59-3.73,6.25-4.72,14.4-6.47,21.35l-6.32,25.06h14.46c-4.16-12.95.36-26.41,11-34.72l-12.53-7.3-23.44,62.9,12.54-3.31c-1.39-1.58-3.4-3.52-4.1-5.58a10.32,10.32,0,0,0-.46-1.49c-.5-1,1-.27,0-.92-3.06-2.07-1.64,4.16-1.68,5.82-.23,9.31,1.29,19.07,9.31,25,7.84,5.78,18.86,4.73,26.71-.54,8.91-6,13.06-15.95,16.84-25.56,2.88-7.33-7.55-12.13-12.54-7.3a79.91,79.91,0,0,0-24.07,62.54l14-3.79-12.43-21.15c-4-6.76-7.49-14.36-12.51-20.41-4.15-5-11.16-7.84-17.25-4.37s-8,11.15-6,17.52c2.17,6.92,7.78,13,11.87,18.86,4.59,6.55,8.94,13.38,13.93,19.63,4,5.06,9.46,9.55,16.21,9.88s12.59-3.53,15.94-9.17c4.54-7.64,3-15.89,3.77-24.26.65-6.85,4.83-12,10.88-15l-11-8.47c-3.11,11.06-6.17,22.14-9.34,33.19-1,3.48-1.91,8.28-5.15,10.43s-8.28.84-11.7-.53c-14.18-5.67-22.11-20.7-24.48-35.07-3-18.13,4-35.95,12.85-51.43,5.12-8.93,11-17.44,16.9-25.86,3-4.29,11.87-15.6,15.71-6.13,1.94,4.8,2.24,10.59,3,15.65.94,6.46,1.67,12.95,2.25,19.46q1.82,20.05,1.63,40.21c-.07,9.66,14.93,9.67,15,0Z"/><path class="cls-6" d="M438.68,255.89l4.22,52.66,9.5-7.24c-5.42-2.07-8.23-9.11-11.4-13.47-4-5.49-9.06-10.4-15.91-11.94-6.19-1.38-12.67.26-16.81,5.19S403,293.55,406.92,299c2.39,3.31,6.5,4.83,10.26,2.69,3.26-1.86,5.05-7,2.69-10.26-.9-1.25-.73-.47-.2-.67a3.23,3.23,0,0,1,2.84,0c3.6,1.2,5.88,5.07,7.84,8,4.86,7.37,9.55,13.75,18.06,17,4.36,1.66,9.86-2.66,9.49-7.23l-4.22-52.66c-.77-9.55-15.78-9.64-15,0Z"/><path class="cls-6" d="M650.31,309.89l3.2-38.94c.49-6.07.93-12.14,1.5-18.2.49-5.23,1.23-11.69,5.4-15.41,8.34-7.44,13.67,7.67,16.29,13.32l16.17,34.74c5.07,10.88,11.13,21.77,14.66,33.27,1.49,4.85,2.77,10.34,1.61,15.39s-4.45,5.47-9,4.23c-18.64-5.09-34.82-21.07-42.08-38.69a70.65,70.65,0,0,1-5-31.82,66.88,66.88,0,0,1,3.28-16.2c.16-.49,2.71-6.25.16-3.83-1,.93.95-2.72,0,.47-.32,1.09-.12,2.42-.54,3.65-1.82,5.38-5,10.16-6.6,15.68a61.94,61.94,0,0,0-2.4,17.06,60.89,60.89,0,0,0,9,32,62.82,62.82,0,0,0,21.12,20.65c7.35,4.37,20.17,10.7,28.47,5.5,5.12-3.22,6.09-9.2,4.75-14.69-1.51-6.17-4-12.26-6-18.29q-6.24-18.81-12.47-37.61L685,251.48c-1.94-5.83-3.3-12.63-6.71-17.82-3.2-4.85-8.68-7.81-14.53-6.22-5.46,1.48-8.62,6.83-10.07,11.92-6.9,24.33-1,52.86,11.06,74.52,3.74,6.75,13.68,3.4,14-3.79L681,254.6c.34-8.36-12.92-10.31-14.74-2A112.52,112.52,0,0,0,676.46,329c3.5,6.69,14,3.46,14-3.78l-.24-40.62h-15l3.95,40.86c1,10.63,2.72,21.45,14.55,24.76a22.34,22.34,0,0,0,24.57-9.65c5.78-9.48,3.9-21.69-1.67-30.77-4.13-6.74-13.26-3.37-14,3.78l-1.55,15.49c-.41,4,3.73,7.5,7.5,7.5,4.39,0,7.09-3.45,7.5-7.5l1.55-15.49-14,3.79c2.67,4.36,5.16,11.66,1.29,16.21-2,2.38-7.13,3.7-9.28.87-1.59-2.09-1.27-6.49-1.51-9l-1.32-13.62-2.63-27.24c-.92-9.42-15.06-9.84-15,0l.24,40.62,14-3.79a96,96,0,0,1-8.74-64.82l-14.73-2-2.26,55.49,14-3.78a91,91,0,0,1-10.92-33.24,93.72,93.72,0,0,1-.44-17,74.39,74.39,0,0,1,.9-8.15c.17-1,1.53-6,1.27-6.3l-2.78.13.28.6c-.06.16,1.41,3.73,1.4,3.71,1.06,3.13,2.08,6.27,3.12,9.4l6.86,20.69,12.48,37.62,3.11,9.4c.32.95,2.2,8.76,2.91,8.89l2.13-2.44c-.74-.14-1.46-.32-2.18-.53-1-.26-1.91-.56-2.84-.88a43.77,43.77,0,0,1-7.65-3.52,46.53,46.53,0,0,1-19.82-22.18,47.42,47.42,0,0,1-.55-34.2c3.76-10.14,11.56-21.18,2.15-31a13.52,13.52,0,0,0-14.27-3.68c-5.57,1.94-8.42,7.13-10.34,12.35a80.14,80.14,0,0,0-4.13,35.29,83.53,83.53,0,0,0,31,57.15c14.42,11.39,47.35,27.62,54.21-.38,2.93-11.93-1.4-24.24-6.14-35.07-5.27-12.06-11.06-23.91-16.61-35.84l-9.54-20.49c-2.68-5.77-5.1-11.76-9-16.85-7.88-10.32-21.19-12.74-31.4-4.05-10.79,9.19-10.72,24.43-11.78,37.41l-3.84,46.73c-.79,9.63,14.21,9.57,15,0Z"/><path class="cls-6" d="M479,463.72c32.62,14.2,69.64,22,105.28,18,31.69-3.53,63.62-19.62,73.7-51.95,2.88-9.24-11.6-13.19-14.47-4-8.56,27.48-38.13,39.54-64.6,41.43-31.34,2.24-63.6-4-92.34-16.47-3.74-1.62-8-1.07-10.26,2.7-1.89,3.15-1,8.64,2.69,10.26Z"/><path class="cls-6" d="M464.25,98.11,454.39,55.6c-.37-1.59-1-8.82-2.24-9.66q-.15-2.16-2.56.72-4,.73-1.37,2.4c.43,1.39,3,3.27,3.94,4.29q7.24,7.86,14.47,15.73c3.66,4,11.43,2.17,12.53-3.31l10.33-51.6H475l19.15,50.15c1.81,4.73,8.59,8.08,12.54,3.31L526.26,44l-12.54-3.3,7.76,47.65c.65,4,5.62,6.25,9.22,5.24,4.25-1.19,5.9-5.2,5.24-9.23l-7.75-47.65c-.88-5.38-9.12-7.44-12.54-3.31L496.11,57l12.54,3.31L489.49,10.18c-2.38-6.24-12.87-8-14.46,0L464.7,61.78l12.53-3.31c-6.64-7.22-13-15.87-20.63-22-7.23-5.84-18.23-3.66-19.44,6.55-.51,4.29.91,8.59,1.87,12.73l3.58,15.46,7.17,30.92c2.18,9.4,16.65,5.42,14.47-4Z"/><path class="cls-6" d="M474.88,462.24a790.3,790.3,0,0,0,175.47-23c9.37-2.32,5.4-16.79-4-14.47a771.74,771.74,0,0,1-171.48,22.51c-9.64.18-9.67,15.18,0,15Z"/><path class="cls-6" d="M629.94,450c9.65,0,9.66-15,0-15s-9.67,15,0,15Z"/><path class="cls-6" d="M628.32,437.58a1078.11,1078.11,0,0,1-107.84,12.24c-8.19.52-10.47,12.4-2,14.73a156.18,156.18,0,0,0,105.32-8.34c3.73-1.67,4.54-7,2.69-10.26-2.18-3.83-6.58-4.34-10.26-2.69a139.9,139.9,0,0,1-93.76,6.83l-2,14.73A1119,1119,0,0,0,632.3,452c9.51-1.57,5.47-16-4-14.46Z"/><path class="cls-6" d="M340.34,650.79c99.25,43.27,213,50.05,316.9,19.87a455.28,455.28,0,0,0,83.93-33.77c8.56-4.48,1-17.43-7.57-13-91.77,48-200.37,62-301.58,40.63a435.73,435.73,0,0,1-84.11-26.73c-3.74-1.63-8-1.07-10.26,2.7-1.9,3.15-1,8.64,2.69,10.26Z"/><path class="cls-6" d="M306.63,466.32c-8.77-6.39-20.07-12.09-30.72-6.3-9.56,5.2-11.4,16.91-5,25.22l5.3-12.81c-9.76,1.25-21.91,5.13-22,17.15-.12,10.91,11.18,16.25,19.22,21,18.55,11.06,40.21,14.47,61,8,9.19-2.85,5.27-17.33-4-14.47a59.07,59.07,0,0,1-38.56-1c-6.61-2.49-12.71-6.52-18.65-10.29-.89-.56-4.17-2.7-4.1-3.09.23-1.43,5.67-2.22,7.11-2.41,6.78-.86,9.48-7.42,5.31-12.8.56.72.15-.23.61-.75,1.14-1.29,3.17-1.37,4.73-1.17,4.55.56,8.58,4,12.16,6.56,3.3,2.4,8.33.53,10.26-2.69,2.26-3.77.57-7.89-2.69-10.26Z"/><path class="cls-6" d="M748.86,431.28c4.62-3.64,8.12,3.73,4.09,7.2-3.55,3.07-2.58,9.69,1.52,11.78,4.26,2.19,9.7,5.39,7.68,10.92-1.47,4.05-5.46,10.95-9.45,13.1-3.62,2-8.28-1.1-11.5-2.66-5.43-2.64-10.75-4.9-16.88-5-9.66-.12-9.67,14.88,0,15,7.34.08,13.58,5.92,20.61,7.56,8.52,2,16.45-1.11,22-7.77,5.37-6.48,11.3-15.05,10.77-23.85-.56-9.38-7.72-16.23-15.64-20.28l1.52,11.78c7.75-6.69,8.83-19.46,1.91-27.15-7.28-8.11-19.13-7.63-27.21-1.26-3.21,2.52-2.6,7.95,0,10.6,3.1,3.18,7.44,2.5,10.6,0Z"/><path class="cls-6" d="M753.53,492.74c9.65,0,9.67-15,0-15s-9.67,15,0,15Z"/><path class="cls-6" d="M749.49,489.29a1345.36,1345.36,0,0,0,93.57,290.43q17.73,39.19,38,77.17c4.54,8.53,17.49,1,13-7.57A1328.91,1328.91,0,0,1,783.51,569.06Q772.38,527.51,764,485.3c-1.89-9.45-16.35-5.45-14.46,4Z"/><path class="cls-6" d="M228.81,881.91c-15.64-10.93-37.29,1.31-39.3,19.13l11.29-6.48c-13.88-6.19-25.87,9.69-19.05,22.39,3.23,6,9.15,9.76,14.91,13,6.78,3.83,13.77,7.28,20.88,10.47,3.22,1.44,6.4,1.26,9.09-1.18,7.73-7,3.84-18.9-5.17-22.29-3.51-1.33-8.62,1.49-9.23,5.24-1.58,9.81,6.27,18.29,16.38,15.84a7.52,7.52,0,0,0,5.24-5.24l4.79-17-11,4.48c15.19,9.83,35.7,1.75,42-14.52,2.87-7.4-7.51-12-12.54-7.3-8.91,8.38.48,25.25,12.36,20.52,10.26-4.08,9.29-21.74-2.27-23.32-3.76-.51-7.27.59-8.85,4.34-1.34,3.17-.33,7.78,3.07,9.37a41.8,41.8,0,0,0,46.07-6.63H296.86c6.35,7,16.72,10,25.71,6.79,9.51-3.38,15.09-11.88,16.1-21.65l-9.5,7.23c12.57,4.73,26.22,3.49,38.08-2.56,8.61-4.39,1-17.33-7.57-13s-17.74,4.35-26.52,1.05c-5-1.88-9,2.85-9.49,7.23-.89,8.67-11.12,9.83-16.2,4.26-2.84-3.12-7.7-2.61-10.61,0A26.15,26.15,0,0,1,269,896.37l-5.78,13.71c2.45.34-1.26-1.16-1.29-2.78-.08-4,9.78-2,5.8,1.73l-12.53-7.3c-3,7.68-13.59,9.7-20,5.56-4.11-2.66-9.76,0-11,4.48l-4.78,17,5.24-5.24q2.35-.27,2.07,2.61l-9.23,5.24c-1-.37-2.42-1.9-1.45-2.77l9.09-1.18a237,237,0,0,1-22.44-11.35c-2.5-1.45-5.64-3-7.27-5.54a12.74,12.74,0,0,1-.8-1.73,2.22,2.22,0,0,1,.5-1q1.43-1-1.87-.37c5.5,2.45,10.61-.52,11.28-6.48.85-7.52,11.41-9.89,16.73-6.18,7.93,5.54,15.43-7.46,7.57-13Z"/><path class="cls-6" d="M234.09,888.43c1.37-6.31,10.53-11.13,16.08-6.48l7.3-12.53q-1.39,7.92,2.53,6.46a9.71,9.71,0,0,1,1.39-.34c1.47-.34,3-.58,4.44-.83,3.09-.54,6.18-1,9.29-1.38,6.29-.76,12.62-1.22,18.95-1.4a207.7,207.7,0,0,1,37.78,2.26l-3.31-12.53c-.94,1,1.34.05.62,1.64l-4.48,3.45a174.59,174.59,0,0,1,55.78-1.29c6.93.92,9.22-8.55,5.3-12.81l-3.52-3.82v10.6a6.59,6.59,0,0,1,9.1.4c6.85,6.82,17.46-3.78,10.61-10.6a21.86,21.86,0,0,0-30.32-.4c-3.07,2.82-2.65,7.72,0,10.6l3.52,3.83,5.31-12.8a180.85,180.85,0,0,0-28.95-1.62c-9.77.26-20.37.8-29.87,3.26-9,2.33-9,14.49-3.56,20.42,5.67,6.19,15.45,5.76,21.06-.26,3.47-3.71,2.6-11.62-3.3-12.53a224.5,224.5,0,0,0-59.77-1.51c-4.76.54-9.51,1.2-14.22,2-4.34.76-8.93,1.47-12.32,4.55a11.18,11.18,0,0,0,3.95,19.09c6.88,2.19,13.1-7.67,7.29-12.54-13.64-11.42-37.18-5.11-41.14,13.1-2,9.41,12.41,13.44,14.46,4Z"/><path class="cls-6" d="M495.11,866.9c9.65,0,9.66-15,0-15s-9.67,15,0,15Z"/><path class="cls-6" d="M512.82,860.28c-.06.08-4.57-1.3-4.14-2.54-1.5,4.26,2.54,10,7.23,9.49q16.64-1.82,33.26-3.64c10.56-1.14,21.27-2.23,31.67.53,9.34,2.48,13.32-12,4-14.46-11.14-3-22.47-2.47-33.83-1.27-11.69,1.24-23.38,2.56-35.08,3.84l7.24,9.5c4.41-12.56-12.35-22.41-20.93-12.05-6.12,7.38,4.43,18.05,10.6,10.6Z"/><path class="cls-6" d="M479.64,887.91c-2.79,12.2,4.92,25.8,17.63,28.29s29.1-9.83,21.08-23.52c-3.2-5.46-9.88-8.86-16.13-7.11s-9.82,8.29-8.78,14.6c2.62,16,25.31,12.75,25.73-2.67l-12.81,5.3a23.33,23.33,0,0,0,28.14,3.53l-11-8.47c-2.8,6.86,2.38,14.14,8.86,16.35,7.81,2.67,13.81-1.9,20.26-5.56,6.78-3.85,15.18-3,22.63-2.34,9.18.86,18.34,1.87,27.51,2.81,4,.42,7.5-3.74,7.5-7.5,0-4.4-3.45-7.08-7.5-7.5-13-1.33-26.49-3.93-39.54-3.27a41.6,41.6,0,0,0-17.54,4.49c-2.15,1.14-4.06,2.72-6.23,3.82-.47.23-1.93,1-1.95,1l-.44-.21a2.57,2.57,0,0,1,.91,1.91c2.59-6.34-5.82-11.47-11-8.47a8,8,0,0,1-10-1.18,7.58,7.58,0,0,0-12.8,5.3c.06-2.44,4.19-1.34,4,.62.11-1.13-3.13,2.56-2.65,2.22a.73.73,0,0,1-.16-.72,1.67,1.67,0,0,1-.65.89,6.56,6.56,0,0,1-2.64,1.12c-4.91.59-9-5.28-8-9.73,2.15-9.4-12.31-13.41-14.47-4Z"/><path class="cls-6" d="M703.75,860.78a30.62,30.62,0,0,1,35.21.77c3.86,2.76,10,0,11-4.48,3.24-14.59,22-12.57,32.86-10,16.68,3.93,33.24,8.47,49.85,12.71,7.24,1.86,12.6-7.14,7.3-12.53l-5.09-5.18v10.61c2.24-2.11,6.28-.34,7,2.44,1.23,5,6.82,6.53,11,4.48a22.73,22.73,0,0,1,14.92-1.69c5.86,1.31,10.36,6.86,16.37,6.1,10.36-1.29,19,8.45,13.9,18.46-1.17,2.32-1.54,5.29,0,7.57,3,4.5-4.71,4.66-6.54,6-5.33,3.76-9.52,6.9-16.27,7.78a31.26,31.26,0,0,1-16.35-2.3,27.28,27.28,0,0,1-7.22-4.77c-4-3.56-6.74-3-11.84-2.24A125.28,125.28,0,0,1,789.63,892c-8.85-2.25-17.77-2.18-26.89-2.57l-29.45-1.26c-9.65-.41-9.63,14.59,0,15l29.45,1.26c5.22.23,10.49.27,15.7.68,4.57.35,8.93,1.86,13.42,2.78a145.76,145.76,0,0,0,55.58.37l-7.3-1.93c16.47,16.42,44.33,16.63,61.25.82l-5.3,2.2c13.13.18,22.44-15.76,14.94-26.91V890c4.93-9.76,4.62-21.5-2.15-30.36s-17.94-12.26-28.69-10.13l7.3,1.93c-12.23-9.8-28-11.76-42.17-4.83l11,4.48c-3.45-14-21.8-18.7-32-9.06a7.62,7.62,0,0,0,0,10.61l5.09,5.18,7.3-12.54-30.89-7.9c-10-2.54-19.93-5.58-30.16-6.85-16.43-2-36.11,4.49-40.12,22.53l11-4.48c-14.67-10.48-35.36-10.69-50.35-.77-8,5.3-.51,18.3,7.57,12.95Z"/><path class="cls-6" d="M712.83,483.73c15.63,28.23,31.58,56.32,46.89,84.73,5.94,11,12.54,24.87,6.23,37.15a28,28,0,0,1-26.73,15.33c-9.64-.66-9.6,14.35,0,15,14.47,1,28.31-6.45,36.72-18,9.54-13.14,9-29.35,3-43.89-6.82-16.67-16.85-32.26-25.56-48l-27.61-49.86c-4.68-8.45-17.64-.89-12.95,7.57Z"/><path class="cls-6" d="M769.26,625.32c9.65,0,9.67-15,0-15s-9.67,15,0,15Z"/><path class="cls-6" d="M761.12,620.1l10.91,36,5.16,17,2.87,9.46c.38,1.27.78,2.52,1.15,3.79.2.63.38,1.27.54,1.91q.35,2.21,2.57-1.64l3.79,1c-3.6-1.56-6.6-6.9-9.08-9.84l-10.4-12.33c-3.45-4.09-11.64-2.1-12.53,3.31l-2.91,17.67-1.37,8.36c-.21,1.24-.36,2.5-.62,3.72a10.42,10.42,0,0,1-.39,1.74q-.69,1.86,1.43-1h4c.91,1.16,1.1,1.29.56.39a7.68,7.68,0,0,1-.73-1.66c-.5-1.16-.93-2.36-1.4-3.54l-3.85-9.73-7.36-18.59c-1.48-3.75-5-6.41-9.22-5.24-3.58,1-6.74,5.43-5.24,9.23l10.51,26.55c2.62,6.63,4.65,15.47,12.75,17.06,8.38,1.64,12.53-6.11,13.73-13.09,1.6-9.28,3.06-18.6,4.59-27.89L758,676.07l11,13c3.09,3.66,6.15,8.54,10.4,11a11.39,11.39,0,0,0,13.48-1.48c3.89-3.73,4.45-9.09,3.34-14.1-2.49-11.26-6.71-22.37-10.06-33.4l-10.61-35c-2.8-9.21-17.28-5.28-14.47,4Z"/><path class="cls-6" d="M324.47,514.76l-29.25,5.77c-8.56,1.69-17.78,2.67-26,5.64-7.61,2.75-13.56,7.93-15.87,15.89-2.24,7.73-1.17,16.38-1,24.29.2,8.73-.63,18.19,1.08,26.8s8.69,12.8,16.75,13.74c8.84,1,18.06.36,27,.4l29.46.13c9.65,0,9.67-15,0-15l-47.14-.2c-2.77,0-5.85.26-8.59-.29s-2.76-1.34-3-3.94c-.76-7.74-.37-15.78-.54-23.55-.13-5.73-1.52-13.34.63-18.84,2-5.16,8.23-6,13-7,15.81-3.24,31.67-6.25,47.51-9.38,9.46-1.86,5.46-16.32-4-14.46Z"/><path class="cls-6" d="M259.15,547.79c9.65,0,9.67-15,0-15s-9.67,15,0,15Z"/><path class="cls-6" d="M259.36,536.74q-41.07-7.5-81.38-18.53a7.59,7.59,0,0,0-9.23,9.23A43.82,43.82,0,0,0,199.29,559V544.52a98.1,98.1,0,0,1-35.38,6.34c-7.92-.06-9.57,9.88-3.79,14a187.47,187.47,0,0,0,94.53,33.65c9.63.72,9.58-14.29,0-15a172.71,172.71,0,0,1-87-31.6l-3.78,14A110.18,110.18,0,0,0,203.28,559c6.68-2.49,7.55-12.31,0-14.46a28.61,28.61,0,0,1-20.06-21.07L174,532.68q40.27,11,81.38,18.53c9.44,1.72,13.49-12.73,4-14.47Z"/><path class="cls-6" d="M158.63,328l30.05,250,30.06,250,16.93,140.85c.7,5.87,8,10.62,12.8,5.3,13.44-14.85,16.66-34.62,16-54-.82-22.4-4.76-44.83-7.48-67q-9.12-74.38-18.23-148.75L202.14,405.91l-5.09-41.52c-1.56-12.73-2.12-26.12-5-38.61-2.24-9.63-9.87-19.51-20.89-16.75-10,2.52-15.68,14.14-8.34,22.34,6.45,7.21,17-3.42,10.61-10.6,13.29,14.85-.16,2,.7,3.17,0,.05.32-.18.33-.17s-.13-.81.56.11c2,2.72,2.69,5.87,3.2,9.21,1.66,10.7,2.66,21.54,4,32.29l8.24,67.23L206.93,567.4Q223.46,702.26,240,837.13c3,24.26,6.59,48.53,8.76,72.87,1.62,18.06,2.07,39.15-10.89,53.48l12.8,5.31-30-249.95-30.05-250L173.63,328c-.48-4-3.1-7.5-7.5-7.5-3.67,0-8,3.45-7.5,7.5Z"/><path class="cls-6" d="M277,509.2l-3.9,13.65a7.5,7.5,0,1,0,14.46,4l3.9-13.65a7.5,7.5,0,1,0-14.46-4Z"/><path class="cls-6" d="M265.83,606.61a483.89,483.89,0,0,1-32.89,160.51c-1.48,3.81,1.64,8.2,5.24,9.23,4.23,1.21,7.77-1.48,9.23-5.24a496.29,496.29,0,0,0,33.42-164.5c.3-9.66-14.7-9.65-15,0Z"/><path class="cls-6" d="M225.44,823.08c9.65,0,9.67-15,0-15s-9.67,15,0,15Z"/><path class="cls-6" d="M216.92,813.21l-21,72.65c-2.69,9.29,11.78,13.26,14.46,4l21-72.65c2.69-9.3-11.78-13.26-14.46-4Z"/><path class="cls-6" d="M116.43,235.59l59.69-17.78c4-1.2,15.47-6.21,16.1.93.34,3.81-1.08,7.89-1.88,11.55l-3.6,16.33L180,277.35c-2.14,9.74-3.66,19.9-6.57,29.43-.83,2.74-.61,4.16-2.79,2.43q-5.26-4.15-10.14-8.76a155.74,155.74,0,0,1-17-18.79,158.8,158.8,0,0,1-25.76-50.94c-2.74-9.23-17.22-5.3-14.47,4a172.58,172.58,0,0,0,28.25,55.79,169.68,169.68,0,0,0,21.89,23.81c7.24,6.46,16.57,15,26.57,8.59,8.93-5.71,9.67-19.82,11.71-29.08l8.24-37.45c2.54-11.56,6.45-23.6,7.22-35.44.7-10.81-6-19.68-17-20.69-5.48-.5-11,1-16.17,2.55q-10.26,3-20.51,6.11l-41,12.23c-9.23,2.75-5.3,17.23,4,14.46Z"/><path class="cls-6" d="M112.74,226.26l-38.16-7c-9.43-1.73-13.48,12.73-4,14.46l38.16,7c9.43,1.73,13.48-12.72,4-14.46Z"/><path class="cls-6" d="M56.84,228.11c8.79,51.28,52.2,89.6,103.7,93.8,9.62.79,9.57-14.22,0-15-45.26-3.69-81.63-38.4-89.23-82.78-1.63-9.5-16.09-5.47-14.47,4Z"/><path class="cls-6" d="M201.42,215.4a85.55,85.55,0,0,0,28.39-45.93c2.24-9.38-12.22-13.39-14.46-4a72.15,72.15,0,0,1-24.54,39.31c-7.43,6.17,3.23,16.74,10.61,10.61Z"/><path class="cls-6" d="M218.24,166.72c24,49.42-11.4,101.72-38.84,141-5.54,7.93,7.46,15.43,13,7.57,16.55-23.69,33.27-47.92,42.17-75.71,8.43-26.29,8.88-55.27-3.34-80.43-4.22-8.68-17.16-1.08-12.95,7.57Z"/><path class="cls-6" d="M68.56,224.39l31.78-46.62c5.46-8-7.54-15.51-13-7.57L55.61,216.82c-5.45,8,7.54,15.51,13,7.57Z"/><path class="cls-6" d="M93.18,176.94,122,190.19c8.71,4,16.34-8.92,7.57-12.95L100.75,164c-8.71-4-16.34,8.91-7.57,12.95Z"/><path class="cls-6" d="M134.34,194l38-10.7c9.28-2.61,5.33-17.08-4-14.46l-38,10.69c-9.28,2.61-5.33,17.09,4,14.47Z"/><path class="cls-6" d="M173.84,182.75c9.65,0,9.67-15,0-15s-9.67,15,0,15Z"/><path class="cls-6" d="M181.14,179.49l17.64-31.65c4.71-8.44-8.24-16-12.95-7.57l-17.64,31.65c-4.71,8.44,8.24,16,12.95,7.57Z"/><path class="cls-6" d="M187.91,146l35.9,22.56c8.2,5.15,15.74-7.82,7.57-13L195.48,133c-8.19-5.15-15.73,7.82-7.57,13Z"/><path class="cls-6" d="M191.82,146.79c9.65,0,9.67-15,0-15s-9.67,15,0,15Z"/><path class="cls-6" d="M193.5,132.81l-30.29-12.46c-3.78-1.55-8.21,1.69-9.23,5.24-1.23,4.29,1.51,7.7,5.24,9.23l30.3,12.46c3.77,1.55,8.21-1.69,9.22-5.24,1.23-4.29-1.51-7.69-5.24-9.23Z"/><path class="cls-6" d="M159.38,121.56l-42.7,12.34c-9.26,2.68-5.32,17.16,4,14.47L163.36,136c9.26-2.67,5.32-17.15-4-14.46Z"/><path class="cls-6" d="M110,137.29l-18,20.24c-6.39,7.2,4.18,17.85,10.6,10.61l18-20.24c6.38-7.2-4.19-17.85-10.61-10.61Z"/><path class="cls-6" d="M120,189.16l-10.82,33.48c-3,9.2,11.5,13.15,14.46,4l10.82-33.47c3-9.21-11.5-13.15-14.46-4Z"/><path class="cls-6" d="M164.81,180.33a89.12,89.12,0,0,0,31.28,31.41c8.31,4.95,15.86-8,7.57-13a73.37,73.37,0,0,1-25.89-26c-4.9-8.31-17.87-.77-13,7.57Z"/><path class="cls-6" d="M170.42,329.25l19.94,125.14,14.46-4q-5.19-18.18-10.39-36.36c-2.24-7.84-15.49-6.7-14.73,2l15.38,176.52c.32,3.71,2.6,6.91,6.5,7.37,3.36.4,7.63-1.64,8.23-5.37l6-37-14.74-2L220.3,801.92c.74,9.52,14.77,9.77,15,0l.83-35.27h-15l19.66,182.6c.44,4,3.14,7.5,7.5,7.5,3.72,0,7.94-3.45,7.5-7.5l-19.66-182.6c-1-9.39-14.77-9.87-15,0l-.83,35.27h15L216.05,555.58c-.28-3.71-2.62-6.91-6.5-7.37-3.36-.4-7.62,1.64-8.23,5.37l-6,37,14.74,2L194.7,416,180,418q5.19,18.18,10.39,36.36c2.71,9.49,15.95,5.35,14.46-4L184.88,325.26c-.63-4-5.63-6.25-9.22-5.24-4.26,1.19-5.88,5.19-5.24,9.23Z"/></g></svg>