<svg id="Layer_4" data-name="Layer 4" xmlns="http://www.w3.org/2000/svg" viewBox="0 0 678.37 887.6"><defs><style>.cls-1{fill:#fff;}.cls-2{fill:#1d1d1b;}.cls-3{fill:#f4a6be;}.cls-4{fill:#7a7a7a;}.cls-5{fill:#5a5a5a;}.cls-6{fill:#e86795;}.cls-7{fill:#cfcece;}.cls-8{fill:#2cbbee;}.cls-9{fill:#b34672;}</style></defs><path class="cls-1" d="M402,237.43a177.77,177.77,0,0,1-6.13-54.12c.81-19.72,6.12-41.19,22.19-52.63,16.29-11.61,39.52-9.15,56.67,1.16s29.33,27.06,40,43.95c12.4,19.56,23.65,40.43,27.68,63.23s-.1,48-15.48,65.33-43.25,24-62.77,11.59"/><path class="cls-2" d="M409.21,235.44a173.24,173.24,0,0,1-6-46.48c.12-12.33,1.38-25.29,6.74-36.57,5.18-10.92,13.92-18.89,26-21.23,12.5-2.43,25.79,1.33,36.38,8,11.25,7.09,20.22,17.43,27.84,28.2a286.42,286.42,0,0,1,22.79,37.78c12,24.14,19,53.2,8,79.07C521,307.64,491.67,324,468,309.47c-8.25-5.06-15.8,7.91-7.57,12.95,25.41,15.57,58.88,5,76-17.84,19.41-25.95,17.93-61.62,6.78-90.56-6.29-16.31-15-31.51-24.54-46.12C510,154.73,500.38,141.86,488,132c-23.8-18.85-62.07-25-83.46,1.09-10.43,12.72-14.53,29-15.85,45.1-1.67,20.46.79,41.41,6.09,61.2,2.49,9.31,17,5.36,14.46-4Z"/><path class="cls-1" d="M299.06,241.19c-1.32-26.19-2.78-53-13-77.17S255,118.48,229,115.23c-17.61-2.2-35.58,4.17-49.75,14.84s-24.89,25.34-33.48,40.86c-15.1,27.27-24.29,58.52-21.59,89.57s18.38,61.68,44.64,78.46,63.19,17.32,87.62-2"/><path class="cls-2" d="M306.56,241.19c-2-39.08-5.19-81.64-34.11-111.17-12.5-12.75-28.82-21.41-46.79-22.6-19.84-1.32-39.21,7.08-54.36,19.39S144.75,156.06,136,173.39c-9.43,18.54-16.09,38.37-18.66,59.05-4.6,37,6.27,77,34.33,102.68,30,27.55,77.2,32.54,110.09,7.1,3.23-2.49,2.58-8,0-10.6-3.13-3.2-7.42-2.47-10.61,0-24.07,18.62-60,15.15-83.47-2.55-25.54-19.28-37.34-52.31-36.38-83.5.56-18.1,5.1-36,12.07-52.66,6.68-15.95,15.57-31.75,27.2-44.63s26.58-23,44-25.5c15-2.14,29.89,2.81,41.47,12.4,31.11,25.77,33.72,68.63,35.61,106,.49,9.61,15.49,9.67,15,0Z"/><path class="cls-3" d="M270.69,86.88a39.21,39.21,0,0,0,20.92,35.92c8.57,4.43,16.16-8.51,7.57-13a24.4,24.4,0,0,1-13.49-23c.34-9.65-14.66-9.64-15,0Z"/><path class="cls-3" d="M210.72,121.15a101,101,0,0,1,11.16-2.2l-8,1.07a98.46,98.46,0,0,1,24.32.07l-8-1.07a99.1,99.1,0,0,1,23.48,6.38l-7.17-3a92.67,92.67,0,0,1,15.61,8.46c1,.69,4.81,3.58.67.35s-.38-.27.55.51q3.19,2.73,6.14,5.73c1.79,1.82,3.49,3.71,5.12,5.67,3.8,4.58-1.52-1.73-1.39-1.86l2.63,3.76a97.44,97.44,0,0,1,8,14.77l-3-7.17a95.31,95.31,0,0,1,6.53,23.6l-1.07-8c2.34,18.44,2.45,36.67,11.33,53.54,9.56,18.17,30.53,32.13,51.46,31.12,23-1.1,45-16.32,49.28-39.94,2.07-11.3.81-22.5-2.75-33.38-2.21-6.77-4.91-13.35-6-20.43l1.07,8a53.25,53.25,0,0,1,.1-13.11l-1.07,8a55.45,55.45,0,0,1,3.58-12.64l-3,7.16c1.4-3.11,3.61-5.86,5-8.91-2.52,5.59-3.53,4.25-1,1.51a51.91,51.91,0,0,1,4.21-4c11.86-10.36,11.39-32,0-42.43-12.64-11.6-29.78-11.05-42.42,0-15.68,13.7-23.46,33.28-25.48,53.56-.9,9,.52,18.61,3.12,27.24,2.33,7.76,5.68,15.19,6.8,23.28l-1.07-8a35.15,35.15,0,0,1,0,6.24l1.07-8a26.81,26.81,0,0,1-1.7,6.08l3-7.17a14.88,14.88,0,0,0-1.36,2.45c-.11-.35,5.18-6.59,1.51-2.4-1.79,2,5.24-3.2,2.69-2.21-1.05.41-2.1,1.12-3.14,1.58l7.16-3a30.37,30.37,0,0,1-5.46,1.47l8-1.07a28.74,28.74,0,0,1-5.64.09l8,1.07a30.87,30.87,0,0,1-7.12-1.92l7.17,3c-1.25-.58-4.46-1.66-5.15-2.92l3.73,2.84a26.4,26.4,0,0,1-2.16-2.07q-2.25-2.56.41.75t.58.62c-1-1.88-2.07-3.67-2.94-5.63l3,7.17A65.86,65.86,0,0,1,347.24,180l1.07,8c-2.13-17.51-2.81-34.83-9.61-51.34-7.31-17.73-17.65-34.23-32.32-46.87A123.6,123.6,0,0,0,194.77,63.29c-15.21,3.89-25.88,21.68-21,36.9,5.09,15.71,20.61,25.12,36.91,21Z"/><path class="cls-3" d="M313.93,248.51c11.77,0,23-10.35,22.5-22.5s-9.89-22.5-22.5-22.5c-11.77,0-23.05,10.34-22.5,22.5s9.88,22.5,22.5,22.5Z"/><path class="cls-3" d="M303.69,89.63c-8.31,11-4.39,26.16,3.61,35.86,7.44,9,20.12,12.88,31.38,10.18,23.18-5.55,30.28-34.41,19.81-53.44-9.28-16.87-29.61-25-46.81-31a177.22,177.22,0,0,0-51.42-9.41,175.31,175.31,0,0,0-57.7,7.58L224.45,87c1.31-1.19,3.81-2.66,4.79-4.09-.08.12-3.46,2.46-1.42,1.15.88-.56,1.7-1.21,2.57-1.79a94,94,0,0,1,10.14-5.91c.93-.47,1.89-.89,2.82-1.36,1.49-.76,3.25-.62-1.06.38a51,51,0,0,0,5.15-2C251.17,72.07,255,71,258.81,70s7.78-1.62,11.71-2.26c3.14-.52-4.42.43-1.24.19.79-.07,1.58-.18,2.38-.25,2.38-.23,4.76-.39,7.15-.5a168,168,0,0,1,26,1,18.61,18.61,0,0,1,2.8.33c-4.39-1.2-1.6-.24-.4,0,2.16.36,4.33.69,6.49,1.07,4.94.88,9.85,1.91,14.74,3,9.2,2.14,18.3,4.65,27.36,7.3,8.69,2.54,17.27,5.35,25.9,8,3,.94-3.46-1.82-.68-.31.74.41,1.53.73,2.27,1.13,1,.52,1.94,1.18,2.93,1.68,2.4,1.23.46,1.83-.76-.77.23.48,1.28,1.13,1.67,1.51l.55.52q2,2.2.21,0L387,90.53a18.68,18.68,0,0,1,1.23,1.86,13.73,13.73,0,0,1,.73,1.29c.78,1.52.52.85-.8-2a8.61,8.61,0,0,0,.58,2.12c.89,2.56-.17-4.89-.34-1,0-.35.3-5.75.1-1.93-.13,2.65.05-.26.69-1.57-1.74,3.53.61-1.26,1.18-1.14.13,0-4.37,3.66-.73,1.09,2.72-1.91.6-.45,0-.16-4.2,2.15,3.6-1.22,1-.39s4.79.11,1.9-.17c-1.72-.17-4.71-.87,1.22.3-.79-.16-2.8-1.13.09.23,4.09,1.92-1-.77-1-.77-.18.13,4.72,3.3,1.36.88-2.21-1.6.19.2.92,1.34-2.13-3.29.7,1.27.42,1.7.21-.32-.9-3.58-1-4-1.84-11.66-17-19.16-27.68-15.71-12.67,4.1-17.69,15.18-15.71,27.68,2.33,14.78,14.48,26.17,28,31.19,14,5.23,30.43.74,41.08-9.39A42,42,0,0,0,432,81.11c-3.5-13.43-14-24.82-26-31.24-11.09-5.9-23.55-9.06-35.52-12.6-11.47-3.38-23-6.59-34.68-9.13C311,22.75,286.12,20.54,260.92,24c-25.38,3.52-49.21,13.9-68.29,31.13-16.72,15.09.81,44.07,21.89,37.6a180.28,180.28,0,0,1,21.74-5c4.77-.84-4.41.4.84-.1,1.71-.17,3.41-.35,5.13-.48,3.43-.27,6.86-.41,10.3-.45q5.59-.06,11.17.29,3,.18,6,.47l1.71.18q3.84.47-.87-.15c.1.49,9,1.57,10.15,1.8q5.47,1.15,10.84,2.71t10.61,3.49a38.17,38.17,0,0,1,4.8,1.87c-3.34-1.75-1.2-.51.93.48a89.71,89.71,0,0,1,8.5,4.38c.88.53,1.74,1.08,2.59,1.66l-2.11-1.71c-.08,0,5.85,4.39,2.44,2q-1.65-2.3,0,.15,1.44,2.76,0-.25c-.77-2-.9-2.1-.38-.39-.39-4-.52-4.77-.39-2.35,0,4,1.51-5.26.13-1.22q2.35-5,1.13-2.68t1.86-2.23c-1.25,1.18-1.08,1.07.51-.31a12,12,0,0,1,9.46-3.24,13.85,13.85,0,0,1,7.13,2.15l-1-.55q4.44,3.77,2,1.34l2.27,2.76a14.65,14.65,0,0,1,2,7.42q-5,12.51-1.55,7.61C345.83,108,346.19,100,344.81,95c-1.43-5.22-5.47-10.87-10.34-13.45-11.84-6.25-23.18-2-30.78,8.08Z"/><path class="cls-3" d="M409,101.55l5.45,5.42a16.93,16.93,0,0,0,7.24,4.65,20.34,20.34,0,0,0,17.34,0A16.93,16.93,0,0,0,446.3,107l3.52-4.55a22.34,22.34,0,0,0,3.07-11.36l-.8-6a22.51,22.51,0,0,0-5.79-9.93l-5.45-5.42a16.83,16.83,0,0,0-7.24-4.65,20.34,20.34,0,0,0-17.34,0A16.83,16.83,0,0,0,409,69.73l-3.52,4.55a22.54,22.54,0,0,0-3.07,11.36l.81,6a22.49,22.49,0,0,0,5.78,9.93Z"/><path class="cls-3" d="M432.22,122.84c4.61-1.13,9.24-2.09,13.88-3,2.58-.4,2.34-.39-.71,0,1.16-.14,2.33-.24,3.5-.31,1.74-.11,3.49-.16,5.23-.11,1.15,0,2.3.1,3.45.22-3.13-.47-3.42-.46-.88,0,1.13.26,2.24.56,3.34.92,2.45.9,2.21.76-.73-.4,1.54,0,4.44,2.31,5.78,3.06,1.67.92,3.32,1.87,5,2.73,10.56,5.37,21.42,8.19,33.22,5.62,12.93-2.81,21.12-11.43,26-23.31,2.06-5,.35-12.87-2.27-17.34-2.73-4.67-8.08-9.12-13.44-10.34-13.07-3-22.91,4-27.68,15.71a12.6,12.6,0,0,1,3.37-6c3-2.11,3.78-2.7,2.3-1.79s-.59.54,2.73-1a16.7,16.7,0,0,1-2.33.64q5.64-.59,2.93-.45a14.43,14.43,0,0,1-1.86,0c3.91.66,4.69.76,2.32.31l-1.17-.31q-3.53-1.25.83.53c-1-.46-2-.94-2.92-1.45-1.45-.75-2.87-1.57-4.3-2.36a103.48,103.48,0,0,0-13.39-6.3c-17.41-6.68-36.66-2.92-54.14,1.37-11.44,2.8-19.39,16.34-15.72,27.68,3.84,11.87,15.43,18.72,27.68,15.71Z"/><path class="cls-3" d="M508.87,73.49c-5.38-13.87-15.95-22.11-30.71-24.09-4.47-.6-8.77-.69-13.26-.88-.8,0-4.13-.45-.55.11s.23-.19-.43-.21c-2.29-.07,3.54,2,1.66.81-2.08-1.29,4,3.91,1,.55l-4.55,35.34C471,80,480.15,75.27,489.5,70.94c2.26-1,4.54-2.07,6.82-3.07.44-.19,4.15-1.78,1.62-.71s1.19-.48,1.63-.66c2.25-.92,4.51-1.82,6.82-2.6,1.14-.38,2.29-.74,3.46-1,.58-.17,1.16-.31,1.76-.43q2.5-.53-1.53.08c.07-.23,3-.09,3.36-.11,3.49-.18-.41.5-1-.34.53.72,5.38,1.35,6.43,1.66,3.54,1.06-.54-.49-.68-.39.22-.16,2.75,1.34,3.07,1.5,2,1.06,4,2.22,6,3.44s3.89,2.51,5.79,3.82c1.18.81,2.34,1.64,3.51,2.47.5.36,3.48,2.51.82.53s.07.34.57.67q1.25,1.32-.33-.59a5.14,5.14,0,0,1-1.42-2.6,6.56,6.56,0,0,1-.74-3.28c-.14-2-.2-2.4-.18-1.2q-.09,3,1.06-3.38.63-6.41,6.73-9.65c-9.75,6.56-14.95,20.13-8.07,30.79,6.26,9.71,20.33,15.09,30.78,8.07,9.44-6.35,14.63-15.57,14.43-27C580,57.23,574.79,48,567.48,42,556,32.4,542.23,23.15,527.61,19.36c-17.91-4.66-33.41.89-49.7,7.8a371.32,371.32,0,0,0-38.56,19.1c-13.27,7.57-13.9,24.65-4.55,35.34,7.56,8.65,19.1,11.45,30.1,11.92,1.65.07,3.3,0,5,.08.84,0,6.51-.15,2.33,0-2.09-.3-2.21-.27-.35.11q3.45,1.08-1.69-1,3.06,1.77-1.48-1.47a13.22,13.22,0,0,1-3.18-5.85c4.24,10.93,15.3,19.72,27.68,15.71,10.63-3.44,20.27-15.93,15.71-27.68Z"/><path class="cls-3" d="M487.67,78.73c2.3,6.35,5.28,11.7,10.57,16a72.63,72.63,0,0,0,8.07,5.79c.8.48,1.59,1,2.38,1.46q2.28,1.56,0-.1t0,.15q2.41,2.67-.68-1.22c.56.8,1.09,1.62,1.57,2.47q1.63,3.25-.43-1.38a26.71,26.71,0,0,1,.87,2.8c.51,2.44.48,1.89-.07-1.66.56-.32-1.21,10.26.38,1.3-2.05,11.55,3.11,24.81,15.72,27.68,11,2.5,25.47-3.33,27.67-15.72,2.29-12.88,1.08-26.45-6.45-37.59a53.86,53.86,0,0,0-14.69-14.83c-1.52-1-3.12-2-4.73-2.95-3.78-2.12,2.12,2.42.67.71-.85-.83-.71-.55.44.83a9.63,9.63,0,0,1,2.13,4.27c-4-11-15.48-19.67-27.67-15.72-10.86,3.51-20,15.83-15.72,27.68Z"/><path class="cls-3" d="M150.34,93.54q-.41-4.89-.18-1.1-.18,3.81.38-1.18c.2.33-.78,4.32-1.3,4.72q1.88-4.2.25-.78c-.53,1-1.08,2-1.67,3-.89,1.5-1.92,2.89-2.85,4.36q-2.22,3,.4-.37c-.71.9-1.43,1.79-2.15,2.68-1.19,1.45-2.39,2.87-3.59,4.31l-9.39,11.27L94.55,163.28l37.6,21.89,4.59-26.88c1.91-11.19-2-21.91-13-26.55-9.68-4.09-23.09-.86-28.09,9.21l-30.83,62,41.12,17.34a219.47,219.47,0,0,0-3-100.36,22.53,22.53,0,0,0-44.19,6l-.59,32.35c-.21,11.77,10.5,23,22.5,22.5,5.82-.26,11.85-2.17,15.91-6.59,4.31-4.7,5.79-9.64,6.59-15.91,5.47-42.87-13-89.12-46-116.89V73.18c.82-.79,1.63-1.57,2.49-2.32,2.64-2.31,1.57.28-.87.56,1.32-.15,3.29-2.25,4.5-3,1.75-1,3.56-1.89,5.37-2.81,2.75-1.4-5.46,1.87-1,.46,1.29-.41,2.55-.89,3.84-1.28,1.73-.52,3.49-1,5.25-1.32.77-.16,5-.51,1-.29s.39,0,1-.06c1.81-.15,3.62-.22,5.43-.22q1.69,0,3.39.09c1,0,5.65.9,1.74,0s2.61.52,3.67.77c1.76.4,3.5.89,5.21,1.44,1.07.35,2.11.77,3.18,1.14,2.91,1-5.13-2.63-1.05-.39,2,1.08,4,2.06,5.88,3.27.76.49,1.48,1,2.24,1.51,3.88,2.52-3-2.72-.82-.61,1.61,1.55,3.23,3,4.77,4.66,2.93,3.08-.69-.46-.6-.88a29.11,29.11,0,0,0,1.69,2.62c.46.79,1.61,4.72.9,1.44-.77-3.52.23,1.61.44,2.34.84,2.91,0-5.62-.35-.83.06-.86,1.47-5,.14-1.53-1.28,3.32.92-2.13,1-2.22-1.86,3.68,3-3.48,1.11-1.37-2.19,2.49-1.46-.57,1.45-1a16.17,16.17,0,0,0-2,1.14c1.9-1.93,4.65-1.77,2.18-1.07-4,1.14,5.47-.07,1.64-.25l3.87.57q-2.42-.67.69.5c4,1.91-.82-1.8,2.26,1.29.68.68,4.65,6.11,2.93,2.79.24.46,1.55,5.35,1,2-.13-.75-.36-1.63-.56-2.39-1.15-4.32.48,4.68.16,1.63-.4-3.85-.85-7.74-1.54-11.55a33.15,33.15,0,0,0-30.2-27.56c-15.91-1.16-29.65,11-34.79,25.24-5.76,16,1.89,32,12.14,44.09,3.34,3.94,7.16,7.42,10.61,11.26.22.25,1.91,1.83,2,2.36q-2.86-3.81-.76-.85l.81,1.29.75,1.31q1.31,2.65.1,0c-.72-1.78-.78-1.75-.16.11q.76,3.66-.18-1.56c.74,11.73,9.81,23.07,22.5,22.5,11.55-.51,23.3-9.92,22.5-22.5-1-16-9.11-27.83-20-39-1.63-1.66-3.26-3.31-4.81-5s-1.28-3.36.07.37a19.21,19.21,0,0,0-1.73-2.52l-.78-1.29c-1.11-2.19-1-1.74.39,1.32,0,.28-.81-2.84-.82-2.84l.41,3c0-2.42-.11-1.67-.45,2.27.8-3.89-2.6,4.32-.25.76l-2,2.54c1.29-1.25,1.14-1.22-.46.07l-1.33,1c2-1.2,1.29-1-2.22.66,3.39-1-2.46.28-2.66.29a13.8,13.8,0,0,1-9.79-3.73c-.13-.12-3.38-4.77-1.65-1.82-3-5.06-1.36-3.34-.85-1,.16.78.2,1.65.41,2.4-1.84-6.33-.43-3-.18-1,.91,7.36,1.8,14.22,5.5,20.81,4.18,7.43,11.6,13.76,20,15.86a39.61,39.61,0,0,0,38.07-11.18C159.58,94.6,162,77.66,156.67,63.36c-8.89-23.66-32.42-40.16-57-43.94-27-4.15-54.4,2.61-74.33,21.94-8.18,7.93-9.22,24,0,31.82a111.16,111.16,0,0,1,10,9.43q2.09,2.23,4,4.59c.19.23,3.37,4.12,1.09,1.31-2-2.51.13.26.51.79A114,114,0,0,1,48.17,101c1.09,2,2.13,4.06,3.1,6.14a20.53,20.53,0,0,0,1.26,2.78c-1.27-1.86-1.43-3.52-.24-.42a115.59,115.59,0,0,1,4,12.37c.58,2.21,1.08,4.45,1.53,6.7q.28,1.5.54,3c.59,3.45-.11,1.54,0-.69-.14,4.24.78,8.65.79,12.94a111.26,111.26,0,0,1-.94,14.47h45l.59-32.35-44.2,6A195.57,195.57,0,0,1,64,152.78c.15.92.29,1.84.41,2.76q-.51-3.9-.21-1.37c.14,1.54.35,3.08.49,4.62q.51,5.57.7,11.14a191,191,0,0,1-.4,20.44q-.21,2.77-.49,5.55c-.08.79-.61,7.09-.1,1.4a105.36,105.36,0,0,1-1.9,11c-2.21,11.1,2.25,22,13,26.54,9.68,4.09,23.09.86,28.09-9.21l30.83-62L93.35,146.32l-4.59,26.89c-1.64,9.6,1,20.47,10.34,25.41,8.3,4.39,20.76,4.29,27.27-3.52l40.7-48.85c7-8.36,14.58-16.62,20-26.09,6.95-12.06,9.43-24.92,6.62-38.58C191.36,70,177.09,62.3,166.06,65.87c-12.24,3.95-18.26,15.3-15.72,27.67Z"/><path class="cls-3" d="M45.13,230.28,43.29,274c-.4,9.44,7.24,19.58,16.52,21.7s20.87-1.23,25.41-10.34l38.9-78L82.19,196l-5.86,65h45a47.54,47.54,0,0,1-.38-7c0-.91.59-5-.06-1.17-.69,4,.16-.62.27-1.13.45-2.05,1.17-4,1.74-6,.74-2.61-2.28,4.4-.39.86.55-1,1-2.08,1.63-3.1,1-1.83,2.37-3.46,3.44-5.26-2.71,4.57-1.57,2.08-.39.8.78-.86,1.6-1.69,2.45-2.49.6-.56,3.84-3.11.9-.94s.75-.43,1.12-.67c1.63-1,8.29-4.09,2.07-1.54l-21.89-37.6-7.14,8.74c-7.44,9.1-9.57,23,0,31.82,9.22,8.47,22.63,8.6,31.82,0,2.89-2.72,5.91-5.27,8.94-7.82q2.83-2.25-1.05.77c.79-.6,1.58-1.19,2.38-1.77,1.6-1.17,3.22-2.3,4.86-3.41A159.89,159.89,0,0,1,170.89,213c1.77-.87,3.58-1.67,5.37-2.52,2.23-1,1.81-.8-1.29.51l2.75-1.12q5.53-2.18,11.2-4a173.28,173.28,0,0,1,21.63-5.33c1-.19,5.23-.24,5.87-.95-3.53.46-4,.53-1.56.23,1-.12,2-.23,3-.33q5.18-.51,10.37-.72a169.22,169.22,0,0,1,23.72.72c1.67.17,8.07,1.69,1.38.12,1.42.33,3,.45,4.39.7q5.83,1,11.59,2.49a157.25,157.25,0,0,1,22.49,7.57c6.38,2.69,14.53-.1,19.62-4,6-4.62,8.1-10.34,8.86-17.67,2.35-22.42-15.58-40.16-34.73-47.86-15.62-6.27-33.67-8-50.29-9.38a277.62,277.62,0,0,0-102.1,10.95l25.41,33.05c2.94-3.93-2.68,3,.32-.35,1-1.17,2-2.38,3.06-3.54,2.26-2.51,4.64-4.92,7.11-7.22,1.14-1.06,2.3-2.09,3.49-3.11.52-.44,4.64-4,2-1.69s1.52-1.08,2.1-1.49c1.28-.9,2.57-1.78,3.88-2.62,5-3.22,11.33-7.85,17.16-9.2l-2.5,1.07c1-.39,1.94-.76,2.91-1.12,1.46-.54,2.94-1.05,4.42-1.53q4.45-1.44,9-2.51c1.56-.36,3.12-.69,4.7-1,.82-.16,1.65-.3,2.48-.44q2.56-.41-1.81.2c3.11.38,6.88-.7,10.06-.82,3.37-.13,6.74-.1,10.1.07q2.52.12,5,.36c1.12.1,2.23.22,3.35.36l-2.65-.34c3-.26,7.07,1.26,9.92,1.94q4.91,1.2,9.7,2.8c1.86.63,3.68,1.37,5.54,2,1.54.62,1.05.4-1.49-.66.77.34,1.54.68,2.3,1,3.31,1.54,6.53,3.25,9.69,5.08,10.19,5.9,25.09,2.7,30.78-8.07s2.82-24.49-8.07-30.79A140.16,140.16,0,0,0,199.47,98.76c-32.48,7.59-60,27.57-79.8,54-5.31,7.09-3.17,18.61,1.76,25,5.37,7,15,10.67,23.65,8.07,6.87-2.07,13.8-3.88,20.82-5.38q5-1.06,10.09-1.94c1.85-.32,3.7-.6,5.54-.89,6.21-1-4.81.51,1.43-.19a270.19,270.19,0,0,1,42.94-1.56,171.17,171.17,0,0,1,20.48,1.8c-5.41-.92.21.06,1.42.25,1.85.29,3.69.61,5.53.94,3.49.63,7,1.3,10.42,2.17,1.39.36,2.78.74,4.15,1.17.73.22,5.83,2.42,2.94.95s1.33.8,1.9,1.14a33.31,33.31,0,0,1,2.86,1.86l-2.18-1.61a22.82,22.82,0,0,1,1.65,1.61c1.12,1.23.76.69-1.06-1.61a39.22,39.22,0,0,0,2.34,3.91l-1.14-2.59a22.23,22.23,0,0,1,.73,2.89c-.81,0-.09-5.84-.7,0L303.72,167c-51-21.47-111.69-16.21-160.17,9.49a181.78,181.78,0,0,0-38.85,28l31.82,31.82,7.14-8.74c6.16-7.55,9.27-18.34,3.51-27.27-4.95-7.69-16.06-14.18-25.41-10.34-15,6.17-27.25,15.5-35.77,29.57-7.31,12.07-11.37,27.35-9.66,41.44.75,6.18,2,11.34,6.59,15.91,3.9,3.91,10.3,6.84,15.91,6.59,13.1-.58,21.36-9.9,22.5-22.5l5.86-65c.84-9.36-7.56-19.65-16.52-21.69-9.3-2.12-20.87,1.23-25.41,10.34l-38.9,78L88.29,274l1.84-43.75c.5-11.77-10.7-23-22.5-22.5-12.61.57-22,9.89-22.5,22.5Z"/><path class="cls-3" d="M392,152.12l-10.22,26.12c-3.23,8.25,1.63,18.68,8.06,23.65,6.81,5.26,17.45,6.7,25,1.76,3.7-2.43,7.49-4.72,11.4-6.79,2-1,3.94-2,5.94-3,2.32-1.09,4-2.09.7-.41,7.42-3.81,16.45-5.86,24.55-7.57q2.85-.6,5.71-1.08c1.09-.19,2.18-.36,3.28-.52q-4.86.65-1,.18c4.14-.34,8.25-.71,12.41-.79s8.3,0,12.44.32c2,.14,4.65,0,6.6.63-3.23-.46-3.58-.49-1.05-.12,1.1.18,2.19.36,3.28.56,8.11,1.45,15.81.29,21.89-5.78,5.92-5.92,7.5-13.91,5.78-21.89-2.84-13.25-12.45-24.83-24.11-31.45-13.36-7.58-28.28-8.6-43.17-6.16a81.33,81.33,0,0,0-16.74,4.75c-2.76,1.09-5.45,2.34-8.23,3.38-1.37.51-2.75,1-4.17,1.37-1.2.33-5.47,1.1,0,.16l-1.74,0a7.35,7.35,0,0,1,4.61,1c1.57.76,1.83.86.76.29q-2.19-1.29,1.73,1.5c4.67,4.91,4.12,14-.82,18.63-.87.81-3.76,2.28-1.14,1a6.81,6.81,0,0,1-4.11,1.34c-1.71.13-1.89.16-.54.1a16.73,16.73,0,0,1,2.65.06l-2.46-.32c1.35-.3,4,.88,5.23,1.19,11.41,2.81,24.93-3.64,27.68-15.71,2.64-11.62-3.49-24.67-15.72-27.68-9.44-2.33-19.29-3.82-28.75-.71-10.88,3.58-20.27,12.39-22.91,23.77C389.22,157.92,412.33,177,435,174c7.72-1,14.13-4,21.35-6.66a82.21,82.21,0,0,1,10.54-3.23c.89-.21,1.79-.4,2.69-.55q2.52-.45-1.48.14c.77-.53,4.53-.27,5.43-.26s1.81,0,2.71.11q2.55.21-1.47-.24c.58-.39,3.49.9,4.06,1,4,.93-4-2.47-.2-.13.49.3,3.54,2.21,3.62,2.15-.51.38-4.14-3.82-.27,0,.7.7,3.7,2.88.92.84q-1.77-2.35-.22,0c.86,1.66.89,1.58.09-.26-.37-3.8.34,1.61.53,2.51L511,141.71c-41-7.29-83.81.08-118.89,23.08l33.05,25.41,10.22-26.12c4.3-11-4.71-25.17-15.71-27.67-12.93-2.95-23.08,4-27.68,15.71Z"/><path class="cls-3" d="M382.4,248.51c11.77,0,23.05-10.35,22.5-22.5s-9.88-22.5-22.5-22.5c-11.77,0-23,10.34-22.5,22.5s9.89,22.5,22.5,22.5Z"/><path class="cls-3" d="M382.4,252.85c11.77,0,23.05-10.35,22.5-22.5s-9.88-22.5-22.5-22.5c-11.77,0-23,10.35-22.5,22.5s9.89,22.5,22.5,22.5Z"/><path class="cls-3" d="M54.06,279.11c-6,15-6,32.71-1.59,48.1,5.06,17.56,15.52,31.31,29.85,42.3,12.89,9.89,35.83-3.36,33.86-19.43-2.47-20.14-5.35-40.29-7.4-60.48-.1-.93,0-2-.2-2.87-.46-2.16-.35,2.2-.42,2.5C106,297.72,94.49,303.84,86.78,299l-2.43-2-1.5-2.2c.67.3,1,2.62,1.58,2.69-.25,0-1.91-5.2-.45-1,.35,1,.7,2,1.06,3a152.83,152.83,0,0,0,11.5,25.25c17.79,30.53,46.47,53.56,79.59,65.43,18.36,6.58,38.22,8.2,57.59,8.53,20.66.36,41.38.39,62-.25a536.44,536.44,0,0,0,123.12-17.89c19.68-5.32,39-12,58.12-18.9,4.56-1.65,9.11-3.33,13.68-5,2-.72,4-1.44,6-2,1.16-.33,2.32-.58,3.48-.89,4.22-1.16-2.53.17.22.09,3.44-.1-4.5-1.28-1.64-.38.88.28,3.76,1.32.64-.07s-.76-.31-.2.08c-4.28-3-2.47-2.07-1.41-.93a12.31,12.31,0,0,1-3.09-5c-.18-.64-.33-5.3-.42-1.28,0-1,1.14-4.79-.2-1.24.57-1.51,1.63-3.17.29-.78-1.06,1.88-2.13,3.73-3.33,5.53-.58.87-1.19,1.72-1.79,2.58-1.06,1.56-.73,2.64.69-.82-1.34,3.24-5.94,6.83-8.41,9.22-1.5,1.45-3.05,2.86-4.62,4.22-.65.56-5.19,4.3-2.6,2.21s-2.07,1.49-2.79,2c-2.16,1.51-4.37,3-6.61,4.36a188.43,188.43,0,0,1-21.81,11.54l-2.18,1c-3.65,1.65.42-.19,1-.39-2.12.73-4.2,1.72-6.29,2.55-4.51,1.77-9.05,3.44-13.61,5.08-19.2,6.89-38.54,13.29-57.13,21.78-16.9,7.72-32.32,17.94-47,29.24-15.69,12.07-30.69,25-46.2,37.27l-2.07,1.63c-3.27,2.58-.12.2.39-.29a40.16,40.16,0,0,1-5.22,3.82c-1.56,1.05-3.15,2.05-4.79,3-.93.52-1.93.95-2.85,1.51-2.27,1.37,4.21-1.16.28-.12-1,.26-2,.58-3,.87-3.41,1,1.18-1.1,1.58-.1,0,0-3.14.11-2.89,0,0,0,4.88.73,2.45.19-2.85-.64,3.92,2.1,1.32.56s3.47,3.06,1.38,1.17c-.3-.27-.92-1.2-1.29-1.32q3.1,4.26,1.74,2.09a13.8,13.8,0,0,1-.88-1.6c.26.16,1.37,4.55,1.09,2.52a24,24,0,0,0-.71-2.43c-.21-.83-.28-1.73-.54-2.54-.71-2.21.32,2.7.32,2.68.06-3.89-.53-7.91-.65-11.82-.27-8.88-.84-18-3.66-26.52-6.56-19.75-19.85-35-36.19-47.4-14.59-11.07-31.7-17.9-48.4-25.06-8.27-3.55-16.52-7.19-24.4-11.54-3.21-1.78-6.37-3.66-9.43-5.68-1.36-.89-4.31-2.21-5.14-3.58.19.31,4,3.33.85.65-1-.83-2-1.65-3-2.51-2.91-2.58-5.48-5.4-8.11-8.24-1.64-1.76-1.62-.39.65.94a12,12,0,0,1-1.78-2.52c-1.15-1.71-2.2-3.49-3.2-5.3L84.77,375.49A562.18,562.18,0,0,0,185,422q24.94,8.76,50.67,15,13.07,3.17,26.28,5.66c8.89,1.67,18.79,4.52,27.83,3.52,14.71-1.62,29.9-10.63,29.91-27.37a29.16,29.16,0,0,0-7.81-20.15c-4.62-5.12-11.31-7.51-17.6-9.74q-13.65-4.81-27.32-9.59c-9.82-3.44-20.29-8.49-30.91-8.22a31,31,0,0,0-30.18,27.07,34.88,34.88,0,0,0,11.71,31.24c15.13,13,38.56,15.63,57.68,17.34,39.65,3.55,80.78-6.28,114.91-26.63,8.25-4.91,13.41-15.94,10.34-25.41-2.84-8.79-11.68-17.51-21.69-16.52l-94.38,9.36c-11.68,1.16-23.08,9.52-22.5,22.5.56,12.53,9.88,22.07,22.5,22.5A396.65,396.65,0,0,0,494.52,380c10.2-5.88,14.63-20.62,8.07-30.79s-19.87-14.36-30.78-8.07q-11.54,6.65-23.49,12.48-5.58,2.7-11.26,5.23c-1.62.72-3.23,1.48-4.88,2.12,5.46-2.12-1.84.73-2.82,1.12a371.81,371.81,0,0,1-48.07,15.5q-12.48,3.12-25.15,5.37c-4.07.72-8.16,1.34-12.25,2-5.29.81,3.82-.42-1.05.14-2.35.27-4.7.56-7,.8a371.68,371.68,0,0,1-51.36,1.77v45l94.38-9.36L367.45,381.3c-5.73,3.41-11.63,6.36-17.65,9.22-5.12,2.44,4.56-1.69-.74.33-1.55.6-3.09,1.22-4.65,1.79q-5.46,2-11,3.64a173.91,173.91,0,0,1-17.78,4.2c-1.63.29-3.27.54-4.91.82-5.65.95,5.09-.46-.61.06-3.87.36-7.71.75-11.59.92a169.71,169.71,0,0,1-19.92-.24c-2.57-.18-5.85,0-8.27-.78,5.37,1.84,1.06.15-.59-.11-2.19-.35-4.37-.75-6.54-1.18-3.26-.66-6.5-1.41-9.71-2.27-1.51-.4-3-.81-4.51-1.29l-1.46-.49c-2.3-.86-1.91-.69,1.16.53-.57.53-6.13-4.71-.39.23l-1.06-1a11.08,11.08,0,0,1,3.11,5.58c-1-3.54.06,2.12.07,2.38q0-3.64-.49,2.41a13.63,13.63,0,0,1-3.63,5.92l-6.58,3.77a9.9,9.9,0,0,1-5.53,0c.73-.38,4.07,1.19,4.83,1.44,3.79,1.27,7.54,2.65,11.31,4l24.49,8.6c2,.71,7.94,1.78,9.42,3.31l-2.84-1.25q8.83,5.07-6.58-13.88a16.81,16.81,0,0,1,11.34-16.39c-4.1,1.34,5.64.19,1.22-.05h-1.21c-2.21-.15-1.58-.05,1.9.32-1.32.28-4-.65-5.3-.88q-3.54-.6-7.06-1.26a528.69,528.69,0,0,1-82.93-22.48c-7.87-2.84-15.65-5.9-23.39-9.07-5.6-2.29,4.31,1.92-1.23-.52-2.19-1-4.38-1.91-6.56-2.88q-4.91-2.19-9.77-4.49-22.69-10.71-44.29-23.54c-8.28-4.9-20.59-3.75-27.27,3.52a23.24,23.24,0,0,0-3.52,27.26c10,18,26.21,31.62,43.89,41.61,16.59,9.39,34.76,15.46,51.81,23.88,4.51,2.23,8.94,4.61,13.23,7.24,1.84,1.14,3.65,2.31,5.43,3.54.83.59,1.65,1.21,2.48,1.79,2.26,1.59-3.45-2.91-.32-.19a103.26,103.26,0,0,1,8.9,8.48c.68.76,1.33,1.55,2,2.3,2.63,2.93-.49-.41-.68-1,.72,2.11,3,4.33,4.16,6.3.88,1.51,1.58,4.08,2.75,5.33-.41-.44-1.73-5-.57-1.23.3.95.65,1.88.94,2.83.48,1.6.52,4.46,1.38,5.84-.21-.35-.46-5.37-.23-1.66.07,1.13.17,2.26.24,3.39.52,9.38.4,18.7,2.4,27.95,5.5,25.51,32,39.28,56.27,30.2,20.26-7.59,36.63-23.66,53.09-37.24q5.43-4.49,10.89-8.91c1.82-1.47,3.64-2.94,5.48-4.39l2.76-2.17c2.15-1.69-3.1,2.34.31-.22a290,290,0,0,1,24.52-16.77c4-2.42,8.16-4.71,12.37-6.83,2.15-1.08,4.33-2.13,6.52-3.14,1.1-.51,2.2-1,3.3-1.49.73-.33,6.12-3,1.28-.58,8.77-4.42,18.8-7.18,28.06-10.42,36.89-12.92,76.89-26.95,102.34-58.45,7.72-9.56,15.24-20,16.92-32.52,2-15.1-4.59-30.17-18.6-37.19-23.09-11.58-47.62,2.11-69.69,9.83a581.39,581.39,0,0,1-61.88,18.28q-15.29,3.51-30.77,6.05c-2.51.41-5,.8-7.52,1.17l-3.76.54c-4.36.63-.47.12.33,0-5.53,1.12-11.4,1.37-17,1.89-21.8,2.05-43.7,2.47-65.59,2.48-11.11,0-22.23,0-33.33-.23-5.17-.12-10.34-.35-15.49-.78-1.28-.11-2.57-.23-3.85-.36-.71-.08-4.78-.63-1.81-.19s-1.1-.21-1.79-.33c-1.44-.25-2.87-.52-4.3-.82a113.52,113.52,0,0,1-11.32-3q-2.79-.89-5.53-1.9c-.91-.34-1.81-.71-2.73-1.06-4.79-1.83,4.62,2.23,0,0a144.54,144.54,0,0,1-21.45-12.52c-.78-.56-1.55-1.25-2.36-1.75.46.29,4,3.3,1.1.81-1.49-1.27-3-2.5-4.46-3.81-3.09-2.76-6-5.68-8.86-8.73q-2-2.14-3.87-4.4c-.63-.74-1.23-1.51-1.86-2.26-1.92-2.29,2.56,3.52.83,1.08-2.4-3.39-4.78-6.75-6.92-10.32q-3-5-5.51-10.32L130,291.7c-.78-1.78-.8-1.78,0,0l.56,1.34c-.28-.68-.55-1.36-.82-2-.83-2.13-1.54-4.29-2.34-6.42-5.5-14.84-15.65-28.2-33-28.68-17.58-.48-30.87,13.44-30.83,30.82,0,10.4,2.44,21.22,3.7,31.54l3.9,31.81L105,330.66c5,3.82,1.37,1,.28-.06s-2-1.93-2.92-3c-.47-.51-.93-1-1.37-1.57-1.07-1.3-.62-.69,1.37,1.83.09-.64-2-2.93-2.33-3.45a73.74,73.74,0,0,1-3.6-6.74c-.94-1.92,1.87,5,.22.19-.45-1.32-.85-2.65-1.2-4-.3-1.12-.56-2.25-.79-3.39-.19-.91-.35-1.83-.49-2.75l.46,3.22c.3-2.66-.37-5.61-.25-8.33,0-.69.08-1.39.14-2.08.16-1.77,0-.93-.41,2.54a26.59,26.59,0,0,0,.77-4.09,53.9,53.9,0,0,1,2.53-7.94c4.36-11-4.76-25.19-15.72-27.68-13-3-23,4-27.67,15.71Z"/><path class="cls-3" d="M255,378c11.77,0,23.05-10.35,22.5-22.5S267.62,333,255,333c-11.77,0-23,10.35-22.5,22.5S242.39,378,255,378Z"/><path class="cls-3" d="M141.9,436.15l-22.55,39.56,41.13,17.34,7.11-26.58c2.49-9.28-1.55-20.77-10.34-25.41-9.66-5.1-19-2.9-27.26,3.52l-29.52,22.89,31.82,31.82,23.59-27.59-31.82-31.82-92.32,110c-7.56,9-9.49,23.11,0,31.82,9.71,8.91,22.07,8,31.82,0l77.86-63.81-21.89,5.79,97,38.64,12-43.39-80.85-30.78c-8.86-3.38-21.1,2.17-25.41,10.34a23.39,23.39,0,0,0,3.52,27.26c14,15.5,36,24.52,56.9,22.76,11.26-.94,20.53-7.84,22.1-19.5,1.4-10.42-5.11-22.4-16.11-24.69a25.38,25.38,0,0,0-2.91-.75c-2.28-.15,4.49,2.63,1.58.59-.51-.36-3.9-2.64-.64-.25s.32,0-.38-.63c-3-2.56,2.45,4.25.55.79-.37-.68-.79-1.41-1.23-2.06-2.23-3.34,1.33,4.84.35.95-.19-.76-.41-1.58-.67-2.31-1.34-3.76,0,5.23.09,1.25,0-.77,0-1.6,0-2.37q.21-2.69-.16.63c-.34,2.2-.33,2.43,0,.67a9.47,9.47,0,0,0,.71-2.27q-2.25,5-1,2.66a16.42,16.42,0,0,1,.89-1.5c1.36-2.57-.89,1.41-1.48,1.81,1.61-1.08,3-3.24,4.48-4.56a21.21,21.21,0,0,0,2.27-1.91c-.88,1-4.21,3.11-1.21,1l4.9-3.52a154.8,154.8,0,0,0,12.89-9.92,45.48,45.48,0,0,0,15.43-31.79c.54-7.75-4.67-15.64-11.14-19.43-7.55-4.42-15.12-3.35-22.71,0-30.11,13.28-36.45,59-12.86,80.94,12.59,11.73,30,15.13,46.49,11.6,17.16-3.67,29.55-16.19,35.71-32.11.81-2.11,1.6-4.26,2.28-6.42.8-2.58-.53,1.54-.63,1.46s1.4-2,1.31-2.26c.1.31-3.23,3.32-1.55,2,.34-.27,2.25-1.84,2.29-2.29,0,.32-3.92,2.41-2,1.54a20.35,20.35,0,0,0,2.23-1.35c.42-.25,1.45-.51,1.75-.88-.88,1.09-4.91,1.74-1.08.73a7.42,7.42,0,0,0,1.91-.46c-.51.54-5.38.23-2.1.31.63,0,1.31,0,1.95,0,3.45-.15.47,1.51-1.48-.33a6.72,6.72,0,0,0,1.89.47c1.58.35,4.36,2.09-1.15-.58l5.38-41.13L191.11,458c-11,2.16-17.5,14.39-16.12,24.69,1.34,9.93,11,20.92,22.1,19.51l119.12-15.13-19.42-33.85c-2.89,4.25-5.84,8.46-8.91,12.59l-2.05,2.74c-1.59,2.11-.43,1,.38-.48-1.21,2.13-3.26,4.12-4.81,6q-9.76,11.94-20.58,23-10.48,10.71-21.88,20.48c-3.69,3.16-7.48,6.19-11.26,9.25-2.14,1.73,3.22-2.41-.19.14-.91.69-1.82,1.38-2.74,2.06-2.29,1.7-4.61,3.37-6.94,5-7.92,5.61-13.58,15.41-10.34,25.41,3.28,10.16,11.37,15.44,21.69,16.52a678.31,678.31,0,0,0,156.39-1.81l-11.36-41.93c-2.94,1.78-5.95,3.29-9,4.8q-2.3,1,1.75-.74c-1,.38-2,.75-3,1.09-1.48.52-3,1-4.5,1.42-3,.86-6.11,1.5-9.21,2.07-4.95.92,4.37-.23-.27,0-1.84.09-3.66.27-5.5.32-3.44.09-6.81-.15-10.24-.33-4.62-.25,4.66,1-.26,0-1.54-.32-3.09-.57-4.63-.92a80.91,80.91,0,0,1-9.06-2.62c-1-.35-2-.72-3-1.11l2.48,1c-1.63-.08-4.22-2-5.65-2.8L302.82,576.4l120.5-2.77-6-44.19L383.41,537c-11.5,2.56-19.33,16.51-15.71,27.68,3.91,12.08,15.35,18.45,27.67,15.71L475,562.75c13.27-3,26.93-5.11,39.2-11.28a45.75,45.75,0,0,0,25.28-38.54c.64-11.77-10.81-23-22.5-22.5-12.75.57-21.81,9.89-22.5,22.5.1-1.94.56-4.65,0-1.07-.35,2.16,2-3.1.52-1.47-3.15,3.42.19-.47.49-.49a14,14,0,0,0-2.11,2c.39-1.39,3.9-2.62.31-.51-.95.56-3.56,1.12-1,.73,3.2-.5-1.18.41-2,.67-1.06.34-2.13.66-3.21.95-11.18,3.1-22.71,5.19-34,7.7l-70,15.52,12,43.39,33.93-7.56c10.92-2.43,17.53-14.17,16.11-24.69-1.44-10.75-10.84-19.76-22.09-19.51l-120.5,2.77c-9.54.21-19.49,6.79-21.7,16.51-2.16,9.5,1.32,20.59,10.34,25.41,32.78,17.54,73.48,17.15,105.45-2.21,8.21-5,13.42-15.9,10.34-25.41-2.79-8.6-11.76-17.79-21.7-16.52A678.31,678.31,0,0,1,229.16,531l11.36,41.93A378.37,378.37,0,0,0,335.64,476c4.43-6.54,3.86-16.12,0-22.71-3.61-6.18-11.85-12.11-19.43-11.15L197.09,457.24l6,44.19L281.53,486c18.48-3.63,22.43-32.83,5.37-41.12-19.15-9.3-41.87-6.62-57.42,8.49a42.89,42.89,0,0,0-8.85,12.34,105.78,105.78,0,0,0-4,10.16c-.36,1.07-.74,2.15-1.13,3.22l1-2.24a22.92,22.92,0,0,1-1.12,2.07q-1.94,2.88,1.48-1.73a20.16,20.16,0,0,0-3.29,3.24q4.6-3.44,1.74-1.5c-.66.41-1.33.8-2,1.15-3.39,2.06,5.43-1.41.51-.27a27.79,27.79,0,0,0-4,1q6.06-.7,2.48-.39c-.79.05-1.57.07-2.35.06-6-.07,3.84,1.2.18.17-1-.28-5.37-2.11-1.74-.22,3.87,2-.71-.54-1.44-.92-3.31-1.73,4.45,3.73.06-.18-2.86-2.54,3.36,4.68.09-.15-2.18-3.21,1.31,5.43.25.6-.57-2.62,0-5.13-.25.87.07-1.5-.11-3.16-.15-4.67-.11-3.83-1.37,6,0,.16.32-1.33.89-2.61,1.21-3.93.62-1.64.25-.74-1.11,2.68.34-.69.71-1.38,1.11-2.05,2.94-5-2.72,2.36-.07-.1.52-.56,1.06-1.1,1.63-1.62q2.64-2.24-1.82,1.38c1.27-.29,2.87-1.66,4.12-2.21l-33.86-19.42c-.3,4.34,1.1-5.74.12-1.69-.87,3.57,2.75-4.54.67-1.54-1.27,1.84-3.1,2.86,1.17-1.09-.65.6-1.18,1.36-1.8,2-1.43,1.49-3.15,2.67-4.59,4.12,4.28-4.31,2.44-1.87.82-.68-1,.7-1.94,1.39-2.91,2.09-9.65,6.88-19.6,13.91-25.51,24.51-14.46,25.91.91,63,30.61,69.2l6-44.2a49.52,49.52,0,0,1-6.09.21l-1.52-.07c-2.51-.24-2-.14,1.44.29-2.95-1.15-6.49-1.59-9.55-2.56-1.58-.6-1-.34,1.85.8-.92-.43-1.82-.89-2.72-1.38-1.34-.73-2.59-1.6-3.91-2.37-4.05-2.36,2.82,2.86-.27-.19-1.46-1.43-2.94-2.79-4.31-4.31l-21.89,37.61,80.85,30.78c11,4.2,25.15-4.64,27.67-15.71,3-13-4-23-15.71-27.68l-97-38.64c-7.76-3.1-16.06,1-21.89,5.78L31.74,549.92l31.82,31.82,92.32-110c7.55-9,9.49-23.11,0-31.82-8.41-7.71-23.66-9.55-31.82,0l-23.59,27.59c-7.64,8.94-9.43,23.16,0,31.82,4.29,3.93,9.92,6.86,15.91,6.59,6.37-.29,10.92-2.72,15.91-6.59L161.8,476.4l-37.6-21.89-7.12,26.58a22.57,22.57,0,0,0,13,26.54c10.12,4.27,22.51.59,28.1-9.21l22.55-39.56c5.83-10.23,2.75-25.07-8.07-30.78s-24.56-2.85-30.79,8.07Z"/><path class="cls-3" d="M508,475.12c-2.19,1-4.38,2-6.6,2.88,5.33-2.2-2,.78-2.95,1.16q-6.69,2.65-13.47,5.08-12.72,4.53-25.72,8.19c-17,4.79-35.12,9.58-52.82,11.09,6.14-.52-1.81.22-2.94.35-2.39.28-4.77.54-7.16.78q-6.27.63-12.56,1.06-13.47.92-27,.93t-27-.89q-7.19-.48-14.35-1.22c-2.39-.25-4.77-.55-7.15-.81-2.59-.34-2.38-.3.62.1l-3.56-.5,13.44,33.05c1.91-2.76,3.85-5.49,5.86-8.18.5-.67,1-1.33,1.51-2,1.9-2.55-2.46,3-.43.58,1.24-1.5,2.44-3,3.69-4.56q6.69-8.06,14-15.57,7.61-7.8,15.85-14.94,3.81-3.3,7.73-6.44c.45-.36,1.42-1.45,2-1.57-2.23.49-2.59,1.95-.57.45,1.57-1.16,3.14-2.33,4.73-3.47a144.23,144.23,0,0,1,16.91-11,18.91,18.91,0,0,0,2.63-1.29c-.13.1-4.24,1.45-2,.89,1.33-.33,2.85-.73,4.15-1.2,2.16-.78-2.35.34-2.56.28a7.47,7.47,0,0,0,2-.05c2.21-.34-2.69-.42-2.77-.44,2.93.66-1.13-.48-1.85-.91.11.06-3.73-3.24-2-1.52s-1.45-1.84-1.41-1.79-1.87-4.53-1.08-2.2-.39-2.66-.38-2.58c.24,2.56-1.4.95.38-1.71a9.36,9.36,0,0,0-.54,2.16,8.77,8.77,0,0,0-.7,2.14c-.21-.89,2.06-4.06.43-1.21-1.46,2.54-3.65,5-4.9,7.57.06-.11,2.81-3.31,1.14-1.56-.52.55-1,1.17-1.5,1.74q-1.79,2-3.71,3.88c-1.47,1.44-3.05,2.72-4.57,4.1-1.79,1.63,1.43-1.15,1.54-1.17-.75.17-1.84,1.31-2.49,1.75-2.82,1.88-6.69,3.05-9.25,5.13.1-.08,4.21-1.52,1.91-.86-.95.27-1.88.67-2.83,1-1.9.59-3.87.91-5.78,1.44-2.34.65,2.21-.27,2.31-.26a18.66,18.66,0,0,0-3,.23,52.38,52.38,0,0,1-6-.12l6,44.2a297.8,297.8,0,0,0,114.5-70.66l-37.61-21.89-21.31,78.11L450,507.41l-16.5-22.51-8.07,30.79c35-16.55,57.27-52.72,60.1-90.73l-41.93,11.36,34.42,52.21,19.43-33.85-44.13-.62,15.91,38.41c.93-1,2-1.82,2.88-2.78,1.9-2-4.32,2.7-.1.14,2.08-1.25,4.11-2.5,6.28-3.59,1.85-.94,5.2-1.64,6.65-3.07-1.51,1.5-3.3,1.39-.12.07l4.93-2.06c10.83-4.57,22-9.88,29.81-19,8.19-9.48,13.74-21.42,12.5-34.24-1.28-13.34-7.61-27.2-20.49-33.08-7.52-3.44-15.23-4.38-22.71,0-6.42,3.75-11.78,11.71-11.15,19.42a107.36,107.36,0,0,0,12.54,43.3c7.34,13.48,17.7,24.09,29.76,33.35,4.29,3.3,12.4,3.63,17.33,2.27,5.22-1.44,10.88-5.47,13.45-10.34,2.76-5.22,4.14-11.55,2.27-17.34-1.93-5.95-5.42-9.66-10.34-13.44,4.82,3.7-1.42-1.46-2.57-2.57-1.87-1.81-3.59-3.74-5.32-5.69-2-2.22.19-.27.59.89-.34-1-1.64-2.27-2.26-3.18-1.46-2.15-2.81-4.38-4.06-6.66-1.08-2-1.8-4.47-3.09-6.31,2.63,3.77.91,2.12.26.29-.44-1.22-.85-2.46-1.23-3.7-.75-2.49-1.38-5-1.89-7.57a17.29,17.29,0,0,0-.54-3.07c.39,3.15.5,3.85.31,2.11-.09-.78-.15-1.56-.21-2.34L488.9,433.75a13.62,13.62,0,0,1,2.08,1.07q-4.43-3.72-1.91-1.37c-2.25-3.16-2.73-3.77-1.46-1.86q1.63,3.07-.79-2.24a19.55,19.55,0,0,1,.67,2.26q.69,3.52-.28-2.43a12,12,0,0,0,0,3.64q.93-5.93.2-2.37a23.91,23.91,0,0,1-.72,2.32q2.36-5.24.73-2.12-2,3,.89-.82c0,.53-3.77,4.37-4.25,4.29,2.58-1.92,2.88-2.16.9-.74-.63.43-1.28.85-1.94,1.25A92.29,92.29,0,0,1,472.61,440c-2.24,1-1.9.82,1-.43l-3,1.24c-3.05,1.27-6.09,2.54-9.12,3.86-8.91,3.87-17.27,9-24.07,16-13.58,14.08-3.73,38.13,15.91,38.41l44.13.62c16.44.23,28.88-19.52,19.43-33.86L482.5,413.6c-5.32-8.06-15.64-13.5-25.41-10.34-10,3.23-15.76,11.4-16.52,21.7-.07,1-.15,2-.25,2.92q-.42,3.72.24-1.64c-.59.45-.77,4.17-1,5a83.14,83.14,0,0,1-3.09,10.5c-.25.69-.51,1.37-.78,2.05q-.94,2.37.85-2c.13.08-2.34,4.86-2.55,5.26a89.43,89.43,0,0,1-5.3,8.76c-.55.81-1.12,1.6-1.7,2.39,1.91-2.41,2.34-3,1.29-1.66s-2.17,2.63-3.32,3.9a86.55,86.55,0,0,1-7.28,7.18c-.73.64-1.48,1.27-2.23,1.88q-2.82,2.25,1.08-.84c.08.32-3.06,2.14-3.6,2.5a86.2,86.2,0,0,1-10.22,5.66c-10.22,4.83-14.81,21.59-8.07,30.78l16.51,22.52c5.49,7.49,12.73,12,22.41,10.74a22.52,22.52,0,0,0,18.71-16.12l21.32-78.1C479.54,425,452,408.89,436,424.75c-7.15,7.12-14.69,13.74-22.5,20.12-2.06,1.68-.68.61.59-.42-1.09.88-2.23,1.7-3.35,2.53q-3,2.25-6.12,4.42-6.19,4.32-12.61,8.31a269.68,269.68,0,0,1-25.74,14.1c-2.27,1.08-4.55,2.14-6.85,3.16-.62.28-5.06,2.17-1.93.87,2.85-1.19-.65.25-1.19.47-4.92,2-9.91,3.82-14.94,5.53-10.69,3.63-17.66,13.23-16.12,24.69s10.79,18.73,22.1,19.5c20.84,1.44,40.37-7.62,56-20.77,16-13.46,30.47-35.4,25.48-57.16-2.88-12.61-13.71-23.52-26.53-25.9-12.3-2.28-24,.85-34.89,6.57-16.52,8.65-31.84,21.57-45.51,34.12A288.86,288.86,0,0,0,280,513.66c-7.56,10.94-.48,31.05,13.45,33.05a436.84,436.84,0,0,0,123.2.45c39.6-5.49,77.61-17,114.1-33.19,10.79-4.79,14.15-21.35,8.07-30.78C531.62,472,519.58,470,508,475.12Z"/><path class="cls-3" d="M509.77,468.89c10.26,25.62,25.44,48.74,46.51,66.82l27.26-35.34-28.13-18.16-17.34,41.13c2.62.63,5.22,1.33,7.79,2.14,1.29.4,6.35,3.08,7.6,2.71-.76.23-4-1.8-.91-.37,1.22.56,2.44,1.13,3.65,1.72q3.62,1.8,7.1,3.85,3.13,1.85,6.14,3.89c1.11.76,2.18,1.58,3.29,2.33,2.27,1.55-3.26-2.79-.08-.05a141.09,141.09,0,0,1,11.7,11.11l21.89-37.61L594,509.29c-10.74-3.3-22.34,3.06-26.55,13-4.57,10.83-.09,21.58,9.21,28.1l23.78,16.65c7.3,5.12,18.41,3.33,25-1.75,7.71-6,9.46-14.39,8.06-23.65a26.63,26.63,0,0,0-6.4-14c-2.11-2.46-4.5-4.73-6.74-7.08l-14.15-14.89-27.63-29.05c-8.12-8.55-23.74-8.8-31.82,0-8.41,9.17-8.67,22.7,0,31.82l48.52,51-5.79-9.92.62,4.07,33-25.41-23.78-16.66L582,552.69l12.27,3.77c9.14,2.8,20.88-1.78,25.41-10.34a23.37,23.37,0,0,0-3.52-27.27A133.61,133.61,0,0,0,550,479.94a22.65,22.65,0,0,0-26.55,13c-4.44,10.54-.3,22,9.21,28.1l28.13,18.16c9.44,6.09,22.48,2.67,29-5.8,6.4-8.27,6.78-22.22-1.75-29.54a151.58,151.58,0,0,1-11.9-11.33c-1.87-2-3.68-4.06-5.43-6.16-.63-.75-4.43-4.9-.58-.59a39.74,39.74,0,0,1-2.44-3.31A142.91,142.91,0,0,1,559,468.62q-2-3.58-3.79-7.29c-.6-1.23-1.15-2.49-1.74-3.72-2-4.22,1.61,4-.28-.69-2.26-5.64-4.89-10.26-10.34-13.44-4.82-2.83-11.93-4-17.34-2.27-10.53,3.41-20.4,16-15.71,27.68Z"/><path class="cls-3" d="M625.9,554.94l15.21,1.12c7.84.58,15.35-7.31,15-15-.38-8.62-6.6-14.37-15-15l-15.21-1.12c-7.85-.58-15.35,7.31-15,15,.38,8.62,6.6,14.38,15,15Z"/><path class="cls-3" d="M412.8,809.78l-4.07,40.73c-.74,7.4,6.28,13.83,13,14.73,8,1.07,13.55-3.73,16.45-10.75,2.41-5.81,2.85-11.93,4-18.06.23-1.31.48-2.62.83-3.9,0,0,1.29-3.62.6-2s.9-1.51,1.08-1.82c-1.79,3.1.59-1.64,1-1s-3.84,1.76-1.6,1.12c1.72-.5-1.34-.11-1.79-.08l1.34.4c-1.19-.49-1.32-.48-.38,0s.82.5-.16-.18l1,1c-1.35-2.47,1.18,2.08,1.18,2.08-.77-1.5.54,1.39.69,1.86,1,3,1.61,6,2.27,9,1.71,7.92,10.95,12.53,18.45,10.47,8.18-2.25,12.19-10.5,10.47-18.45-2.14-9.94-5.32-20-12.88-27.23s-18.53-10.68-28.82-7.73c-10,2.86-16.51,11.44-20.1,20.66-3.25,8.34-2.68,17.53-6.11,25.82l29.46,4,4.07-40.73c.78-7.83-7.46-15.33-15-15-8.8.4-14.16,6.61-15,15Z"/><path class="cls-3" d="M215.56,840.57l18.43-25c4.81-6.52,1.09-16.73-5.38-20.52-7.62-4.45-15.7-1.16-20.52,5.38l-18.43,25C184.85,832,188.57,842.17,195,846c7.62,4.46,15.71,1.16,20.52-5.38Z"/><path class="cls-3" d="M211.32,815.15c5.59,4.9,11.27,6.46,18.47,7.25,2.5.27.7.44-.45-.14a20.29,20.29,0,0,0,2.94.71c-2.84.3-5.5-3.89-6.1-6.27-.78-3,0-7.61,2.46-9.62-6.12,5-5.54,16.12,0,21.22,6.5,6,14.69,5.29,21.22,0,9.45-7.67,6.95-23.28-1.92-30.14a24.6,24.6,0,0,0-11.63-5,57,57,0,0,0-7-.85c3.64,0,1.6,0,.48-.12-.78-.25-.65-.17.41.21a5.25,5.25,0,0,1,2.36,1.5c-5.9-5.17-15.49-6.23-21.22,0-5.2,5.67-6.29,15.69,0,21.22Z"/><path class="cls-3" d="M222.58,818.38l-1,21.75c-.36,7.85,7.16,15.35,15,15a15.33,15.33,0,0,0,15-15l1-21.75c.36-7.84-7.16-15.35-15-15a15.33,15.33,0,0,0-15,15Z"/><path class="cls-3" d="M544.94,326.77a103.13,103.13,0,0,0,16.66-52.94c.31-7.85-7.12-15.35-15-15a15.32,15.32,0,0,0-15,15q-.78,19.91-12.56,37.8c-4.47,6.77-1.34,16.59,5.38,20.53,7.33,4.28,16.05,1.39,20.52-5.39Z"/><path class="cls-3" d="M516.52,185l7.9,16.16c3.45,7.06,14.06,9.54,20.52,5.38,7.24-4.67,9.08-13,5.38-20.53l-7.9-16.16c-3.46-7.06-14.06-9.54-20.52-5.38-7.25,4.67-9.08,13-5.38,20.53Z"/><path class="cls-3" d="M540,220.35c7.85,0,15.37-6.9,15-15s-6.59-15-15-15c-7.84,0-15.36,6.9-15,15s6.59,15,15,15Z"/><path class="cls-3" d="M538.93,217.09c7.84,0,15.36-6.9,15-15s-6.59-15-15-15c-7.85,0-15.37,6.9-15,15s6.59,15,15,15Z"/><path class="cls-3" d="M537.84,222.53c7.85,0,15.36-6.9,15-15s-6.59-15-15-15c-7.85,0-15.36,6.9-15,15s6.59,15,15,15Z"/><path class="cls-1" d="M483.49,319.47l10.86.19c7.85.13,15.36-7,15-15-.37-8.24-6.59-14.86-15-15l-10.86-.19c-7.85-.13-15.36,7-15,15,.37,8.24,6.59,14.86,15,15Z"/><path class="cls-1" d="M503.26,226.91l3.53,3.13a15,15,0,0,0,6.62,3.86,15,15,0,0,0,18.45-10.48l1.24-4.18a11.37,11.37,0,0,0,.26-6,11.11,11.11,0,0,0-1.78-5.58,16.71,16.71,0,0,0-9-6.89c-3.84-.88-8.15-.69-11.56,1.51a15.92,15.92,0,0,0-6.89,9l-1.24,4.19L528,208.83l-3.53-3.14a15.42,15.42,0,0,0-21.21,0c-2.63,2.86-4.58,6.61-4.4,10.61.17,3.84,1.42,8,4.4,10.61Z"/><path class="cls-4" d="M120.48,559.64c20.53,19.27,48.57,26.55,75.22,33A615.4,615.4,0,0,0,282.9,607a605.35,605.35,0,0,0,175.78-9.47c26-5.23,60.63-11.46,72.73-38.71,3.28-7.39,2.15-16.11-5.39-20.52-6.38-3.74-17.22-2.06-20.52,5.38a37.11,37.11,0,0,1-1.8,3.63c-.21.36-2.72,3.83-.68,1.31a39.53,39.53,0,0,1-4.65,4.68c2.08-1.84-.08.06-.7.48-.94.64-1.89,1.25-2.87,1.82-1.18.7-2.39,1.36-3.63,2-.16.09-4.25,2-1.51.8-10.58,4.51-22.23,6.73-33.44,9.1a547.8,547.8,0,0,1-79.6,10.9,576.21,576.21,0,0,1-161.06-12c-14.29-3.14-28.61-6.63-42.53-11.17-11.57-3.77-22.79-8.84-31.33-16.85-5.91-5.55-15.36-5.86-21.22,0-5.6,5.6-5.92,15.65,0,21.21Z"/><path class="cls-4" d="M132.92,585.06A325.39,325.39,0,0,0,213,673.74l15.14-25.91a106.05,106.05,0,0,1-15.19-8,65.64,65.64,0,0,1-11.78-9.07c-1.92-1.76-3.76-3.6-5.54-5.5-1.06-1.14-2.1-2.31-3.12-3.49-.27-.32-2.93-3.59-1.56-1.83a98.91,98.91,0,0,1-9.16-14.5L161.25,626a282,282,0,0,1,61.07,59.12l20.53-20.52-19.48-12.12-15.14,25.9A290.85,290.85,0,0,0,355.66,713c7.83-.27,15.37-6.7,15-15s-6.59-14.86-15-15l-49-.79c-7.48-.12-13.77,5.81-14.73,13-.9,6.69,3.36,15.29,10.74,16.46,41.31,6.54,84.81,13.24,125.46-.56,35.65-12.1,61.05-38.69,78.48-71.34,9.3-17.41,16.55-35.86,23.65-54.24,2.83-7.34-3.12-16.78-10.48-18.45-8.59-2-15.42,2.62-18.45,10.47-2.76,7.15-5.56,14.28-8.49,21.36-1.16,2.82-.55,1.3-.28.68l-1.22,2.84q-1.08,2.47-2.19,4.93c-1.69,3.75-3.44,7.46-5.28,11.13C477,632.24,469,645.35,460.18,655.16c-10.2,11.36-21,19.59-34.38,25-16.82,6.76-32.31,8.94-49.81,9.13-22.16.24-43.66-3.07-65.37-6.5l-4,29.46,49,.79V683a259.45,259.45,0,0,1-132.29-30.54c-7.13-3.84-16.33-1.79-20.52,5.38a15.23,15.23,0,0,0,5.38,20.52l19.48,12.12c5.62,3.5,13.56,2.26,18.17-2.35,4.34-4.33,6.27-12.92,2.35-18.17a314.3,314.3,0,0,0-71.84-69.88c-5.39-3.78-13.75-2.08-18.18,2.34a15.43,15.43,0,0,0-2.34,18.18A118.57,118.57,0,0,0,213,673.74c7.43,3.19,16.08,2.21,20.52-5.38s1.06-15.57-5.38-20.53A303.27,303.27,0,0,1,189.93,612a274.69,274.69,0,0,1-31.11-42.1,15.28,15.28,0,0,0-20.52-5.38c-6.91,4-9.61,13.58-5.38,20.52Z"/><path class="cls-4" d="M495.66,571.29a214.57,214.57,0,0,1-10.86,19.86q-3.18,5.15-6.64,10.08-1.53,2.16-3.09,4.29c-.31.42-3.2,4.16-1.78,2.36a220.25,220.25,0,0,1-31.53,32.43,160.91,160.91,0,0,1-16.31,12.13A223.08,223.08,0,0,1,406,664a186.77,186.77,0,0,1-18.39,8.49,213.69,213.69,0,0,1-21.52,7A15.25,15.25,0,0,0,355.59,698c2.26,8.2,10.51,12.17,18.45,10.47,52.8-11.27,97-56.48,106.72-109.66,2.65-14.54-13.53-25.19-25.07-14.59-20.33,18.67-40.21,38.07-61.36,55.82a148.28,148.28,0,0,1-27.55,18.84,57.09,57.09,0,0,1-13.85,5.52,79.16,79.16,0,0,1-8.37,1.89c2.54-.43-2.2.21-2.25.21-1.59.12-3.18.17-4.77.19l7.57,28c36.33-17.86,67.16-45.48,89.72-79,8.51-12.64-8.1-28.07-20.52-20.52L303.69,662.32a15,15,0,0,0-6.14,18.73c3.25,7.39,10.06,9.79,17.7,8.68,20-2.89,41.2-10.07,57.54-22.17,9.62-7.12,17.75-16.45,18.82-28.87,1-11.16-4.87-21.08-13.88-27.28-6.82-4.69-15.22-6.83-23.3-8.06-11.49-1.75-23-3.32-34.52-5l-68.05-9.84-76.94-11.11c-7.4-1.07-14.68,1.18-17.69,8.68-2.9,7.19-.21,14.44,6.14,18.73A622.41,622.41,0,0,0,284,668V639.07a64.24,64.24,0,0,1-28.91-.55,76.52,76.52,0,0,1-7.42-2.27s-4.3-1.77-2.17-.82c-1.42-.63-2.81-1.32-4.19-2a66.71,66.71,0,0,1-12.25-8.19l-21.21,21.21A165.43,165.43,0,0,0,261,677.55c17.92,6.41,38.43,10.25,57.5,8.87,9.83-.71,20-3.56,27.33-10.49,8.24-7.8,10.66-20.85,4.81-30.81-6.25-10.61-18.35-15.55-30.31-15.12-4.88.17-9.68,1.17-14.55,1.45q-3,.16-5.93.09c-1,0-2-.08-3-.14-.58,0-4.79-.52-1.9-.11a72.76,72.76,0,0,1-13.64-3.39c-.94-.33-1.87-.67-2.79-1-1.41-.56,1.11.6-1.18-.55s-4.42-2.21-6.55-3.48-4.19-2.63-6.19-4.08c.53.38,1.8,1.54-.47-.39-1.13-1-2.25-1.93-3.33-2.94a56.93,56.93,0,0,1-8.21-9.34l-20.52,20.52c29.24,14.4,61.65,27,94.83,25.49,17.08-.76,32.68-5.49,47.87-13.18,2.94-1.49,5.84-3,8.77-4.55,1.94-1,3.89-2,5.86-2.93-.11,0,4.2-1.94,2.31-1.13,7.62-3.28,11.69-4.22,19-3.67,7.84.58,15.34-7.32,15-15-.39-8.63-6.6-14.38-15-15-15.71-1.17-30.18,5.54-43.77,12.59-6.09,3.15-12.5,6.58-17.31,8.3A86.71,86.71,0,0,1,339,620.58a48.44,48.44,0,0,1-8.62,1.31c-15.34,1.19-27.49-.77-42.21-4.95s-27.35-9.58-40.87-16.23c-6-3-13.23-2.6-18.18,2.34-4.47,4.47-6.07,12.74-2.34,18.18a91.68,91.68,0,0,0,87.36,39.34,66.16,66.16,0,0,1,9.81-.48c2.78.17,1,0,.33,0-.08,0,3.18,1.07.36,0,.44.16,1.24,1.81.55.55a6.49,6.49,0,0,1-1.24-3,7.07,7.07,0,0,1,1-3.36c-.16.34-1.17,1.83,0,.27s-1.39.11.33-.35c1.46-.38.15-.07-.39.18-.74.34-1.43.79-2.17,1.14.73-.34,2.56-.7,0-.15-1.69.36-3.33.86-5,1.17,3.57-.65-1.93-.05-2.65,0q-2.88,0-5.76-.06c-3.77-.11-9.38-.53-11.93-.84a144.43,144.43,0,0,1-22.88-5.2,133.56,133.56,0,0,1-45.4-25.25c-6.11-5.31-15.2-6-21.21,0-5.44,5.43-6.13,15.86,0,21.21A95.83,95.83,0,0,0,292,668c6.15-1.36,11.3-8.17,11-14.46-.32-7.12-4.58-11.93-11-14.47a593.8,593.8,0,0,1-113.47-60.14L167,606.35l120.33,17.38c20.14,2.91,40.35,5.55,60.45,8.74a69.48,69.48,0,0,1,9.13,2c.85.26,1.68.55,2.52.85-.64-.23-2.34-1.34,0,0,.54.32,1.1.62,1.65.93,2.06,1.15.83,1.44.4.21.25.7.76,2.17,0-.33.07.23,1,2.07.37.34-.88-2.31.45,2,.05,0s-.42,2.25,0,.21c.35-1.74-.26.61-.34.71,1.44-2-.06-.09-.32.28s-1.65,2.19-.3.57a29.6,29.6,0,0,1-2.11,2.23c-.73.72-1.51,1.42-2.3,2.08,1.5-1.24-1,.68-1.3.88-2.09,1.4-4.28,2.67-6.48,3.89s-4.15,2.22-6.27,3.25c-1.89.91-4.29,2-5.31,2.39a132.33,132.33,0,0,1-29.81,7.84l11.56,27.41L429.45,621l-20.52-20.52c-19.45,28.9-46.66,52.37-79,68.24-13.58,6.68-6.77,28.2,7.57,27.95,28.45-.49,52.69-14.9,74.21-32.31,22.71-18.38,43.64-39.19,65.15-59l-25.07-14.59a119,119,0,0,1-4.48,17.34c-.47,1.36-1,2.71-1.47,4-.26.67-.52,1.34-.79,2,.5-1.16.54-1.25.12-.28-1.16,2.62-2.4,5.2-3.74,7.74A126.16,126.16,0,0,1,432,636.88c-.32.44-2.81,3.66-1.13,1.55q-1.33,1.68-2.73,3.33-2.79,3.29-5.8,6.38a127.13,127.13,0,0,1-12.79,11.54c2.16-1.69-1.48,1.06-1.55,1.11q-1.75,1.26-3.54,2.46-3.59,2.38-7.31,4.53t-7.61,4c-1.29.63-2.59,1.22-3.9,1.8,2.58-1.14-1.18.47-1.72.68a119.24,119.24,0,0,1-17.87,5.25l8,28.93c63.54-17.21,118.93-62.63,147.53-122,3.51-7.3,2-16.21-5.39-20.53-6.56-3.84-17-1.94-20.52,5.39Z"/><path class="cls-4" d="M475.33,579.59,387.14,603a15,15,0,0,0,8,28.93l88.19-23.38a15,15,0,0,0-8-28.93Z"/><path class="cls-4" d="M200.31,684.56l-7,44.4-3.52,22.2c-1.26,7.93-3.12,15.93-1.63,24,3.1,16.62,18.43,21.52,33,23.63a206.37,206.37,0,0,0,46,1.7c7.81-.62,15.39-6.46,15-15-.34-7.59-6.62-15.67-15-15a190,190,0,0,1-37.25-.56,96.68,96.68,0,0,1-13.68-2.57c2.2.62-.16-.48.28.33.76.72.59.55-.5-.51l1.69,2.91-.39-1.43c.16,1.26.22,1.33.17.23,0-1.3.09-2.57.24-3.87-.22,1.95.09-.32.21-1,.26-1.61.51-3.22.76-4.83l1.53-9.65,2.91-18.34,6.12-38.61c1.23-7.72-2-16.51-10.47-18.45-7.2-1.64-17.14,2.19-18.46,10.48Z"/><path class="cls-4" d="M289.16,788.33a167.72,167.72,0,0,1,16.53-55.62c2.75-5.42,2.74-11.75-1.17-16.66s-9.54-6.38-15.77-5.38c2-.32-.61.08-.87.1-1.08.08-2.17.16-3.26.18a59.17,59.17,0,0,1-6.52-.2c-3.27-.29-1.52-.23-.87-.12-1.34-.23-2.67-.52-4-.85a48.62,48.62,0,0,1-7-2.24c1.67.71-.77-.42-.89-.48-1-.52-1.93-1-2.88-1.55-1.88-1.08-3.66-2.3-5.44-3.54-4.66-3.28-9.1-6.28-14.48-8.34C220,685,199.5,704.42,195.61,725.71c-3.67,20.14-4.6,50.77,19.91,57.84,11.46,3.31,23-2.79,29.32-12.3s6.35-20.65,4.21-31.62c-.51-2.59-1.16-5.16-1.72-7.74.16.72-.88-4.89-.67-3.21.12,1,0-2.11-.07-2.25.91,2-10.93,8.53-12,8.35a5.75,5.75,0,0,1-3.58-2.36c-.55-.78-.41-.47.42.92-.12-.52-.82-2.53.1.56.46,1.54,1,3.06,1.58,4.58l12.28,35.72c5.5,16,28.57,13.24,29.46-4l2.36-45.27c.41-7.85-7.19-15.35-15-15a15.34,15.34,0,0,0-15,15l-2.36,45.27,29.47-4-10.08-29.32C261,727.28,258.62,716,250,709.6c-11.32-8.39-28-4.09-32.29,9.84-3,9.62.86,19.55,2.57,29,.67,3.74.2,1.77.16,1.21.09,1.17.09,2.32.07,3.49.06-3.55-1.22,3,.09.09a12.92,12.92,0,0,1-1,1.75l-.34.57c.93-1.12,1-1.29.32-.52l-.44.45c1.27-.88,1.46-1,.55-.49-1.38.62,2-.59,2.36-.59a10.74,10.74,0,0,1,2.51.7c1,.22,1,2.24-.14-.15.16.34,1.35,1.5.28.28-1.38-1.58.49,2-.21-.31-.08-.27-.81-3.53-.58-2.06.2,1.27-.07-1.4-.07-1.32-.08-2.51,0-5,0-7.54.07-2.26.14-4.52.29-6.78.08-1.13.15-2.26.29-3.38.22-1.8.09-.55,0-.19a35.47,35.47,0,0,1,1.64-6.49c-.56,1.46,2.34-4,1.51-2.86-.45.61,2-2.05,2.71-2.62-2.09,1.6.14,0,.43,0-2.21.21-.54.29.22-.07s2.83-.36.08-.08c.44,0,2.61.28.51,0,.15,0,2.11.93,1.14.31s2.12,1.22,2.43,1.41c4.16,2.54,7.9,5.71,12.13,8.15a73.93,73.93,0,0,0,15.56,6.64c11.12,3.32,22.48,3.37,33.83,1.54l-16.94-22a199.72,199.72,0,0,0-20.63,70.76c-.81,7.83,7.47,15.33,15,15,8.81-.4,14.13-6.62,15-15Z"/><path class="cls-4" d="M362.56,726.26c1.88,15.83,4.81,31.8,10.66,46.7,2.88,7.34,6.41,14.38,12.67,19.44,7.18,5.8,15.66,8.13,24.8,8.43,7.47.25,15-.68,22.48-1.18,8-.54,16.11-.76,24.07-1.69,10.15-1.18,19.06-5.7,22.43-16.06,2.45-7.54.38-15.93-.53-23.56l-6.88-57.49c-.73-6.07-3.17-11.28-9.22-13.71-5.27-2.12-12.41-1.47-16.39,3.1-9.56,11-18.54,17.75-32.15,23.72,1.68-.74-1.77.68-2.26.86q-2.6,1-5.23,1.77a98.49,98.49,0,0,1-10.71,2.65c-.77.15-1.55.28-2.32.41-.09,0-2.66.42-1,.17,2.52-.38-4,.54-3.44.46-.91.13-1.82.25-2.72.4a37.85,37.85,0,0,0-11.43,3.68c-18.48,9.68-15.56,33.1-4.8,47.63,6.36,8.6,16.05,13.35,26.81,11.22,10.53-2.1,17-12.3,17.16-22.54A41.64,41.64,0,0,0,412.66,749c-.18-.61-1.35-4.75-1-2.93s0-.16,0-.48c-.31-1.9.32-.71-.26.41.48-.93,1.21-2.7-.8.85a8.05,8.05,0,0,1-9.36,4.08c-2.6-.68-2-1.44-3.75-2.48-.53-.31.23.87.25,1.37,0-.73-.12-2.09,0,1,0,2.14.11,4.29.16,6.43.22,8.68-.41,17.93,1.24,26.49C401.4,795.62,413.54,803,425,798.54c11.65-4.52,14.33-16.19,12.73-27.4-1.2-8.36-2.65-16.69-4-25-.15-.94-.29-1.88-.45-2.82,0-.15-.46-3.25-.2-1.16.21,1.69-.17-2.69-.17-3.25,0-1.42.63-3.64,0-1.13.14-.53.91-1.88.05-.49a6.59,6.59,0,0,1-2.36,2.73c-1.2.72-3.49.34-4.54.83s-.47-.33.59.22a23.15,23.15,0,0,1-2.71-1.95c1.93,1.33.68,1.82.36.8-.13-.41.23-1.78.06,0-.07.7-.22,5.1,0,3.29-1.47,10.2-5.64,20.1-1.95,30.41s12.81,19.13,24.4,19.14c11.07,0,20.27-8.24,23.07-18.68s-1.36-20.69-6.8-29.63A15.28,15.28,0,0,0,442.52,739c-6.91,4-9.61,13.58-5.38,20.53,1,1.66,2.07,3.32,2.93,5.07.44.93.5,1,.17.21.37,1.84.55,2.11.55.83l0,1.25c.36-1.88.34-2-.08-.24.74-1.35,1.14-2.33,2.66-3.1,1.69-.85,4.95-1.11,6.61,0,1.47,1,1.4,2.42.67.41.49,1.44.48,1.31,0-.37.17,1.16.22,1.16.17,0A20.49,20.49,0,0,1,451,761c0,.81,0,.7.17-.34,1.52-7.73,3.78-15.2,2.89-23.16-1.09-9.72-5.81-18.55-14.65-23.32A24.34,24.34,0,0,0,412.84,716c-6.84,5.29-9.58,13.19-9.95,21.61-.33,7.66,1.72,15.57,2.93,23.1l1.8,11.26c.29,1.86.75,3.76.9,5.63-.18-1.36-.21-1.12-.1.73a12.42,12.42,0,0,1,5.52-7.74h8c.22,0,7.14,7,6.45,7.23l.06.69c0-.74-.07-1.49-.08-2.24-.06-1.89-.1-3.79-.14-5.68l-.35-14.22c-.24-9.85-.74-19.77-7.82-27.4-7.55-8.11-20.37-10-29.36-3.23-7.82,5.87-9.71,15.15-8.47,24.36a90.29,90.29,0,0,0,2.26,9.7c0,.14.5,2.49.18.83s-.06.52-.11.78c.8-3.62,4.31-8.53,8.8-7.4,1.38.35,2.25,2.23,1.79,1-.61-1.62-1.81-3.16-2.5-4.77.71,1.66-.63-1.94-.79-2.46-.82-2.65,0-.49-.73,1.1a8.29,8.29,0,0,1-1.23,1.57c-1.19,1.54.34-.57.64-.16s-2.24.59.18.17c.68-.12,1.35-.32,2-.46.92-.19,5.11-.82,2.12-.41,2.89-.4,5.79-.74,8.67-1.25a100.52,100.52,0,0,0,20.37-6c16.81-6.91,32-17.09,44-30.86l-25.6-10.6,6.41,53.53,1.42,11.89c.24,2,.55,4.06.68,6.1a17.1,17.1,0,0,1,.07,2.15,7.14,7.14,0,0,1,3.89-6.06l1.18-.5q-2.6.56,0,.15c-1.72.24-3.5.25-5.23.37l-13.6.91c-8,.53-16,1.39-23.94,1.47a39.08,39.08,0,0,1-4.84-.16c3.35.39-4.61-.67-1.52-.25l-1.37-.74q1.33,1.35-.56-.45c-2.05-1.76-.05.76-1.26-1.69-.35-.71-2.13-4.29-1.88-3.68.39.84.27.49-.35-1-.37-1.05-.73-2.1-1.08-3.16q-1.72-5.2-3.14-10.5a181.72,181.72,0,0,1-4.56-22.92c-.93-7.76-6.24-15.39-15-15-7.33.33-16,6.66-15,15Z"/><path class="cls-4" d="M391.1,803c7.85,0,15.36-6.9,15-15s-6.59-15-15-15c-7.85,0-15.36,6.9-15,15s6.59,15,15,15Z"/><path class="cls-4" d="M467.19,797.53c7.84,0,15.36-6.9,15-15s-6.59-15-15-15c-7.85,0-15.37,6.9-15,15s6.59,15,15,15Z"/><path class="cls-5" d="M125.94,557.1l34.87,64.36,25.9-15.14c-1.16-1.74-2.27-3.5-3.26-5.35-.49-.92-1-1.86-1.4-2.8.66,1.41-.11-.2-.31-.76-.71-2-1.35-3.95-1.87-6-.26-1-.49-2-.7-3.06-.07-.35-.62-4.12-.47-2.65a77.27,77.27,0,0,1,.09-11.32c.25-2.57-.38,1.88.11-.66.2-1,.4-2,.64-3.07a63.2,63.2,0,0,1,2-6.75l-25.07,6.62c30.91,30.91,60.94,63.32,94.37,91.55,33.09,27.93,70.29,49.78,112.68,60a251.09,251.09,0,0,0,73.14,6.62c7.82-.46,15.38-6.57,15-15-.35-7.73-6.61-15.49-15-15-39.5,2.32-78.7-5.37-113.58-23.25C287.3,657.08,259,630.34,230.38,602c-17.61-17.49-35.1-35.09-52.65-52.65-8.45-8.44-21.35-3.76-25.07,6.62a74.7,74.7,0,0,0,8.15,65.52c4.5,6.73,13.23,9.65,20.52,5.39s9.26-13.38,5.38-20.53L151.84,542c-3.85-7.12-13.69-9.38-20.52-5.38-7.19,4.21-9.25,13.37-5.38,20.52Z"/><path class="cls-5" d="M317.25,690.15a53.21,53.21,0,0,1-25.4-4.44A109.68,109.68,0,0,1,280,679.24a83,83,0,0,1-10.27-7.53,174.94,174.94,0,0,1-21.64-22.16c-1.36-1.64-2.69-3.31-4-5-2.07-2.61-1.54-1.94-3.61-4.65-3.29-4.31-6.53-8.65-9.8-13-13.29-17.51-26.91-34.41-44.69-47.59-8.43-6.25-18.2-11.47-29-10.75-14.83,1-25.88,14.7-21.92,29.55C138.72,612,152.19,621,162.31,630l32.81,29.21,18.18-23.55-23.94-10.24c-6.88-3-14.51-2.62-19.35,3.86-4.09,5.47-4.7,14.91,1.17,19.69l75.73,61.63c6.28,5.11,15.08,6.14,21.22,0,5.27-5.28,6.31-16.07,0-21.21L192.4,627.79l-18.18,23.56,23.94,10.24c6.88,2.94,14.51,2.61,19.35-3.86,4.23-5.67,4.5-14.65-1.17-19.7L190.23,614.8c-8.3-7.39-17.56-14.38-25-22.61-2.32-2.55-1-1.25-.63-.79-2.36-3.32-.24-.88-.44-.51-.6,1.08-.16,3.36-1,4.63a6.58,6.58,0,0,1-3.1,2.54c-.45.18-3.86.86-2,.46.5-.11,3,.18,1-.08s.63.24,1.12.37,1.24.37,1.85.59c-1.36-.61-1.56-.69-.6-.23,8.12,4.18,12.8,8.56,19.57,15.21,13.88,13.62,23,27,34.48,42,12.2,15.92,24.92,30.71,40.95,42.91,17.37,13.21,38.62,22,60.74,20.89,7.82-.4,15.37-6.62,15-15-.35-7.79-6.61-15.43-15-15Z"/><path class="cls-5" d="M203.27,688l.38,33.16,29.46-4-10.92-39.8a15.26,15.26,0,0,0-18.45-10.48c-8.07,2.22-12.35,10.55-10.48,18.46a152.86,152.86,0,0,1-2.32,78.55c-1.94,6.6,1.36,13.35,6.89,16.94,12.29,8,25.33,16,40,18.22,15.23,2.32,31-.68,42.56-11.33,5.43-5,9-11.65,12.4-18.08,3.79-7.14,7.63-14.26,11.34-21.44,3.56-6.88,6.64-14.1,5.9-22a25.91,25.91,0,0,0-14.12-21c-13.09-6.66-29-3.88-43-3.12-7.24.4-14.72.7-21.56,3.25a38.31,38.31,0,0,0-18.31,14.36c-7,10.08-9.2,24.25-4.84,35.82,6.23,16.56,24.89,28.29,42,19.46,8.87-4.58,13-13.14,14-22.72.34-3.47-.19-6.9-.25-10.37,0-.86.71-4.36-.11-1.17.84-3.27,1.11-2-.64,0-2.18,2.46-6.6,2.94-9.34,1.32a4.66,4.66,0,0,1-1.89-1.63c-.56-1.58-.6-1.53-.12.13-.88-.39.51-4-.56.12-.59,2.26-1.38,4.44-2.09,6.66-3,9.52-3.53,19.32,1.54,28.26,4,7.05,13.6,9.43,20.52,5.38a15.22,15.22,0,0,0,5.38-20.52c.33.58.27,3.94.11.29,0-.44.43-2.77,0-.73a74.85,74.85,0,0,1,2.44-8c2.19-7,3.14-14.23,1-21.32-4.59-15.09-22.69-23.11-35.84-13.09a26.44,26.44,0,0,0-9.46,15.2c-1.44,6.17-.37,11.89-.61,18.07.05-1.35,1.05-1.34-.08.26.58-.82.74-1.57,1.6-2.21,1-.8,1.7-.7,3-.88-2.83.4-.64.3,0,.23-2.09.24-1.27-.89.13.44a20.11,20.11,0,0,1-2.12-2.11c1.55,2-.55-1.3-.64-1.48,1.17,2.23.32.41-.09-1-.78-2.62,0-.25,0,.4,0-1.22,0-2.42,0-3.64,0,.61-.73,3.07,0,.37a16.9,16.9,0,0,0,.83-3c.06-1.71-1.58,2.39.17-.34.43-.66.84-1.41,1.24-2.1,1.88-3.25-1.95,1.91.7-.72,2.12-2.1-2.15.85.72-.68-.13.07,3.32-1.59,1.72-1-1.94.73,3.44-.79,3-.7,3.41-.72,1.91-.28,1.27-.21,1.75-.21,3.55-.25,5.31-.35q9.66-.56,19.33-1.05c2.33-.12,4.66-.25,7-.17.87,0,1.73.09,2.6.15-3.53-.23.35.11,1,.29a20.37,20.37,0,0,1,2.33.74c-3.82-1.58,1.42,2-1.75-.83-.57-.51-1.31-2.6-.35-.27q-1.12-5.71-1-1.61l-.07-.71c-.83,3.73-4.75,9.69-7.13,14.21-2.84,5.36-5.6,10.79-8.54,16.1-.8,1.45-1.65,2.86-2.52,4.27-1.61,2.63.55,0-1.69,2.14.2-.19-3.38,2.77-1.86,1.7.68-.48-2.88,1.54-3.54,1.81.91-.37,1.73-.43-.58,0-1.47.28-2.89.78-4.37,1,3-.41-1.87,0-2,0a38.39,38.39,0,0,1-4.55-.2c2.4.25-.06,0-.49-.12-1.87-.46-3.73-.88-5.57-1.47a33.85,33.85,0,0,1-6.65-2.7A182.48,182.48,0,0,1,213,754.9l6.9,16.94a184.42,184.42,0,0,0,2.32-94.5l-28.93,8,10.92,39.8c4.45,16.19,29.66,13.11,29.47-4L233.27,688c-.08-7.85-6.83-15.37-15-15s-15.09,6.59-15,15Z"/><path class="cls-5" d="M277,799.7c7.85,0,15.36-6.9,15-15s-6.59-15-15-15c-7.85,0-15.36,6.9-15,15s6.59,15,15,15Z"/><path class="cls-5" d="M278.06,805.14c7.84,0,15.36-6.9,15-15s-6.59-15-15-15c-7.85,0-15.37,6.89-15,15s6.59,15,15,15Z"/><path class="cls-5" d="M364.63,734.72l19,56.74c2.06,6.12,7.66,11.24,14.47,11l77.62-2.63c11.37-.39,18.68-12.45,12.95-22.57a100.4,100.4,0,0,1-11.84-34.17c-.15-1.05-.18-1.13-.08-.25l-.19-1.71c-.19-1.7-.34-3.41-.45-5.12q-.3-4.69-.21-9.41a80.54,80.54,0,0,1,1.94-17.25c1.38-6.57-.91-13.44-6.89-16.94-6.2-3.63-12.88-1.84-18.18,2.34a95.3,95.3,0,0,1-25.71,13.66,101.84,101.84,0,0,1-16.32,3.94c1.88-.29-2,.23-2.2.26-1.73.21-3.48.4-5.2.71a29.19,29.19,0,0,0-8.84,3.06c-14.92,8.2-14.28,29.48.69,37.33,6.55,3.44,13.44,3.18,20.53,2.33l19.71-2.38-12.95-7.43c-4.13-8.13-1-8.72,2.79-11,1.49,0,1.19,0-.89,0-1.2,0-2.4-.1-3.59-.22-5.31-.41-10.42-.74-15.6,1-11.59,3.81-20,15.8-16.43,28,3.32,11.48,15.43,15.72,26,17.62a84.6,84.6,0,0,0,33.62-.73c7.91-1.75,12.54-10.94,10.48-18.46-2.25-8.16-10.52-12.22-18.46-10.47-5.62,1.24-13.92,1.68-19.48.39-2.4-.56-4.77-1.13-7.13-1.89l-1.25-.44q5.1,1.14,5.28,8.17a7,7,0,0,1-2.36,5.79,3.38,3.38,0,0,1-1.87.58,26.83,26.83,0,0,1,2.69,0c9.44.46,17.77,1.09,25.7-5.19,8.94-7.08,11.57-18.11,6.38-28.34-2.14-4.22-8.11-8-12.95-7.43l-15,1.81c-2.5.3-5,.63-7.51.91-1.06.14-2.13.24-3.21.32-1.87-.1-2.13,0-.78.31a9.09,9.09,0,0,1,3.19,3q2.75,8.69-3,12.49-2.75,1-.25.22,1.2-.32,2.43-.51c-2.13.28-2.11.29.09,0l5.66-.76c1.94-.28,3.87-.6,5.79-1C441.8,736.78,458.93,727.87,474,716l-25.07-14.6a130.27,130.27,0,0,0,13.86,91l13-22.57-77.62,2.63,14.46,11-19-56.73c-2.57-7.68-10.34-12.71-18.45-10.48-7.5,2.06-13.06,10.74-10.48,18.45Z"/><path class="cls-5" d="M200.19,586.55c22.57,26.64,44.95,53.45,67.72,79.92,21.28,24.74,46.78,47.12,80.85,49.27,7.84.5,15.34-7.25,15-15-.39-8.55-6.6-14.47-15-15a33.56,33.56,0,0,1-8.45-1.4q-2.43-.63-4.82-1.45c-.65-.21-4.57-1.77-3.47-1.28a83.82,83.82,0,0,1-17.39-10.49c-9.68-7.58-20.14-19.53-28.92-29.86q-32.2-37.92-64.31-75.93c-5.23-6.18-15.81-5.39-21.21,0-6.13,6.13-5.25,15,0,21.22Z"/><path class="cls-5" d="M241.93,587.58C260.25,654,313.65,707,380.5,724A194.53,194.53,0,0,0,440,729.78c7.82-.47,15.38-6.56,15-15-.35-7.72-6.61-15.5-15-15a165.15,165.15,0,0,1-88.18-18.73,175.46,175.46,0,0,1-20.09-12.51c-.49-.35-3.92-2.92-2.6-1.89-1.44-1.12-2.85-2.28-4.25-3.46q-4.2-3.51-8.18-7.29a165.09,165.09,0,0,1-45.83-76.29,15,15,0,1,0-28.93,8Z"/><path class="cls-5" d="M235.67,605.14c7.84,0,15.36-6.9,15-15s-6.6-15-15-15c-7.85,0-15.37,6.89-15,15s6.59,15,15,15Z"/><path class="cls-3" d="M247.54,577.22l29.38,1.58c11.77.63,23-10.8,22.5-22.5-.57-12.73-9.89-21.82-22.5-22.5l-29.38-1.58c-11.77-.63-23,10.8-22.5,22.5.57,12.73,9.89,21.82,22.5,22.5Z"/><path class="cls-6" d="M50.8,139.24A47.27,47.27,0,0,1,53.9,164c-.89,7.82,7.54,15.33,15,15,8.89-.4,14-6.62,15-15a70.08,70.08,0,0,0-4.17-32.73c-2.9-7.56-10.1-12.77-18.46-10.47-7.23,2-13.39,10.84-10.47,18.45Z"/><path class="cls-6" d="M80.71,23.93a473.11,473.11,0,0,1,.66,106.52c-.84,7.83,7.5,15.34,15,15,8.84-.39,14.1-6.61,15-15a473.11,473.11,0,0,0-.66-106.52c-.92-7.76-6.23-15.39-15-15-7.32.33-16,6.66-15,15Z"/><path class="cls-6" d="M482.72,20.8C472.15,59,481.24,99.36,505.33,130.45c5,6.41,16,5.22,21.21,0,6.33-6.33,5-14.79,0-21.21,1,1.27-2-2.91-2.33-3.42-1.18-1.77-2.31-3.58-3.38-5.41a105.44,105.44,0,0,1-5.08-9.93c.74,1.65-1.27-3.24-1.48-3.81q-.81-2.25-1.52-4.53a107.67,107.67,0,0,1-2.95-11.6c-.36-1.82-.7-3.66-.95-5.5.3,2.25-.28-3.39-.32-3.94-.26-3.71-.34-7.44-.23-11.16.07-2.12.2-4.25.39-6.36.05-.48.61-4.82.24-2.34a106,106,0,0,1,2.71-12.46c2.09-7.56-2.58-16.65-10.47-18.45S485,12.71,482.72,20.8Z"/><path class="cls-6" d="M89.2,151.63c-20.49,46-41.33,95.51-35.25,147a164,164,0,0,0,68.47,115.11,162.31,162.31,0,0,0,70.12,27.55c4,.56,8-1,9.22-5.24,1-3.5-1.23-8.67-5.24-9.23-41.79-5.83-80.38-28.89-103.76-64.28a151.8,151.8,0,0,1-23-58.63c-3.84-22.9-1.41-46.44,4.2-68.83,6.58-26.25,17.25-51.23,28.23-75.88,1.66-3.73,1-8-2.69-10.26-3.18-1.91-8.62-1-10.26,2.69Z"/><path class="cls-6" d="M119.45,442.31a139.66,139.66,0,0,0-13.21,95.33c2,9.43,16.5,5.44,14.46-4a123.32,123.32,0,0,1,11.7-83.77c4.54-8.52-8.41-16.11-13-7.57Z"/><path class="cls-6" d="M144.89,448.13q80.85,9.4,162.13,14.31c26.11,1.56,52.29,3.05,78.45,3.56,24.61.48,50.13-.64,73.47-9.2,22.22-8.15,42.41-22.32,54.17-43.25,3.65-6.48-3.7-14.1-10.26-10.26l-65.69,38.49c-8.32,4.88-.78,17.85,7.57,13l65.69-38.49L500.16,406c-22.42,39.89-72.53,45.77-113.74,45-51.58-.92-103.26-4.66-154.63-9.08q-43.51-3.75-86.9-8.81c-4-.47-7.5,3.78-7.5,7.5,0,4.44,3.46,7,7.5,7.5Z"/><path class="cls-6" d="M522.9,443.23A87,87,0,0,1,537,519.29l14.73,2,0-29.39c0-8.53.76-17.41-.15-25.89-.82-7.72-8.12-14-15.81-9.86-8.15,4.43-6.79,14.22-2.17,20.6,2.4,3.3,6.49,4.83,10.26,2.69,3.26-1.86,5.07-7,2.69-10.26-.45-.58-.86-1.18-1.25-1.79-.91-1.84-2.09-1-3.56,2.58L538,469q-1.62-3.29-1.21-.56v9.79l0,14.7,0,28.41c0,8.49,12.39,10.13,14.73,2,8.56-29.66,2.87-62.79-15.6-87.62-2.44-3.27-6.46-4.85-10.26-2.69-3.22,1.84-5.1,7-2.69,10.26Z"/><path class="cls-7" d="M149.16,237a33,33,0,0,0-22.29,28.5c-.57,5.73,6.78,9.27,11.29,6.48l19-11.78c8.19-5.06.67-18.05-7.57-13l-19,11.78,11.28,6.47a17.3,17.3,0,0,1,11.28-14c9.06-3.15,5.16-17.65-4-14.46Z"/><path class="cls-7" d="M247.62,222.56a75,75,0,0,1,43.42,10c7.13,4.15,15.77-6.15,9.08-11.78a107.72,107.72,0,0,0-40.42-21.58c-9.31-2.62-13.28,11.84-4,14.46a90.2,90.2,0,0,1,33.81,17.73l9.09-11.78a89.21,89.21,0,0,0-51-12c-9.58.67-9.65,15.67,0,15Z"/><path class="cls-7" d="M409.35,229.14l31.72-20.35c8.1-5.19.59-18.18-7.57-12.95l-31.72,20.35c-8.1,5.19-.59,18.18,7.57,12.95Z"/><path class="cls-7" d="M511.75,212.85l10.87,1.09c3.92.39,7.67-3.73,7.5-7.5-.2-4.4-3.3-7.08-7.5-7.5l-10.87-1.09c-3.91-.39-7.67,3.73-7.5,7.5.2,4.4,3.31,7.08,7.5,7.5Z"/><path class="cls-8" d="M108.41,347.16l-3.23,7.63c-.82,1.94-1.34,3.65-.76,5.78a7.67,7.67,0,0,0,3.45,4.48c3.21,1.69,8.63,1.16,10.26-2.69l3.23-7.62c.82-1.94,1.34-3.66.75-5.78a7.64,7.64,0,0,0-3.44-4.49c-3.21-1.69-8.63-1.16-10.26,2.69Z"/><path class="cls-9" d="M306.82,303.11l-1.76,16.25c-.79,7.21,11.08,10.51,14,3.79l10-23.34c1.6-3.71,1.11-8-2.69-10.26-3.16-1.85-8.65-1.05-10.26,2.69q-5,11.67-10,23.33l14,3.79,1.76-16.25c.44-4-3.76-7.5-7.5-7.5-4.42,0-7.06,3.45-7.5,7.5Z"/><path class="cls-9" d="M378.14,286.52c-1.46,6.58-2.55,13.69.93,19.86,3.08,5.48,9.34,9.32,15.71,8.06,14.66-2.89,14.64-23.7.29-27.06-5.8-1.35-12.56,5.38-8.47,11l8.71,12,6.48-11.29c-7.23-.19-15.66,1.53-18.29,9.28-2.28,6.75.78,13.42,7.5,15.79,9.12,3.21,13-11.27,4-14.47q3,1.15,2.64,3.66c-.95.9-1,1.2-.25.89.38.3,3.82-.16,4.42-.15,5.31.14,9.85-6.63,6.47-11.28l-8.71-12-8.47,11c1.26.29.2-1,.44-1.88,1.4.22,1.78.11,1.14-.32a1.64,1.64,0,0,1-.64-.84,24.51,24.51,0,0,1,.59-8.3c2.09-9.41-12.37-13.42-14.47-4Z"/><path class="cls-6" d="M322.41,245.54C304.77,248.09,288,252.31,274,264c-14.24,11.91-21.87,32.31-17.11,50.46,5,19,23.2,32.07,42,35,18.2,2.84,37,1.56,55.27-.23a431.36,431.36,0,0,0,62.24-10.58l-21.89-37.61c5-4.12-.11,0-1.4.74-.84.49-1.7,1-2.57,1.4q-3.3,1.56,1.37-.48c.06.23-5.13,1.66-5.59,1.78-.95.24-1.9.44-2.86.62q-2.94.48.08,0t.07-.11c-1,.06-1.95.09-2.93.09s-2,0-2.93-.1q-3.74-.35,1.62.32c-.33-.54-4.91-1.07-5.71-1.3s-1.86-.6-2.77-.94q4.65,2.07,1.34.51l-17.33,41.13c18.31,3.36,36.7,6.25,55.13,2,16.14-3.73,31.28-14.59,39.29-29.21,8.44-15.4,9.18-34.84-.95-49.72-9.06-13.28-23.5-21.3-39-24.92-31.63-7.43-67.36-4.18-98.31,4.74-17.66,5.09-35.45,12.76-42.28,31.24a32.71,32.71,0,0,0,4.13,29.48c7.75,10.59,18.15,15.64,31.05,17.09,9.08,1,18.52-.64,27.57-1.44l27.54-2.43,58-5.12c11.69-1,23.08-9.61,22.5-22.5-.5-11.3-9.94-23.61-22.5-22.5l-82.62,7.29c-6.51.58-13,1.23-19.53,1.72-2.39.19-6.89,1.07-9.18.19l2.38.28q-3.35-1-.37.17c1.8.85,1.86.84.16,0q-3-2,1.24,1c3.34,3.36,1.85,2.9,1.06,1.32a12.75,12.75,0,0,1,1.16,9.73c.88-3.44-.8,1.68-.94,2,2-4.07-3.35,4.16-.33.59,2.5-2.95-.84,1.3-1.36,1,.12.07,3.3-2,3.61-2.15a14.19,14.19,0,0,0,2.53-1.22c-3.25,1.34-3.77,1.6-1.55.76,1.16-.4,2.32-.79,3.49-1.17q8.78-2.85,17.78-4.85c3-.67,6-1.27,9-1.8,1.21-.21,2.43-.39,3.64-.6q3.9-.57-.5,0c.91-.12,1.83-.23,2.74-.33a196.66,196.66,0,0,1,37.74-.6c1.83.15,3.66.37,5.5.52,2,.17,2.34,1.26-2-.29,2,.72,4.52.78,6.65,1.28a67.63,67.63,0,0,1,6.54,1.86l1.27.45q3.36,1.29-1.66-.76c.77.78,2.58,1.24,3.53,1.77a27.17,27.17,0,0,0,2.75,1.7c2.52,1-4-3.84-1-.82a17,17,0,0,0,2.22,2.19c2.12,1.41-2.8-4.76-.86-1.11.48.9,1.6,4.16.64.65-1.09-3.93,0,.43.2,1,1.58,4.24.05-4.09-.11-1.29a19,19,0,0,1,0,2c-.19,2.45-.09,1.78.32-2a15,15,0,0,0-.67,2.6c-.8,2.25-.53,1.73.79-1.58-.39.84-.81,1.65-1.27,2.45a16.1,16.1,0,0,0-1.49,2.35q3.22-4,.93-1.22c-.46.54-.94,1.06-1.45,1.56-.25.26-2.59,2.44-2.59,2.44q4.07-3,1.16-.91l-1.2.78c-.3.19-3.72,1.92-3.72,2.08,3-1.2,3.74-1.49,2.14-.89-.78.29-1.57.56-2.37.8-1.73.53-3.48.85-5.22,1.3-4.58,1.18,4,.05-1.11.14-3.63.06-7.18.24-10.82,0-1.21-.07-2.42-.17-3.63-.28s-2.43-.25-3.64-.4q4.42.61.54,0c-3.6-.63-7.21-1.22-10.8-1.87-11.15-2-21.95,2.13-26.54,13-4,9.58-.93,23.25,9.2,28.1,26,12.45,54.63,8.72,76.81-9.59,7.32-6,8.52-19.5,3.52-27.26a23.25,23.25,0,0,0-25.41-10.34c-9.09,2.26-18.25,4.23-27.47,5.85q-3.34.58-6.69,1.11c-1,.15-9.24,1.38-3.61.58-4.47.64-9,1.09-13.48,1.52q-13.5,1.29-27.07,1.62c-4.36.11-8.74.19-13.1,0-1.57-.06-3.94.21-5.45-.36,3,.44,3.18.45.6,0q-1.77-.36-3.51-.84c-1.06-.3-2.11-.64-3.14-1q4.26,1.89,2,.76c-.74-.47-4.32-1.82-4.44-2.7,2.58,2,3,2.25,1.2.63-1.28-1.44-1.33-1.42-.13.06s1.15,1.5.08-.11c-1.12-2.17-1-1.7.47,1.43a20.14,20.14,0,0,1-.7-2.67c.41,3.72.55,4.36.42,1.9,0-4.25-1.57,4.9-.16.52.21-.9.46-1.8.76-2.68.84-2.25.64-1.76-.62,1.47a24.59,24.59,0,0,0,2.18-3.7q-3.18,3.9-.88,1.14c.64-.72,1.3-1.42,2-2.08.52-.51,1.05-1,1.6-1.44q1.94-1.64-1.73,1.35c.06-.9,4.93-2.87,5.71-3.3,4.27-2.38-3.64,1,.7-.25a185,185,0,0,1,24.44-5.17c5.18-.75,10.94-6.05,13.45-10.34,2.82-4.82,4-11.93,2.27-17.34-4.14-12.79-15.15-17.53-27.68-15.71Z"/><g id="Layer_3" data-name="Layer 3"><path class="cls-2" d="M429.92,62.24A169.71,169.71,0,0,1,507.71,22c9.41-2.1,5.43-16.56-4-14.46a184.87,184.87,0,0,0-84.41,44.13c-7.14,6.53,3.49,17.11,10.61,10.61Z"/><path class="cls-2" d="M508,21.72c9.65,0,9.67-15,0-15s-9.66,15,0,15Z"/><path class="cls-2" d="M507.42,20.53a105.63,105.63,0,0,1,39.47,21.63A110.17,110.17,0,0,1,561.94,58.1c4.41,5.79,10.29,13.4,11.82,20.62v-4c.81-.32.48-.06-1,.77l-1.28.92c-1.56,1.15-3.09,2.37-4.55,3.65a56.62,56.62,0,0,0-6.51,6.81,77.78,77.78,0,0,0-10.61,17c-6.41,14.14-9.16,29.28-11.67,44.51l13.71-1.79C528.42,112.25,498.23,67.1,517.66,24c1.68-3.72,1-8-2.69-10.26-3.19-1.91-8.6-1-10.26,2.69-22.13,49.12,7,97.82,34.21,137.8,3.24,4.75,12.57,5.11,13.71-1.79,3-17.94,5.91-36.65,16.31-52a50.44,50.44,0,0,1,6.88-8.14c2.91-2.79,6.75-4.62,9.5-7.52,6.65-7,.89-16.24-3-23A122.71,122.71,0,0,0,511.41,6.06c-9.28-2.75-13.24,11.72-4,14.47Z"/><path class="cls-2" d="M515.79,122a70,70,0,0,0-2.2,21.61c.55,9.59,15.55,9.66,15,0a56,56,0,0,1,1.67-17.63c2.43-9.35-12-13.34-14.47-4Z"/><path class="cls-2" d="M163.45,83.68c9.65,0,9.67-15,0-15s-9.67,15,0,15Z"/><path class="cls-2" d="M170.55,72c-10.87-15-22.14-30.2-35.34-43.2C123.08,16.86,108.89,7.8,91.69,6c-4-.44-7.5,3.75-7.5,7.5,0,4.41,3.45,7.06,7.5,7.5,14,1.5,25.68,11,35.17,20.73,11.29,11.65,21.21,24.78,30.73,37.89,2.4,3.3,6.49,4.83,10.27,2.69,3.25-1.85,5.06-7,2.69-10.26Z"/><path class="cls-2" d="M87.72,8.59c-9.4,5-9.81,16.61-10.9,25.93-1.43,12.25-2.2,24.57-2.53,36.89-.65,24.71.46,49.43,1.58,74.11l14-3.79a232.78,232.78,0,0,0-32.2-47A221.77,221.77,0,0,0,37.85,74.86q-5.25-4.64-10.79-8.94c-1.8-1.4-3.62-2.8-5.46-4.16-1.1-.82-2.22-1.62-3.34-2.42l-1.34-1q-1.7-1.35.42,1.06v4c-.83.59-.6.28.7-.94q1.13-1.2,2.25-2.37c1.14-1.17,2.29-2.32,3.47-3.46q4.09-4,8.48-7.65A148.61,148.61,0,0,1,50.58,35.93,156.23,156.23,0,0,1,92.21,18.26c9.32-2.47,5.37-16.94-4-14.47A170.93,170.93,0,0,0,13.15,46.07c-4.54,4.4-12,10.17-10.27,17.37C4.48,70.13,13.41,74.1,18.4,78.06a222.53,222.53,0,0,1,31.33,30.35A217.3,217.3,0,0,1,76.89,149.3c3.39,6.57,14.31,3.56,14-3.78-1-22.09-2-44.2-1.73-66.32.13-10.7.56-21.41,1.44-32.08.44-5.5,1-11,1.71-16.46.41-3.08.61-7.85,3-9.12,8.52-4.54,1-17.49-7.58-12.95Z"/><path class="cls-2" d="M42.15,99a709,709,0,0,1,11.26,98.87c.42,9.61,15.42,9.67,15,0A739,739,0,0,0,56.61,95c-1.76-9.48-16.22-5.46-14.46,4Z"/><path class="cls-2" d="M156.86,72.93c-37.78,33.9-73.9,71.76-96.4,117.82-21.28,43.58-29.7,95.69-14.32,142.55,15.06,45.91,52.45,78.68,96,97.19,51.11,21.71,107.66,23.79,162.37,26.1,51.18,2.16,104.64,2.86,152.57-17.82,43.22-18.64,75.79-55.11,93.46-98.33,38.38-93.93-5-202.87-81.83-263.13A263.24,263.24,0,0,0,339.23,22.89c-49.93-6.26-101.49,2.76-146.75,24.57a251.59,251.59,0,0,0-31.61,18.2c-8,5.37-.46,18.37,7.57,13A250.33,250.33,0,0,1,302,36,243.67,243.67,0,0,1,431.58,70C511,116.81,566,212.18,545.71,305.52c-9,41.51-32.88,80.61-68.13,104.91-40.19,27.7-90,32.56-137.53,32.17-25.41-.21-50.88-1.45-76.25-3-26.83-1.67-53.67-4.44-79.81-10.95-42.8-10.66-85.6-32.76-109.92-70.92-25-39.24-25.41-89.06-11.56-132.34,14.61-45.67,45.5-84.32,79.13-117.61,8.39-8.3,17-16.34,25.83-24.22,7.2-6.46-3.44-17-10.61-10.61Z"/><path class="cls-2" d="M306.49,248.17c-1.87-37-2.57-78.24-25.75-109.1-10.69-14.23-25.29-26-42.76-30.54-19.5-5-40.34-.18-57.14,10.45-17.34,11-30.38,27.52-40.43,45.17-10.61,18.61-18.67,39.07-22.16,60.26-6.26,38,2.39,78.76,30.06,106.77,29.75,30.12,79.12,36.67,113.32,10.22,3.23-2.5,2.58-8,0-10.61-3.13-3.19-7.42-2.46-10.61,0-24.91,19.27-62.75,15-86.06-4.63-25.91-21.82-36.26-56.31-33.32-89.3,1.66-18.55,7.49-36.86,15.6-53.56,7.78-16,17.5-31.48,30.81-43.47,12.91-11.64,29.9-19.37,47.54-18.24,15.49,1,29.14,10.08,39.17,21.44,24.9,28.21,24.94,69.66,26.73,105.14.48,9.6,15.48,9.66,15,0Z"/><path class="cls-2" d="M355.84,363c9.65,0,9.67-15,0-15s-9.67,15,0,15Z"/><path class="cls-2" d="M355.11,347.64c-30.56,2.78-73.1,6.19-91.12-25.14-7.28-12.65-5.37-27.42,1.88-39.61,8-13.39,20.92-22.61,35.49-27.63,16.45-5.66,33.87-6.93,51.12-7.58,18.38-.7,37.43-2,55.55,1.85,14.52,3.07,29,9.91,37.91,22.18,8.59,11.78,9.46,26.61,2.87,39.55-18.7,36.72-64.34,36.94-100,36.43-9.66-.14-9.66,14.86,0,15,39.21.56,83.35-1.23,108.33-36.25,10.15-14.23,14.49-33.2,8.2-49.92-6.16-16.39-19.8-28.82-35.64-35.76-19.49-8.55-41.07-9.09-62-8.56-20.71.53-41.89.9-62.06,6.13-18.2,4.72-35.13,13.85-46.93,28.76-11,13.86-17.07,31.52-13.13,49.17,4.36,19.47,20.65,33.83,38.45,41.22,22.46,9.33,47.47,7.31,71.11,5.16,9.53-.87,9.62-15.88,0-15Z"/><path class="cls-2" d="M305.26,289.25c-7.45,10.12-16.3,26.39-10.38,39.11a16.47,16.47,0,0,0,16.23,9.44c7.89-.56,13.85-5.53,18.12-11.86,7.43-11,14.75-27.06,6.56-39.54-7.49-11.4-25.46-10.34-29.87,3.14-3,9.19,11.47,13.13,14.47,4-.24.72-.3-.78,1-.23.27.11.55.16.82.26,1.94.79,2.28,4.4,2.21,6.07-.25,6.42-5,15.06-9.06,19.93-1,1.24-4.57,4.73-6.57,3.13-1.27-1-.82-4-.63-5.3,1.09-7.43,5.66-14.64,10-20.55,2.42-3.29.52-8.34-2.7-10.27-3.78-2.26-7.87-.55-10.26,2.69Z"/><path class="cls-2" d="M366.29,290.29c2.39,12.77,6.24,27.28,18.54,34,12.07,6.62,28,3.72,33.16-10.14,5.27-14.27-4.54-29.41-15.94-37.45-11-7.75-28.58-7.18-35,6.24-4.15,8.67,8.78,16.29,12.95,7.57,6.52-13.6,31.57,9.91,22.95,20.32-3.7,4.48-11.15,1.1-14.26-2.41-5.25-5.91-6.53-14.65-7.92-22.14-1.77-9.47-16.23-5.46-14.47,4Z"/><path class="cls-2" d="M302.78,217.76c-23-30.3-63.07-32.64-97.16-22.68a167.58,167.58,0,0,0-82.24,54.43c-2.58,3.16-3,7.51,0,10.61,2.62,2.67,8.05,3.13,10.61,0A153.85,153.85,0,0,1,205,211c27.58-9,65.08-11.56,84.79,14.39,2.47,3.24,6.44,4.86,10.26,2.69,3.2-1.82,5.14-7.05,2.69-10.27Z"/><path class="cls-2" d="M158.88,222.56c-3.15,18.35-6.08,37.82,2.6,55.17,6.86,13.69,21,23.86,36.71,22,17.09-2,29.78-15.33,36.38-30.45,7.83-17.93,10.82-38.22,15.26-57.18,2.2-9.39-12.26-13.4-14.47-4-3.63,15.5-6.6,31.37-11.31,46.58C220.3,266.77,213.49,280,200.49,284c-11.46,3.55-21.13-3.87-26.06-13.85-6.58-13.35-3.49-29.62-1.08-43.61,1.62-9.44-12.83-13.5-14.47-4Z"/><path class="cls-2" d="M236.89,201.42l-1,4.35a7.9,7.9,0,0,0,.75,5.78,7.5,7.5,0,0,0,10.27,2.69,7.55,7.55,0,0,0,3.44-4.48l1-4.36a7.87,7.87,0,0,0-.76-5.78,7.49,7.49,0,0,0-13.7,1.8Z"/><path class="cls-2" d="M256.27,403.13c38.62-20.3,87.74-9.83,114.09,25.21,2.46,3.26,6.45,4.86,10.26,2.69,3.21-1.83,5.12-7,2.69-10.26-14.68-19.53-35.32-34-59.15-40a106.9,106.9,0,0,0-75.46,9.44c-8.55,4.49-1,17.44,7.57,12.95Z"/><path class="cls-2" d="M408.21,232.78a173.24,173.24,0,0,1-6-46.48c.12-12.32,1.38-25.29,6.74-36.57,5.18-10.92,13.92-18.89,26-21.23,12.5-2.43,25.79,1.33,36.38,8,11.25,7.09,20.22,17.43,27.84,28.2a285.89,285.89,0,0,1,22.79,37.79c12,24.13,19,53.2,8,79.06C520,305,490.67,321.34,467,306.81c-8.25-5.06-15.8,7.91-7.57,12.95,25.41,15.57,58.88,5,76-17.84,19.41-25.95,17.93-61.62,6.78-90.56-6.29-16.31-15-31.51-24.54-46.11C509,152.08,499.38,139.2,487,129.38c-23.8-18.84-62.07-25-83.46,1.09-10.43,12.72-14.53,29-15.85,45.1-1.67,20.46.79,41.41,6.09,61.2,2.49,9.31,17,5.36,14.46-4Z"/><path class="cls-2" d="M407,218.66a98.41,98.41,0,0,1,115.06-14c8.44,4.72,16-8.23,7.57-13A113.82,113.82,0,0,0,396.4,208.06c-7,6.62,3.57,17.21,10.61,10.6Z"/><path class="cls-2" d="M435.72,195.71c1.51,16.9,3.22,34.62,12.55,49.29,8.12,12.75,21.64,22.32,37.26,21.69,15.43-.63,27.7-11.15,31.24-26.12,4-16.95-2.87-33-9.9-48.11-4.07-8.75-17-1.14-12.95,7.57,5,10.73,10.95,23,8.69,35.15-1.91,10.25-9.27,17.2-20,16.48-26.14-1.77-30.13-36.24-31.89-55.95-.85-9.54-15.86-9.63-15,0Z"/><path class="cls-2" d="M228.18,200.78a188,188,0,0,0-46.72,12.78c-3.22,1.34-5.54,3.81-5.43,7.35-4,.36-8.07.61-12.09.94-9.5.76-9.8,15,0,15h4.51a7.37,7.37,0,0,0-1.18,2.83c-.72,3.57-.34,6.41.8,8.59a9.94,9.94,0,0,0-3.73,5c-4,11.38,7.46,23.08,17.52,28.13a6.77,6.77,0,0,0,2.65,1.2l.94.35c.67.23,1.33.43,2,.62a11.43,11.43,0,0,0,4.29,2.12,14,14,0,0,0,1.13,2.21c2,3.2,6.87,5.12,10.26,2.69A25.24,25.24,0,0,0,211,281,35.17,35.17,0,0,0,223,270.76c9.39-12.74,9.87-29.45,11.49-44.59a5.89,5.89,0,0,0-.88-3.79,26.79,26.79,0,0,0,.4-2.71,25.76,25.76,0,0,0,4.66-5.39C243.31,206.35,236,199.7,228.18,200.78Z"/><path class="cls-2" d="M454.75,203.24c9.65,0,9.67-15,0-15s-9.67,15,0,15Z"/><path class="cls-2" d="M448.45,193.8a66.65,66.65,0,0,0,5,38.55c5.07,11.13,14.3,23.4,27.38,24.75s24.15-9.71,26.73-22c2.68-12.79-.73-29.55-8-40.49-6.86-10.36-21-17.36-32.85-10.74-12.13,6.77-13.47,21.49-10.82,33.7s7.42,27.91,22.42,28.69c15.74.81,17.52-17.4,17.17-28.9-.22-7.09-1.78-14.81-6.77-20.18s-12.92-7.47-19.56-3.72c-5.68,3.22-9.17,9.57-9.58,16-.52,7.91,3.94,15.09,8.31,21.27,3.63,5.12,11.83,4.77,13.71-1.79l5.21-18.21c2.66-9.3-11.81-13.27-14.47-4l-5.2,18.21,13.71-1.79c-1.84-2.59-10.44-13.62-4.61-16.45,3.45-1.67,4.3,11.6,4.24,14-.08,3.1.2,15.49-5.11,8.15-2.06-2.84-2.79-6.81-3.7-10.14-1.06-3.9-2.15-7.85-2.12-11.92,0-5,2.45-11.24,8.5-10.43,7.07.94,10.67,8.41,12.54,14.45,2.25,7.24,4.45,16.33,1.58,23.69-2.09,5.35-7.43,9.52-13.08,6.63-6.73-3.43-11.32-12.24-13.71-19a50.09,50.09,0,0,1-2.44-24.33c.64-4-1-8-5.24-9.23-3.55-1-8.59,1.24-9.22,5.24Z"/><path class="cls-2" d="M136.05,421.19c-26.71,53.85-29.52,118.58-6.19,174.15,20.58,49,60.55,89.73,109.4,110.84,29.26,12.65,60.79,17.91,92.43,20.11,32.09,2.22,65.77,2.78,96.55-7.93,49.71-17.3,85-61.34,101.69-110.06,20.58-60.1,11.26-126.23-6.63-185.74-2.33-7.77-4.84-15.49-7.46-23.17-3.09-9.09-17.59-5.18-14.46,4C520.9,460.67,535,523.6,521.28,583.86,510.85,629.79,483.34,674,441,696.56,415.1,710.3,385.67,713,356.84,712.45,326,711.82,294.65,709,265,699.83c-47.71-14.76-88.57-48.58-112.68-92.24-30.12-54.55-31-123.12-3.35-178.83,4.27-8.62-8.66-16.23-12.95-7.57Z"/><path class="cls-2" d="M123.23,534.77c9.65,0,9.67-15,0-15s-9.67,15,0,15Z"/><path class="cls-2" d="M118.66,535.08c99.68,58.32,221.22,73.19,331.91,40a422.51,422.51,0,0,0,89.77-38.72c8.36-4.82.81-17.79-7.57-12.95-96.71,55.75-213.85,69.16-320.59,36.45a405.66,405.66,0,0,1-85.95-37.77c-8.35-4.89-15.91,8.07-7.57,13Z"/><path class="cls-2" d="M442.7,593.93l-18.77,66.22c-2.64,9.3,11.83,13.27,14.47,4l18.77-66.22c2.64-9.3-11.83-13.27-14.47-4Z"/><path class="cls-2" d="M465.26,592a655.65,655.65,0,0,1-22.78,65.61c-1.54,3.78,1.67,8.2,5.24,9.22,4.28,1.23,7.7-1.5,9.22-5.24A654.6,654.6,0,0,0,479.72,596c2.68-9.3-11.79-13.26-14.46-4Z"/><path class="cls-2" d="M416.87,636.91l76.89-19.59c9.35-2.38,5.38-16.85-4-14.46l-76.89,19.59c-9.35,2.38-5.39,16.85,4,14.46Z"/><path class="cls-2" d="M417.72,662.05l78.16-22.12c9.27-2.62,5.33-17.1-4-14.46l-78.15,22.12c-9.28,2.62-5.34,17.1,4,14.46Z"/><path class="cls-2" d="M123.1,420.88A875.09,875.09,0,0,1,5.26,566.48c-5.39,5.38.12,14.34,7.3,12.54,4.47-1.12,13.63-4,16.86,1.06,4,6.31-3.26,14.8-6.89,19.32C17.21,606,23.66,615,31.62,611.18A337.63,337.63,0,0,0,127,543c6.76-6.9-3.84-17.52-10.61-10.61a325.07,325.07,0,0,1-92.34,65.85L33.14,610c8.29-10.31,17.18-24.26,9.23-37.49-7.23-12-22-10.91-33.8-8l7.3,12.53A893.79,893.79,0,0,0,136.05,428.45c5.25-8.14-7.73-15.67-13-7.57Z"/><path class="cls-2" d="M503.11,401.24A480.64,480.64,0,0,0,622.17,527.38a471,471,0,0,0,41.56,27.2v-13c-14.7,6.46-31.24,5.83-45.88-.32-6.63-2.78-11,5.86-8.47,11l20.33,41.43L640,583.5l-97.59-62.33c-8.15-5.21-15.69,7.76-7.57,13l97.59,62.33c6.75,4.31,13.35-4,10.26-10.26l-20.33-41.43-8.47,11c18.56,7.8,39.17,6.84,57.44-1.19,5.32-2.34,4.45-10.36,0-13A465,465,0,0,1,544,432.37a455.67,455.67,0,0,1-28-38.7c-5.23-8.08-18.22-.57-12.95,7.57Z"/><path class="cls-2" d="M184.25,673.86a274.35,274.35,0,0,1-7.14,107.95c-1,3.65,1.22,8.5,5.24,9.22l100.29,18.15a7.75,7.75,0,0,0,9.22-5.24q14.29-40.29,28.58-80.59c3.23-9.11-11.26-13-14.47-4L277.4,800l9.22-5.24L186.34,776.57l5.24,9.22a293.18,293.18,0,0,0,7.13-115.92c-.54-4-5.69-6.22-9.22-5.24-4.33,1.22-5.79,5.18-5.24,9.23Z"/><path class="cls-2" d="M469.62,681.33A233.6,233.6,0,0,0,484.88,797l7.23-9.49L380.19,796l7.23,5.51-15.94-83.62c-1.81-9.47-16.27-5.46-14.47,4L373,805.48a7.51,7.51,0,0,0,7.23,5.51l111.92-8.53c4.31-.33,9.21-4.62,7.23-9.5a224.1,224.1,0,0,1-14.72-111.63c.5-4-3.79-7.5-7.5-7.5-4.46,0-7,3.46-7.5,7.5Z"/><path class="cls-2" d="M200.75,792.67,182.2,848.88c-1.87,5.67,4,10.47,9.23,9.23a93.58,93.58,0,0,0,39.87-20.55l-12.8-5.3a44.89,44.89,0,0,0,23.22,37.49c4,2.2,9.95.41,11-4.48l14.05-64.17c2.06-9.41-12.4-13.43-14.47-4l-14,64.17,11-4.48a29.59,29.59,0,0,1-15.79-24.54c-.33-6.74-7.84-9.57-12.8-5.3a77.79,77.79,0,0,1-33.26,16.68l9.23,9.23,18.54-56.21c3-9.19-11.45-13.13-14.46-4Z"/><path class="cls-2" d="M460.76,803.45l6.51,30.24,3.25,15.11c.43,2,1.09,4.1,1.33,6.14a15.26,15.26,0,0,1,0,2.53c.1-.4.21-.79.32-1.18l3.78-1c-1.9.15-5.24-4.38-6.54-5.64l-7.56-7.3-15.12-14.6c-3.84-3.71-11.35-2.39-12.54,3.31a73.8,73.8,0,0,1-21.47,38.81l12.81,5.3-7.68-73c-.43-4-3.15-7.5-7.5-7.5-3.73,0-7.93,3.45-7.5,7.5l7.68,73c.66,6.31,7.78,10.1,12.8,5.31A87.81,87.81,0,0,0,448.69,835l-12.54,3.3,24.74,23.9c3.78,3.65,7.89,8,13.55,8.16a11.82,11.82,0,0,0,11-6.79c4.18-8.54-.8-20.57-2.65-29.17l-7.53-35c-2-9.43-16.49-5.44-14.46,4Z"/><path class="cls-2" d="M106.52,315.44a28.6,28.6,0,0,1-.65,19.14c-2.3,5.65-6.87,9.76-10.11,14.81-7,10.91-3.09,25.42,10.66,27.72s23.14-9.31,24.55-21.92c1.54-13.63-8.37-27.59-2.92-40.74,1.56-3.77-1.69-8.21-5.24-9.23-4.3-1.23-7.68,1.52-9.22,5.24-4.62,11.14-.7,22.55,1.68,33.68,1,4.53,1.66,9.6-.25,14-1,2.41-3.87,5.62-6.87,4-4-2.14,8.35-15.37,9.83-18.24a43.7,43.7,0,0,0,3-32.49c-2.76-9.23-17.24-5.3-14.47,4Z"/></g></svg>