<?xml version="1.0" encoding="utf-8"?>
<!-- Generator: Adobe Illustrator 20.1.0, SVG Export Plug-In . SVG Version: 6.00 Build 0)  -->
<svg version="1.1" xmlns="http://www.w3.org/2000/svg" xmlns:xlink="http://www.w3.org/1999/xlink" x="0px" y="0px"
	 viewBox="0 0 1000 1000" style="enable-background:new 0 0 1000 1000;" xml:space="preserve">
<style type="text/css">
	.st0{fill:#F4A6BE;}
	.st1{fill:#E8E8E8;}
	.st2{fill:#E86795;}
	.st3{fill:#B54672;}
	.st4{fill:#753C15;}
	.st5{fill:#512C15;}
	.st6{fill:#FCD20E;}
	.st7{fill:#F2AF19;}
	.st8{fill:#E52A23;}
	.st9{fill:#C41E21;}
	.st10{fill:#FFFFFF;}
</style>
<g id="Layer_2">
	<g>
		<g>
			<path class="st0" d="M474.8,265.6c3.3,12.5,6.7,25,10,37.5c3.2,12,5.5,25.7,12.6,36.2c7.9,11.6,20.2,19.4,34.1,21.5
				c14.8,2.2,28.9-0.7,43.1-4.9c12.4-3.7,17.9-15.5,15.7-27.7c-5.4-30-10.8-60.1-16.1-90.1c-2.9-15.9-27.3-22.6-37.6-9.9
				c-20.2,24.7-24.6,58.5-8.9,86.9c4.6,8.4,16.2,13.3,25.4,10.3c8.8-2.9,17.4-11.7,16.5-21.7c-3.6-39.4-26.8-76.5-63.2-93.7
				c-7.5-3.5-15.3-4.3-22.7,0c-7,4.1-11,11.4-11.1,19.4c-0.2,7.3-0.3,14.7-0.5,22c14-3.8,28-7.6,41.9-11.4
				c-19.2-32.3-52.5-52.9-89.6-57.1c-35.9-4.1-74.1,11.4-97.9,38.3c-7.8,8.8-9.3,23.3,0,31.8c8.9,8.1,23.1,9,31.8,0
				c6-6.2,12.3-12.1,19-17.5c0.8-0.6,1.7-1.5,2.5-2c-4.1,2.5-1.7,1.3-0.7,0.6c1.7-1.3,3.5-2.6,5.2-3.8c3.7-2.6,7.6-5.2,11.5-7.6
				c7.4-4.5,15-8.6,22.8-12.2c0.7-0.3,7-3,4-1.8c-3,1.2,3.3-1.3,4.1-1.6c4.3-1.6,8.6-3.1,13-4.5c8.2-2.6,16.6-4.6,25.1-6.1
				c2.1-0.4,4.3-0.7,6.4-1c3.5-0.5-0.8,0.4-1,0.1c0,0.1,2.4-0.3,2.6-0.3c4.8-0.5,9.7-0.9,14.5-1.1c9.1-0.4,18.3-0.1,27.4,0.7
				c2.3,0.2,4.6,0.5,6.8,0.7c4.2,0.5-0.2-0.1-0.9-0.1c1.1,0,2.4,0.4,3.4,0.5c4.8,0.8,9.6,1.7,14.3,2.8c10,2.3,19.9,5.4,29.5,9.1
				c1.1,0.4,2.1,0.9,3.2,1.3c3,1.2-4.9-2.2,0.2,0.1c2.3,1.1,4.7,2.1,7,3.2c4.9,2.4,9.7,4.9,14.4,7.7c1.8-13.7,3.6-27.4,5.4-41.1
				c-16,3.4-30.9,15.2-38.4,29.8c-4.2,8.2-6.6,16.8-7,26c-0.2,5.1,0.8,10.2,1.6,15.2c0.7,4.4,0.2-2.8,0.2,1.6c0-0.6,0.1,3.3,0,3.3
				c-0.1,0,1-5.4-0.1-1.8c2.1-7.1,9.2-9.3,15.7-7.8c2.5,0.6,0.9,0.3,0-0.3c0,0,3.8,2.4,1.6,0.9c-2.2-1.6,1.4,1,1,1.3
				c-0.1,0-1.6-2.6-1.7-2.9c-3.4-6.1-6.5-12.3-10.6-17.9c-9.6-13-20.9-24-34.5-32.8c-13.6-8.7-29.5-14.9-45.5-17.1
				c-2,14.7-4,29.5-6,44.2c7.4-0.1,14.8,0.1,22.1,0.6c3.7,0.3,7.4,0.7,11,1c5.4,0.5-3.6-0.6,1.3,0.2c2.1,0.3,4.3,0.7,6.4,1
				c14.9,2.6,29.4,6.6,43.6,11.8c11.1,4.1,25.1-4.6,27.7-15.7c2.9-12.7-3.9-23.3-15.7-27.7c-30.7-11.3-63.7-16.7-96.5-16.3
				c-11.2,0.2-20.6,8.4-22.1,19.5c-1.3,9.9,5,23.1,16.1,24.7c6.6,0.9,13.2,2.5,19.5,4.7c0.9,0.3,1.8,0.7,2.8,1
				c2.3,0.8-1.9-0.9-1.9-0.9c1.3,0.7,2.7,1.2,4.1,1.9c3.3,1.6,6.6,3.4,9.7,5.4c1.3,0.8,2.5,1.6,3.7,2.5c0.6,0.4,1.2,0.9,1.8,1.3
				c3.2,2.2-0.7-0.4-1-0.8c2.1,2.5,5.4,4.6,7.8,6.9c2.3,2.3,4.5,4.6,6.6,7.1c0.4,0.5,0.9,1.3,1.4,1.7c0,0-2.6-3.6-1.3-1.6
				c1.1,1.6,2.3,3.2,3.4,4.9c4.7,7.3,8,15.1,13.5,21.9c8.3,10.2,22,15.5,34.9,12.8c12.3-2.6,21.3-12.5,24.8-24.3
				c1.4-4.6,1.8-9.9,1.4-14.7c-0.3-3.3-0.8-6.5-1.3-9.8c-0.2-1.3-0.4-2.5-0.6-3.8c0.2,1.4,0.2,3.1,0.3,0.8c0-0.7,0-1.4,0-2.1
				c0.1-2.7,1.4-2.6-0.3,1.2c0.6-1.4,0.7-3.2,1.2-4.7c0.2-0.6,0.6-1.3,0.7-2c-1.2,4.9-1.2,2.7-0.2,1c0.8-1.4,1.9-2.7,2.6-4.1
				c-2,4-2.2,2.6-0.9,1.3c0.7-0.7,1.3-1.3,2-2c0.5-0.5,1.1-0.9,1.6-1.4c1.9-1.8-4.1,2.6-0.6,0.6c0.9-0.5,5.5-2.8,2.2-1.4
				c-3.2,1.3-0.3,0.2,0.6-0.1c1.1-0.3,2.2-0.6,3.4-0.8c8.6-1.9,15-10.4,16.1-18.7c1.2-8.8-2.9-17.9-10.7-22.4
				c-72.3-41.9-163.3-42.5-235.9-1.1c-19.4,11-37.4,25.1-52.9,41.1c10.6,10.6,21.2,21.2,31.8,31.8c2.4-2.7,4.9-5.4,7.7-7.8
				c1.4-1.2,2.8-2.4,4.2-3.5c1.3-1,0.8-0.7-1.5,1.1c0.8-0.6,1.7-1.2,2.5-1.8c3-2.1,6.1-3.9,9.4-5.7c1.4-0.7,2.8-1.4,4.2-2.1
				c4.4-2.3-3.9,1.4,0.4-0.2c3.4-1.3,6.9-2.5,10.4-3.4c2.3-0.6,8.3-2.9,10.7-2.2c-3.4,0.4-3.8,0.5-1.3,0.2c0.5,0,1-0.1,1.6-0.1
				c2.1-0.2,4.2-0.3,6.2-0.3c3.4,0,6.7,0.3,10.1,0.5c1.8,0.2,1,0.1-2.2-0.3c1,0.1,2,0.3,3,0.5c1.5,0.3,3,0.6,4.4,0.9
				c3.4,0.8,6.8,1.8,10.1,3c1,0.4,3.4,0.8,4.2,1.6c-3.1-1.3-3.5-1.5-1.2-0.5c0.9,0.4,1.8,0.9,2.7,1.3c2.9,1.5,5.8,3.1,8.5,4.9
				c1.5,0.9,2.9,2,4.4,3c4.3,2.9-3.7-3.2,0.2,0.2c2.7,2.3,5.3,4.6,7.8,7.1c1.1,1.1,2.1,2.2,3.1,3.3c1.2,1.3,4.2,6.5,1.3,1.3
				c1.7,3,4.1,5.8,5.9,8.8c4.9,8.2,16,13.4,25.4,10.3c9.6-3.1,16.3-11.4,16.5-21.7c0.2-7.3,0.3-14.7,0.5-22
				c-11.3,6.5-22.6,13-33.9,19.4c3.5,1.7,7,3.5,10.2,5.6c0.5,0.3,4.9,2.9,4.8,3.3c-2.6-2.1-3-2.3-1.1-0.8c0.4,0.3,0.7,0.6,1.1,0.9
				c3,2.5,5.8,5.2,8.4,8.1c0.4,0.4,4,4,3.8,4.4c-2-2.6-2.3-3-0.8-1.1c0.4,0.6,0.9,1.2,1.3,1.8c2.1,3,4,6.1,5.8,9.3
				c0.9,1.7,1.7,3.5,2.6,5.2c2,4.1-1.8-4.7,0.3,0.7c1.3,3.4,2.4,6.9,3.2,10.4c0.5,1.9,0.8,3.8,1.2,5.7c0.4,2.5,0.3,1.9-0.2-1.6
				c0.1,1,0.2,1.9,0.3,2.9c14-3.8,28-7.6,41.9-11.4c-0.6-1.1-1.1-2.2-1.7-3.3c-1.4-2.4,1.7,5.2,0.3,0.6c-0.7-2.1-1.3-4.2-1.8-6.4
				c-0.4-2,0.2-4.3,0,0.9c0-1-0.2-2-0.3-2.9c-0.1-2.5,0-4.9,0.1-7.4c0.1-3.1,0.1,0.5-0.3,1.6c0.4-1.1,0.4-2.5,0.7-3.6
				c0.5-2.2,1.2-4.3,1.9-6.4c1.5-4.6-1.6,3-0.3,0.6c0.6-1.1,1.1-2.2,1.7-3.3c0.9-1.6,5.5-7.6,1.5-2.7c-12.5-3.3-25.1-6.6-37.6-9.9
				c5.4,30,10.8,60.1,16.1,90.1c5.2-9.2,10.5-18.5,15.7-27.7c-4.6,1.4-9.3,2.8-14,3.8c-0.8,0.2-2.8,0.9-3.6,0.7
				c2.7-0.3,3.2-0.4,1.5-0.3c-0.6,0.1-1.2,0.1-1.8,0.1c-1.2,0.1-2.3,0.1-3.5,0.1c-0.8,0-4.2-0.5-0.8,0.1c3.5,0.6-0.1-0.1-0.8-0.2
				c-1-0.2-2-0.5-2.9-0.8c-0.6-0.2-4-1.3-0.8-0.2c3.1,1,0-0.3-0.6-0.6c-2.3-0.9,2.6,2.7,1,0.9c-0.5-0.6-2.4-3-0.8-0.5
				c1.7,2.7-0.2-0.4-0.5-1c-0.3-0.5-0.5-0.9-0.8-1.4c-0.7-1.5-0.5-0.9,0.6,1.7c0.4-0.9-1.7-5.1-2-6.2c-0.7-2.3-1.3-4.6-1.9-7
				c-1.4-5.1-2.7-10.3-4.1-15.4c-2.9-10.9-5.8-21.8-8.7-32.7c-3-11.4-16.2-19.4-27.7-15.7C478.8,241.7,471.5,253.4,474.8,265.6
				L474.8,265.6z"/>
		</g>
	</g>
	<g>
		<g>
			<path class="st0" d="M300.5,239.1c-1.4,4.8-2.8,9.7-4.2,14.5c-2,6.9-0.3,14.1,4,19.6c4.5,5.8,10.4,8.4,17.7,8.9
				c13,0.8,26.4-7.1,32.6-18.4c-13.7-5.8-27.4-11.6-41.1-17.3c-0.3,1-0.6,1.9-0.9,2.9c-3.3,11.3,4,25,15.7,27.7
				c12,2.7,24.2-3.6,27.7-15.7c0.3-1,0.6-1.9,0.9-2.9c3.1-10.8-2.9-22.3-13-26.5c-10-4.2-22.7-0.7-28.1,9.2
				c-0.4,0.8-0.8,1.4-1.4,2.1c1.2-1.5,2.3-3,3.5-4.6c-0.7,0.9-1.5,1.6-2.4,2.3c1.5-1.2,3-2.3,4.6-3.5c-0.9,0.7-1.9,1.2-2.9,1.7
				c1.8-0.8,3.6-1.5,5.4-2.3c-1.3,0.5-2.6,0.9-4,1.1c2-0.3,4-0.5,6-0.8c-0.9,0.1-1.7,0.1-2.5,0c7.2,9.5,14.5,19,21.7,28.5
				c1.4-4.8,2.8-9.7,4.2-14.5c3.3-11.3-4-25-15.7-27.7C316.1,220.6,304,227,300.5,239.1L300.5,239.1z"/>
		</g>
	</g>
	<g>
		<g>
			<path class="st0" d="M256.9,202.4c1.5,12.6,1.8,25.4,0.7,38c-0.1,1.5-0.3,3.1-0.4,4.6c-0.1,0.6-0.1,1.2-0.2,1.8
				c-0.3,2.2-0.3,2.5-0.1,0.7c0.2-1.5,0.2-1.5,0-0.2c-0.1,0.9-0.3,1.8-0.4,2.8c-0.3,1.5-0.5,3.1-0.8,4.6c-1.2,6.4-2.8,12.7-4.7,18.9
				c14.5,4,28.9,8,43.4,12c6-22.9,5.2-48-2.9-70.3c-8.7-24.2-23.6-44-44.3-59.3c1.5,11.8,3,23.6,4.6,35.3c1-1,2-2.1,3-3
				c3.9-3.6,0.5,0.3-0.2-0.1c0.3,0.2,6.5-4.2,7.2-4.6c0.4-0.2,3.8-1.5,3.8-1.9c-3,1.2-3.7,1.5-2.1,0.9c0.7-0.3,1.3-0.5,2-0.7
				c2.7-0.9,5.5-1.6,8.3-2.2c4.9-1.1-5.3,0.4-0.3,0c1.4-0.1,2.8-0.2,4.3-0.3c2.9-0.1,5.7,0.3,8.5,0.4c-5.9,0-2.3-0.3-0.4,0.1
				c1.4,0.3,2.8,0.7,4.1,1.1c1.2,0.4,2.8,1.2,4,1.4c-2.9-1.3-3.6-1.6-2.1-0.9c0.7,0.3,1.3,0.6,2,1c1.3,0.7,2.6,1.4,3.9,2.2
				c0.4,0.3,0.8,0.5,1.3,0.8c2,1.4,1.6,1.1-1-0.8c0.6-0.1,6.5,5.7,6.3,6.3c-0.6-0.7-1.2-1.5-1.7-2.2c0.6,0.8,1.1,1.6,1.6,2.5
				c0.2,0.4,0.5,0.8,0.7,1.3c1.1,2.2,0.9,1.7-0.5-1.4c0.1,0,1.2,4,1.3,4.2c1.3,4,0.3-4.5-0.1-0.3c0,0.4,0,0.9,0,1.3
				c-0.2,2.4-0.1,1.8,0.3-2c-0.3,0.3-1.1,3.8-1.1,3.9c-0.4-0.7,2.5-5,0.3-1.1c-0.4,0.7-2.5,5-0.9,1.6c1.6-3.1-0.8,0.2-1.4,1.1
				c-1.3,1.1-0.6,0.6,2-1.5c-0.5,0.4-1.1,0.7-1.7,1c-1.8,0.9,5.4-1.2,0.6-0.4c-1.7,0.4-0.8,0.3,2.8-0.3c-0.9,0.1-1.8,0.1-2.6,0
				c7.2,9.5,14.5,19,21.7,28.5c5.3-16.7,2.6-34.5-5-50c-7.7-15.6-21.6-26.6-37.6-32.5c-11.1-4-25.1,4.5-27.7,15.7
				c-2.9,12.7,3.9,23.4,15.7,27.7c4.4,1.6-4.5-2.6-0.5-0.2c1.1,0.7,2.3,1.2,3.4,2c0.7,0.5,4.1,2.6,0.9,0.5c-3.1-2,0,0.2,0.7,0.8
				c1,0.9,1.8,1.9,2.7,2.8c3.2,3.2-2.7-4.2-0.2-0.4c1.3,2.1,2.5,4.1,3.7,6.3c2,3.7-0.7,0-0.4-1.1c-0.1,0.5,1.1,3.2,1.2,3.8
				c0.4,1.3,0.6,2.6,0.9,3.9c0.9,3.9-0.1-4.2-0.2-1.4c0,1.8-0.6,5.6,0,7.2c0.5-3.6,0.7-4.5,0.4-2.7c-0.1,0.7-0.2,1.3-0.4,1.9
				c-0.3,1.3-0.7,2.6-1.1,3.8c-4.6,14.3,7.6,28.1,21.7,28.5c22.1,0.5,41.7-17.3,45.5-38.7c4.2-23.3-8-44.2-26.7-57.5
				c-31.1-22-77.5-15.1-103.2,12.1c-5,5.3-7.2,11.7-6.2,18.9c1,7.4,4.8,12.1,10.7,16.4c3.3,2.4-2.6-2.3-0.5-0.4
				c0.9,0.8,1.9,1.5,2.8,2.3c1.6,1.4,3.2,2.9,4.7,4.5c1.5,1.5,3,3.1,4.4,4.8c0.3,0.3,3.2,4.1,1,1.1c-2.1-2.9,0.4,0.6,0.8,1.2
				c2.7,3.7,5,7.7,7.2,11.7c1,1.9,1.7,4.1,2.8,5.9c-1.1-1.7-1.6-3.9-0.3-0.7c0.4,1.1,0.9,2.3,1.2,3.4c1.4,4.1,2.6,8.3,3.5,12.6
				c0.2,1.2,0.5,2.4,0.7,3.6c0.6,3.6-0.1,1.1-0.1-1c0,2.1,0.4,4.3,0.6,6.5c0.2,4.6,0.2,9.1-0.2,13.7c-0.1,0.8-0.6,5.2-0.1,1.3
				c0.5-4-0.2,0.8-0.3,1.3c-0.4,2.4-1,4.7-1.6,7.1c-3,11.4,3.8,25,15.7,27.7c12.1,2.8,24.1-3.6,27.7-15.7c8-26.8,10.8-55.4,7.6-83.2
				c-0.7-6.2-2-11.4-6.6-15.9c-3.9-3.9-10.3-6.8-15.9-6.6C268.4,180.4,255.5,189.9,256.9,202.4L256.9,202.4z"/>
		</g>
	</g>
	<g>
		<g>
			<path class="st0" d="M287.9,277.7c-3.2,35.8-6.7,71.5-9.4,107.3c-2.4,31.7-1.5,66.7,17.7,93.6c6.8,9.5,19.9,15.1,30.8,8.1
				c9.5-6.1,15.4-20.6,8.1-30.8c-2.1-3-4.1-6.1-5.8-9.4c-0.6-1.2-1.7-2.8-2-4.2c1.2,3,1.4,3.3,0.5,1c-0.4-1-0.7-2-1-2.9
				c-1-3-1.8-6-2.4-9.1c-0.4-1.8-0.7-3.6-1-5.4c-0.3-1.7-0.2-1,0.2,2c-0.1-1.1-0.3-2.1-0.4-3.2c-1.4-14.3-0.7-28.7,0.5-43
				c2.8-34.7,6.1-69.4,9.2-104.1c1-11.8-11.1-23-22.5-22.5C297.3,255.8,289,265.1,287.9,277.7L287.9,277.7z"/>
		</g>
	</g>
	<g>
		<g>
			<path class="st0" d="M274.6,283.6c-27.2,32.1-39.3,74.4-35.1,116.2c4.3,42.9,22.6,87.8,57.2,115c21.5,16.9,48.2,27.8,76,25.5
				c11.7-1,23.1-9.6,22.5-22.5c-0.5-11.3-9.9-23.6-22.5-22.5c-4.4,0.4-8.7,0.3-13.2,0.1c-4.2-0.2,0.5,0.3,1.1,0.2
				c-1.3,0.1-2.8-0.5-4.1-0.7c-2.4-0.5-4.8-1.1-7.2-1.8c-2.1-0.6-4.2-1.4-6.3-2.1c-4.4-1.5,0.8,0.2,0.8,0.4c0,0-2.6-1.2-3-1.4
				c-4.5-2.2-8.8-4.7-12.9-7.6c-0.8-0.6-1.9-1.2-2.7-1.9c3.5,3.4,1.6,1.2,0.7,0.4c-1.7-1.4-3.3-2.9-4.9-4.4
				c-3.6-3.4-6.9-7.1-10.1-10.9c-2.2-2.6,0.2,0.7,0.5,0.7c-0.2,0-1.7-2.3-2-2.7c-1.3-1.8-2.5-3.6-3.7-5.5c-2.7-4.2-5.2-8.5-7.5-12.9
				c-1-2-2-4-2.9-6c-0.5-1-0.9-2-1.4-3c-0.7-1.5-0.7-3.4,0.5,1.2c-1.1-4.3-3.2-8.5-4.5-12.7c-2.5-8.2-3.9-16.6-5.6-25
				c0.1,0.5,0.6,5.5,0.2,1.5c-0.1-1-0.2-2-0.3-3c-0.2-2-0.3-4-0.4-6c-0.2-4.3-0.3-8.5-0.1-12.8c0.1-4.2,0.5-8.5,0.9-12.7
				c0.4-3.4,0.4,1.3-0.2,1.5c0.1-0.1,0.5-3.1,0.5-2.9c0.4-2.2,0.8-4.4,1.3-6.6c1-4.6,2.2-9.1,3.7-13.6c0.8-2.3,1.6-4.6,2.5-6.9
				c1.2-3.2-0.7,1.1-0.6,1.3c-0.2-0.2,1.4-3.1,1.5-3.3c2-4.2,4.3-8.3,6.8-12.3c1.3-2.1,2.7-4.1,4.2-6.1c1.5-2.2-0.4-1.1-0.8,1
				c0.2-1.1,2.2-2.7,2.9-3.5c7.6-9,9.5-23.1,0-31.8C298,275.9,282.7,274,274.6,283.6L274.6,283.6z"/>
		</g>
	</g>
	<g>
		<g>
			<path class="st0" d="M306.7,492.5c24.3,16.9,52.8,26.1,82.1,29.1c29.5,3,58.8-2.6,85.9-14.2c4.8-2.1,9-8.7,10.3-13.4
				c1.5-5.4,0.8-12.6-2.3-17.3c-3.1-4.8-7.7-9-13.4-10.3c-6.3-1.4-11.5-0.2-17.3,2.3c5.5-2.3,0.8-0.4-0.5,0.1
				c-1.5,0.6-2.9,1.1-4.4,1.6c-3,1-6,1.9-9,2.8c-2.8,0.8-5.6,1.4-8.4,2c-1.8,0.4-6.7,2.2-8.5,1.5c3.4-0.4,3.8-0.5,1.3-0.2
				c-0.5,0.1-1,0.1-1.6,0.2c-1.6,0.2-3.1,0.3-4.7,0.4c-3.1,0.2-6.3,0.4-9.4,0.4c-6,0.1-12.1-0.2-18.1-0.8c-1.2-0.1-2.7,0-3.9-0.4
				c5.5,1.9,1.5,0.2-0.2-0.1c-3.1-0.5-6.2-1.1-9.2-1.9c-5.9-1.4-11.7-3.1-17.3-5.1c-1.2-0.4-2.5-0.9-3.7-1.4c-1-0.4-1.9-0.8-2.9-1.2
				c0.8,0.3,1.7,0.7,2.5,1c-2.5-0.2-6.2-2.9-8.5-4.1c-5.6-2.9-10.9-6.2-16.1-9.8c-9.7-6.7-25.4-2.1-30.8,8.1
				C292.5,473.2,296.3,485.3,306.7,492.5L306.7,492.5z"/>
		</g>
	</g>
	<g>
		<g>
			<path class="st0" d="M358.7,549.7c73.1,12.6,146.8,13,220,1.4c11.7-1.8,19.2-17,15.7-27.7c-4.1-12.7-15.2-17.7-27.7-15.7
				c-4.5,0.7-8.9,1.5-13.4,2c5.4-0.6-1,0.1-1.7,0.2c-2.2,0.3-4.5,0.5-6.7,0.8c-8.7,1-17.3,1.8-26,2.4c-16.7,1.2-33.5,1.8-50.3,1.7
				c-16.8-0.1-33.5-0.9-50.2-2.3c-8.4-0.7-16.7-1.6-25-2.7c-1.3-0.2-2.6-0.3-3.8-0.5c2.8,0.4,2.9,0.4,0.2,0
				c-1.9-0.3-3.8-0.6-5.7-0.8c-4.5-0.7-8.9-1.4-13.4-2.2c-11.6-2-24.8,3.1-27.7,15.7C340.5,533,346.3,547.6,358.7,549.7L358.7,549.7
				z"/>
		</g>
	</g>
	<g>
		<g>
			<path class="st0" d="M426.3,531.7c60,10.9,121.3,9.4,180.5-5.2c11.4-2.8,19.4-16.3,15.7-27.7c-3.8-11.9-15.4-18.7-27.7-15.7
				c-13.2,3.2-27.2,6.9-40.7,7.9c5.6-0.4-0.7,0.1-1.5,0.2c-1.6,0.2-3.1,0.4-4.7,0.5c-3.4,0.4-6.9,0.7-10.3,1
				c-6.9,0.6-13.8,1-20.7,1.2c-13.8,0.4-27.7,0.1-41.5-0.9c-6.6-0.5-13.2-1.1-19.7-1.9c-2.3-0.3-3.8-0.4-0.6-0.1
				c-1.9-0.2-3.7-0.5-5.6-0.8c-3.7-0.6-7.5-1.2-11.2-1.9c-11.5-2.1-24.8,3.1-27.7,15.7C408.1,515,414,529.4,426.3,531.7L426.3,531.7
				z"/>
		</g>
	</g>
	<g>
		<g>
			<path class="st0" d="M473.1,510.7c57.3,19.4,122.5,17.7,178.3-5.7c5.7-2.4,10.2-4.8,13.4-10.3c2.8-4.8,4-11.9,2.3-17.3
				c-4.1-12.7-15.2-17.7-27.7-15.7c-17.2,2.7-34.5,5.4-51.7,8c-11,1.7-17.5,14.7-16.1,24.7c1.5,10.9,10.8,19.6,22.1,19.5
				c33.6-0.2,64.7-17.8,82.8-45.9c-6.5,3.7-13,7.4-19.4,11.1c12.3,0.6,24.7,1.2,37,1.8c11.8,0.6,23-10.8,22.5-22.5
				c-0.6-12.7-9.9-21.9-22.5-22.5c-11-0.6-22.1-1.1-33.1-1.7c-6.4-0.3-12.3,0.6-17.5,4.6c-3.3,2.5-5.7,5.9-7.9,9.4
				c-1.4,2.3,3-3.5,0.3-0.4c-0.7,0.8-1.3,1.5-2,2.3c-1.5,1.7-3.1,3.3-4.8,4.8c-0.7,0.7-1.5,1.3-2.3,2c-0.5,0.4-3.2,2.6-0.7,0.6
				c2.6-2-0.2,0.1-0.8,0.5c-1,0.7-2.1,1.4-3.1,2.1c-1.7,1.1-3.5,2.1-5.2,3c-0.9,0.5-1.8,0.9-2.7,1.3c-4.5,2.3,3.3-1.1,0.5-0.2
				c-4.1,1.4-8,2.8-12.3,3.7c-0.9,0.2-2.2,0.2-3,0.6c0.9-0.5,4.7-0.5,1.5-0.2c-2.5,0.2-5,0.4-7.5,0.4c2,14.7,4,29.5,6,44.2
				c17.2-2.7,34.5-5.4,51.7-8c-4-14.5-8-28.9-12-43.4c-13,5.4-26.3,9.7-40.1,12.7c-3.4,0.8-6.9,1.4-10.3,2c-1.7,0.3-3.5,0.6-5.2,0.8
				c-4.4,0.7,2.8-0.3-0.1,0c-7,0.7-14,1.4-21,1.6c-6.7,0.2-13.5,0.2-20.2-0.2c-3.5-0.2-7-0.4-10.5-0.8c-1.7-0.2-3.5-0.4-5.2-0.6
				c-5.9-0.6,4.9,0.8-1-0.1c-13.9-2.2-27.5-5.4-40.8-9.9c-11.2-3.8-25.1,4.3-27.7,15.7C454.5,495.5,461.1,506.6,473.1,510.7
				L473.1,510.7z"/>
		</g>
	</g>
	<g>
		<g>
			<path class="st0" d="M682.1,443.1c-8.3,10.4-17.6,20-27.7,28.7c-1.2,1-2.3,2-3.5,2.9c-0.5,0.4-5.2,4.2-2.5,2c2.6-2-1.4,1-2,1.5
				c-1.4,1.1-2.9,2.1-4.4,3.1c-5.5,3.8-11.1,7.3-16.9,10.6c-5.8,3.3-11.8,6.3-17.8,9c-0.9,0.4-2,0.7-2.8,1.2c0,0,4.2-1.7,1.8-0.8
				c-1.4,0.6-2.9,1.2-4.3,1.7c-3.1,1.2-6.2,2.3-9.4,3.4c-6.6,2.2-13.2,4.1-20,5.6c-3,0.7-6,1.3-9,1.9c-1.5,0.3-3,0.5-4.5,0.8
				c-0.8,0.1-1.5,0.2-2.3,0.4c-0.8,0.1-5.3,0.8-1.6,0.2c3.3-0.5,0.6-0.1-0.1,0c-1,0.1-2,0.2-3.1,0.3c-1.8,0.2-3.6,0.3-5.4,0.5
				c-3.8,0.3-7.7,0.5-11.5,0.6c-7.7,0.2-15.4-0.2-23-0.8c-11.8-1.1-23,11.1-22.5,22.5c0.6,13.1,9.9,21.4,22.5,22.5
				c60.5,5.5,120.9-15.1,168.2-52.4c12.5-9.9,23.7-21.1,33.6-33.5c3.9-4.8,6.6-9.5,6.6-15.9c0-5.5-2.5-12.1-6.6-15.9
				C705.7,435.6,689.9,433.2,682.1,443.1L682.1,443.1z"/>
		</g>
	</g>
	<g>
		<g>
			<path class="st0" d="M515.2,563.3c29.5-4.5,59-9.1,88.5-13.6c-8.5-11-16.9-22-25.4-33.1c-0.3,0.6-0.7,1.2-1.1,1.7
				c-1,1.4-0.5,0.8,1.4-1.9c-0.4,0.2-1.7,1.5-1.9,1.9c2.7-1.9,3.3-2.4,1.9-1.4c-0.5,0.4-1.1,0.8-1.7,1.1c-0.7,0.4-4.4,2.2-1,0.6
				c3.4-1.6-0.5,0-1.2,0.1c-3.8,1.2,4,0,1.3-0.1c-0.5,0-3-0.3-3.4,0c0.9-0.8,5.7,1.2,0.7-0.1c-2,14.7-4,29.5-6,44.2
				c66.3,0.8,132.2-39.4,160.4-99.7c5-10.6,3.3-24.8-8.1-30.8c-10-5.3-25.5-3.3-30.8,8.1c-3.1,6.7-6.7,13.2-10.8,19.3
				c-0.8,1.2-1.7,2.4-2.5,3.6c-0.6,0.8-1.1,1.6-1.7,2.4c-1.4,1.9-1.2,1.6,0.8-1c-0.6,2.4-5,6.1-6.7,7.9c-4.6,5.1-9.6,9.9-14.8,14.4
				c-1.1,0.9-3.2,3.4-4.6,3.7c2.4-1.9,3-2.3,1.6-1.3c-0.6,0.4-1.2,0.9-1.8,1.3c-3,2.2-6,4.3-9.2,6.2c-6,3.8-12.4,7.2-18.9,10.2
				c-0.7,0.3-1.3,0.6-2,0.9c-1.6,0.7-0.9,0.4,2-0.8c-0.4,0.8-4.6,1.8-5.5,2.1c-3.2,1.2-6.5,2.3-9.8,3.2c-6.6,2-13.5,2.8-20.1,4.5
				c6.6-1.6,0.4-0.1-1.3,0.1c-1.5,0.1-2.9,0.3-4.4,0.4c-3.9,0.3-7.9,0.3-11.8,0.3c-11.2-0.1-20.6,8.7-22.1,19.5
				c-1.5,10.9,5.2,21.8,16.1,24.7c21.4,5.7,44.2-3.6,55.6-22.6c4.7-7.8,3.7-18-1.8-25c-5.9-7.7-14.4-9.5-23.7-8.1
				c-29.5,4.5-59,9.1-88.5,13.6c-11.7,1.8-19.2,17-15.7,27.7C491.6,560.3,502.7,565.3,515.2,563.3L515.2,563.3z"/>
		</g>
	</g>
	<g>
		<g>
			<path class="st0" d="M594,205.4c-2.6,1.3-5.2,2.7-7.8,4c9.1,11.8,18.2,23.6,27.3,35.3c12.5-10.4,25.1-20.8,37.6-31.2
				c6.1-5.1,12.2-10.2,18.3-15.2c1.3-1.1,2.7-2.2,4-3.2c0.6-0.5,1.3-1.3,2-1.6c-0.1,0.1-3.2,2.4-1.2,0.9c3-2.2,6-4.4,9.1-6.4
				c2.9-1.8,5.8-3.5,8.8-5c0.8-0.4,1.5-0.7,2.3-1.1c2.4-1.2-1.5,0.7-1.5,0.6c0-0.4,5-1.7,5.5-1.8c1.4-0.4,3.4-0.5,4.7-1.1
				c0.1,0-5,0.5-2.5,0.3c0.7,0,1.4-0.1,2.1-0.2c1.4-0.1,2.8-0.1,4.2-0.1c1,0,6.4,0.5,2.5,0c-3.8-0.5,0.8,0.3,1.7,0.5
				c1.3,0.3,2.6,0.8,3.9,1.2c2.2,0.6-2.2-1-2.2-1c0.5,0.4,1.3,0.6,1.8,0.9c1.3,0.7,2.6,1.9,4,2.5c-0.1-0.1-3.4-3.1-2-1.4
				c0.4,0.5,1,0.9,1.5,1.4c0.5,0.5,0.9,1,1.4,1.5c1.6,1.6-1.4-1.5-1.3-1.6c0,0.1,1.1,2,1.2,2.1c1.5,2-0.9-1.3-0.6-1.7
				c0.3-0.3,1.5,7.6,1.2,3.3c-0.2-4-0.1,3.5-0.1,3.5c-0.2-0.1,1-4.3,0.3-2c-0.3,1-0.5,2-0.8,3c-0.1,0.3-0.8,1.9-0.7,2.2
				c-0.3-0.6,2-4.2,0.5-1.1c-0.8,1.6-1.6,3.3-2.5,4.9c-4.4,8-8.8,15.7-11.8,24.3c14.5,0,28.9,0,43.4,0c-2.5-11.4-7.6-22.5-14.6-31.9
				c-9.3-12.3-21.6-24.2-38.1-24.4c-19.5-0.2-35.3,16-32.7,35.6c2.4,18,17,27.5,33,32.7c11.2,3.6,25.1-4.2,27.7-15.7
				c2.8-12.3-3.7-23.8-15.7-27.7c-0.4-0.1-4.3-1.7-4.6-1.6c2.6,1.2,3.2,1.4,1.7,0.6c-0.7-0.4-1.4-0.7-2.1-1.2c0.9-0.7,4.8,6,3.3,3.2
				c-0.9-1.5-0.6-0.8,0.8,2c0.1,1.1,0.3,2.1,0.4,3.2c0.1,8.8-7.6,15.1-15.8,13.2c3.9,0.9-2.6-1.9-0.6-0.4c4,3.1-1.2-1.5,0.2,0
				c0.5,0.5,6.2,6.2,6.1,6.3c-0.5-0.7-1-1.3-1.5-2c0.7,0.9,1.3,1.8,1.9,2.7c0.8,1.1,1.5,2.3,2.2,3.5c0.7,1.2,1.3,2.4,1.9,3.6
				c2.6,4.7-1.4-4.4,0.4,0.6c1.1,3.1,2,6.2,2.7,9.4c2,9.2,12.3,16.9,21.7,16.5c10.4-0.5,18.3-6.8,21.7-16.5c0.7-2,1.6-1.7-0.6,1
				c0.4-0.5,0.7-1.5,1-2.1c0.8-1.7,1.7-3.3,2.6-4.9c1.9-3.4,4-6.8,5.8-10.3c4.8-9.3,8.4-19.6,8-30.3c-1-23-15.2-40.7-36.1-49
				c-15.4-6.1-34.3-5.1-49.6,1c-18.3,7.4-33.1,19.4-48.2,32c-16.6,13.7-33.1,27.4-49.7,41.2c-8.6,7.1-8,21.4-1.8,29.5
				c7,9.1,18.9,11,29,5.8c2.6-1.3,5.2-2.7,7.8-4c10.5-5.4,14.4-21,8.1-30.8C617.8,202.8,605.2,199.7,594,205.4L594,205.4z"/>
		</g>
	</g>
	<g>
		<g>
			<path class="st0" d="M652.3,193.7c-17.5,3.7-35.1,7.5-52.6,11.2c4,14.5,8,28.9,12,43.4c11.4-3.3,22.7-6.5,34.1-9.8
				c11.3-3.2,19.5-16,15.7-27.7c-3.7-11.5-15.6-19.2-27.7-15.7c-11.4,3.3-22.7,6.5-34.1,9.8c-11.3,3.2-19.5,16-15.7,27.7
				c3.9,12.2,15.3,18.3,27.7,15.7c17.5-3.7,35.1-7.5,52.6-11.2c11.5-2.5,19.3-16.6,15.7-27.7C676,197.2,664.6,191.1,652.3,193.7
				L652.3,193.7z"/>
		</g>
	</g>
	<g>
		<g>
			<path class="st0" d="M662.8,227.6c1.4,10.6,10.4,16.9,18.7,22.2c8.7,5.6,14.1,13.1,19.1,22c11.6,20.5,22.8,41.2,34.1,61.8
				c4.7,8.5,17.6,0.9,13-7.6c-11.1-20.1-22.2-40.3-33.4-60.4c-4.6-8.2-9.6-16.5-16.8-22.7c-6.7-5.7-19-9.5-20.3-19.3
				c-0.5-4-5.7-6.2-9.2-5.2C663.7,219.6,662.2,223.6,662.8,227.6L662.8,227.6z"/>
		</g>
	</g>
	<g>
		<g>
			<path class="st0" d="M733.2,383.9c-4.7,20.2-13.2,39-25.3,55.9c-4.8,6.6,4.2,13.2,10.3,10.3c15-7.3,24.3-21.9,26.3-38.2
				c1-8.6-12.4-9.8-14.7-2c-4.6,15.3-9.2,30.6-13.8,45.9c-2.8,9.3,11.7,13.2,14.5,4c4.6-15.3,9.2-30.6,13.8-45.9
				c-4.9-0.7-9.8-1.3-14.7-2c-1.3,11.2-8.9,20.4-18.9,25.2c3.4,3.4,6.8,6.8,10.3,10.3c12.8-17.8,21.9-38.1,26.8-59.4
				C749.9,378.5,735.4,374.4,733.2,383.9L733.2,383.9z"/>
		</g>
	</g>
	<g>
		<g>
			<path class="st0" d="M179.3,667.7c0.2,13.4,11.4,23.2,24.6,21.8c11.9-1.3,28.3-6.7,32-19.5c3.6-12.2-7-22.5-19-22.4
				c-6.3,0.1-12.2,2.8-17.4,6.2c-5,3.2-10.2,8-16.4,8.3c-8.9,0.5-9.6,11.6-2,14.7c7.9,3.3,16.8,4.6,25.4,4.8
				c8.3,0.2,17.2-2.5,20.2-11c2.5-7.1-0.8-15.3-8.6-16.9c-7.2-1.5-14.3,3.5-14.4,11.1c-0.2,9.7,14.8,9.7,15,0
				c-0.3,2.5-1.3,3.7-3,3.5c-1.5,0.2-2.5-0.8-3-2.9c-0.1,0-0.6,0.7-1,0.7c-2.8,0.1-5.6,0.5-8.5,0.3c-6.2-0.5-12.3-1.7-18.1-4.1
				c-0.7,4.9-1.3,9.8-2,14.7c8.2-0.5,14.6-4.1,21.2-8.6c3.2-2.1,12.9-9.6,16.8-4.5c3.3,4.3-9.1,8-11.5,8.8
				c-5.8,1.8-15.4,3.9-15.6-5.1C194.2,658,179.2,658,179.3,667.7L179.3,667.7z"/>
		</g>
	</g>
	<g>
		<g>
			<path class="st0" d="M801.2,683.5c6,7.5,18.4,12.9,24.9,2.6c6.1-9.8-1.5-18.9-9.1-24.6c-2.4-1.8-7.2-1.2-9.1,1.2
				c-1.7,2-3.4,4.1-5,6.1c-5,6.1,1.5,16.9,9.1,11.8c10.2-6.8,18.4-16.1,23.2-27.5c2.4-5.8-1.6-12.8-8.5-11
				c-10,2.6-14.3,14.2-9.7,23.1c5.3,10.3,17.1,12.1,27.5,12.4c9.7,0.3,9.6-14.7,0-15c-4-0.1-8.8,0.1-12.3-2.3
				c-1.3-0.9-1.9-1.7-2.3-3.1c-0.2-0.9,0.7-0.7,0.6-0.7c-2.8-3.7-5.6-7.3-8.5-11c-3.8,9-9.7,16.7-17.9,22.1c3,3.9,6.1,7.9,9.1,11.8
				c1.7-2,3.4-4.1,5-6.1c-3,0.4-6.1,0.8-9.1,1.2c0.9,0.7,2.2,1.6,2.9,2.5c-0.2-0.3,1.3,2.1,0.9,1.9c1-0.6,1.9-1.2,2.9-1.8
				c-0.5-0.2-1-0.5-1.4-0.9c-0.7-1.1-2.1-2.2-2.9-3.2c-2.5-3.2-7.9-2.6-10.6,0C798,676,798.7,680.3,801.2,683.5L801.2,683.5z"/>
		</g>
	</g>
	<g>
		<g>
			<path class="st0" d="M832.3,668.3c9.7,0,9.7-15,0-15C822.6,653.3,822.6,668.3,832.3,668.3L832.3,668.3z"/>
		</g>
	</g>
	<g>
		<g>
			<path class="st1" d="M350.5,565.7c21.2,5,42.4,10.1,63.7,15.1c9.4,2.2,13.4-12.2,4-14.5c-21.2-5-42.4-10.1-63.7-15.1
				C345.1,549,341.1,563.5,350.5,565.7L350.5,565.7z"/>
		</g>
	</g>
	<g>
		<g>
			<path class="st1" d="M363.8,573.3c4.6,18.5,21.5,31.7,40.4,32.5c9.7,0.4,9.6-14.6,0-15c-12.4-0.5-23-9.5-25.9-21.5
				C375.9,559.9,361.4,563.9,363.8,573.3L363.8,573.3z"/>
		</g>
	</g>
	<g>
		<g>
			<path class="st1" d="M330,568.3c19.8,24,44.1,48,73.6,59.4c15.4,6,32,7,48.2,4c16.9-3.1,32.7-10.5,48.2-17.7c8.8-4,1.1-17-7.6-13
				c-13.8,6.4-27.8,12.8-42.9,15.8c-14.6,3-29.8,1.5-43.5-4.3c-26.1-11-47.7-33.4-65.4-54.9C334.4,550.3,323.9,560.9,330,568.3
				L330,568.3z"/>
		</g>
	</g>
	<g>
		<g>
			<path class="st1" d="M488.5,608.1c1.2,28.1,2.4,56.2,3.5,84.3c0.4,9.6,15.4,9.7,15,0c-1.2-28.1-2.4-56.2-3.5-84.3
				C503.1,598.4,488.1,598.4,488.5,608.1L488.5,608.1z"/>
		</g>
	</g>
	<g>
		<g>
			<path class="st1" d="M507.1,617.9c17.6,8.3,35.2,16.1,54.7,18.1c19.5,2,39.2-1.8,56.9-9.9c16.5-7.6,30.7-19.5,44.3-31.5
				c15.6-13.6,31-27.4,46.5-41.1c7.2-6.4-3.4-17-10.6-10.6c-14.4,12.7-28.8,25.5-43.2,38.2c-12.4,11-25.1,21.9-39.9,29.7
				c-15.4,8.1-32.9,11.7-50.3,10.5c-18.1-1.2-34.7-8.8-50.9-16.4C506,600.9,498.3,613.8,507.1,617.9L507.1,617.9z"/>
		</g>
	</g>
	<g>
		<g>
			<path class="st1" d="M581.6,584.4c42.9-7.6,84.2-23.7,121-47.1c8.1-5.2,0.6-18.2-7.6-13c-35.8,22.8-75.6,38.2-117.4,45.6
				C568.1,571.6,572.1,586.1,581.6,584.4L581.6,584.4z"/>
		</g>
	</g>
	<g>
		<g>
			<path class="st1" d="M660,555.5c-20.9,15.1-41.7,30.2-62.6,45.4c-3.3,2.4-4.8,6.5-2.7,10.3c1.9,3.3,7,5.1,10.3,2.7
				c20.9-15.1,41.7-30.2,62.6-45.4c3.3-2.4,4.8-6.5,2.7-10.3C668.4,554.9,663.2,553.1,660,555.5L660,555.5z"/>
		</g>
	</g>
	<g>
		<g>
			<path class="st1" d="M414.6,589.7c-2.2,0.4-4.5,0.7-6.7,1.1c-1.7,0.3-3.6,2-4.5,3.4c-0.9,1.6-1.3,4-0.8,5.8
				c1.4,4.2,5.1,5.9,9.2,5.2c2.2-0.4,4.5-0.7,6.7-1.1c1.7-0.3,3.6-2,4.5-3.4c0.9-1.6,1.3-4,0.8-5.8
				C422.4,590.7,418.7,589,414.6,589.7L414.6,589.7z"/>
		</g>
	</g>
	<g>
		<g>
			<path class="st1" d="M304.7,568.6c-2.4,30.7-4.8,61.5-7.2,92.2c-0.8,9.6,14.3,9.6,15,0c2.4-30.7,4.8-61.5,7.2-92.2
				C320.4,559,305.4,559,304.7,568.6L304.7,568.6z"/>
		</g>
	</g>
	<g>
		<g>
			<path class="st1" d="M713.7,540.4c12.6,31.2,14.5,64.9,16.2,98.1c0.5,9.6,15.5,9.7,15,0c-1.7-34.5-3.7-69.8-16.8-102.1
				c-1.5-3.7-5-6.4-9.2-5.2C715.4,532.2,712.2,536.6,713.7,540.4L713.7,540.4z"/>
		</g>
	</g>
	<g>
		<g>
			<path class="st1" d="M317.3,646.9c54.8,26.6,113.9,43.1,174.5,48.7c9.6,0.9,9.5-14.1,0-15c-57.9-5.4-114.7-21.3-167-46.7
				C316.3,629.8,308.6,642.7,317.3,646.9L317.3,646.9z"/>
		</g>
	</g>
	<g>
		<g>
			<path class="st1" d="M511,698.9c57.6,6.7,116.5-3.2,169-27.5c15.1-7,29.5-15.2,43.2-24.5c7.9-5.4,0.4-18.4-7.6-13
				c-59.7,40.5-133,58.3-204.7,49.9c-4-0.5-7.5,3.8-7.5,7.5C503.5,695.9,507,698.5,511,698.9L511,698.9z"/>
		</g>
	</g>
	<g>
		<g>
			<path class="st1" d="M494.1,402c9.7,0,9.7-15,0-15C484.4,387,484.4,402,494.1,402L494.1,402z"/>
		</g>
	</g>
	<g>
		<g>
			<path class="st2" d="M496.6,378.4c-4.2,7-8.4,14-12.6,21.1c4.6,0.6,9.1,1.2,13.7,1.8c-1.5-5.4,2.5-11.7,8.2-12
				c7.3-0.4,10.4-10,3.8-14c-13.1-7.9-31.4-0.4-35.1,14.4c4.8,0,9.6,0,14.5,0c-0.5-1.8-1-3.6-1.5-5.5c-1.4-5-6.7-6.5-11-4.5
				c-17.7,8.3-28.7,28.3-26.1,47.7c2.6,19.3,18.3,35.8,37.5,39.2c6.6,1.2,11.4-4.9,8.5-11c-9-19.1-9-40.9-1.2-60.3
				c1.2-3-0.8-6.9-3.4-8.5c-3.1-1.8-6.4-0.9-9.1,1.2c-20.3,15.8-22.1,46.9-6.4,66.3c3.7,4.6,11,1.6,12.5-3.3
				c4.4-14.2,0.5-29.5-9.6-40.3c-3.1-3.3-9.8-2.9-11.8,1.5c-2.1,4.6-4.2,9.2-6.3,13.8c-3.3,7.3,5.5,15.7,11.8,9.1
				c10.1-10.6,20.3-21.3,30.4-31.9c-3.9-3-7.9-6.1-11.8-9.1c-5,11.2-10,22.3-15,33.5c-3.9,8.7,7.7,15.9,13,7.6
				c5.6-8.9,11.1-17.7,16.7-26.6c5.2-8.2,12.9-17.2,15.1-26.9c1.9-8.1-1.8-16.2-10.2-18.2c-7.8-1.8-14.8,2.9-15.4,10.9
				c-0.4,5.1,5.1,8.2,9.5,7.2c21.2-4.7,42.7-9.3,64.5-9c19.4,0.2,41.5,4.7,55.9,18.8c6.7,6.6,11.5,16.1,10.3,25.7
				c-0.9,7.6-5.7,14-11.7,18.5c-14.8,11.2-35.7,14.6-53.7,16.9c-25.5,3.3-51.5,2.3-76.7-2.8c-0.7,4.9-1.3,9.8-2,14.7
				c29.8-0.6,52.5-29.7,43.5-58.8c-1.9-6-6.3-11.7-5.4-18c0.2-0.4,0.5-0.8,0.8-1.1c-0.4,0.2-0.9,0.1-1.3-0.2c0,0,0.3,0.4,0.2,0.6
				c0.2-0.3,0.3,3.1,0.3,2.8c0,1.4-0.1,2.8-0.3,4.2c-2.2,17.1-5.1,34.1-7.7,51.1c-1.4,9.5,10.9,13.1,14.5,4
				c9.8-24.9,15-51.3,15.7-78.1c-5,0-10,0-15,0c2.1,28.8-1.1,57.4-9.6,84.9c4.8,1.3,9.6,2.7,14.5,4c6.4-28.5,12.8-56.9,19.2-85.4
				c-4.8,0-9.6,0-14.5,0c3.7,23.2,0.7,47.6-8.6,69.2c-1.6,3.8-1.1,8,2.7,10.3c3.2,1.9,8.5,1,10.3-2.7c4.7-9.8,9.3-19.7,14-29.5
				c-4.3,0-8.6,0-13,0c3.3,7.5,2.9,16.4-0.7,23.8c4.6,1.9,9.1,3.9,13.7,5.8c1-3.6,2-7.2,3-10.8c1.2-4.4-2.3-9.9-7.2-9.5
				c-10.5,0.9-17.6,8.1-18.9,18.5c-0.6,5.2,5.3,8.1,9.5,7.2c13.1-2.8,26.2-5.6,39.3-8.4c7.7-1.6,6.5-12.2,0-14.5
				c-8.1-2.8-16.1-5.6-24.2-8.3c-3.4-1.2-6.6,0.9-8.5,3.4c-7.9,10.6,0.1,25.2,11.2,29.4c13.1,4.9,29.4-1,41.5-6.4
				c11.8-5.2,22.3-13.8,27-26.1c4.5-11.8,2.9-25.3-5.9-34.7c-4.2-4.5-13.4-1.3-12.8,5.3c1.4,15.6-4.7,31.5-17.4,41.1
				c3.7,2.8,7.3,5.6,11,8.5c3.6-14.4,7.2-28.8,10.8-43.2c0.9-3.5,1.8-7,2.6-10.6c1-4.4,0.6-6.9-2.4-10.4c-3.8-4.3-8.5-8.1-13.6-10.8
				c-22.4-12.1-49.1-5.1-64.3,14.8c-3.7,4.9,1.5,11,6.5,11.3c12,0.7,22.4-4.9,34-6.4c4.3-0.5,9.7-0.6,13.1,2.4
				c2.5,2.2,4,5.6,2.1,8.5c4.6,0.6,9.1,1.2,13.7,1.8c-2.7-10.8-11.7-19.4-22.8-20.9c-11.2-1.5-22.1,4.3-27.7,13.9
				c-4.8,8.4,8.1,15.9,13,7.6c5.9-10.3,20.2-8,23,3.4c1.6,6.5,10.4,7,13.7,1.8c8.1-12.8-1.6-28.7-14.9-32.5
				c-16.4-4.8-31.2,6.3-47.4,5.4c2.2,3.8,4.3,7.5,6.5,11.3c14.1-18.4,41.1-16.9,55.3,0.2c-0.6-2.4-1.3-4.9-1.9-7.3
				c-4.6,18.6-9.2,37.1-13.9,55.7c-1.4,5.7,5.5,12.6,11,8.5c16.8-12.6,26.8-32.8,24.8-54c-4.3,1.8-8.5,3.5-12.8,5.3
				c4.8,5.1,4.8,12.6,2.5,18.8c-2.7,7.6-9.4,12.8-16.3,16.4c-7.4,3.9-16.4,6.9-24.8,7.9c-3.6,0.4-8.2,0.5-10.8-2.3
				c-1.9-1.9-2.3-4-0.8-6.1c-2.8,1.1-5.6,2.3-8.5,3.4c8.1,2.8,16.1,5.6,24.2,8.3c0-4.8,0-9.6,0-14.5c-13.1,2.8-26.2,5.6-39.3,8.4
				c3.2,2.4,6.3,4.8,9.5,7.2c0.2-1.7,2.3-3.3,3.9-3.5c-2.4-3.2-4.8-6.3-7.2-9.5c-1,3.6-2,7.2-3,10.8c-2.2,8,9.9,13.6,13.7,5.8
				c6.2-12.6,6.3-26.1,0.7-38.9c-2.2-5-10.7-4.8-13,0c-4.7,9.8-9.3,19.7-14,29.5c4.3,2.5,8.6,5,13,7.6c11-25.7,14.4-53.1,10.1-80.7
				c-1.2-7.4-12.9-6.9-14.5,0c-6.4,28.5-12.8,56.9-19.2,85.4c-2.1,9.4,11.6,13.2,14.5,4c8.9-28.7,12.4-58.9,10.2-88.9
				c-0.7-9.5-14.7-9.8-15,0c-0.7,25.5-5.9,50.4-15.2,74.1c4.8,1.3,9.6,2.7,14.5,4c1.5-9.7,2.9-19.5,4.4-29.2
				c1.4-9.2,3.3-18.5,4-27.7c0.5-6.6-1-14.4-6.9-18.2c-6.5-4.2-14.5-2.2-19.2,3.6c-5.2,6.5-4.9,14.5-2,21.9
				c3.1,7.8,6.4,14.4,5.4,23.1c-1.9,15.3-15,26.5-30.2,26.8c-8.2,0.2-10.6,13-2,14.7c25.9,5.2,52.5,6.6,78.8,3.5
				c21.8-2.6,46.2-6.5,64.2-20c18-13.5,23.2-36.2,11.9-56c-12-21-37.5-30.3-60.2-33.2c-27.9-3.5-56.2,2.5-83.4,8.6
				c3.2,2.4,6.3,4.8,9.5,7.2c-0.1,1.1-3,3.4-3.2,3.5c-0.2-0.2-0.4-0.4-0.6-0.6c-0.1,0.4-0.1,0.8-0.2,1.2c-0.5,0.8-0.8,2-1.2,2.9
				c-2.8,5.3-6.4,10.3-9.6,15.4c-6.4,10.2-12.9,20.5-19.3,30.7c4.3,2.5,8.6,5,13,7.6c5-11.2,10-22.3,15-33.5
				c3.3-7.3-5.5-15.7-11.8-9.1c-10.1,10.6-20.3,21.3-30.4,31.9c3.9,3,7.9,6.1,11.8,9.1c2.1-4.6,4.2-9.2,6.3-13.8
				c-3.9,0.5-7.9,1-11.8,1.5c6.6,7,8.5,16.6,5.7,25.7c4.2-1.1,8.4-2.2,12.5-3.3c-11-13.6-6.8-34.8,6.4-45.1
				c-4.2-2.4-8.4-4.9-12.5-7.3c-9.4,23.2-8,49.4,2.7,71.9c2.8-3.7,5.6-7.3,8.5-11c-13.4-2.4-25-12.9-26.8-26.8
				c-1.8-13.8,6.6-27,18.9-32.7c-3.7-1.5-7.3-3-11-4.5c0.5,1.8,1,3.6,1.5,5.5c1.9,7,12.7,7.3,14.5,0c1.4-5.6,8.1-8.5,13.1-5.5
				c1.3-4.7,2.5-9.3,3.8-14c-15.4,0.8-26.9,16-22.7,31c1.7,6.2,10.4,7.3,13.7,1.8c4.2-7,8.4-14,12.6-21.1
				C514.5,377.6,501.5,370.1,496.6,378.4L496.6,378.4z"/>
		</g>
	</g>
	<g>
		<g>
			<path class="st2" d="M515.7,469.5c2.4-9.7,12.8-15.3,22.3-12.3c9.2,2.9,13.2-11.5,4-14.5c-17-5.4-36.4,5.5-40.7,22.8
				C498.9,474.9,513.3,478.9,515.7,469.5L515.7,469.5z"/>
		</g>
	</g>
	<g>
		<g>
			<path class="st2" d="M461.9,404.3c-5.2,9-5.1,20.3,0.6,29.1c5.3,8,18.3,0.5,13-7.6c-2.9-4.4-3.3-9.3-0.6-13.9
				C479.7,403.5,466.7,395.9,461.9,404.3L461.9,404.3z"/>
		</g>
	</g>
	<g>
		<g>
			<path class="st2" d="M254,250.7c0,13.8,0,27.5,0.1,41.3c0,5.9,6.3,9.1,11.3,6.5c9.3-4.9,13-15.5,11.8-25.5
				c-1.4-11.5-9.8-20.9-10.9-32.3c-0.4-4-3.2-7.5-7.5-7.5c-3.7,0-7.9,3.4-7.5,7.5c1,9.6,5.3,17.3,8.8,26.1
				c2.3,5.9,4.8,15.1-2.3,18.8c3.8,2.2,7.5,4.3,11.3,6.5c0-13.8,0-27.5-0.1-41.3C269,241,254,241,254,250.7L254,250.7z"/>
		</g>
	</g>
	<g>
		<g>
			<path class="st2" d="M282.3,139.4c-2,38.9-4,77.9-6,116.8c-0.5,9.6,14.5,9.6,15,0c2-38.9,4-77.9,6-116.8
				C297.8,129.8,282.8,129.8,282.3,139.4L282.3,139.4z"/>
		</g>
	</g>
	<g>
		<g>
			<path class="st2" d="M686.3,140.6c-15,34.5-9.3,75.1,15.2,103.9c6.3,7.4,16.8-3.3,10.6-10.6c-19.6-23.1-25-57.8-12.8-85.7
				c1.6-3.7,1.1-8-2.7-10.3C693.4,136,687.9,136.9,686.3,140.6L686.3,140.6z"/>
		</g>
	</g>
	<g>
		<g>
			<path class="st2" d="M689.9,187.8c0,1.5,0,3,0,4.5c0,1.9,0.8,3.9,2.2,5.3c1.3,1.3,3.4,2.3,5.3,2.2c4.1-0.2,7.5-3.3,7.5-7.5
				c0-1.5,0-3,0-4.5c0-1.9-0.8-3.9-2.2-5.3c-1.3-1.3-3.4-2.3-5.3-2.2C693.4,180.4,689.9,183.6,689.9,187.8L689.9,187.8z"/>
		</g>
	</g>
	<g>
		<g>
			<path class="st2" d="M213.5,653.3c-2.5,12.6-9.7,23.2-20.9,29.7c-6.1,3.5-3.9,14.7,3.8,14c16.8-1.5,31-12.5,36.1-28.7
				c2.9-9.2-11.6-13.2-14.5-4c-3,9.4-11.6,16.8-21.6,17.7c1.3,4.7,2.5,9.3,3.8,14c14.3-8.4,24.6-22.5,27.8-38.7
				C229.8,647.9,215.4,643.9,213.5,653.3L213.5,653.3z"/>
		</g>
	</g>
	<g>
		<g>
			<path class="st2" d="M801.1,657.6c-3.6,14,4.1,27.8,17.4,33c5.2,2.1,11-4.1,9.2-9.2c-4.3-12.2-17.1-19.5-29.8-16
				c-9.3,2.6-5.4,17,4,14.5c4.4-1.2,9.7,0.9,11.3,5.5c3.1-3.1,6.2-6.2,9.2-9.2c-5.6-2.2-8.3-9-6.9-14.5
				C817.9,652.2,803.5,648.2,801.1,657.6L801.1,657.6z"/>
		</g>
	</g>
	<g>
		<g>
			<path class="st2" d="M257,305.8c-20.3,41.4-22.6,90.4-7.3,133.9c7.5,21.5,19.1,41.4,34.4,58.3c17.1,18.7,38.5,33.3,61.3,44
				c25.8,12.1,53.3,20,81.3,25.1c9.4,1.7,13.5-12.7,4-14.5c-46-8.5-93-24.1-127.7-56.8c-31.2-29.4-48.1-71.5-48.3-114.1
				c-0.1-23.6,4.8-47.1,15.2-68.3C274.1,304.7,261.2,297.1,257,305.8L257,305.8z"/>
		</g>
	</g>
	<g>
		<g>
			<path class="st3" d="M505.9,414.3c-3.1,7.8-6.3,15.6-9.4,23.4c-1.5,3.8,1.6,8.2,5.2,9.2c4.3,1.2,7.7-1.5,9.2-5.2
				c3.1-7.8,6.3-15.6,9.4-23.4c1.5-3.8-1.6-8.2-5.2-9.2C510.9,407.9,507.5,410.5,505.9,414.3L505.9,414.3z"/>
		</g>
	</g>
	<g>
		<g>
			<path class="st3" d="M578.7,407c-2.5,7.2-3.9,15.8,1.4,22.1c4.3,5.1,12.1,7.2,18,3.7c7.3-4.3,7.1-13.8,2.3-19.8
				c-2.3-2.9-5.3-4.8-8.7-6.3c-2.6-1.1-5.4-1.9-7.2-4c-6.4-7.2-17,3.4-10.6,10.6c2.7,3.1,6.3,4.7,10,6.3c1.2,0.5,2.7,1,3.8,1.8
				c0.3,0.2,0.5,0.5,0.8,0.7c1.2,0.8-0.4,1,0.5,0c-0.1-0.5,0-0.9,0.4-1.2c0.4-0.7,1-1.2,1.9-1.4c0.2,0,0.4,0,0.6,0c-0.8,0-1,0-0.5,0
				c0.2,0,0.3,0,0.4,0.1c0.4,0.2,0.2,0.1-0.5-0.3c0.3,0.9-0.3-0.8-0.2-0.2c-0.5-1.7,1.1-6.1,1.8-8.3c1.3-3.8-1.5-8.2-5.2-9.2
				C583.8,400.7,580,403.2,578.7,407L578.7,407z"/>
		</g>
	</g>
	<g>
		<g>
			<path class="st4" d="M381.8,722.8c-10.2-8.7-20.5-17.5-30.7-26.2c-6.1,7.9-12.1,15.7-18.2,23.6c84.5,44.9,182.3,50.2,275.3,35.7
				c26.8-4.2,53.3-10,79.5-16.8c7.8-2,12.6-10.7,10.5-18.5c-2.2-8.2-10.5-12.2-18.5-10.5c-11.8,2.6-23.6,5.1-35.3,7.7
				c2.7,9.6,5.3,19.3,8,28.9c25.1-6.8,48.1-19.6,67.2-37.3c-8.5-3.5-17.1-7.1-25.6-10.6c0.1,3.3,0.1,6.6-0.1,9.8
				c-0.1,1.5-0.2,3-0.4,4.5c-0.2,1.8,0,0.1,0.1-0.3c-0.1,1-0.3,2-0.5,3c-1.2,6.5-3.1,12.7-5.4,18.8c-0.9,2.4,0.3-0.3-0.8,2
				c-0.7,1.6-1.5,3.2-2.3,4.8c-1.5,2.9-3.1,5.8-4.9,8.6c-4,6.4-5.9,8.9-10.5,14.1c-4.4,5-9.3,9.5-14.4,13.8c-1.9,1.6,0.2,0-1.8,1.4
				c-1.4,1.1-2.9,2.1-4.4,3.1c-3,2-6.1,4-9.3,5.8c-12.6,7.2-24.3,11.5-38.9,15c-14.6,3.5-26.4,4.8-41.7,5.2
				c-7.2,0.2-14.5,0-21.7-0.5c-3.5-0.2-7-0.5-10.4-0.9c-1.6-0.2-3.2-0.3-4.8-0.5c-0.8-0.1-1.6-0.2-2.4-0.3c1.6,0.2-0.2,0-0.8-0.1
				c-13.8-2.1-27.5-5.2-40.9-9.3c-6.7-2.1-13.3-4.4-19.8-6.9c-3.7-1.4-5.2-2.1-7.6-3.1c-3.2-1.4-6.4-2.9-9.5-4.4
				c-29.1-14.1-52.9-31.3-75-54.1c-3.5,8.5-7.1,17.1-10.6,25.6c1.9,0,3.8,0,5.7,0.2c0.3,0,3.6,0.4,2,0.2c-1.4-0.2,1.2,0.2,1.2,0.2
				c3.9,0.8,7.8,1.8,11.6,3.1c6.3,2.2,12.4,5.3,19.4,9.2c14.3,8,28,17.1,43.1,23.7c31.3,13.6,65.8,19.7,99.8,16.3
				c19.1-1.9,37.8-6.1,55.6-13.4c7-2.9,11.8-8.5,10.7-16.5c-1-7.4-7.2-12.8-14.7-13c-42.6-1-85.3-2-127.9-3
				c-10.6-0.2-21.2-0.5-31.7-0.7c-2.3-0.1-4.6-0.1-6.8-0.2c-0.5,0-3.1-0.5-1.2-0.1c1.8,0.4-0.3-0.1-0.5-0.2c-3-1,0,0,0.1,0.2
				c-0.3-0.2-0.7-0.4-1-0.6c0.4,0.3,0.9,0.6,1.3,0.9c1.9,3.6,3.5,6.7,0.4,10c-1.1,1.2-1.9-0.3-0.8,0.4c0.3-0.1,0.5-0.2,0.8-0.2
				c-1,0.1-1,0.1,0.1,0.1c1.1,0,2.2,0,3.3,0.1c2.7,0.2-1.7-0.3,1,0.1c6,0.8,11.9,1.8,17.9,2.5c10,1.3,20,2.3,30.1,3.1
				c41,3,82.1,1.2,122.7-4.8c19.9-2.9,39.7-7,59.2-12.1c3.9-1,7.7-2.1,11.7-2.9c-3.2,0.6,1.5-0.1,2.5-0.1c0.8,0,1.7,0,2.5,0.1
				c-2.8,0-0.3-0.8,0.2,0.1c0.2,0,0.4,0.1,0.6,0.1c-0.5-0.2-1-0.5-1.5-0.7c2.2,2-0.3-0.5-0.3-0.5c1.4,2.5-0.2-0.3-0.2-0.4
				c-0.3-1-0.3-1.7-0.6-2.6c0.7,2.5-0.4,0.9,0.1,0c0.3-0.7,1.4-2.1-0.1,0.2c-0.3,0.5-1.8,1.9-0.2,0.3c-1.6,1.7,0.3,0.1-1.1,0.8
				c-0.2,0.1-3.1,1.5-1.8,0.9c0.9-0.3-2.8,0.8-2.8,0.8c-2.3,0.6-4.7,1.1-7.1,1.5c-5.8,1.1-11.6,2.1-17.4,3.1
				c-11.7,2.1-23.5,4.2-35.2,6.3c-23.8,4.3-47.6,8.5-71.4,12.8c-7.3,1.3-11.7,9.7-10.7,16.5c1,7.4,7.2,12.8,14.7,13
				c43.5,0.9,86.4-8.6,125.8-26.9c-6.1-7.9-12.1-15.7-18.2-23.6c-2,1.6-2.1,1.8-3.6,2.8c-1.8,1.3-3.6,2.6-5.5,3.9
				c-3.2,2.2-6.6,4.3-10,6.3c-3.4,2-6.9,3.8-10.4,5.6c-3.7,1.8-6.8,3.2-9.5,4.2c-7.6,3-15.4,5.4-23.3,7.2c-8.8,2-14,2.8-22.6,3.4
				c-7.8,0.5-15.4,6.5-15,15c0.3,7.7,6.6,15.6,15,15c39.1-2.7,75.6-17.4,106-42.2c5.7-4.7,5.4-14.4,1.2-19.7
				c-4.9-6.2-12.4-7.1-19.4-3.9c-34.4,16-72.5,23.6-110.7,22.8c1.3,9.8,2.7,19.6,4,29.5c24.1-4.3,48.2-8.6,72.4-13
				c11.7-2.1,23.5-4.2,35.2-6.3c11.4-2,23.4-3.2,33.9-8.4c10.5-5.3,18.7-17.2,17.5-29.2c-1.2-12-9.7-21.5-21.6-23.9
				c-10.3-2-20.3,0.3-30.2,2.9c-11.3,3-22.6,5.6-34.1,7.9c-44.1,8.7-89.8,11.5-135.2,8.6c-11.6-0.7-23.2-1.8-34.8-3.4
				c-10.3-1.4-23.2-5-34.2-0.9c-13.2,5-22.1,20.8-14.5,34.1c6,10.5,17.8,13.2,29,13.6c54.5,1.5,109.1,2.6,163.6,3.8
				c-1.3-9.8-2.7-19.6-4-29.5c-7.5,3.1-15.1,5.7-22.9,7.7c-3.8,1-7.6,1.9-11.4,2.6c-1.9,0.4-3.8,0.7-5.8,1c-0.8,0.1-1.6,0.3-2.5,0.4
				c-1.1,0.2-1.1,0.2-0.1,0c-0.6,0.1-1.1,0.1-1.7,0.2c-7.8,0.9-15.5,1.3-23.3,1.3c-3.9,0-7.8-0.2-11.7-0.5c-1.9-0.1-3.9-0.3-5.8-0.5
				c-1.1-0.1-2.2-0.2-3.3-0.4c-2.7-0.3,1.7,0.3-1-0.1c-8-1.2-15.9-2.9-23.7-5.1c-3.7-1.1-7.5-2.2-11.1-3.5c-3.9-1.4-7-2.6-9.6-3.7
				c-14.5-6.5-27.7-15.3-41.6-23c-17-9.5-35.2-17-55-17c-13.1,0-19.6,16.3-10.6,25.6c42.5,43.8,99.4,74.1,159.6,84.5
				c62.3,10.7,134.7,3.4,181.5-43.6c23.9-24.1,39.6-57.3,38.3-91.6c-0.5-13.2-15.9-19.5-25.6-10.6c-15.2,14-33.7,24.1-54,29.6
				c-7.8,2.1-12.6,10.7-10.5,18.5c2.2,8.2,10.5,12.2,18.5,10.5c11.8-2.6,23.6-5.1,35.3-7.7c-2.7-9.6-5.3-19.3-8-28.9
				c-86.7,22.6-178.6,33.5-265.4,10.1c-23.6-6.4-45.1-14.6-66.4-25.9c-6.6-3.5-14.8-2.2-19.4,3.9c-4.2,5.6-4.6,14.8,1.2,19.7
				c10.2,8.7,20.5,17.5,30.7,26.2c6.2,5.3,15.2,6,21.2,0C387.1,738.6,387.9,728.1,381.8,722.8L381.8,722.8z"/>
		</g>
	</g>
	<g>
		<g>
			<path class="st5" d="M389.2,820.3c-0.1,10.4-0.1,20.8-0.2,31.2c-0.1,16.5,25.9,20.9,29.5,4c3.3-15.5,2.7-31.7-2.8-46.6
				c-8.4,4.9-16.7,9.7-25.1,14.6c10.1,12,23.8,20.6,38.7,25.5c7.3,2.4,15.1,3.7,22.8,4c3.9,0.2,7.7-0.1,11.5-0.4
				c2.1-0.2,9.7-0.9,9.6,0.3c-0.1,0.6-2.5-2-2.6-2.2c-0.4-0.6,0-1.1-0.3-1.6c0,0-0.2,2.5,0,1.4c-0.4,2.6-1.9,7.8-2.8,11.3
				c-2.1,8.3-4.3,16.6-6.2,24.9c-0.5,2,0.2-0.5,0.3-0.3c0.5,0.7-3.1,2.7,0.6-0.1c-0.4,0.3,3.1-2.4,2.9-1.9c0.2-0.6,0.6,0.1-0.8-0.1
				c2.4,0.5-1-0.2-1.8-0.4c-2.6-0.5-5.1-1.1-7.7-1.7c-8.9-2-17.9-4-26.8-6c-4.8-1.1-9.6-2.1-14.4-3.2c-2-0.5-5.1-1.8-7.1-1.6
				c-1.7,0.1-0.3-0.5-0.1,0.2c0.2,0.5,1.3,1.4,1.6,1.8c0.5,0.5,0.7,2.8,0.3,0.1c0.2,1.2,0.2,1.8,0,2.9c0.1-1,0.8-1.2,0-0.6
				c-1.5,1,1.3-1.7-0.3,0.2c0.5-0.6,1-1.1,1.5-1.5c1.7-1.5-1.5,0.9,0.5-0.3c0.9-0.5,1.7-1,2.6-1.5c0.4-0.2,3.4-1.5,1.2-0.6
				c-6.2-3.5-12.3-7-18.5-10.5c0.9,5.9,1.8,11.7,2.7,17.6c1,6.2,8.5,11.3,14.5,11c7.2-0.3,11.8-4.6,14.5-11
				c5.8-13.9,8.2-29.3,7.3-44.4c-6.3,4.8-12.7,9.6-19,14.5c1.6,0.6,1.7,0.6,0.1,0c0.8,0.4,1.5,0.8,2.3,1.3c2.8,1.5-1.1-1.5,1.1,0.8
				c0.3,0.4,3.2,3.6,2.3,2.4c-0.9-1.3,1.4,2.5,1.7,2.9c1.6,2.7-0.2-1.6,0.5,1.3c0.2,0.8,1,6,0.8,2.4c0.1,1.3,0.1,2.6,0.1,3.9
				c-0.1,1.8-0.1,1.7,0-0.1c-0.2,0.9-0.4,1.7-0.7,2.5c9.6,2.7,19.3,5.3,28.9,8c0.3-2.2,0.6-4.4,1.1-6.5c0.2-1.1,0.6-2.1,0.9-3.1
				c0,0.6-0.3,1-0.8,1.3c-1.4,0.8-1.3,0.7,0.2-0.1c-0.7,0.5-1.6,0.7-2.5,0.8c-2.8,0-5-1.2-6.6-3.6c-0.5-1.4-0.6-1.6-0.3-0.5
				c0.2,1.1,0.2,0.9,0-0.6c0,0.9,0,1.9,0,2.8c-0.1,2.1-0.5,4.2-0.7,6.4c-0.6,6.2,0.8,11.5,3.2,17.2c4.3,10,21.6,9.7,25.9,0
				c0.8-1.9,1.7-3.8,2.5-5.6c3.3-7.4,2.1-16.1-5.4-20.5c-6.4-3.7-17.2-2.1-20.5,5.4c-0.8,1.9-1.7,3.8-2.5,5.6c8.6,0,17.3,0,25.9,0
				c0.8,1.8,0.5,1,0.7-0.4c0.3-1.6,0.4-3.4,0.5-5c0.4-3.8,0.3-7.3-0.3-11.2c-1.4-8.8-7.8-16.7-16.6-19.1c-8.5-2.4-18.2,0.6-24.3,6.9
				c-6,6.1-8.4,13.9-9.5,22.1c-1,7.7,1.8,16.5,10.5,18.5c8,1.8,16.1-2.4,18.5-10.5c6.6-22.9-7-46.8-29.1-54.4
				c-8.9-3.1-19.6,5.1-19,14.5c0.8,13.2-1,23.9-6.2,36.4c9.6,0,19.3,0,28.9,0c-0.9-5.9-1.8-11.7-2.7-17.6
				c-1.1-7.4-11.6-13.2-18.5-10.5c-11.1,4.5-21.7,10.8-25.7,22.8c-3.8,11.2-0.1,24.9,10.5,31.1c4.9,2.9,10.4,3.9,15.9,5.1
				c5.7,1.3,11.5,2.6,17.2,3.8c10.9,2.4,21.8,5.3,32.8,7.3c12.6,2.3,25.5-0.3,31.4-13c4.7-10.2,6.3-22.3,9.1-33.2
				c3.1-12.4,5.9-25.9-4.3-36c-9.2-9.2-21.1-8.9-33.1-8.1c-2.6,0.2-5.1,0.2-7.7,0.1c-1,0-2-0.1-3.1-0.2c-4.7-0.4,2.5,0.6-2.1-0.3
				c-2.5-0.5-5-1-7.5-1.8c-1-0.3-2-0.6-2.9-0.9c0,0-4.4-1.7-2.1-0.7c-10.1-4.3-15.7-8.7-22.6-16.8c-9.5-11.2-30.2,0.7-25.1,14.6
				c3.9,10.6,4.9,20.7,2.8,30.7c9.8,1.3,19.6,2.7,29.5,4c0.1-10.4,0.1-20.8,0.2-31.2c0-7.8-6.9-15.4-15-15
				C396,805.7,389.2,811.9,389.2,820.3L389.2,820.3z"/>
		</g>
	</g>
	<g>
		<g>
			<path class="st5" d="M557.3,852.2c1.4,8.5,2.7,17,4.1,25.5c1.2,7.4,2.4,14.4,5.9,21.2c8,15.8,25.4,18.3,41.3,18
				c8.2-0.2,16.4-0.3,24.6-0.5c8.3-0.2,16.7,0.2,24.9-0.9c9.6-1.3,18.2-6.9,21-16.6c2.5-8.6,0-17.9-1.2-26.5
				c-2.7-19-5.3-38.1-8-57.1c-1-7.4-9.9-11.6-16.5-10.7c-8,1.1-12.1,7.2-13,14.7c0.2-1.5,0.1-1.7-0.1-0.6c-0.3,0.8-0.3,0.9,0,0.1
				c0.4-1,0.2-0.8-0.5,0.6c0.2-0.3,0.4-0.6,0.6-0.9c-0.2,0.3-2.9,2.6-1.6,1.6c1.2-0.9-2.2,1.2-2.1,1.2c-0.8,0.5-1.9,0.8-0.4,0.3
				c-1.1,0.4-2.3,0.8-3.4,1c-2.4,0.6-4.1,0.7-7,0.8c-12.6,0.7-26.2,0.1-37.2,7.3c-10.7,6.9-16.6,19.4-16,32.1
				c0.6,13.3,7.1,24.5,14.4,35.2c8.6,12.6,26.7,7.5,28-7.6c0.6-7.6,1.2-15.1,1.8-22.7c0.3-3.6,0.6-7.2,0.9-10.8
				c0.2-2.1,0.2-2.6,0.1-1.5c-0.4,3.1-2.6,5.3-6.6,6.4c-2.7,0.7-5.2,0.3-7-1.6c-0.3-0.3-1.1-2.3-1.2-2.3c0-1,0-0.6,0.1,1.1
				c0,0.8,0,1.6,0,2.4c0,3-0.3,6-0.1,9.1c0.6,8.4,3.1,16.8,9.6,22.5c13.8,12.2,35.2,6.7,39.6-11.7c1.6-6.7,0.6-13.4,0.1-20.1
				c-0.7-7.8-1.3-15.6-2-23.4c-0.7-7.8-6.4-15.4-15-15c-8.5,0.4-14.5,6.6-15,15c-1.5,27.1,11.6,52,32.8,68.4c6.4,5,16.8,1,20.5-5.4
				c4.5-7.7,1.1-15.6-5.4-20.5c1.6,1.2-0.5-0.6-1-1c-0.9-0.8-1.8-1.7-2.7-2.6c-0.7-0.7-1.4-1.5-2.1-2.2c-0.2-0.2-2.6-3.1-1.7-2
				c0.7,0.9-1.5-2.2-1.5-2.1c-0.6-0.8-1.1-1.7-1.6-2.6c-1.3-2.2-2.5-4.4-3.5-6.7c0.7,1.4,0,0.1-0.2-0.6c-0.4-1.2-0.9-2.4-1.2-3.6
				c-0.7-2.2-1.3-4.4-1.7-6.6c0,0.1-0.6-4-0.5-2.5c0.2,1.5-0.2-2.6-0.2-2.5c-0.1-2.5-0.1-5,0-7.5c-10,0-20,0-30,0
				c0.6,7.5,1.3,14.9,1.9,22.4c0.3,3.4,0.7,6.7,0.8,10.1c0.1,1.4,0.1,2.8,0,4.2c0.3-1.5,0.3-1.7,0-0.6c-0.3,1.1-0.2,0.9,0.4-0.6
				c2.5-1.7,3.4-4.4,7.3-3.4c1.1,0.3,2.1,1.7,2.8,1.9c0.5,1,0.4,0.6-0.6-0.9c0.1,0.2,0.2,0.4,0.3,0.5c-0.4-1.8-0.5-2.1-0.3-0.9
				c0-0.6-0.1-1.1-0.1-1.7c0.1-7.4,0.7-14.7-2.3-21.7c-6.8-16.2-30.6-21.1-39.9-4.2c-3.8,6.9-3.2,16.2-3.8,23.8
				c-0.6,7.9-1.3,15.8-1.9,23.7c9.3-2.5,18.6-5,28-7.6c-3-4.4-6.1-8.8-8.4-13.6c-0.8-1.7-1.3-3.5-1.9-6.1c0.3,1.6,0,0.7,0-0.4
				c0-0.3,0-4.2-0.1-2.4c-0.1,1.5,0.5-2.2,0.6-2.3c0.2-1,0.6-1.9,0.1-0.4c0.2-0.4,0.5-0.8,0.7-1.2c-0.8,0.9-0.8,1-0.1,0.2
				c1.5-1.6-1.4,0.7,0.6-0.5c0.6-0.4,3.2-1.4,1.4-0.8c1-0.3,2-0.6,3-0.9c2.7-0.6,3.7-0.6,6.6-0.8c12.1-0.7,24-0.5,35.1-6
				c11.7-5.7,18.4-16,20-28.6c-9.8,1.3-19.6,2.7-29.5,4c2.5,17.7,5,35.4,7.5,53.2c0.5,3.7,1.3,8.8,1.6,11.5
				c-0.1-0.7,0.1,4.1,0.1,4.2c-2.4-1.7,3.9-5.8,4.7-6.4c-1.7,0.4-1.8,0.4-0.2,0.2c-0.7,0.1-1.4,0.1-2.1,0.1
				c-2.2,0.1-4.4,0.1-6.6,0.1c-4.3,0.1-8.5,0.2-12.8,0.3c-8.9,0.2-17.7,0.4-26.6,0.5c-3,0-6.1,0.1-9-0.2c2.7,0.3-2.6-0.7-3.2-0.9
				c2.6,1-2.1-1,0.4,0.2c-1.2-1.3-1.4-1.4-0.5-0.3c-0.2-0.4-0.5-0.8-0.7-1.3c-0.8-1.6-0.9-1.7-0.2-0.5c-0.3-0.9-0.6-1.9-0.8-2.9
				c-0.8-3.1-1.3-6.2-1.8-9.4c-1.5-9.1-2.9-18.3-4.4-27.4c-1.3-8-11.3-12.5-18.5-10.5C559.2,836.1,556,844.2,557.3,852.2
				L557.3,852.2z"/>
		</g>
	</g>
	<g>
		<g>
			<path class="st5" d="M580.6,925.2c7.8,0,15.4-6.9,15-15c-0.4-8.1-6.6-15-15-15c-7.8,0-15.4,6.9-15,15
				C565.9,918.4,572.2,925.2,580.6,925.2L580.6,925.2z"/>
		</g>
	</g>
	<g>
		<g>
			<path class="st5" d="M333.2,714.2c40.3,57.8,98.6,101.3,165.7,122.9c16.5,5.3,25.7-18.7,11.6-27.4c-3.5-2.1-6.9-4.4-10.2-6.9
				c1.3,0.9-0.1-0.1-0.6-0.5c-1-0.8-2-1.6-2.9-2.5c-1.6-1.3-3.1-2.7-4.6-4.1c-3-2.8-5.8-5.8-8.5-8.9c-3.5-4-4-4.7-6.6-8.5
				c-4.7-6.7-8.7-13.9-12.1-21.4c-0.3-0.6-0.9-2.1-0.3-0.7c-0.4-0.9-0.8-1.9-1.1-2.9c-0.8-2.2-1.6-4.3-2.3-6.5
				c-1.3-4.2-2.4-8.4-3.3-12.6c-8.4,4.9-16.7,9.7-25.1,14.6c37.1,45.5,87.5,79.5,143,98.3c15.5,5.2,31.5,9.1,47.7,11.7
				c7.7,1.2,16.5-2,18.5-10.5c1.6-7.2-2.2-17.1-10.5-18.5c-13.8-2.2-27.5-5.4-40.9-9.5c-6.6-2-13-4.3-19.5-6.8
				c-1.5-0.6-3-1.2-4.4-1.8c-0.7-0.3-1.5-0.6-2.2-0.9c0.3,0.1,1.5,0.6-0.1,0c-3.4-1.5-6.8-3-10.1-4.6c-12.6-6-24.9-12.9-36.6-20.6
				c-12-7.9-20.2-14.2-30.9-23.7c-11.9-10.5-22.8-22-32.8-34.3c-4.1-5.1-12.9-5.5-18.2-2.3c-6,3.5-8.3,10.4-6.9,16.9
				c8.1,38.5,32.7,72.7,66.1,93.2c3.9-9.1,7.7-18.3,11.6-27.4c-29.5-9.5-57.4-23.9-83.6-43.2c-10.5-7.7-23.5-19.1-34.1-29.9
				c-11.8-12-21.1-23.3-30-36.1c-4.6-6.6-13.1-9.7-20.5-5.4C332,697.5,328.5,707.5,333.2,714.2L333.2,714.2z"/>
		</g>
	</g>
	<g>
		<g>
			<path class="st5" d="M530.6,809.6c-5.5-1.3-10.9-2.8-16.2-4.7c-2.7-0.9-5.3-1.9-7.9-2.9c-1-0.4-0.9-0.4,0.1,0
				c-0.5-0.2-0.9-0.4-1.4-0.6c-1.4-0.6-2.8-1.3-4.2-1.9c-9.9-4.7-19.4-10.3-28.2-16.8c-0.5-0.4-2.8-2.1-1.2-0.9
				c-1.2-0.9-2.4-1.9-3.6-2.9c-2-1.6-3.9-3.3-5.8-5c-4.2-3.8-8.1-7.7-11.9-11.9c-1.7-1.9-3.4-3.8-5-5.8c-1-1.2-1.9-2.4-2.9-3.6
				c1.4,1.8-1.4-1.9-1.3-1.8c-3.3-4.5-6.3-9.3-9.2-14.1c-3,7.3-6,14.7-9,22c3.9-1.5,7.7-3,11.6-4.5c10-3.9,15.5-16.6,6.6-25.1
				c-17.3-16.5-41.2-25.7-65.2-24c-15,1.1-20.3,19.5-7.6,28c12.8,8.6,25.6,17.1,38.4,25.7c-1-7.9-2-15.7-3-23.6
				c-0.6,0.6-1.3,1.2-1.9,1.8c1.3-1,1.3-1-0.1,0c-0.7,0.5-1.5,0.9-2.3,1.3c1.6-0.6,1.6-0.6,0,0c-1.3,0.4-2.5,0.7-3.8,1
				c-1.8,0.3-1.7,0.3,0.1,0c-0.9,0.1-1.8,0.1-2.6,0.1c-0.9,0-1.8,0-2.6-0.1c1.8,0.3,1.8,0.3,0.1,0c-1.3-0.4-2.5-0.7-3.8-1.1
				c3.1,0.9-1.6-0.9-2.3-1.3c-1.4-1-1.4-1-0.1,0c-0.7-0.6-1.3-1.2-1.9-1.8c-5.7-5.7-15.5-5.7-21.2,0c-5.9,5.9-5.6,15.3,0,21.2
				c27.7,29.2,61,53.2,97.6,69.9c7.4,3.4,16.1,2.1,20.5-5.4c3.8-6.4,2-17.1-5.4-20.5c-35.3-16.1-65.2-37.4-91.5-65.2
				c-7.1,7.1-14.1,14.1-21.2,21.2c17.2,17.3,46.6,17.3,63.9,0.2c7.2-7.1,4.9-18.3-3-23.6c-12.8-8.6-25.6-17.1-38.4-25.7
				c-2.5,9.3-5,18.6-7.6,28c2.4-0.2,4.7-0.3,7.1-0.2c1,0,2.1,0.1,3.1,0.1c0.3,0,3.1,0.2,1.9,0.1c2.7,0.3,8.7,1.8,12.5,3.1
				c1,0.3,2,0.7,3,1.1c2.4,1-1.6-0.8,0.7,0.4c2.1,1,4.2,2.1,6.2,3.3c4.6,2.8,5.5,3.5,9.4,7.2c2.2-8.4,4.4-16.7,6.6-25.1
				c-3.9,1.5-7.7,3-11.6,4.5c-8.9,3.5-14.3,13-9,22c25.2,43.1,68.1,75.1,116.7,86.6c7.6,1.8,16.6-2.4,18.5-10.5
				C542.9,820.4,538.8,811.5,530.6,809.6L530.6,809.6z"/>
		</g>
	</g>
	<g>
		<g>
			<path class="st6" d="M330.9,685.2c97.1,44.4,208.4,54.1,311.9,27.8c29.2-7.4,57.6-17.9,84.9-30.9c7.3-3.5,9.2-14,5.4-20.5
				c-4.4-7.5-13.2-8.9-20.5-5.4c-88.5,42.2-193,52.2-288.3,29.6c-26.9-6.4-54.3-15.7-78.2-26.5c-7.4-3.4-16.1-2.1-20.5,5.4
				C321.8,671.1,323.5,681.8,330.9,685.2L330.9,685.2z"/>
		</g>
	</g>
	<g>
		<g>
			<path class="st6" d="M325.5,681.4c7.8,0,15.4-6.9,15-15c-0.4-8.1-6.6-15-15-15c-7.8,0-15.4,6.9-15,15
				C310.9,674.5,317.1,681.4,325.5,681.4L325.5,681.4z"/>
		</g>
	</g>
	<g>
		<g>
			<path class="st7" d="M322.3,683.1c60.6,26.1,125,41.3,190.9,44.5c7.8,0.4,15.4-7.2,15-15c-0.4-8.4-6.6-14.6-15-15
				c-59.9-2.9-120.6-16.6-175.8-40.4c-7.4-3.2-16.1-2.2-20.5,5.4C313.2,669,314.8,679.9,322.3,683.1L322.3,683.1z"/>
		</g>
	</g>
	<g>
		<g>
			<path class="st7" d="M522.1,697.9c-4.9,4.1-9.8,8.1-14.7,12.2c-6.1,5-5.6,16.1,0,21.2c6.4,5.9,14.7,5.4,21.2,0
				c4.9-4.1,9.8-8.1,14.7-12.2c6.1-5,5.6-16.1,0-21.2C536.9,692,528.6,692.5,522.1,697.9L522.1,697.9z"/>
		</g>
	</g>
	<g>
		<g>
			<path class="st7" d="M543,702.6c-3,8-10.2,13.1-18.4,14.7c-9.5,1.8-5.5,16.3,4,14.5c13.6-2.6,24.1-12.5,28.8-25.2
				C560.8,697.6,546.3,693.6,543,702.6L543,702.6z"/>
		</g>
	</g>
	<g>
		<g>
			<path d="M424.8,933c-18.9,4-37.8,8-56.8,12.1c1.3,4.8,2.7,9.6,4,14.5c7.9-2.6,15.7-5.2,23.6-7.8c9.2-3,5.5-16.5-4-14.5
				c-16.2,3.6-32.4,7.1-48.7,10.7c-6.1,1.3-13.4,2-18.2,6.4c-5.1,4.8-6.3,13.1-1.1,18.3c4.2,4.2,10.4,4,15.9,4.2
				c8.5,0.2,17.1,0.4,25.6,0.6c15.8,0.4,31.5,0.7,47.3,1.1c13.1,0.3,28,2.4,40.4-3.1c11.5-5.1,17.9-17.2,16.6-29.6
				c-2.8-25.7-31.3-37.1-54.1-35.5c-27.3,1.9-52.9,18.4-65,43c-2.4,5,0.5,11.3,6.5,11.3c31.3-0.3,62.6-0.7,93.9-1
				c8.6-0.1,10-12.2,2-14.7c-1.8-0.6-3.6-1.1-5.2-2c-0.8-0.5-1.4-1.2-2.1-1.6c0.2,0.1,0.2,0.5,0,0.5c0-0.1,0-0.2,0.1-0.3
				c0.5-0.8-0.3-0.9-2.3-0.5c-1.7,0.5-2.6,0.1-2.6-1.2c0,0.4,0,0.7,0,1.1c-0.6,1.4-0.8,2.8-1.6,4.1c-4.6,8.6,7.5,15.5,13,7.6
				c9.9-14.5,0-34.7-17.6-35.5c-18.1-0.9-28.5,18.4-20.7,33.8c2.3,4.5,8.4,4.6,11.8,1.5c7-6.5,14.1-13.1,21.1-19.6
				c-3.9-3-7.9-6.1-11.8-9.1c-2.2,5.2-9.7,6.1-9.9-0.8c-0.1-6.4-8.2-10.1-12.8-5.3c-6.7,6.9-15.5,9.7-25,8.6
				c2.2,3.8,4.3,7.5,6.5,11.3c1.9-3.7,4.9-6.3,9.2-6.7c-2.4-3.2-4.8-6.3-7.2-9.5c-1.5,8.5-5.6,15.9-12.1,21.6
				c-2.8,2.5-6.2,4.6-9.7,6c-2.1,0.9-4.4,1.5-6.6,1.9c-0.7,0.1-1.4,0.2-2.1,0.3c-2.5,0.6-1.3-0.6-0.7,0.6c0.3,1.3,0.7,2.5,1,3.8
				c0-1.6-0.3-1.5-0.7,0.3c0.5-0.3,0.9-0.5,1.5-0.6c1.6-0.2,3.3-0.9,4.9-1.3c4-1,8-2.1,12-3.1c8-2.1,16-4.1,24.1-6.2
				c9.3-2.4,5.4-16.9-4-14.5c-7.4,1.9-14.8,3.8-22.2,5.7c-6.6,1.7-13.7,2.9-20.1,5.3c-5.7,2.1-10.6,6.7-10.5,13.2
				c0,6.9,5.8,11.3,12.3,11.7c10.9,0.8,22.4-5,30.5-11.8c8.8-7.3,15.1-17.8,17-29.1c0.8-4.4-1.9-9.9-7.2-9.5
				c-9.4,0.7-17.7,5.6-22.1,14.1c-2.8,5.4,0.8,10.6,6.5,11.3c13.2,1.5,26.4-3.6,35.6-13c-4.3-1.8-8.5-3.5-12.8-5.3
				c0.2,9.1,6.3,17.8,15.4,19.8c8.9,1.9,18.8-2.9,22.4-11.4c3.2-7.5-5.1-15.3-11.8-9.1c-7,6.5-14.1,13.1-21.1,19.6
				c3.9,0.5,7.9,1,11.8,1.5c-2.8-5.5,1.5-12.1,7.7-11.2c6.7,0.9,7.9,8.1,4.6,12.9c4.3,2.5,8.6,5,13,7.6c3-5.5,5.2-12.6,2.2-18.6
				c-3.3-6.7-11.6-8.7-17.6-4.4c-5.5,3.9-7.6,11.7-4.8,17.8c3.1,6.9,10.2,9.9,17,12.1c0.7-4.9,1.3-9.8,2-14.7
				c-31.3,0.3-62.6,0.7-93.9,1c2.2,3.8,4.3,7.5,6.5,11.3c8-16.2,22.5-28.3,39.9-33.3c15.4-4.4,37.3-3.8,47.8,10.3
				c4.6,6.2,5.8,16.6-0.9,22c-7.2,5.8-19.1,4-27.7,3.8c-25-0.6-50-1.1-74.9-1.7c-3.3-0.1-6.6-0.1-9.9-0.2c0.3,0-3.3-0.2-3.4-0.1
				c-0.2,0-0.4-0.1-0.6-0.1c1.2,1.1,1.7,2.3,1.4,3.7c1.3,0.4,6.3-1.7,7.9-2c3.2-0.7,6.5-1.4,9.7-2.1c14.3-3.1,28.5-6.3,42.8-9.4
				c-1.3-4.8-2.7-9.6-4-14.5c-7.9,2.6-15.7,5.2-23.6,7.8c-9.2,3-5.5,16.5,4,14.5c18.9-4,37.8-8,56.8-12.1
				C438.3,945.5,434.3,931,424.8,933L424.8,933z"/>
		</g>
	</g>
	<g>
		<g>
			<path d="M453.1,918.4c-3.8,22.1-21.6,39.1-43.7,42.2c-8.4,1.2-6.3,14.9,2,14.7c4.7-0.1,9.5-0.2,14.2-0.3c9.6-0.2,9.7-15.2,0-15
				c-4.7,0.1-9.5,0.2-14.2,0.3c0.7,4.9,1.3,9.8,2,14.7c26.8-3.8,49.6-26.1,54.2-52.7C469.2,912.9,454.8,908.8,453.1,918.4
				L453.1,918.4z"/>
		</g>
	</g>
	<g>
		<g>
			<path d="M611.9,924.3c-2,3.7-4.1,7.4-6.1,11c9.1,1.2,18.3,2.4,27.4,3.6c-0.6-2.1-1.2-4.2-1.7-6.3c-2.2-8-10.5-12.4-18.5-10.5
				c-7.3,1.8-14.5,4.5-19.6,10.3c-6,6.8-8.2,16.1-4.9,24.6c5.6,14.4,21.2,15.6,34.6,15.6c28.5,0,57-0.1,85.5-0.1
				c7.8,0,15.4-6.9,15-15c-0.4-8.1-6.6-15-15-15c-21.2,0-42.4,0.1-63.6,0.1c-10.1,0-20.3-0.1-30.4,0c-1.8-0.2-1.7-0.1,0.1,0.1
				c-0.8-0.2-1.7-0.4-2.5-0.6c1,0.2,1.8,0.8,2.5,1.5c1.8,2,2.4,4.4,1.8,7.4c-0.9,1.9-2.5,1.9,0,1.2c-1,0.5-0.6,0.5,1.2-0.2
				c1.1-0.3,2.2-0.6,3.3-0.8c-6.2-3.5-12.3-7-18.5-10.5c0.6,2.1,1.2,4.2,1.7,6.3c3.4,12.2,21.1,15,27.4,3.6c2-3.7,4.1-7.4,6.1-11
				c3.9-7.1,1.7-16.4-5.4-20.5C625.6,914.9,615.9,917.2,611.9,924.3L611.9,924.3z"/>
		</g>
	</g>
	<g>
		<g>
			<path d="M644.6,957.8c2,0.2,3.9,0.5,5.9,0.7c5.7,0.7,11.7-4.3,13.7-9.2c2.1-5.3,1.4-12.4-3.1-16.4c-4-3.6-8-7.1-12.1-10.7
				c-6.1,7.9-12.1,15.7-18.2,23.6c9.5,5.6,19.1,11.1,28.6,16.7c7,4.1,16.4,1.6,20.5-5.4c4.1-7,1.6-16.4-5.4-20.5
				c-9.5-5.6-19.1-11.1-28.6-16.7c-6.4-3.7-14.9-2-19.4,3.9c-4.2,5.7-4.5,14.7,1.2,19.7c4,3.6,8,7.1,12.1,10.7
				c3.5-8.5,7.1-17.1,10.6-25.6c-2-0.2-3.9-0.5-5.9-0.7c-7.8-1-15.3,7.6-15,15C630,951.8,636.3,956.8,644.6,957.8L644.6,957.8z"/>
		</g>
	</g>
	<g>
		<g>
			<path class="st8" d="M459.4,580.1c-8.4-2.7-17.9-4.8-26-0.3c-6.9,3.8-11.9,11.9-9.4,19.8c2.1,6.8,9.4,11.3,16.4,10.4
				c3.6-0.5,6.9-2.5,8.9-5.6c1-1.5,1.9-3.6,2.2-5.4c0.2-0.6,0.3-1.3,0.5-1.9c-4.7-0.8-5.9-2-3.5-3.7c3.7,2.8,7.3,5.6,11,8.5
				c2.6-7,12.1-8.6,17.7-4.7c1.3-4.7,2.5-9.3,3.8-14c-8,0.5-16.6,1.9-24.6,1.3c-1.2-0.1-4.4-0.3-0.7,1.8c0.4,0.2,0.5-0.1,1.3,0
				c3.9,0.3,7.7,0.8,11.5,1.4c8.3,1.4,16.6,2.8,24.9,4.1c6.2,1,12.6,1.7,18.5-0.7c13.2-5.6,12.3-25.8-2.4-28.6
				c-6.4-1.2-13.2,2.1-16.2,7.9c-3.3,6.3-1,14.1,3.8,19c6.2,6.3,14.8,6.8,23.1,7.3c8,0.5,15.7,3,22.1,8.1c2.4-4.2,4.9-8.4,7.3-12.5
				c-4.8-1.9-9.6-3.7-14.4-5.6c-6.4-2.5-11.4,5.8-8.5,11c5.2,9.4,14.2,17.1,25.3,17.8c10.9,0.7,21.5-5.9,24.2-16.8
				c2.8-11-3.7-22.3-14.3-25.9c-10.5-3.6-22.6,2.2-26.9,12.2c-2.7,6.4,3.2,14.5,10.3,10.3c3.5-2.1,7.9,0.5,5.7,4.7
				c-4.5,8.5,8.5,16.1,13,7.6c4-7.6,3.3-17-3-23.1c-6.2-6-16-6.5-23.2-2.2c3.4,3.4,6.8,6.8,10.3,10.3c1.6-3.7,5-7,9.3-5.6
				c4.1,1.4,5.9,6.4,3.6,10.1c-2.2,3.5-7.2,4.1-10.9,2.9c-4.8-1.6-8-5.6-10.3-9.8c-2.8,3.7-5.6,7.3-8.5,11c4.8,1.9,9.6,3.7,14.4,5.6
				c6.8,2.7,13.1-7.9,7.3-12.5c-6.7-5.3-14.1-9.4-22.5-11.2c-3.9-0.8-7.9-1.1-11.9-1.4c-3.2-0.2-7.5,0-10.1-2.2
				c-1-0.8-1.1-1.7-1.7-2.6c-0.5,0.8-0.5,0.9,0,0.5c0.6-0.1,0.6-0.1-0.1-0.1c-0.1,0.1,0.2,0.1-0.8,0.3c-7,1.5-15-1.1-21.9-2.2
				c-12.8-2.1-39.5-10.8-43.1,8.8c-3.9,21.1,29.2,14.8,40.1,14.2c7.6-0.4,10-9.7,3.8-14c-14.2-9.7-34.1-1.8-39.8,13.7
				c-2.1,5.8,5.9,12.4,11,8.5c6-4.6,8.6-12.9,3-19.1c-4.6-5-13.3-5.2-18-0.3c-1.3,1.4-5.1,6.8-4.1,8.6c-0.4,0.9-0.2,0.9,0.6-0.1
				c0.8,0,1.1-0.2,0.8-0.5c-0.1-0.1-0.2-0.2-0.3-0.3c-0.2-0.3-0.1-0.2,0.3,0.4c1-0.9,2.4-2.6,4.7-3c4.1-0.7,8.6,1.2,12.5,2.4
				C464.6,597.5,468.6,583.1,459.4,580.1L459.4,580.1z"/>
		</g>
	</g>
	<g>
		<g>
			<path class="st8" d="M528.9,594.1c4.9,0,9.7,0,14.6,0c9.7,0,9.7-15,0-15c-4.9,0-9.7,0-14.6,0
				C519.2,579.1,519.2,594.1,528.9,594.1L528.9,594.1z"/>
		</g>
	</g>
	<g>
		<g>
			<path class="st9" d="M431.7,582.7c-6.2,7.2-6.9,18.6,0.2,25.6c7.2,7,18.3,6.5,25.6,0.2c3.1-2.6,2.7-7.9,0-10.6
				c-3-3-7.5-2.6-10.6,0c-0.9,0.8-3.4,0.8-4.4-0.2c-1-1.1-1-3.5-0.2-4.4c2.6-3.1,3-7.6,0-10.6C439.6,580,434.4,579.6,431.7,582.7
				L431.7,582.7z"/>
		</g>
	</g>
	<g>
		<g>
			<path class="st9" d="M437.4,574.2c-4.2,6.6-7.8,13.8-6,21.8c1.7,8,8.6,12.7,16.4,13.3c7.8,0.6,16.2-2,23.7-3.5
				c9.4-1.8,18.8-3.7,28.1-5.5c9.5-1.9,5.5-16.3-4-14.5c-12.6,2.5-25.2,5-37.8,7.4c-2.6,0.5-9.1,2.7-11.4,0.5
				c-2.8-2.8,2.5-9.7,3.9-11.9C455.6,573.6,442.6,566.1,437.4,574.2L437.4,574.2z"/>
		</g>
	</g>
	<g>
		<g>
			<path class="st9" d="M532.2,575.5c-7.6,9.6-14.3,23.9-2.3,33.3c4.9,3.8,11.1,5.1,17,6.8c7.4,2.1,14.9,4.3,22.3,6.4
				c9.3,2.7,13.3-11.8,4-14.5c-9.5-2.7-19.1-5.4-28.5-8.2c-1.8-0.5-5.8-1.3-6.5-3.5c-0.9-3,3-7.6,4.7-9.7c2.5-3.2,3.1-7.5,0-10.6
				C540.2,572.9,534.7,572.3,532.2,575.5L532.2,575.5z"/>
		</g>
	</g>
	<g>
		<g>
			<path class="st9" d="M494.9,573.5c-2.6,10.8,1.8,21.6,11.1,27.6c8.1,5.3,15.7-7.7,7.6-13c-3.5-2.3-5.2-6.6-4.2-10.7
				C511.6,568.1,497.1,564.1,494.9,573.5L494.9,573.5z"/>
		</g>
	</g>
	<g>
		<g>
			<path class="st10" d="M361.3,331.5c-0.4,17.7-0.8,35.4-1.1,53.1c-0.2,9.9,13.9,9.4,15,0c2.7-24.1,5.5-48.3,8.2-72.4
				c0.5-4-3.8-7.5-7.5-7.5c-4.4,0-7,3.5-7.5,7.5c-2.7,24.1-5.5,48.3-8.2,72.4c5,0,10,0,15,0c0.4-17.7,0.8-35.4,1.1-53.1
				C376.5,321.9,361.5,321.9,361.3,331.5L361.3,331.5z"/>
		</g>
	</g>
	<g>
		<g>
			<path class="st10" d="M378,319.3c-8.2,11-16.5,22.1-24.7,33.1c18.3,2.4,36.6,4.8,54.8,7.2c-3.1-7.8-5.2-15.8-6.5-24.1
				c0.4,2.7,0.7,5.3,1.1,8c-1.3-9.5-1.3-19-0.1-28.5c-0.4,2.7-0.7,5.3-1.1,8c0.8-5.3,1.9-10.5,3.4-15.7c3.6-12.3-2.2-27.8-13.8-33.9
				c-4.7-2.5-9.8-3.9-15.1-4.1c-6.8-0.3-16.8,3.4-21.2,8.8c-13.5,16.4-24.6,34.5-29.9,55.3c-5,19.6-5.2,41.3,1.1,60.7
				c6.9,21.3,19.9,39,38.5,51.5c7.9,5.3,17.3,9.4,26.6,11.6c12.7,3.1,24.3,2.8,37,0.8c7-1.1,14.5-8,17.9-13.8
				c3.8-6.4,5.4-15.9,3-23.1c-2.3-7.3-6.8-14.3-13.8-17.9c-7.6-4-14.7-4.4-23.1-3c-0.5,0.1-1,0.2-1.5,0.2c2.7-0.4,5.3-0.7,8-1.1
				c-4.6,0.6-9,0.6-13.6,0.1c2.7,0.4,5.3,0.7,8,1.1c-5.1-0.7-9.9-2-14.6-3.9c2.4,1,4.8,2,7.2,3c-3.3-1.4-6.5-3-9.5-4.9
				c-0.9-0.5-1.7-1.1-2.5-1.7c-2.5-1.8-1.7-1.2,2.4,1.9c-1.1-1.3-2.7-2.4-4-3.6c-1.3-1.3-2.4-2.6-3.6-3.9c-3.8-4.2,4.2,6.1,0.4,0.3
				c-2.2-3.4-4-6.9-5.7-10.6c1,2.4,2,4.8,3,7.2c-2.7-6.5-4.5-13.2-5.4-20.1c0.4,2.7,0.7,5.3,1.1,8c-0.8-7-0.8-14,0.1-20.9
				c-0.4,2.7-0.7,5.3-1.1,8c1.2-8.2,3.5-16.1,6.7-23.7c-1,2.4-2,4.8-3,7.2c2.1-4.8,4.5-9.5,7.2-13.9c1.3-2.1,2.7-4.2,4.1-6.2
				c0.6-0.9,1.3-1.8,2-2.7c-4.8,7.2-2,2.6-0.6,0.9c-16.7-9.7-33.4-19.5-50.1-29.2c-7.9,27.1-7.2,57.8,3.2,84.1
				c4.5,11.4,12.1,19.8,24.9,21.5c12.8,1.7,22.5-4.4,29.9-14.3c8.2-11,16.5-22.1,24.7-33.1c4.4-5.8,4.9-16.4,3-23.1
				c-1.9-7-7.3-14.5-13.8-17.9c-7-3.7-15.4-5.5-23.1-3C388,308.1,382.9,312.7,378,319.3L378,319.3z"/>
		</g>
	</g>
	<g>
		<g>
			<path class="st10" d="M412.1,291.9c2.5-4-4.4,4.5-1.8,2.2c0.5-0.5,2.2-1.8,2.5-2.4c-0.3,0.7-6.1,4-2.7,2.3
				c1.3-0.6,2.5-1.3,3.8-1.8c-2.4,1-4.8,2-7.2,3c2.2-0.8,4.4-1.4,6.8-1.8c-2.7,0.4-5.3,0.7-8,1.1c2.4-0.3,4.7-0.3,7.1-0.1
				c-2.7-0.4-5.3-0.7-8-1.1c3.1,0.4,6,1.2,8.9,2.3c-2.4-1-4.8-2-7.2-3c2.7,1.2,5.4,3.5,8.1,4.5c-4-3.2-4.8-3.8-2.4-1.8
				c0.4,0.3,0.8,0.7,1.2,1c1.4,1.3,2.6,2.7,3.9,4.1c2,2.1-4.2-6.1-0.6-0.6c1,1.4,1.9,2.9,2.7,4.4c1.9,3.3,3.4,6.7,4.9,10.1
				c-1-2.4-2-4.8-3-7.2c4.6,11.3,7.7,23.1,9.4,35.2c-0.4-2.7-0.7-5.3-1.1-8c0.5,4.3,0.9,8.5,1.1,12.8c0.8,15.6,13.2,30.8,30,30
				c15.6-0.7,30.8-13.2,30-30c-0.8-16.1-3.3-32.3-8.5-47.6c-5.5-16.3-13.1-32.4-25.4-44.7c-12.5-12.5-30.5-21.4-48.5-20.7
				c-19.7,0.7-37.6,10.4-48,27.4c-8.2,13.4-3.4,33.6,10.8,41C385.6,310.4,403.3,306.2,412.1,291.9L412.1,291.9z"/>
		</g>
	</g>
	<g>
		<g>
			<path class="st10" d="M638.1,335c-1.5-4.9-3-9.8-4.3-14.8c-0.6-2.5-1.2-5-1.7-7.5c-0.2-1-0.8-2.8-0.7-3.8
				c0.1,0.7,0.2,1.5,0.3,2.2c-0.1-0.9-0.2-1.9-0.3-2.8c-0.2-2.5-0.3-5-0.2-7.5c0-0.7,0.2-4.8,0-1.7c-0.2,2.7,0.1-0.3,0.2-1
				c0.4-1.9,1-3.6,1.6-5.5c0.8-2.8-2,4-0.6,1.4c0.6-1,1.1-2.1,1.7-3.2c0.5-0.8,1-1.6,1.5-2.4c1.7-2.9-0.1,1.5-0.9,1.2
				c0,0,3.8-3.6,3.9-4c-0.2,0.5-4.5,2.9-1.3,1c0.8-0.4,1.6-0.9,2.3-1.4c2.6-1.6-0.2,1.3-1.7,0.6c0.5,0.2,2.8-0.8,3.3-0.9
				c2.7-0.9-4.8,0.1-1.9,0.2c1,0,2,0.1,3,0c3-0.1-4.3-1.1-1.5-0.2c0.9,0.3,1.9,0.6,2.9,0.8c2.9,0.6-3.8-2-1.2-0.6
				c0.7,0.4,1.4,0.7,2,1.1c0.9,0.5,1.8,1,2.6,1.6c0.7,0.4,1.3,0.9,1.9,1.3c1.3,1,0.9,0.6-1.4-1.1c1.4,0.2,3.7,3.3,4.7,4.3
				c1.5,1.5,2.9,3,4.3,4.6c1.5,1.7,3,3.4,4.4,5.2c0.7,0.8,1.7,1.8,2.2,2.7c-1.4-2.5-1.3-1.7,0.2,0.3c5.7,7.7,10.8,15.9,15.2,24.4
				c2,3.9,4.8,8.3,6,12.6c0-0.1-1.5-3.8-0.6-1.3c0.4,1.1,0.9,2.2,1.3,3.3c0.9,2.5,1.8,5,2.6,7.5c1.3,4.1,3.3,9.3,3.2,13.7
				c0.1-5.8,0,1.1,0,2.7c0,1.1,0,2.3,0,3.4c0,0.9-0.1,1.7-0.1,2.6c-0.1,1.7,0,1.1,0.3-1.7c-0.1,0-1.4,6.2-1.5,6.7
				c0.1-0.5-0.9,3-1,2.9c1.3-3,1.6-3.8,0.9-2.2c-0.3,0.6-0.6,1.2-1,1.8c-0.5,0.8-1,1.6-1.5,2.4c-2.1,3.4,2.4-2.6,0.5-0.7
				c-0.5,0.4-4.5,4-4.5,4.4c-0.1-1,4-2.7,1.2-1c-1.2,0.7-2.3,1.4-3.5,2.1c-0.6,0.3-2.9,1.3,0.2,0c3.5-1.5-0.3,0-1.1,0.2
				c-0.3,0.1-2.2,0.3-2.6,0.6c3.6-0.4,4.5-0.5,2.7-0.4c-0.7,0.1-1.3,0.1-2,0.1c-2.6,0.2-0.7-1.5,2,0.4c-0.8-0.6-3-0.7-3.9-1
				c-11.2-3.6-25.1,4.2-27.7,15.7c-2.8,12.3,3.7,23.9,15.7,27.7c25.6,8.1,54.1-7.8,65-31.4c12.9-27.8,4.7-57.7-7.3-84.2
				c-4.8-10.6-10.6-20.7-17.2-30.3c-7.1-10.1-14.8-20.5-24.1-28.7c-11.3-9.9-25.2-17.7-40.7-17.2c-13.7,0.4-27,6.5-36.3,16.6
				c-11,12-16.6,26.9-17.5,43c-0.9,16,3.7,32,8.4,47.1c3.5,11.2,15.9,19.5,27.7,15.7C633.7,359,641.8,347,638.1,335L638.1,335z"/>
		</g>
	</g>
	<g>
		<g>
			<path class="st10" d="M289.9,599.5c2.4-7.4,9.9-12,17.7-9.9c8.8,2.4,13.1,12.4,8.7,20.3c1.2-2.1,0.9-1.7-1,1
				c-2.5,1.8-2.8,2-0.7,0.6c0.9-0.5,1.9-1,2.8-1.5c-2.9,1.2-3.2,1.3-0.9,0.4c-8.5-11-16.9-22-25.4-33.1c-1.3,2-1,1.7,1-0.9
				c-0.6,0.7-1.3,1.5-2,2.1c-2.8,3.4,3.6-2,0,0.2c-1.7,1-3.4,2.1-5.2,3c-0.7,0.3-1.4,0.7-2.1,1c-1.5,0.7-0.9,0.4,1.9-0.8
				c-0.4,0.9-4.7,1.7-5.7,2c-1.5,0.5-3,1-4.5,1.4c-3.5,1.1-7,2.3-10.4,3.6c-18.9,7.5-34.8,21.2-38.4,42.3c-4,23.7,8,50,34.3,52.3
				c11.2,1,22.4-4.3,30.1-12.3c7.2-7.4,10.8-17.1,14-26.8c-14.7-2-29.5-4-44.2-6c-0.7,8.1-1.4,16.3-2.1,24.4
				c-1,11.8,11.1,23,22.5,22.5c13.1-0.6,21.4-9.9,22.5-22.5c0.7-8.1,1.4-16.3,2.1-24.4c1-11.1-9.3-20.7-19.5-22.1
				c-11.3-1.5-21.2,5.3-24.7,16.1c-0.5,1.5-1,3-1.5,4.5c-1.3,4,1.5-2.6,0.2-0.2c-0.6,1.1-1.2,2.3-1.8,3.5c-1.1,1.7-1.2,1.8,0,0.2
				c1.2-1.4,1.1-1.5-0.2,0c1.7-1.4,3.1-2.4,0.4-0.5c-1.5,0.8-0.8,0.5,2-0.9c1.1-0.1,2.1-0.2,3.2-0.3c-2,0-1.9,0,0.2,0.2
				c1.6,0,3.1,0.5,4.5,1.4c-3.5-1.7,2.9,2.3,0.9,0.6c-1.8-1.6,2.5,4.1,0.8,0.6c2.6,5.3,0.8,1.8,0.3,0.1c-1.2-3.8-0.1,3.7,0.1,1
				c0-0.2-0.1-3.8,0.1-3.8c-0.5,3.2-0.6,4-0.2,2.2c0.1-0.7,0.3-1.5,0.5-2.2c0.2-0.5,0.3-1,0.5-1.4c0.7-1.9,0.7-1.9,0-0.1
				c-0.7,1.8-0.7,1.7,0.2,0c0.3-0.4,0.5-0.9,0.8-1.3c1.1-1.6,1.1-1.7,0-0.2c-1.2,1.5-1.1,1.5,0.2,0c0.6-0.5,4-3.3,1.2-1.3
				c-2.8,2.1,0.9-0.5,1.6-0.9c0.5-0.3,3.9-1.7,4.1-2.2c-0.6,1.2-4.3,1.7-0.3,0.2c5.1-1.9,10.4-3.4,15.6-5.2
				c14.6-5.2,27.8-12.7,36.1-26.3c4.7-7.7,3.6-18-1.8-25c-5-6.5-15.4-11.4-23.7-8.1c-10.2,4.1-19.1,8.4-25.5,17.7
				c-6.7,9.7-7.8,22.9-2.1,33.4c6.4,11.7,20.4,18.2,33.5,15.2c11.3-2.6,19.3-11,22.9-21.9c3.7-11.2-4.3-25.1-15.7-27.7
				C305.2,581,293.9,587.6,289.9,599.5L289.9,599.5z"/>
		</g>
	</g>
	<g>
		<g>
			<path class="st10" d="M321.4,641.4c15.7,2.9,30.7,8.2,45.5,14.2c0.8,0.3,1.7,0.6,2.5,1c-4.2-2-1.3-0.6-0.4-0.2
				c1.7,0.7,3.3,1.4,5,2.2c3.9,1.7,7.8,3.4,11.6,5.1c8.4,3.7,16.9,7.3,25.4,10.7c30.5,12,62.8,18.9,95.4,21.8
				c32.3,2.8,64.9,0.7,96.8-5.4c15.5-3,30.8-7.1,45.7-12.3c14.9-5.2,30.8-10.8,43.6-20c8.6-6.2,16.5-13.6,21.5-23.1
				c5-9.3,7.3-19,8.2-29.5c1.5-17.5-3.4-35.6-8.6-52.2c-3.5-11.2-15.8-19.6-27.7-15.7c-31.2,10.1-62.3,20.2-93.5,30.3
				c-11.2,3.6-19.6,15.8-15.7,27.7c3.6,11.2,15.7,19.6,27.7,15.7c31.2-10.1,62.3-20.2,93.5-30.3c-9.2-5.2-18.5-10.5-27.7-15.7
				c2,6.4,3.9,12.9,5.3,19.4c0.4,1.6,0.7,3.2,1,4.8c0.2,0.8,1,6,0.5,2.6c-0.5-3.4,0.1,1.7,0.2,2.6c0.1,1.8,0.2,3.7,0.2,5.5
				c0,1.5-0.1,3.1-0.2,4.6c-0.2,4.3,0.9-4.1,0,0.1c-0.3,1.5-0.6,3-1,4.4c-0.2,0.7-0.5,1.4-0.7,2.2c-0.6,2.7,1.9-3.7,0.6-1.2
				c-0.7,1.4-1.4,2.7-2.2,4.1c-0.1,0.2-1.3,1.8-1.3,2c-0.1-0.2,2.8-3.2,1.1-1.4c-1.1,1.1-2.1,2.3-3.2,3.4c-0.6,0.5-1.2,1.1-1.7,1.6
				c-2.4,2.3,0-0.6,0.9-0.6c-0.8,0-3.2,2.2-3.9,2.7c-1.3,0.8-2.7,1.6-4.1,2.4c-3,1.7-6.2,3.1-9.3,4.6c-2.3,1.1,1.6-0.7,1.7-0.7
				c-0.4-0.1-2,0.8-2.4,1c-1.6,0.7-3.3,1.3-4.9,1.9c-3.5,1.4-7.1,2.7-10.7,3.9c-13.8,4.8-27.9,8.6-42.3,11.5
				c-3.4,0.7-6.9,1.3-10.3,1.9c-1.7,0.3-3.5,0.6-5.2,0.8c-0.9,0.1-1.7,0.2-2.6,0.4c-3.3,0.5,4.1-0.5,0.8-0.1
				c-7.3,0.8-14.5,1.6-21.8,2c-14.9,0.9-29.8,0.7-44.7-0.4c-3.5-0.3-7-0.6-10.5-1c-1.7-0.2-3.5-0.4-5.2-0.6
				c-2.7-0.3,1.5,0.2,1.6,0.2c-0.9,0.2-2.5-0.4-3.5-0.5c-7.2-1.1-14.4-2.4-21.5-4c-14.3-3.1-28.3-7.3-42-12.4
				c-3.9-1.5-7.8-3-11.7-4.6c-0.8-0.3-1.7-0.6-2.5-1c1.7,0.8,2.6,1.1,0.4,0.2c-1.9-0.8-3.9-1.7-5.8-2.5c-9-3.9-18-7.8-27-11.6
				c-15.8-6.6-31.9-12.5-48.8-15.6c-11.5-2.1-24.8,3.2-27.7,15.7C303.2,624.8,309,639.2,321.4,641.4L321.4,641.4z"/>
		</g>
	</g>
	<g>
		<g>
			<path class="st10" d="M580.9,603.4c-0.3,4,0.2-1.1,0.3-1.6c-0.3,0.8-0.4,2-0.6,2.9c-0.1,0.6-1.3,5.7-1.7,5.7
				c-0.2,0,2.2-4.4,0.5-1.3c-0.5,0.9-0.9,1.8-1.4,2.6c-0.5,0.9-1,1.7-1.5,2.5c-2.1,3.5,2.2-2.4,0.4-0.4c-1.3,1.5-2.6,3-4.1,4.3
				c-4,3.7,3.3-1.9-1.2,1.1c-1.7,1.1-3.5,2-5.3,3c-2.8,1.5,3.7-1.1,0.6-0.3c-1.4,0.3-2.7,0.9-4,1.2c-0.7,0.2-6.4,0.9-6.7,1.4
				c0.2-0.4,5.5-0.4,0.9-0.2c-1.1,0-2.3,0.2-3.4,0.2c-4.9,0.2-9.9,0-14.8-0.3c-10.3-0.7-20.6-1.8-30.9-2.7
				c-21.4-2-42.9-3.9-64.3-5.9c-4.8-0.4-9.6-0.9-14.3-1.4c-2.1-0.2-4.2-0.5-6.3-0.7c-0.8-0.1-4.6-0.6-1.5-0.2
				c3.4,0.5-1.7-0.3-2.4-0.4c-10-1.6-20-3.8-29.5-7.3c-0.8-0.3-1.7-0.7-2.5-1c-2.6-0.9,3.5,1.7-0.4-0.2c-2.4-1.2-4.8-2.4-7.2-3.7
				c-2.1-1.2-4.2-2.5-6.2-3.8c-0.9-0.6-1.8-1.2-2.7-1.8c-3.3-2.3-0.4-1.3,0,0.1c-0.4-1.5-4.9-4.1-6.1-5.2c-1.6-1.5-3.1-3-4.6-4.5
				c-0.7-0.7-4.6-6.1-5.3-6.1c0.2,0,3.2,4.4,0.6,0.7c-0.9-1.3-1.9-2.6-2.8-4c-6.6-9.7-20.1-15-30.8-8.1c-9.7,6.3-15.1,20.4-8.1,30.8
				c12.6,18.7,29.7,34.8,50.4,44.4c23,10.6,47.4,14.2,72.4,16.6c23.5,2.2,47,4.3,70.5,6.4c22.7,2.1,47.1,6.4,69.5-0.3
				c28.4-8.5,47.2-33.5,49.3-62.8c0.8-11.8-10.9-23-22.5-22.5C590.5,581.5,581.7,590.8,580.9,603.4L580.9,603.4z"/>
		</g>
	</g>
	<g>
		<g>
			<path class="st10" d="M356.3,585.4c8.2,15.5,24.3,24.3,41.5,25.3c11.8,0.7,23-10.8,22.5-22.5c-0.6-12.8-9.9-21.8-22.5-22.5
				c-3.2-0.2,1.5,0,2.1,0.4c-0.6-0.4-1.8-0.5-2.5-0.6c-3.1-0.7,1.4,0.2,1.7,0.8c-0.3-0.5-2.3-1.4-2.9-1.6c-2.2-1,3.1,2.9,1.4,1.2
				c-0.6-0.6-1.2-1.3-1.9-1.8c-1.9-1.5,2.2,3.6,1.1,1.5c-0.5-1-1.1-1.9-1.7-2.8c-5.5-10.4-20.9-14.5-30.8-8.1
				C353.8,561.5,350.4,574.3,356.3,585.4L356.3,585.4z"/>
		</g>
	</g>
	<g>
		<g>
			<path class="st10" d="M630.1,645.8c23-7.4,43.5-19.1,61.8-34.9c9-7.7,8.5-24,0-31.8c-9.5-8.8-22.3-8.2-31.8,0
				c-1.4,1.2-3.5,3.8-5.3,4.4c1.3-0.5,2.8-2.1,0.5-0.4c-0.9,0.7-1.8,1.3-2.8,2c-4,2.8-8.1,5.4-12.3,7.7c-4,2.2-8.1,4.2-12.2,6.1
				c-2.9,1.4,3.7-1.4,0.7-0.3c-1.1,0.4-2.1,0.8-3.2,1.2c-2.4,0.9-4.8,1.7-7.3,2.5c-11.2,3.6-19.6,15.8-15.7,27.7
				C606.1,641.3,618.1,649.7,630.1,645.8L630.1,645.8z"/>
		</g>
	</g>
	<g>
		<g>
			<path class="st10" d="M679.9,638.7c6.5,12.3,22.4,17.8,35.5,14c4.7-1.4,9.6-3.6,13.7-6.4c2.2-1.1,1.9-1.1-1,0.2
				c2.3-0.6,1.5-0.5-2.4,0.2c-2.4,0-4.7-0.7-6.8-2c-5.1-6.6-6.9-8.2-5.2-4.8c4.7,10.8,21.4,14.1,30.8,8.1
				c11.2-7.2,13.1-19.2,8.1-30.8c-5.6-12.8-22.6-17.9-35.2-14.5c-4.7,1.3-9.7,3.5-13.7,6.2c-2.2,1.1-1.9,1.1,1-0.2
				c-2.3,0.6-1.5,0.6,2.4-0.1c-2.4-0.1-1.6,0.1,2.4,0.4c3.9,1.3,7,3.5,9.3,6.8c-5.5-10.4-20.9-14.5-30.8-8.1
				C677.4,614.8,674,627.6,679.9,638.7L679.9,638.7z"/>
		</g>
	</g>
	<g>
		<g>
			<path class="st10" d="M721.6,616.6c-1.4,8.5-1.6,16.7,1.4,24.9c3.5,9.7,9.7,18,18.5,23.6c14.2,9,34.3,9.1,48.4-0.3
				c6.4-4.3,11.9-9.8,17.6-14.9c6.8-6.1,12.9-12.5,16-21.3c3.2-9.4,1.8-19.8-3.6-28.1c-5.9-9.2-15.4-14.1-25.6-17.3
				c-1.1-0.3-2.2-0.6-3.2-1c-0.5-0.2-1.1-0.3-1.6-0.5c-2.5-0.9-2.1-0.7,1.3,0.7c-1.1-1.3-4.8-2.7-6.4-3.6c-2.8-1.7-0.4-2,0.8,0.7
				c-0.4-0.8-2.3-2-3-2.6c-2-1.9-3.8-3.8-5.6-5.9c-7.1-8-13-16.9-20.4-24.7c-11.4-12-27.2-22.2-44.5-17.5
				c-10.5,2.9-19.3,11.1-22.3,21.7c-2.9,10.1-0.2,20.9,5,29.8c15.2,26,44.2,44.9,72.9,52.2c11.4,2.9,24.9-3.7,27.7-15.7
				c2.7-11.7-3.5-24.6-15.7-27.7c-4-1-7.9-2.3-11.8-3.7c-3.8-1.3,0.6,0.1,1.1,0.5c-0.7-0.5-2-0.9-2.8-1.3c-2.3-1.1-4.6-2.3-6.9-3.6
				c-1.8-1-3.6-2.1-5.3-3.3c-1.5-1-3.4-3-5.1-3.6c0.5,0.2,3.9,3.3,0.9,0.6c-0.8-0.7-1.6-1.3-2.4-2c-1.8-1.5-3.5-3.1-5.1-4.8
				c-1.5-1.5-2.9-3-4.2-4.5c-0.7-0.8-1.3-1.6-2-2.4c-2.1-2.3,2.4,3.4,0.6,0.9c-0.4-0.6-3.1-5.6-3.8-5.7c0.9,0.2,1,5.1,0.5,1.2
				c-0.4-3.8,0.1,2.2,0,3.4c-0.8,7.5-5.3,9.5-11,11.6c-0.6,0.1-1.1,0.1-1.7,0.2c1.8,0.1,1.8,0-0.2-0.1c-0.6-0.2-5.2-2.3-3.1-0.8
				c0.7,0.5,3.9,1.8,1.2,0.6c-2.4-1.1-0.1-0.1,0.7,0.6c1.6,1.3,3.1,2.8,4.5,4.2c10.8,11,18.5,24.7,30.5,34.6
				c8.7,7.2,17.6,11.5,28.4,14.9c0.4,0.1,2.7,0.6,3.2,1c-2.5-2.4-2.3-1.3-1-0.2c-4.4-3.4-1.7-1.7-1-0.7c-1.3-1.6-2.3-3-2.8-4.9
				c-0.5-1.9-0.7-4.4-0.2-6.4c0.4-0.9,0.8-1.9,1.1-2.8c-1,1.6-1,1.6,0.1,0.1c1.8-2.7,0-0.2-0.7,0.5c-0.9,0.9-1.8,1.7-2.7,2.5
				c-4.3,3.9-8.8,7.7-13.1,11.7c-2.2,2.1,3-1.5,0.5-0.5c-4.4,1.7,0.3-0.4,0.7-0.2c0.3,0.1-2.8,0.6-2.8,0.7c3.3-0.4,4.1-0.5,2.3-0.4
				c-0.7,0-1.5,0-2.2,0c0.6-0.3,5.4,1.3,1.6,0.1c-3.9-1.2,2.8,1.9,0.6,0.4c-0.2-0.1-0.4-0.2-0.6-0.3c-1.6-1.1-1.7-1-0.1,0.1
				c2.2,3.6-0.6-1.7-0.9-1.2c-0.4,0.6,3.1,3.6,1,1c-2.8-3.7,1.6,4.3,0,0c-1.2-3.3,1.4,1,0,1.7c0-0.5,0-1-0.1-1.5
				c0.1-2.5,0-2-0.4,1.6c1-6.2,1-11.8-2.3-17.3c-2.7-4.7-8.1-9.1-13.4-10.3C738.5,598.4,723.6,604.2,721.6,616.6L721.6,616.6z"/>
		</g>
	</g>
	<g>
		<g>
			<path class="st1" d="M325,566.1c8.2,8.1,16.3,16.3,24.5,24.4c7.3,7.3,14.4,14.9,22.5,21.5c15.8,12.9,35.9,20.5,55.6,11.7
				c-3.8-2.2-7.5-4.3-11.3-6.5c-0.2,2.3-0.4,4.6-0.5,6.9c-0.4,5.3,5.1,8,9.5,7.2c20.5-3.5,40.9-6.9,61.4-10.4
				c9.5-1.6,5.5-16.1-4-14.5c-20.5,3.5-40.9,6.9-61.4,10.4c3.2,2.4,6.3,4.8,9.5,7.2c0.2-2.3,0.4-4.6,0.5-6.9
				c0.5-6.2-6.6-8.6-11.3-6.5c-15.8,7.1-32.6-4.5-43.7-14.9c-14-13-27.1-26.9-40.6-40.4C328.8,548.7,318.2,559.3,325,566.1
				L325,566.1z"/>
		</g>
	</g>
	<g>
		<g>
			<path class="st1" d="M506.1,616.6c22.1,22.3,58.9,26.7,85.6,10.1c-3-0.4-6.1-0.8-9.1-1.2c7.7,8.3,20.3,10.3,30.8,6.7
				c12.8-4.3,22.4-14.7,32.2-23.5c21.6-19.6,43.2-39.1,64.8-58.7c7.2-6.5-3.5-17.1-10.6-10.6c-18.7,16.9-37.4,33.8-56,50.8
				c-8.6,7.8-16.9,16.6-26.4,23.2c-7,4.8-17.4,8.8-24.1,1.5c-2.2-2.4-6.4-2.9-9.1-1.2c-21.1,13.1-49.9,9.9-67.4-7.7
				C509.9,599.1,499.3,609.7,506.1,616.6L506.1,616.6z"/>
		</g>
	</g>
	<g>
		<g>
			<path class="st1" d="M695,523.7c-34.2,25.6-74.8,42.2-117.3,47.1c-4,0.5-7.5,3.1-7.5,7.5c0,3.7,3.4,8,7.5,7.5
				c45.2-5.2,88.4-21.9,124.9-49.2c3.3-2.4,4.9-6.5,2.7-10.3C703.4,523.2,698.2,521.3,695,523.7L695,523.7z"/>
		</g>
	</g>
	<g>
		<g>
			<path class="st1" d="M421.3,567.6c-25.3-6.1-50.5-12.1-75.8-18.2c-9.4-2.3-13.4,12.2-4,14.5c25.3,6.1,50.5,12.1,75.8,18.2
				C426.7,584.3,430.7,569.8,421.3,567.6L421.3,567.6z"/>
		</g>
	</g>
	<g>
		<g>
			<path class="st1" d="M311.3,557.4c-13.5,34.6-17.4,72-12.1,108.6c0.6,4,5.7,6.2,9.2,5.2c4.3-1.2,5.8-5.2,5.2-9.2
				c-4.9-34-0.4-68.8,12.1-100.7c1.5-3.8-1.6-8.2-5.2-9.2C316.3,550.9,312.7,553.6,311.3,557.4L311.3,557.4z"/>
		</g>
	</g>
	<g>
		<g>
			<path class="st1" d="M709.5,538.5c11.9,35.5,18.6,72.4,19.7,109.9c0.3,9.6,15.3,9.7,15,0c-1.1-38.7-7.9-77.2-20.3-113.9
				C720.9,525.4,706.4,529.3,709.5,538.5L709.5,538.5z"/>
		</g>
	</g>
</g>
<g id="Layer_1">
	<g>
		<g>
			<path d="M623.4,179.3c22-20.1,48.8-33.8,77.8-40.3c9.4-2.1,5.4-16.6-4-14.5c-31.5,7-60.6,22.4-84.4,44.1
				C605.6,175.3,616.3,185.8,623.4,179.3L623.4,179.3z"/>
		</g>
	</g>
	<g>
		<g>
			<path d="M701.5,138.8c9.7,0,9.7-15,0-15C691.8,123.8,691.8,138.8,701.5,138.8L701.5,138.8z"/>
		</g>
	</g>
	<g>
		<g>
			<path d="M700.9,137.6c14.5,4.3,28.1,11.7,39.5,21.6c5.5,4.8,10.6,10.1,15,15.9c4.4,5.8,10.3,13.4,11.8,20.6c0-1.3,0-2.7,0-4
				c0.8-0.3,0.5-0.1-1,0.8c-0.4,0.3-0.8,0.6-1.3,0.9c-1.6,1.2-3.1,2.4-4.6,3.7c-2.4,2.1-4.5,4.4-6.5,6.8c-4.3,5.2-7.8,10.9-10.6,17
				c-6.4,14.1-9.2,29.3-11.7,44.5c4.6-0.6,9.1-1.2,13.7-1.8c-23.4-34.4-53.6-79.5-34.2-122.7c1.7-3.7,1-8-2.7-10.3
				c-3.2-1.9-8.6-1-10.3,2.7c-22.1,49.1,7,97.8,34.2,137.8c3.2,4.7,12.6,5.1,13.7-1.8c3-17.9,5.9-36.6,16.3-52c2-3,4.3-5.7,6.9-8.1
				c2.9-2.8,6.8-4.6,9.5-7.5c6.7-7,0.9-16.2-3-23c-15.5-26.8-41.3-46.9-70.9-55.7C695.6,120.4,691.6,134.9,700.9,137.6L700.9,137.6z
				"/>
		</g>
	</g>
	<g>
		<g>
			<path d="M709.2,239.1c-1.8,7.1-2.6,14.3-2.2,21.6c0.6,9.6,15.6,9.7,15,0c-0.3-6,0.2-11.8,1.7-17.6
				C726.1,233.7,711.7,229.7,709.2,239.1L709.2,239.1z"/>
		</g>
	</g>
	<g>
		<g>
			<path d="M356.9,200.8c9.7,0,9.7-15,0-15C347.3,185.8,347.2,200.8,356.9,200.8L356.9,200.8z"/>
		</g>
	</g>
	<g>
		<g>
			<path d="M364,189.1c-10.9-15-22.1-30.2-35.3-43.2c-12.1-11.9-26.3-21-43.5-22.9c-4-0.4-7.5,3.8-7.5,7.5c0,4.4,3.5,7.1,7.5,7.5
				c14,1.5,25.7,11,35.2,20.7c11.3,11.7,21.2,24.8,30.7,37.9c2.4,3.3,6.5,4.8,10.3,2.7C364.6,197.5,366.4,192.4,364,189.1L364,189.1
				z"/>
		</g>
	</g>
	<g>
		<g>
			<path d="M281.2,125.7c-9.4,5-9.8,16.6-10.9,25.9c-1.4,12.2-2.2,24.6-2.5,36.9c-0.7,24.7,0.5,49.4,1.6,74.1
				c4.7-1.3,9.3-2.5,14-3.8c-8.8-16.9-19.6-32.7-32.2-47c-6.2-7-12.8-13.6-19.8-19.8c-3.5-3.1-7.1-6.1-10.8-8.9
				c-1.8-1.4-3.6-2.8-5.5-4.2c-1.1-0.8-2.2-1.6-3.3-2.4c-0.4-0.3-0.9-0.6-1.3-1c-1.1-0.9-1-0.5,0.4,1.1c0,1.3,0,2.7,0,4
				c-0.8,0.6-0.6,0.3,0.7-0.9c0.7-0.8,1.5-1.6,2.2-2.4c1.1-1.2,2.3-2.3,3.5-3.5c2.7-2.7,5.6-5.2,8.5-7.7c5.8-4.8,11.9-9.2,18.3-13.1
				c13-7.9,26.9-13.8,41.6-17.7c9.3-2.5,5.4-16.9-4-14.5c-28.1,7.4-54.2,22-75.1,42.3c-4.5,4.4-12,10.2-10.3,17.4
				c1.6,6.7,10.5,10.7,15.5,14.6c11.4,9.1,21.9,19.2,31.3,30.4c10.6,12.5,19.6,26.3,27.2,40.9c3.4,6.6,14.3,3.6,14-3.8
				c-1-22.1-2-44.2-1.7-66.3c0.1-10.7,0.6-21.4,1.4-32.1c0.4-5.5,1-11,1.7-16.5c0.4-3.1,0.6-7.8,3-9.1
				C297.3,134.1,289.7,121.2,281.2,125.7L281.2,125.7z"/>
		</g>
	</g>
	<g>
		<g>
			<path d="M235.6,216.1c6.1,32.7,9.8,65.7,11.3,98.9c0.4,9.6,15.4,9.7,15,0c-1.5-34.5-5.5-68.9-11.8-102.9
				C248.3,202.7,233.8,206.7,235.6,216.1L235.6,216.1z"/>
		</g>
	</g>
	<g>
		<g>
			<path d="M350.3,190c-37.8,33.9-73.9,71.8-96.4,117.8c-21.3,43.6-29.7,95.7-14.3,142.5c15.1,45.9,52.4,78.7,96,97.2
				c51.1,21.7,107.7,23.8,162.4,26.1c51.2,2.2,104.6,2.9,152.6-17.8c43.2-18.6,75.8-55.1,93.5-98.3c38.4-93.9-4.9-202.9-81.8-263.1
				C624.7,165,580,145.9,532.7,140c-49.9-6.3-101.5,2.8-146.8,24.6c-11,5.3-21.5,11.4-31.6,18.2c-8,5.4-0.5,18.4,7.6,13
				c39.4-26.6,86-41.4,133.5-42.6c45.5-1.1,90.4,10.8,129.6,33.9c79.4,46.9,134.4,142.2,114.1,235.6c-9,41.5-32.9,80.6-68.1,104.9
				c-40.2,27.7-90,32.6-137.5,32.2c-25.4-0.2-50.9-1.4-76.2-3c-26.8-1.7-53.7-4.4-79.8-10.9c-42.8-10.7-85.6-32.8-109.9-70.9
				c-25-39.2-25.4-89.1-11.6-132.3c14.6-45.7,45.5-84.3,79.1-117.6c8.4-8.3,17-16.3,25.8-24.2C368.1,194.2,357.5,183.6,350.3,190
				L350.3,190z"/>
		</g>
	</g>
	<g>
		<g>
			<path d="M549.3,480.1c9.7,0,9.7-15,0-15C539.6,465.1,539.6,480.1,549.3,480.1L549.3,480.1z"/>
		</g>
	</g>
	<g>
		<g>
			<path d="M548.6,464.7c-30.6,2.8-73.1,6.2-91.1-25.1c-7.3-12.7-5.4-27.4,1.9-39.6c8-13.4,20.9-22.6,35.5-27.6
				c16.4-5.7,33.9-6.9,51.1-7.6c18.4-0.7,37.4-2,55.6,1.9c14.5,3.1,29,9.9,37.9,22.2c8.6,11.8,9.5,26.6,2.9,39.5
				c-18.7,36.7-64.3,36.9-100,36.4c-9.7-0.1-9.7,14.9,0,15c39.2,0.6,83.4-1.2,108.3-36.2c10.2-14.2,14.5-33.2,8.2-49.9
				c-6.2-16.4-19.8-28.8-35.6-35.8c-19.5-8.5-41.1-9.1-62-8.6c-20.7,0.5-41.9,0.9-62.1,6.1c-18.2,4.7-35.1,13.8-46.9,28.8
				c-11,13.9-17.1,31.5-13.1,49.2c4.4,19.5,20.6,33.8,38.4,41.2c22.5,9.3,47.5,7.3,71.1,5.2C558.1,478.9,558.2,463.9,548.6,464.7
				L548.6,464.7z"/>
		</g>
	</g>
	<g>
		<g>
			<path d="M498.7,406.4c-7.5,10.1-16.3,26.4-10.4,39.1c2.9,6.3,9.3,9.9,16.2,9.4c7.9-0.6,13.9-5.5,18.1-11.9
				c7.4-11,14.7-27.1,6.6-39.5c-7.5-11.4-25.5-10.3-29.9,3.1c-3,9.2,11.5,13.1,14.5,4c-0.2,0.7-0.3-0.8,1-0.2
				c0.3,0.1,0.5,0.2,0.8,0.3c1.9,0.8,2.3,4.4,2.2,6.1c-0.3,6.4-5,15.1-9.1,19.9c-1,1.2-4.6,4.7-6.6,3.1c-1.3-1-0.8-4-0.6-5.3
				c1.1-7.4,5.7-14.6,10-20.6c2.4-3.3,0.5-8.3-2.7-10.3C505.2,401.4,501.1,403.1,498.7,406.4L498.7,406.4z"/>
		</g>
	</g>
	<g>
		<g>
			<path d="M559.7,407.4c2.4,12.8,6.2,27.3,18.5,34c12.1,6.6,28,3.7,33.2-10.1c5.3-14.3-4.5-29.4-15.9-37.4c-11-7.7-28.6-7.2-35,6.2
				c-4.1,8.7,8.8,16.3,13,7.6c6.5-13.6,31.6,9.9,23,20.3c-3.7,4.5-11.2,1.1-14.3-2.4c-5.3-5.9-6.5-14.7-7.9-22.1
				C572.4,393.9,558,397.9,559.7,407.4L559.7,407.4z"/>
		</g>
	</g>
	<g>
		<g>
			<path d="M499.9,357.5c-2-39.1-5.2-81.6-34.1-111.2c-12.5-12.8-28.8-21.4-46.8-22.6c-19.8-1.3-39.2,7.1-54.4,19.4
				c-15.2,12.4-26.5,29.3-35.4,46.6c-9.4,18.5-16.1,38.4-18.7,59.1c-4.6,37,6.3,77,34.3,102.7c30,27.5,77.2,32.5,110.1,7.1
				c3.2-2.5,2.6-8,0-10.6c-3.1-3.2-7.4-2.5-10.6,0c-24.1,18.6-60,15.2-83.5-2.6c-25.5-19.3-37.3-52.3-36.4-83.5
				c0.6-18.1,5.1-36,12.1-52.7c6.7-16,15.6-31.8,27.2-44.6c11.6-12.8,26.6-23,44-25.5c15-2.1,29.9,2.8,41.5,12.4
				c31.1,25.8,33.7,68.6,35.6,106C485.4,367.1,500.4,367.1,499.9,357.5L499.9,357.5z"/>
		</g>
	</g>
	<g>
		<g>
			<path d="M601.7,349.9c-4.1-15.2-6.1-30.7-6-46.5c0.1-12.3,1.4-25.3,6.7-36.6c5.2-10.9,13.9-18.9,26-21.2
				c12.5-2.4,25.8,1.3,36.4,8c11.2,7.1,20.2,17.4,27.8,28.2c8.5,12,16.3,24.7,22.8,37.8c12,24.1,19,53.2,8,79.1
				c-10,23.4-39.2,39.8-62.9,25.2c-8.3-5.1-15.8,7.9-7.6,13c25.4,15.6,58.9,5,76-17.8c19.4-25.9,17.9-61.6,6.8-90.6
				c-6.3-16.3-15-31.5-24.5-46.1c-8.6-13.2-18.2-26-30.6-35.9c-23.8-18.8-62.1-25-83.5,1.1c-10.4,12.7-14.5,29-15.8,45.1
				c-1.7,20.5,0.8,41.4,6.1,61.2C589.7,363.2,604.2,359.2,601.7,349.9L601.7,349.9z"/>
		</g>
	</g>
	<g>
		<g>
			<path d="M329.5,538.3c-26.7,53.8-29.5,118.6-6.2,174.2c20.6,49,60.5,89.7,109.4,110.8c29.3,12.6,60.8,17.9,92.4,20.1
				c32.1,2.2,65.8,2.8,96.6-7.9c49.7-17.3,85-61.3,101.7-110.1c20.6-60.1,11.3-126.2-6.6-185.7c-2.3-7.8-4.8-15.5-7.5-23.2
				c-3.1-9.1-17.6-5.2-14.5,4c19.5,57.3,33.6,120.2,19.9,180.5c-10.4,45.9-37.9,90.2-80.3,112.7c-25.9,13.7-55.3,16.5-84.1,15.9
				c-30.9-0.6-62.2-3.5-91.8-12.6c-47.7-14.8-88.6-48.6-112.7-92.2c-30.1-54.5-31-123.1-3.4-178.8
				C346.7,537.2,333.8,529.6,329.5,538.3L329.5,538.3z"/>
		</g>
	</g>
	<g>
		<g>
			<path d="M316.7,651.9c9.7,0,9.7-15,0-15C307,636.9,307,651.9,316.7,651.9L316.7,651.9z"/>
		</g>
	</g>
	<g>
		<g>
			<path d="M312.1,652.2c99.7,58.3,221.2,73.2,331.9,40c31.3-9.4,61.5-22.4,89.8-38.7c8.4-4.8,0.8-17.8-7.6-13
				c-96.7,55.8-213.8,69.2-320.6,36.5c-30-9.2-58.8-21.9-85.9-37.8C311.3,634.3,303.8,647.3,312.1,652.2L312.1,652.2z"/>
		</g>
	</g>
	<g>
		<g>
			<path d="M377.7,791c4.9,36,2.3,72.9-7.1,107.9c-1,3.6,1.2,8.5,5.2,9.2c33.4,6,66.9,12.1,100.3,18.1c4.2,0.8,7.8-1.1,9.2-5.2
				c9.5-26.9,19.1-53.7,28.6-80.6c3.2-9.1-11.3-13-14.5-4c-9.5,26.9-19.1,53.7-28.6,80.6c3.1-1.7,6.2-3.5,9.2-5.2
				c-33.4-6-66.9-12.1-100.3-18.1c1.7,3.1,3.5,6.2,5.2,9.2c10.2-37.9,12.4-77.1,7.1-115.9c-0.5-4-5.7-6.2-9.2-5.2
				C378.6,783,377.2,786.9,377.7,791L377.7,791z"/>
		</g>
	</g>
	<g>
		<g>
			<path d="M663.1,804.2c-4.9,38.2,1,76.7,16,112c2.2-3.8,4.3-7.5,6.5-11.3c-37.3,2.7-74.6,5.4-111.9,8.1c2.4,1.8,4.8,3.7,7.2,5.5
				c-5.3-26.5-10.6-53.1-15.9-79.6c-1.9-9.5-16.4-5.5-14.5,4c5.3,26.5,10.6,53.1,15.9,79.6c0.6,3,4.1,5.7,7.2,5.5
				c37.3-2.7,74.6-5.4,111.9-8.1c6.1-0.4,8.8-5.9,6.5-11.3c-14-32.8-18.5-69.1-14-104.4c0.5-4-3.8-7.5-7.5-7.5
				C666.1,796.7,663.6,800.2,663.1,804.2L663.1,804.2z"/>
		</g>
	</g>
	<g>
		<g>
			<path d="M394.8,905.8c-17.4,14.8-36.8,27-57.5,36.4c-9.6,4.4-21.1,7.6-26,17.9c-4.7,9.8-1,20.8,9,25.1c9.8,4.2,22.2,2.7,32.6,2.8
				c12.8,0.2,25.5,0.4,38.3,0.6s25.5,0.4,38.3,0.6c10.9,0.2,23.6,1.9,33.6-3.6c9.8-5.3,13.6-16.2,13.7-26.9
				c0-12.2-6.1-24.8-1.5-36.8c1.5-3.8-1.6-8.2-5.2-9.2c-4.2-1.2-7.8,1.5-9.2,5.2c-3.8,9.8-1.9,20.1-0.2,30.1
				c1.2,6.6,2.8,15.9-1.7,21.7c-4.8,6.3-15.8,4.6-22.6,4.5c-11.1-0.2-22.3-0.3-33.4-0.5c-21.9-0.3-43.9-0.6-65.8-1
				c-4.5-0.1-17.6,0-11.5-7.7c2.3-2.9,6.6-4.5,9.9-6c4.7-2,9.5-4,14.1-6.3c20.1-9.7,38.8-22.1,55.8-36.6
				C412.7,910.1,402.1,899.6,394.8,905.8L394.8,905.8z"/>
		</g>
	</g>
	<g>
		<g>
			<path d="M647.5,920.1c5.5,14.4,18.3,22.5,32.4,27.4c7.7,2.6,15.7,4.4,23.3,7.3c3.5,1.3,7.2,3,10.1,5.3c1.1,0.8,5.3,4.6,4.1,6.3
				c-0.6,1-5.3,0.8-6.3,0.8c-4.9,0.1-9.9,0.1-14.8,0.2c-9.5,0.1-19.1,0.3-28.6,0.4c-9.9,0.1-19.8,0.3-29.6,0.4
				c-7.7,0.1-15.9,0.9-23.6-0.5c-7.9-1.4-13.5-5.7-14.9-13.9c-1.6-9.4,2.6-18.9,6-27.5c1.5-3.8-1.6-8.2-5.2-9.2
				c-4.2-1.2-7.8,1.5-9.2,5.2c-6.8,17.4-12.3,40.4,5.2,53.7c7.2,5.5,16.3,7,25.2,7.3c10.8,0.4,21.6-0.2,32.4-0.3
				c11.2-0.2,22.4-0.3,33.6-0.5c5.6-0.1,11.2-0.2,16.8-0.2c5.1-0.1,10.7,0.3,15.7-1c8.8-2.3,14.5-10.7,11.9-19.8
				c-2.6-9.2-10.7-15-19-18.8c-10-4.5-20.7-6.5-31-10.4c-7.9-2.9-16.8-7.9-19.9-16.2C658.5,907.2,644,911,647.5,920.1L647.5,920.1z"
				/>
		</g>
	</g>
	<g>
		<g>
			<path d="M330.6,553.2c9.7,0,9.7-15,0-15C320.9,538.2,320.9,553.2,330.6,553.2L330.6,553.2z"/>
		</g>
	</g>
	<g>
		<g>
			<path d="M472.8,373.8c2.6-25.9-0.6-52.9-10.2-77.2c-4-10.2-10.1-20.5-21.4-23.5c-11.2-3-22.9,2-30.9,9.9
				c-8.4,8.3-14.1,19.5-19.6,29.8c-6.2,11.7-11.7,24-15,36.8c-5.7,22.2-4.9,47.4,7.6,67.2c12.9,20.5,38.5,32.9,62.3,25.9
				c9.2-2.7,5.3-17.2-4-14.5c-15.9,4.7-33.1-2.6-43-15.5c-11.1-14.5-13.3-34.6-10-52.1c3.9-20.5,13.7-39.5,24.7-57
				c4.6-7.3,10.7-15.5,20-16.3c8.6-0.8,12.8,7.9,15.4,14.7c8.7,22.9,11.6,47.5,9.1,71.8c-0.4,4,3.7,7.5,7.5,7.5
				C469.7,381.3,472.4,377.9,472.8,373.8L472.8,373.8z"/>
		</g>
	</g>
	<g>
		<g>
			<path d="M629.1,354.7c-1.3-18.5,0.1-36.9,4.9-54.8c1.5-5.7,3.3-15.5,9.4-18.2c7-3.1,13.7,4.8,16.9,9.8
				c9.6,14.9,17.3,31.7,23.8,48.1c3.4,8.5,6.5,17.1,9.2,25.8c2.2,7,4.9,14.7,3.7,22.1c-1.3,8.1-8.6,11.4-16.2,10.6
				c-8.9-1-16.6-7.2-23.4-12.5c-3.2-2.5-7.5-3.1-10.6,0c-2.6,2.6-3.2,8.1,0,10.6c8.4,6.5,17.2,13.5,27.8,16
				c9.7,2.3,20.4,0.8,28.2-5.7c17.2-14.4,6.7-40.7,0.6-58c-7.7-21.7-17.2-43.5-29.3-63.2c-5.4-8.8-12.9-16.9-23.6-18.7
				c-10.6-1.8-19.8,3.7-24.9,12.8c-5.7,10.3-8,23.1-9.8,34.6c-2,13.5-2.7,27.1-1.7,40.7C614.8,364.3,629.8,364.4,629.1,354.7
				L629.1,354.7z"/>
		</g>
	</g>
	<g>
		<g>
			<path d="M459.9,377.3c0.1-15.1-0.6-30.1-2.1-45.1c-0.7-6.5-1.5-13-2.5-19.5c-0.9-6.3-1.6-12.8-4.5-18.6
				c-5.6-11.2-18.9-13.6-29.1-7.1c-5.3,3.4-8.9,8.5-12.4,13.5c-3.8,5.4-7.5,10.8-11.1,16.3c-12.8,19.9-23.7,42.9-20.9,67.1
				c2.3,20.5,13.1,41.1,32.7,49.7c12.2,5.3,26.9,4.7,34.1-8c3.5-6.2,4.9-13.6,6.8-20.3c2.2-8,4.5-16,6.7-24c1.9-6.7-5.3-11.3-11-8.5
				c-11.5,5.7-18,17.2-18.4,29.8c-0.1,3.7,1.6,13.7-2.6,16.1c-3.9,2.3-8.7-6.6-10.4-9.1c-4.2-6-8.4-12.1-12.6-18.1
				c-1.9-2.7-4-5.3-5.6-8.1c0,0-1.2-2.5-1.3-2.6c-1,0.1-1.9,0.4-2.8,0.8c0.3,0.3,0.6,0.7,0.9,1c2.7,6.5,7.5,12.7,11.1,18.8
				c4,6.8,8,13.5,11.9,20.3c3.6,6.1,14.5,3.9,14-3.8c-1.4-19.5,5.6-38.3,19.7-51.9c-4.2-2.4-8.4-4.9-12.5-7.3
				c-2.7,6.8-8.7,22.2-18.9,18.8c-7.5-2.6-3.9-17-5.3-22.9c-2.5-10.4-14.5-15.3-22.7-7.4c-9.5,9.1-3,21.3,4,29.4
				c4,4.6,10.7,1.6,12.5-3.3c7.8-21,15.6-41.9,23.4-62.9c1.1-3.1-0.8-6.9-3.4-8.5c-3.1-1.8-6.4-0.9-9.1,1.2
				c-14.5,11.4-20.5,31.8-14.8,49.3c2.2,6.8,12.6,7.5,14.5,0c2.9-11.6,5.8-23.1,8.8-34.7c0.5-2.2,0.9-4.6,1.8-6.7
				c0.1-0.3,0.9-1.5,0.9-1.7c0.2,0.7-2-0.2-2-0.1c0-0.1,2.1,3.5,2.3,3.9c0.9,2.4,1.4,4.9,2.1,7.4c3.9,15,7.8,41.8-12.5,47.3
				c2.8,1.1,5.6,2.3,8.5,3.4c-7-13.2-5.5-30.5,4.1-42.2c-4.3-1.8-8.5-3.5-12.8-5.3c-0.2,13.8-0.4,27.6-0.6,41.5c5,0,10,0,15,0
				c-0.2-6.5-0.3-12.9-0.5-19.4c-0.1-5.5-6.3-9.5-11.3-6.5c-8.7,5.4-15.3,13.6-18.1,23.6c-2.7,9.5-2.1,22.7,8.6,26.8
				c8.2,3.2,17.5-1.6,21.8-8.9c6-10.2,0.5-22.2-4.7-31.4c-3-5.2-9.8-4.5-13,0c-8,11.5-10.2,26.1-6.5,39.5c2.5,9.3,17,5.4,14.5-4
				c-2.7-9.9-0.8-19.6,5-28c-4.3,0-8.6,0-13,0c2.3,4,6.7,10.5,5,15.4c-0.4,1.2-1.1,2.1-2.2,2.7c-1.3,0.8-2.1,0.1-1.5,0.8
				c-2.2-2.6,0.3-9.6,1.4-12.1c2.1-4.8,5.7-8.7,10.2-11.5c-3.8-2.2-7.5-4.3-11.3-6.5c0.2,6.5,0.3,12.9,0.5,19.4
				c0.2,9.6,14.9,9.7,15,0c0.2-13.8,0.4-27.6,0.6-41.5c0.1-6.1-8.6-10.5-12.8-5.3c-14,17.1-16.8,40.7-6.4,60.3
				c1.5,2.9,5.4,4.3,8.5,3.4c12.6-3.4,21.4-14.1,25.1-26.4c4.4-14.7,0.8-31.9-3.9-46.1c-1.9-5.8-5.3-12.3-11.6-14.4
				c-6.5-2.1-13.1,0.8-16.5,6.6c-3.7,6.3-4.7,14.4-6.5,21.4c-2.1,8.4-4.2,16.7-6.3,25.1c4.8,0,9.6,0,14.5,0
				c-4.2-12.9,0.4-26.4,11-34.7c-4.2-2.4-8.4-4.9-12.5-7.3c-7.8,21-15.6,41.9-23.4,62.9c4.2-1.1,8.4-2.2,12.5-3.3
				c-1.4-1.6-3.4-3.5-4.1-5.6c-0.1-0.4-0.3-1.1-0.5-1.5c-0.5-1,0.9-0.3,0-0.9c-3.1-2.1-1.6,4.2-1.7,5.8c-0.2,9.3,1.3,19.1,9.3,25
				c7.8,5.8,18.9,4.7,26.7-0.5c8.9-6,13.1-16,16.8-25.6c2.9-7.3-7.5-12.1-12.5-7.3c-16.7,16.2-25.7,39.3-24.1,62.5
				c4.7-1.3,9.3-2.5,14-3.8c-4.1-7.1-8.3-14.1-12.4-21.2c-4-6.8-7.5-14.4-12.5-20.4c-4.2-5-11.2-7.8-17.2-4.4
				c-6.1,3.5-8,11.1-6,17.5c2.2,6.9,7.8,13,11.9,18.9c4.6,6.6,8.9,13.4,13.9,19.6c4,5.1,9.5,9.5,16.2,9.9c6.7,0.3,12.6-3.5,15.9-9.2
				c4.5-7.6,3-15.9,3.8-24.3c0.7-6.9,4.8-12,10.9-15c-3.7-2.8-7.3-5.6-11-8.5c-3.1,11.1-6.2,22.1-9.3,33.2c-1,3.5-1.9,8.3-5.1,10.4
				c-3.4,2.2-8.3,0.8-11.7-0.5c-14.2-5.7-22.1-20.7-24.5-35.1c-3-18.1,4-36,12.8-51.4c5.1-8.9,11-17.4,16.9-25.9
				c3-4.3,11.9-15.6,15.7-6.1c1.9,4.8,2.2,10.6,3,15.6c0.9,6.5,1.7,13,2.3,19.5c1.2,13.4,1.7,26.8,1.6,40.2
				C444.9,387,459.9,387,459.9,377.3L459.9,377.3z"/>
		</g>
	</g>
	<g>
		<g>
			<path d="M424.7,308.5c1.4,17.6,2.8,35.1,4.2,52.7c3.2-2.4,6.3-4.8,9.5-7.2c-5.4-2.1-8.2-9.1-11.4-13.5c-4-5.5-9.1-10.4-15.9-11.9
				c-6.2-1.4-12.7,0.3-16.8,5.2c-4.2,4.9-5.3,12.5-1.4,17.9c2.4,3.3,6.5,4.8,10.3,2.7c3.3-1.9,5.1-7,2.7-10.3
				c-0.9-1.2-0.7-0.5-0.2-0.7c1.1-0.4,1.4-0.5,2.8,0c3.6,1.2,5.9,5.1,7.8,8c4.9,7.4,9.6,13.7,18.1,17c4.4,1.7,9.9-2.7,9.5-7.2
				c-1.4-17.6-2.8-35.1-4.2-52.7C438.9,299,423.9,298.9,424.7,308.5L424.7,308.5z"/>
		</g>
	</g>
	<g>
		<g>
			<path d="M636.3,362.5c1.1-13,2.1-26,3.2-38.9c0.5-6.1,0.9-12.1,1.5-18.2c0.5-5.2,1.2-11.7,5.4-15.4c8.3-7.4,13.7,7.7,16.3,13.3
				c5.4,11.6,10.8,23.2,16.2,34.7c5.1,10.9,11.1,21.8,14.7,33.3c1.5,4.8,2.8,10.3,1.6,15.4c-1.2,5-4.4,5.5-9,4.2
				c-18.6-5.1-34.8-21.1-42.1-38.7c-4.1-10.1-5.7-21-5-31.8c0.4-5.5,1.5-11,3.3-16.2c0.2-0.5,2.7-6.2,0.2-3.8c-1,0.9,0.9-2.7,0,0.5
				c-0.3,1.1-0.1,2.4-0.5,3.7c-1.8,5.4-5,10.2-6.6,15.7c-1.6,5.5-2.4,11.4-2.4,17.1c0,11.2,3,22.5,8.9,32
				c5.3,8.4,12.6,15.6,21.1,20.7c7.4,4.4,20.2,10.7,28.5,5.5c5.1-3.2,6.1-9.2,4.8-14.7c-1.5-6.2-4-12.3-6-18.3
				c-4.2-12.5-8.3-25.1-12.5-37.6c-2.3-6.9-4.6-13.8-6.9-20.7c-1.9-5.8-3.3-12.6-6.7-17.8c-3.2-4.9-8.7-7.8-14.5-6.2
				c-5.5,1.5-8.6,6.8-10.1,11.9c-6.9,24.3-1,52.9,11.1,74.5c3.7,6.7,13.7,3.4,14-3.8c0.8-18.5,1.5-37,2.3-55.5
				c0.3-8.4-12.9-10.3-14.7-2c-5.7,26-2.1,52.8,10.3,76.4c3.5,6.7,14,3.5,14-3.8c-0.1-13.5-0.2-27.1-0.2-40.6c-5,0-10,0-15,0
				c1.3,13.6,2.6,27.2,4,40.9c1,10.6,2.7,21.4,14.6,24.8c9.2,2.6,19.6-1.5,24.6-9.6c5.8-9.5,3.9-21.7-1.7-30.8
				c-4.1-6.7-13.3-3.4-14,3.8c-0.5,5.2-1,10.3-1.5,15.5c-0.4,4,3.7,7.5,7.5,7.5c4.4,0,7.1-3.5,7.5-7.5c0.5-5.2,1-10.3,1.5-15.5
				c-4.7,1.3-9.3,2.5-14,3.8c2.7,4.4,5.2,11.7,1.3,16.2c-2,2.4-7.1,3.7-9.3,0.9c-1.6-2.1-1.3-6.5-1.5-9c-0.4-4.5-0.9-9.1-1.3-13.6
				c-0.9-9.1-1.8-18.2-2.6-27.2c-0.9-9.4-15.1-9.8-15,0c0.1,13.5,0.2,27.1,0.2,40.6c4.7-1.3,9.3-2.5,14-3.8
				c-10.4-19.9-13.5-42.9-8.7-64.8c-4.9-0.7-9.8-1.3-14.7-2c-0.8,18.5-1.5,37-2.3,55.5c4.7-1.3,9.3-2.5,14-3.8
				c-5.7-10.3-9.5-21.6-10.9-33.2c-0.7-5.6-0.8-11.3-0.4-17c0.2-2.7,0.4-5.4,0.9-8.1c0.2-1,1.5-6,1.3-6.3c-0.9,0-1.8,0.1-2.8,0.1
				c0.1,0.2,0.2,0.4,0.3,0.6c-0.1,0.2,1.4,3.7,1.4,3.7c1.1,3.1,2.1,6.3,3.1,9.4c2.3,6.9,4.6,13.8,6.9,20.7
				c4.2,12.5,8.3,25.1,12.5,37.6c1,3.1,2.1,6.3,3.1,9.4c0.3,0.9,2.2,8.8,2.9,8.9c0.7-0.8,1.4-1.6,2.1-2.4c-0.7-0.1-1.5-0.3-2.2-0.5
				c-1-0.3-1.9-0.6-2.8-0.9c-2.7-0.9-5.2-2.1-7.7-3.5c-8.7-5-16-12.8-19.8-22.2c-4.5-10.8-4.6-23.3-0.5-34.2
				c3.8-10.1,11.6-21.2,2.1-31c-3.7-3.9-9.1-5.5-14.3-3.7c-5.6,1.9-8.4,7.1-10.3,12.4c-4.1,11.1-5.3,23.6-4.1,35.3
				c2.3,22.4,13.3,43.1,31,57.2c14.4,11.4,47.3,27.6,54.2-0.4c2.9-11.9-1.4-24.2-6.1-35.1c-5.3-12.1-11.1-23.9-16.6-35.8
				c-3.2-6.8-6.4-13.7-9.5-20.5c-2.7-5.8-5.1-11.8-9-16.9c-7.9-10.3-21.2-12.7-31.4-4c-10.8,9.2-10.7,24.4-11.8,37.4
				c-1.3,15.6-2.6,31.2-3.8,46.7C620.5,372.1,635.5,372.1,636.3,362.5L636.3,362.5z"/>
		</g>
	</g>
	<g>
		<g>
			<path d="M465,516.3c32.6,14.2,69.6,22,105.3,18c31.7-3.5,63.6-19.6,73.7-52c2.9-9.2-11.6-13.2-14.5-4
				c-8.6,27.5-38.1,39.5-64.6,41.4c-31.3,2.2-63.6-4-92.3-16.5c-3.7-1.6-8-1.1-10.3,2.7C460.5,509.2,461.3,514.7,465,516.3
				L465,516.3z"/>
		</g>
	</g>
	<g>
		<g>
			<path d="M512.4,352.7c0.1-38.3-22.7-74.6-55.7-93.4c-33.6-19.2-75.1-17-108.4,1.7c-34.8,19.5-56.3,55.2-58.6,94.8
				c-2.4,41.5,16.1,82,49.4,107c39,29.2,93.5,30.7,132.1,0c3.2-2.5,2.6-7.9,0-10.6c-3.1-3.2-7.5-2.5-10.6,0
				c-29.8,23.7-72.2,23.4-104.1,4.2c-30.8-18.5-50-52-51.8-87.8c-1.7-34.6,12.8-68.4,41.5-88.6c26.8-18.9,62.5-25.6,93.3-12.7
				c33.6,14.1,58,48.7,57.9,85.3C497.4,362.3,512.4,362.4,512.4,352.7L512.4,352.7z"/>
		</g>
	</g>
	<g>
		<g>
			<path d="M293.9,366.7c-11.6,8.2-25.7,12.7-40,10.7c-11.8-1.7-23.9-7.6-30.8-17.6c-19.6-28.5,7.3-61.7,25.4-82.7
				c6.3-7.3-4.3-17.9-10.6-10.6c-19.5,22.6-40.2,48.7-35.4,80.6c4,26.8,28.5,43.7,54.2,45.6c15.8,1.2,31.9-4,44.7-13
				C309.3,374.2,301.8,361.2,293.9,366.7L293.9,366.7z"/>
		</g>
	</g>
	<g>
		<g>
			<path d="M375.8,169.9c72.8-18.5,147.7-27.4,222.8-26.7c9.7,0.1,9.7-14.9,0-15c-76.4-0.7-152.7,8.5-226.8,27.2
				C362.4,157.8,366.4,172.3,375.8,169.9L375.8,169.9z"/>
		</g>
	</g>
	<g>
		<g>
			<path d="M441.1,142.4c-5.6-18.3-11.3-36.6-16.9-54.9c-2.9-9.5-5.8-18.9-8.7-28.4c-1.4-4.4-2.7-8.8-4.1-13.2
				c-0.7-2.3-3.6-8.1-2.2-10.5c1.1-1.9,5.5-1.5,7.4-1.5c4.6-0.1,9.2-0.1,13.7-0.2c9.5-0.1,19-0.2,28.5-0.4
				c19.3-0.3,38.6-0.5,57.9-0.8c-2.5-2.5-5-5-7.5-7.5c-4.1,36.8-5.1,73.8-3.1,110.8c0.5,9.6,15.5,9.7,15,0c-2-37-1-74,3.1-110.8
				c0.4-4-3.8-7.5-7.5-7.5c-33.4,0.4-66.8,0.5-100.2,1.3c-6.2,0.1-13,0.9-17.7,5.5c-5.4,5.3-5.5,12.7-3.7,19.5
				c4.2,16,9.7,31.8,14.6,47.6c5.6,18.3,11.3,36.6,16.9,54.9C429.5,155.6,443.9,151.7,441.1,142.4L441.1,142.4z"/>
		</g>
	</g>
	<g>
		<g>
			<path d="M403.3,32.7c11.1,23.2,18.2,48.2,21.3,73.8c1.3,10.6,2.7,21.9,10.7,29.8c7.8,7.7,19.1,9.3,29.5,8.3
				c10.4-1.1,22.7-2.9,31.6-8.8c10.7-7.1,13.1-19.3,13.6-31.3c0.7-13.7,1.1-27.5,1.6-41.3c0.4-11.2,2-24.5-8.2-32.1
				c-4.9-3.7-11.1-4.6-17.2-4.8c-7.5-0.2-15.1,0-22.7,0c-15.8,0.1-31.7,0.1-47.5,0.2c-5.4,0-9.7,6.4-6.5,11.3
				c9.1,13.8,14.5,29.2,18.9,45c4.8,17.1,9.1,34.3,13.5,51.4c1.8,6.8,13.1,7.5,14.5,0c4.8-25.5,3.9-51.8-3.4-76.8
				c-2.9-10.1-8.7-23.7-21.9-19.7c-5.4,1.6-8.7,7-8.3,12.5c0.4,5.8,4.4,10.5,9.1,13.5c2,1.3,5.6,1.5,7.6,0
				c16-12.1,36.4-16.1,55.6-10.3c1.3-4.8,2.7-9.6,4-14.5c-19.5-3.5-39.6,0.2-56.2,11.4c-5.7,3.9-4.1,14.4,3.8,14
				c14.9-0.8,29.9-1.6,44.8-2.4c-0.7-4.9-1.3-9.8-2-14.7c-14.4,3.7-28.7,7.4-43.1,11c-8.1,2.1-6.6,15.2,2,14.7
				c6.1-0.3,12.2-0.6,18.3-0.9c4.5-0.2,12-2,16.3-0.1c5.6,2.6,1.8,10.6-3.8,7.8c-3.6-1.8-5.8-6.6-9.4-8.9c-3.9-2.4-9.1-3.1-13.5-1.4
				c-9.8,3.9-9.6,16.7-0.6,21.4c10.1,5.3,17.6-2,23.6-9.2c1.3-1.6,5.1-5.5,7.7-4.2c1.5,0.7-0.4,2.9-1.5,3.8
				c-3.4,2.8-9.3,2.9-13.5,3.7c-4.9,0.9-9.8,2.4-14,5.3c-7.4,5.3-10.8,15.8-5.7,24c6.9,11.2,20.7,2.6,28.1-3.5
				c8.4-6.9,14.3-16.8,16.3-27.4c1.2-6.5-7.4-13.8-12.5-7.3c-7.1,9-14.3,18-21.4,27c-6,7.7-10.9,17.8-3.9,26.6
				c6.7,8.4,17.5,5.7,23.1-2.3c6.5-9.4,11.7-20.1,17.5-30c4.3-7.4-5.6-15-11.8-9.1c-7.4,7.1-14.6,16-12.5,27
				c1.9,10.1,13.6,17.8,23.2,12.1c8-4.7,10.1-17.7,1.5-23c-8-5-19.7,1.1-19.3,10.8c0.4,9.6,15.4,9.7,15,0c0.2,4.4-4.1,1.5-5,0.4
				c-0.2-0.3,0.1-0.9,0-1c0.2-0.1,0.3-0.2,0.5-0.2c0.5,0,0.3-0.2-0.6-0.5c-0.2-0.8-0.8-1.4-0.9-2.4c-0.4-5,5.3-9.6,8.5-12.6
				c-3.9-3-7.9-6.1-11.8-9.1c-3.7,6.3-7.3,12.7-11,19c-1.9,3.3-3.6,6.7-5.7,9.8c-0.6,0.8-2.3,2-0.4,1.8c2.8-0.4,0,0.4,0.8-0.8
				c1.3-2,2.1-4.5,3.6-6.5c2.2-2.9,4.5-5.7,6.8-8.5c4.7-5.9,9.4-11.9,14.2-17.8c-4.2-2.4-8.4-4.9-12.5-7.3
				c-2.3,12.4-10.8,22.5-23,26c1.9,0.3,3.9,0.5,5.8,0.8c0.3,0.2-0.8,0.7-0.1-1c0.4-0.9,0.5-1.4,1.2-2.2c2.3-2.5,6.8-3,9.9-3.6
				c8.2-1.5,16.6-3,22.2-9.9c5.1-6.4,6.2-15.9,0.3-22.2c-4.8-5.2-12.7-6-19.2-3.7c-7.1,2.5-11.4,8.2-16.1,13.8
				c-0.3,0.4-0.3,0.7,0,0.3c-0.1,0-0.1,0-0.2,0c-1.9-0.4-2.2,1.4-0.9,5.5c0.1,0.3-0.9,0-0.7,0.3c0,0.1,0.5,0,0.6,0.2
				c2.2,2.9,5.4,6.1,8.4,8.2c13.8,9.5,32.8-2.6,29.9-19.1c-1.7-9.5-9.3-15.4-18.6-16.3c-10.8-1.1-22.5,0.8-33.4,1.3
				c0.7,4.9,1.3,9.8,2,14.7c14.4-3.7,28.7-7.4,43.1-11c8.1-2.1,6.6-15.2-2-14.7c-14.9,0.8-29.9,1.6-44.8,2.4c1.3,4.7,2.5,9.3,3.8,14
				c13.1-8.8,28.9-12.7,44.6-9.9c9.4,1.7,13.4-11.6,4-14.5c-22.7-6.8-48.2-2.5-67.2,11.8c2.5,0,5,0,7.6,0c-0.6-0.3-1.1-0.8-1.5-1.3
				c-0.3-0.9-0.4-0.9-0.3-0.1c0.3,0-2.5,2.5-2.5,2.9c0,0.4,1.6,3.4,1.9,4c0.6,1.7,1.1,3.5,1.6,5.3c2.1,7.3,3.8,14.8,4.7,22.4
				c2,15.4,1.5,31.2-1.4,46.4c4.8,0,9.6,0,14.5,0c-4.6-17.7-9-35.5-14-53.1c-4.7-16.4-10.5-32.6-19.9-46.9
				c-2.2,3.8-4.3,7.5-6.5,11.3c23.6-0.1,47.4-1.1,70.9-0.2c3.1,0.1,7.1,0.3,8.9,3.3c2.2,3.7,1.1,9.6,1,13.6
				c-0.5,11.9-0.9,23.8-1.4,35.7c-0.3,8.4,1.3,21.9-5.7,28.1c-6,5.3-17.2,6.6-24.9,7.4c-7.7,0.9-16.9,0.6-21.2-6.9
				c-4.4-7.6-4.1-18.2-5.4-26.7c-3.7-24.6-11.3-48.3-22-70.7C412.1,16.5,399.2,24.1,403.3,32.7L403.3,32.7z"/>
		</g>
	</g>
	<g>
		<g>
			<path d="M441.4,34.4c-7.5,15.9-11,33.6-9.3,51.2c1.6,16.1,6.5,36.4,19.4,47.5c6.5,5.6,14.7,7.8,23.1,8.2
				c7.7,0.4,16.7,0.2,24.1-2.1c20.2-6.6,13.2-31.3,11.5-47.1c-1.1-10.2-2.5-20.5-3.1-30.7c-0.6-9.4-0.2-18.8,5-26.9
				c5.2-8.1-7.7-15.7-13-7.6c-8,12.5-7.9,27.5-6.4,41.7c1.6,16.1,4.4,32.3,5.1,48.4c0.1,2.7,0.3,5.6-2.2,7.3
				c-2.3,1.5-5.8,1.5-8.4,1.7c-6.6,0.5-13.9,1.2-20.3-1.1c-12.6-4.5-17.1-23-19-34.6C445,74,447.4,56.8,454.4,42
				C458.4,33.3,445.5,25.6,441.4,34.4L441.4,34.4z"/>
		</g>
	</g>
	<g>
		<g>
			<path d="M696.4,520.4c35,25.1,70.1,50,104.9,75.3c5.8,4.2,12.4,9.1,14.9,16.2c2.9,8.5-1.6,17.9-5.6,25.2
				c-6.7,12.1-15.8,29.1-30.1,33c-17.1,4.7-30.9-13.5-39.6-25.5c-2.4-3.3-6.5-4.8-10.3-2.7c-3.3,1.9-5.1,7-2.7,10.3
				c10.9,15,24.4,31.5,44.2,33.5c19.9,2,34.3-13.7,44.2-28.9c10.9-16.6,23.4-38.9,10.1-57.8c-5.7-8.1-13.9-13.7-21.8-19.4
				c-10.3-7.4-20.5-14.7-30.8-22.1c-23.2-16.7-46.4-33.4-69.7-50c-3.3-2.4-8.3-0.6-10.3,2.7C691.5,513.8,693.2,518,696.4,520.4
				L696.4,520.4z"/>
		</g>
	</g>
	<g>
		<g>
			<path d="M332.3,551.3c9.7,0,9.7-15,0-15C322.6,536.3,322.6,551.3,332.3,551.3L332.3,551.3z"/>
		</g>
	</g>
	<g>
		<g>
			<path d="M329.5,539c-19.7,12.2-39.4,24.5-59.2,36.7c-9.8,6.1-19.6,12.1-29.4,18.2c-7.7,4.8-15.7,10.3-20.4,18.4
				c-9.7,16.9-0.6,39.5,6.7,55.8c7.5,16.8,21.4,29.2,40.6,29.1c23.5-0.2,41.1-16.5,56.6-32.3c6.8-6.9-3.8-17.5-10.6-10.6
				c-11.5,11.6-24,24.7-40.9,27.5c-15.9,2.6-26.4-6.9-32.5-20.6c-3.1-6.9-5.5-14.4-7.4-21.7c-2-7.6-3-15.8,2.3-22.3
				c4.9-6,12.3-9.8,18.8-13.8c8.5-5.2,16.9-10.5,25.4-15.7c19.2-11.9,38.3-23.8,57.5-35.6C345.2,546.8,337.7,533.8,329.5,539
				L329.5,539z"/>
		</g>
	</g>
	<g>
		<g>
			<path d="M214.9,634.9c-19.8,9.2-39.6,18.3-59.4,27.5c-7.2,3.3-3,13.7,3.8,14c5,0.2,20,0.6,18.8,9c-0.2,1.4-1.5,2.4-2.3,3.5
				c-1.5,1.9-2.6,3.8-3.1,6.2c-1.2,5.8,2.9,10.8,8.4,12c5,1,9.9-1.5,14.4-3.3c5.1-2,10.1-4.2,15.2-6.3c10.2-4.3,20.4-8.7,30.8-12.7
				c3.8-1.5,6.4-5,5.2-9.2c-1-3.6-5.4-6.7-9.2-5.2c-9.6,3.8-19.2,7.8-28.7,11.8c-4.3,1.8-8.6,3.7-12.9,5.4
				c-3.8,1.6-9.4,5.2-13.7,4.6c1.3,0.3,2.5,0.7,3.8,1c0.4,0.6,0.9,1.2,1.3,1.8c0,1.3,0,2.7,0,4c0.4-1.9,2.8-3.6,3.7-5.3
				c1.3-2.2,2-4.7,2.2-7.2c0.4-5.1-1.3-10.1-4.3-14.1c-6.9-9.3-18.6-10.6-29.4-11.1c1.3,4.7,2.5,9.3,3.8,14
				c19.8-9.2,39.6-18.3,59.4-27.5C231.2,643.8,223.6,630.8,214.9,634.9L214.9,634.9z"/>
		</g>
	</g>
	<g>
		<g>
			<path d="M817.9,635.3c9.8,18.8,23.3,35.6,39.7,49.2c1.8-4.3,3.5-8.5,5.3-12.8c-5.7-0.7-11.4-1.4-17.1-2.1
				c-4.8-0.6-9.8-1.7-14.7-1.2c-11.6,1.3-15.3,13.7-7.8,22c1.6,1.8,3.6,3.2,5.5,4.5c0.7,0.5,1.5,1.1,2.2,1.5c1.4,0.6,0.2,1.2,1.3,0
				c1.9-2-0.4-1.9-2.1-2.8c-2.6-1.2-5.1-2.7-7.6-4.1c-10.7-5.8-21.5-11.7-32.2-17.5c-8.5-4.6-16.1,8.3-7.6,13
				c11.3,6.2,22.6,12.3,34,18.5c8.6,4.7,22,11,28.7-0.4c2.5-4.4,1.9-9.6-0.8-13.7c-2.1-3.2-6.8-7.4-10.4-8.9c-0.7-1.3-1.1-1-1.2,1
				c0.2,1.1-0.1,1.7-0.7,1.8c0,0,2,0,2.5,0.1c3,0.2,5.9,0.7,8.9,1.1c6.3,0.8,12.6,1.6,18.9,2.3c6.3,0.8,10.1-8.8,5.3-12.8
				c-15.5-12.9-28-28.3-37.3-46.2C826.4,619.1,813.4,626.7,817.9,635.3L817.9,635.3z"/>
		</g>
	</g>
	<g>
		<g>
			<path d="M322.2,695.1c9.7,0,9.7-15,0-15C312.5,680.1,312.5,695.1,322.2,695.1L322.2,695.1z"/>
		</g>
	</g>
	<g>
		<g>
			<path d="M320.8,691.6c97.8,52,214.2,63.1,319.9,29.7c29.3-9.3,57.6-21.8,84.2-37.3c8.3-4.9,0.8-17.8-7.6-13
				c-91.9,53.5-202.8,68.4-305.5,40.6c-29-7.8-56.9-18.9-83.4-33C319.9,674.1,312.3,687.1,320.8,691.6L320.8,691.6z"/>
		</g>
	</g>
	<g>
		<g>
			<path d="M497,739.3c1.2,15.4,2.4,30.8,3.6,46.1c0.7,9.6,15.7,9.6,15,0c-1.2-15.4-2.4-30.8-3.6-46.1
				C511.3,729.7,496.3,729.6,497,739.3L497,739.3z"/>
		</g>
	</g>
	<g>
		<g>
			<path d="M530,762.5c9.7,0,9.7-15,0-15C520.4,747.5,520.4,762.5,530,762.5L530,762.5z"/>
		</g>
	</g>
	<g>
		<g>
			<path d="M485.5,572.1c-2.3,14.1,1.4,32.2,18.2,35c17.6,2.9,26-14.7,29.4-28.7c2.3-9.4-12.1-13.4-14.5-4
				c-1.4,5.6-3.8,18.4-11.9,18c-7.4-0.3-7.6-11.2-6.8-16.3c0.6-4-1-8-5.2-9.2C491.2,565.8,486.2,568.1,485.5,572.1L485.5,572.1z"/>
		</g>
	</g>
	<g>
		<g>
			<path d="M492.7,572c-9.7-1.2-19.4-2.3-29.1-3.5c-8.7-1-17.6-2.8-26.3-3c-8.3-0.2-16.1,3.1-20,10.6c-3.2,6.2-3.4,13.6-3,20.4
				c0.4,6.4,1.4,13.2,5.3,18.6c4.8,6.6,12.4,8.7,20.3,7.2c8.9-1.7,17.7-5.3,26.3-8.1c9.4-3,18.8-6,28.2-9c9.2-2.9,5.2-17.4-4-14.5
				c-14.4,4.6-28.8,9.2-43.2,13.8c-3.6,1.1-11.7,5.5-15,2.3c-2.7-2.5-2.7-8.2-2.9-11.6c-0.2-3.8-0.8-9.8,1.8-13
				c3.3-4,12.7-1.2,17.1-0.7c14.9,1.8,29.7,3.6,44.6,5.3c4,0.5,7.5-3.8,7.5-7.5C500.2,575,496.7,572.5,492.7,572L492.7,572z"/>
		</g>
	</g>
	<g>
		<g>
			<path d="M525.9,582.2c11.8,3.7,22.8-1.5,34.6-0.6c4.3,0.3,8.3,1.8,9.9,6.1c1.7,4.5,1,10.1,0.6,14.8c-0.3,3.4-0.5,8.7-4.3,10
				c-4.3,1.5-10.5-1.4-14.5-2.8c-11.8-4.2-22.8-10.2-33-17.4c-7.9-5.6-15.4,7.4-7.6,13c13.1,9.1,28.1,17.1,43.6,21.1
				c6.5,1.7,13.8,2.2,19.9-1.2c6.5-3.7,9.4-10.6,10.4-17.7c1.9-13.3,1.8-30-11.7-37.4c-6.2-3.4-13.7-3.9-20.6-3.1
				c-7.8,0.8-15.7,3.3-23.4,0.9C520.6,564.9,516.7,579.4,525.9,582.2L525.9,582.2z"/>
		</g>
	</g>
	<g>
		<g>
			<path d="M493.3,606.7c1.1,29.2,2.2,58.4,3.3,87.6c0.4,9.6,15.4,9.7,15,0c-1.1-29.2-2.2-58.4-3.3-87.6
				C507.9,597.1,492.9,597,493.3,606.7L493.3,606.7z"/>
		</g>
	</g>
	<g>
		<g>
			<path d="M521,636.7c9.7,0,9.7-15,0-15C511.4,621.7,511.4,636.7,521,636.7L521,636.7z"/>
		</g>
	</g>
	<g>
		<g>
			<path d="M522.2,659.2c9.7,0,9.7-15,0-15C512.5,644.2,512.5,659.2,522.2,659.2L522.2,659.2z"/>
		</g>
	</g>
	<g>
		<g>
			<path d="M522.2,682.7c9.7,0,9.7-15,0-15C512.5,667.7,512.5,682.7,522.2,682.7L522.2,682.7z"/>
		</g>
	</g>
	<g>
		<g>
			<path d="M574.1,605c8,8.4,18.3,17.2,30.7,15.8c6.4-0.7,11.5-4.2,16.3-8.3c5.7-4.7,11.3-9.7,16.9-14.5c22.2-19,44.3-38,66.5-57
				c7.3-6.3-3.3-16.9-10.6-10.6c-19.2,16.4-38.3,32.9-57.5,49.3c-9.1,7.8-17.9,16.5-27.6,23.6c-9.2,6.7-17.8-2.3-24-8.9
				C578.1,587.4,567.5,598,574.1,605L574.1,605z"/>
		</g>
	</g>
	<g>
		<g>
			<path d="M413.6,596.9c-2.7,4.9-9.1,4.4-13.6,2.3c-7.3-3.4-13.1-10.4-18.9-15.9c-13.8-13.1-27.5-26.2-41.3-39.3
				c-7-6.6-17.6,3.9-10.6,10.6c16.9,16.1,33.6,32.5,50.8,48.2c6.9,6.3,14.9,12.1,24.6,12.8c8.8,0.6,17.7-3.4,22-11.2
				C431.2,596,418.2,588.4,413.6,596.9L413.6,596.9z"/>
		</g>
	</g>
</g>
</svg>
