<svg xmlns="http://www.w3.org/2000/svg" viewBox="0 0 1000 1000"><defs><style>.cls-1{fill:#f4a6be;}.cls-2{fill:#e8e8e8;}.cls-3{fill:#e86795;}.cls-4{fill:#b54672;}.cls-5{fill:#753c15;}.cls-6{fill:#512c15;}.cls-7{fill:#fcd20e;}.cls-8{fill:#f2af19;}.cls-9{fill:#1d1d1b;}.cls-10{fill:#e52a23;}.cls-11{fill:#c41e21;}</style></defs><g id="Layer_2" data-name="Layer 2"><path class="cls-1" d="M474.78,265.62l10,37.48c3.21,12,5.51,25.73,12.63,36.16a50.33,50.33,0,0,0,34.11,21.52c14.82,2.22,28.87-.66,43.08-4.9,12.43-3.71,17.9-15.46,15.71-27.67l-16.13-90.09c-2.86-15.93-27.28-22.56-37.61-9.92-20.21,24.72-24.59,58.52-8.86,86.87,4.64,8.35,16.16,13.33,25.41,10.34,8.84-2.86,17.44-11.67,16.52-21.7C566,264.3,542.89,227.16,506.48,210c-7.46-3.51-15.29-4.35-22.71,0a22.79,22.79,0,0,0-11.14,19.42l-.48,22,41.92-11.36c-19.18-32.26-52.51-52.88-89.57-57.1-35.85-4.09-74.09,11.4-97.87,38.33-7.79,8.82-9.33,23.25,0,31.82,8.85,8.13,23.08,9,31.82,0a216.16,216.16,0,0,1,19-17.53,23.71,23.71,0,0,1,2.52-2c-4.11,2.46-1.74,1.33-.7.56,1.73-1.29,3.46-2.57,5.23-3.82q5.61-4,11.48-7.56a216.23,216.23,0,0,1,22.82-12.21c.71-.33,7-3,4-1.79s3.35-1.3,4.07-1.58q6.44-2.44,13-4.49A212.57,212.57,0,0,1,465,196.56c2.13-.38,4.26-.71,6.39-1,3.49-.54-.82.45-1,.13a21.74,21.74,0,0,0,2.56-.3q7.25-.79,14.54-1.08a212.72,212.72,0,0,1,27.42.68c2.27.2,4.55.46,6.82.71,4.24.48-.23-.12-.88-.12a24.94,24.94,0,0,1,3.39.52q7.2,1.16,14.31,2.81a215.53,215.53,0,0,1,29.49,9.07c1.06.42,2.12.86,3.19,1.27,3,1.17-5-2.24.15.07,2.35,1.06,4.69,2.12,7,3.24,4.89,2.37,9.67,4.95,14.37,7.67l5.37-41.12c-16,3.44-30.91,15.16-38.36,29.76a61.1,61.1,0,0,0-6.95,26c-.18,5.07.8,10.19,1.61,15.17.72,4.37.16-2.81.18,1.61a25.17,25.17,0,0,1,0,3.31c-.11,0,1-5.39-.07-1.82,2.1-7.11,9.15-9.3,15.68-7.82,2.45.56.93.3,0-.28,0,0,3.79,2.44,1.64.94s1.44,1,1,1.26A31.68,31.68,0,0,1,571,244.3c-3.45-6.12-6.45-12.26-10.64-17.94a129.86,129.86,0,0,0-34.55-32.81,114.61,114.61,0,0,0-45.49-17.11l-6,44.19c7.39-.1,14.77.07,22.14.61,3.69.26,7.35.67,11,1,5.38.54-3.55-.62,1.34.16,2.13.35,4.26.66,6.38,1a251.07,251.07,0,0,1,43.6,11.81c11.07,4.08,25.14-4.55,27.68-15.71,2.9-12.73-3.87-23.32-15.71-27.68a269.42,269.42,0,0,0-96.46-16.28,22.56,22.56,0,0,0-22.1,19.51c-1.33,9.88,5,23.15,16.12,24.69a98.71,98.71,0,0,1,19.47,4.7c.94.33,1.85.72,2.79,1,2.34.78-1.93-.86-1.94-.86,1.27.73,2.73,1.22,4,1.87a97.51,97.51,0,0,1,9.74,5.43q1.89,1.2,3.72,2.47c.61.42,1.21.86,1.82,1.29,3.19,2.24-.66-.4-1-.81,2.08,2.54,5.42,4.57,7.79,6.9s4.48,4.63,6.55,7.1a13.89,13.89,0,0,0,1.41,1.72s-2.63-3.62-1.25-1.61c1.11,1.64,2.3,3.23,3.37,4.89,4.7,7.28,8,15.06,13.47,21.86,8.27,10.24,22,15.5,34.93,12.81,12.3-2.56,21.31-12.47,24.79-24.27a40.8,40.8,0,0,0,1.37-14.68c-.28-3.26-.83-6.53-1.32-9.77-.2-1.26-.4-2.53-.62-3.79.24,1.36.21,3.1.28.78,0-.7,0-1.39,0-2.09.09-2.65,1.41-2.6-.29,1.17.63-1.39.73-3.22,1.22-4.7.21-.64.55-1.3.71-1.95-1.16,4.88-1.15,2.73-.17,1,.78-1.41,1.9-2.68,2.63-4.1-2,4-2.16,2.6-.86,1.33.67-.65,1.28-1.35,2-2,.51-.48,1.06-.91,1.57-1.38,1.93-1.81-4.08,2.56-.64.64.89-.5,5.53-2.76,2.22-1.43s-.29.18.55-.08c1.12-.34,2.24-.6,3.38-.85,8.64-1.85,15-10.41,16.11-18.7a22.5,22.5,0,0,0-10.74-22.42c-72.33-42-163.25-42.52-235.93-1.15a237.28,237.28,0,0,0-52.93,41.12l31.82,31.82a97.35,97.35,0,0,1,7.66-7.81c1.35-1.22,2.77-2.36,4.17-3.54,1.29-1,.81-.65-1.46,1.14.84-.61,1.69-1.22,2.55-1.8a95.69,95.69,0,0,1,9.36-5.65c1.39-.74,2.81-1.38,4.2-2.09,4.38-2.26-3.89,1.35.38-.21,3.43-1.25,6.86-2.46,10.39-3.41,2.35-.63,8.35-2.93,10.71-2.21q-5.1.64-1.33.23l1.56-.14c2.08-.16,4.16-.26,6.24-.28,3.39,0,6.74.26,10.12.45q2.63.28-2.23-.34c1,.15,2,.31,3,.49,1.48.26,3,.57,4.43.91a94.09,94.09,0,0,1,10.14,3c1.05.38,3.4.79,4.23,1.62q-4.57-1.95-1.22-.45c.91.42,1.81.86,2.71,1.32a93.24,93.24,0,0,1,8.53,4.86c1.49.95,2.92,2,4.39,3,4.31,2.9-3.71-3.22.24.15,2.69,2.3,5.33,4.6,7.8,7.13,1.06,1.07,2.09,2.18,3.1,3.3,1.16,1.31,4.21,6.53,1.26,1.28,1.71,3,4.07,5.79,5.86,8.8,4.9,8.24,15.95,13.4,25.41,10.34s16.29-11.45,16.52-21.7l.48-22-33.86,19.43a90.69,90.69,0,0,1,10.24,5.6c.48.31,4.9,2.89,4.8,3.3q-3.92-3.07-1.09-.83l1.12.93a90.46,90.46,0,0,1,8.43,8.07c.4.43,4,4,3.81,4.42q-3-4-.84-1.09c.44.59.86,1.19,1.28,1.79a92.81,92.81,0,0,1,5.75,9.31c.93,1.72,1.74,3.48,2.61,5.23,2,4.05-1.76-4.7.26.68a90.74,90.74,0,0,1,3.22,10.45c.46,1.89.78,3.8,1.18,5.71q.57,3.71-.18-1.65c.11,1,.21,1.94.29,2.91l41.93-11.36c-.6-1.07-1.11-2.21-1.72-3.27-1.36-2.38,1.73,5.18.29.6-.66-2.12-1.32-4.21-1.79-6.39-.42-2,.18-4.26,0,.88,0-.95-.2-2-.25-2.95a72.87,72.87,0,0,1,.06-7.39,10.92,10.92,0,1,0-.29,1.57,30.26,30.26,0,0,0,.71-3.63c.49-2.17,1.17-4.27,1.86-6.38,1.49-4.59-1.65,3-.27.61.61-1.06,1.09-2.21,1.7-3.27.94-1.65,5.52-7.57,1.55-2.71l-37.61-9.93,16.14,90.08,15.71-27.68c-4.63,1.39-9.28,2.78-14,3.77-.76.15-2.85.93-3.56.66q4.07-.5,1.51-.26c-.6.06-1.2.11-1.8.13-1.16,0-2.31.08-3.47,0-.79,0-4.16-.49-.79.11s-.08-.06-.77-.21c-1-.23-2-.49-2.94-.79-.63-.2-4-1.27-.82-.24s0-.32-.64-.59c-2.27-.91,2.61,2.68,1,.85-.52-.58-2.43-3-.82-.49,1.73,2.72-.19-.43-.5-1a14.53,14.53,0,0,1-.76-1.4q-1.11-2.25.64,1.72c.36-.92-1.68-5.08-2-6.16-.66-2.32-1.26-4.64-1.88-7l-4.11-15.37-8.73-32.68c-3-11.37-16.17-19.44-27.68-15.72-11.67,3.78-19,15.5-15.71,27.68Z"/><path class="cls-1" d="M300.46,239.09l-4.21,14.5a22,22,0,0,0,4,19.62c4.49,5.8,10.4,8.41,17.67,8.86,13,.82,26.38-7.05,32.58-18.39L309.4,246.34l-.85,2.92c-3.29,11.3,4,25,15.72,27.68,12,2.74,24.15-3.61,27.67-15.71l.85-2.93c3.14-10.79-2.94-22.28-13-26.54s-22.69-.68-28.1,9.21a18,18,0,0,1-1.35,2.11l3.52-4.55a18.22,18.22,0,0,1-2.39,2.34l4.56-3.52a19,19,0,0,1-2.89,1.7l5.38-2.27a16.12,16.12,0,0,1-4,1.08l6-.8a17.52,17.52,0,0,1-2.51,0l21.7,28.48,4.21-14.5c3.29-11.3-4-25-15.71-27.68-12-2.74-24.16,3.62-27.68,15.72Z"/><path class="cls-1" d="M256.91,202.38a191.16,191.16,0,0,1,.72,38c-.13,1.54-.28,3.08-.44,4.62l-.21,1.85c-.28,2.23-.3,2.46-.08.7.2-1.46.2-1.53,0-.23-.14.92-.29,1.83-.44,2.75-.26,1.53-.54,3-.83,4.57-1.24,6.4-2.84,12.7-4.71,18.94l43.39,12a119.72,119.72,0,0,0-2.88-70.27,124.73,124.73,0,0,0-44.26-59.26l4.55,35.34c1-1,2-2.06,3-3,3.93-3.64.54.26-.18-.13.3.16,6.54-4.24,7.2-4.59.35-.19,3.76-1.47,3.83-1.89q-4.47,1.83-2.08.91c.66-.26,1.34-.51,2-.73a82.09,82.09,0,0,1,8.28-2.2c4.9-1.12-5.34.37-.33,0,1.43-.11,2.85-.23,4.28-.27,2.86-.09,5.69.34,8.54.35-5.87,0-2.35-.31-.37.12,1.39.3,2.78.65,4.14,1a37.9,37.9,0,0,0,4.05,1.38q-4.42-2-2.09-.88c.66.31,1.32.63,2,1,1.33.68,2.62,1.43,3.88,2.23l1.25.82q2.94,2.11-1-.82c.56-.09,6.45,5.66,6.3,6.32l-1.74-2.2c.56.8,1.09,1.62,1.59,2.47l.71,1.27q1.61,3.27-.45-1.41c.06,0,1.22,4,1.27,4.17,1.28,4,.32-4.47-.06-.31v1.34q-.27,3.67.35-2a22.44,22.44,0,0,0-1.07,3.88c-.4-.7,2.52-5,.32-1.08-.4.73-2.54,5-.86,1.59,1.55-3.14-.81.25-1.41,1.1q-1.94,1.68,2-1.52a18.63,18.63,0,0,1-1.66,1c-1.76.88,5.38-1.25.61-.37q-2.61.63,2.8-.25a17.77,17.77,0,0,1-2.63,0l21.69,28.49c5.33-16.73,2.61-34.54-5-50s-21.57-26.65-37.64-32.51c-11.08-4-25.13,4.53-27.68,15.71-2.89,12.7,3.86,23.35,15.71,27.68,4.39,1.6-4.49-2.58-.5-.2,1.13.68,2.3,1.25,3.42,2,.7.45,4.08,2.58.92.54s.05.16.72.8c1,.91,1.82,1.92,2.75,2.85,3.21,3.19-2.68-4.24-.25-.4,1.31,2.07,2.53,4.11,3.7,6.27,2,3.69-.71,0-.43-1.11-.12.49,1.09,3.23,1.24,3.77.36,1.27.6,2.57.91,3.86.94,3.88-.13-4.16-.18-1.41,0,1.78-.55,5.6,0,7.22q.82-5.37.38-2.72c-.1.65-.23,1.3-.38,1.94-.29,1.29-.67,2.56-1.07,3.82-4.56,14.31,7.63,28.14,21.7,28.48,22.08.55,41.73-17.33,45.54-38.72,4.16-23.35-8-44.22-26.67-57.47-31.09-22-77.54-15.09-103.16,12.09a22.29,22.29,0,0,0-6.18,18.9c1,7.44,4.84,12.1,10.74,16.44,3.29,2.42-2.63-2.26-.54-.43.91.79,1.86,1.54,2.76,2.33q2.44,2.16,4.72,4.48c1.52,1.54,3,3.14,4.39,4.78.28.32,3.17,4.06,1,1.09s.39.56.84,1.19a100.7,100.7,0,0,1,7.16,11.71c1,1.87,1.66,4.13,2.83,5.87-1.14-1.7-1.58-3.93-.33-.69.44,1.12.85,2.26,1.25,3.4A100.9,100.9,0,0,1,252,241.19c.25,1.18.47,2.37.68,3.56.61,3.55-.07,1.07-.07-1,0,2.14.44,4.33.56,6.48a96.39,96.39,0,0,1-.24,13.7c-.07.85-.57,5.16-.1,1.31s-.18.81-.28,1.29c-.44,2.38-1,4.73-1.61,7.06-3,11.37,3.78,25,15.72,27.68,12.11,2.76,24.06-3.65,27.67-15.72a207.76,207.76,0,0,0,7.59-83.2c-.71-6.17-2-11.36-6.59-15.91-3.9-3.91-10.3-6.84-15.91-6.59-11,.49-24,10-22.5,22.5Z"/><path class="cls-1" d="M287.86,277.72c-3.16,35.76-6.68,71.5-9.43,107.29-2.42,31.69-1.55,66.74,17.73,93.59,6.85,9.54,19.91,15.08,30.79,8.07,9.46-6.09,15.41-20.56,8.07-30.78a75.39,75.39,0,0,1-5.8-9.38,17.93,17.93,0,0,1-2-4.22q1.88,4.48.54,1-.54-1.45-1-2.94c-1-3-1.76-6-2.42-9.07-.39-1.81-.65-3.63-1-5.44s-.19-1,.24,2.05c-.14-1.05-.26-2.11-.36-3.17-1.45-14.29-.67-28.7.5-43,2.84-34.7,6.11-69.37,9.17-104.06,1-11.75-11.09-23-22.5-22.5-13.08.59-21.39,9.91-22.5,22.5Z"/><path class="cls-1" d="M274.6,283.6c-27.23,32.07-39.32,74.4-35.1,116.18,4.33,42.85,22.62,87.76,57.24,115,21.47,16.91,48.19,27.84,75.95,25.48,11.7-1,23.08-9.64,22.5-22.5-.5-11.34-9.94-23.58-22.5-22.5a104.91,104.91,0,0,1-13.15.07c-4.22-.17.54.26,1.08.24a19,19,0,0,1-4.06-.71c-2.42-.49-4.83-1.08-7.2-1.78-2.12-.62-4.18-1.38-6.27-2.1-4.39-1.53.81.15.78.38,0,0-2.63-1.22-3-1.4A94.84,94.84,0,0,1,328,482.41a22.48,22.48,0,0,1-2.68-1.94c3.47,3.37,1.57,1.22.67.44-1.66-1.44-3.34-2.86-4.94-4.37A134.66,134.66,0,0,1,311,465.68c-2.25-2.63.15.7.45.67a22.77,22.77,0,0,1-2-2.66q-1.94-2.7-3.73-5.47c-2.7-4.18-5.18-8.5-7.45-12.92-1-2-2-3.95-2.91-6-.46-1-.91-2-1.36-3-.66-1.47-.67-3.39.52,1.23-1.11-4.3-3.22-8.48-4.54-12.75-2.54-8.25-3.92-16.57-5.56-25,.11.52.6,5.48.25,1.49-.09-1-.22-2-.31-3-.18-2-.32-4-.43-6-.23-4.25-.28-8.52-.15-12.78s.47-8.47.92-12.7c.36-3.44.39,1.27-.22,1.54a25.11,25.11,0,0,0,.46-2.94q.56-3.3,1.28-6.57a130.28,130.28,0,0,1,3.72-13.57c.78-2.33,1.64-4.63,2.53-6.93,1.24-3.22-.7,1.13-.56,1.3-.2-.24,1.4-3.07,1.54-3.35A117.11,117.11,0,0,1,300.21,324c1.33-2.08,2.74-4.1,4.17-6.12,1.54-2.18-.39-1.05-.82,1,.23-1.06,2.2-2.67,2.86-3.45,7.6-9,9.45-23.14,0-31.82-8.38-7.69-23.69-9.58-31.82,0Z"/><path class="cls-1" d="M306.68,492.53c24.32,16.9,52.82,26.07,82.11,29.06,29.53,3,58.77-2.61,85.9-14.19,4.81-2,9-8.66,10.34-13.44,1.48-5.39.81-12.56-2.27-17.34s-7.71-9-13.44-10.34c-6.31-1.44-11.46-.24-17.34,2.27,5.49-2.34.84-.39-.45.1q-2.2.84-4.43,1.6c-3,1-6,1.94-9,2.76-2.78.76-5.58,1.42-8.39,2-1.77.37-6.73,2.15-8.5,1.52q5.08-.65,1.31-.18l-1.56.18c-1.56.16-3.13.31-4.69.43q-4.71.34-9.42.42a153.16,153.16,0,0,1-18-.8,18.16,18.16,0,0,1-3.91-.44c5.5,1.9,1.52.18-.24-.12q-4.65-.79-9.25-1.86a151.33,151.33,0,0,1-17.31-5.12c-1.23-.44-2.46-.9-3.67-1.38-1-.38-2-.77-2.92-1.17l2.49,1c-2.54-.23-6.21-2.89-8.49-4.07a149.12,149.12,0,0,1-16.1-9.78c-9.7-6.74-25.41-2.1-30.78,8.07-6.07,11.49-2.28,23.6,8.07,30.78Z"/><path class="cls-1" d="M358.71,549.75a672.32,672.32,0,0,0,220,1.37c11.67-1.84,19.17-17,15.72-27.68-4.1-12.66-15.18-17.69-27.68-15.71-4.45.7-8.92,1.48-13.4,2,5.45-.63-1,.12-1.69.2l-6.72.81q-13,1.49-26,2.43-25.09,1.83-50.28,1.66t-50.24-2.32q-12.54-1.08-25-2.66l-3.84-.5c2.79.38,2.86.38.23,0-1.91-.29-3.83-.55-5.74-.84q-6.71-1-13.37-2.18c-11.56-2-24.8,3.07-27.68,15.72-2.49,10.91,3.31,25.54,15.72,27.68Z"/><path class="cls-1" d="M426.34,531.66a431.42,431.42,0,0,0,180.48-5.24c11.43-2.82,19.38-16.33,15.71-27.68C618.69,486.88,607.1,480,594.85,483c-13.18,3.25-27.15,6.93-40.74,7.91,5.56-.4-.72.07-1.51.17q-2.34.28-4.68.54-5.16.56-10.34,1c-6.89.57-13.81,1-20.72,1.18a401.75,401.75,0,0,1-41.5-.85q-9.89-.72-19.72-1.93c-2.35-.29-3.75-.38-.57,0-1.87-.2-3.74-.54-5.6-.83-3.73-.57-7.45-1.21-11.17-1.89-11.54-2.09-24.81,3.15-27.68,15.72-2.5,11,3.34,25.43,15.72,27.68Z"/><path class="cls-1" d="M473.09,510.7c57.26,19.45,122.45,17.66,178.3-5.67,5.67-2.36,10.22-4.82,13.45-10.34,2.82-4.82,4-11.93,2.27-17.34-4.11-12.69-15.18-17.65-27.68-15.71l-51.73,8c-11,1.71-17.46,14.74-16.12,24.69a22.44,22.44,0,0,0,22.1,19.51c33.57-.19,64.67-17.8,82.82-45.86l-19.43,11.14,37,1.85c11.78.59,23-10.77,22.5-22.5-.57-12.69-9.89-21.87-22.5-22.5L661,434.35c-6.45-.32-12.31.61-17.53,4.64a35.09,35.09,0,0,0-7.9,9.44c-1.45,2.33,3-3.48.31-.37-.65.76-1.29,1.54-2,2.28-1.51,1.68-3.11,3.29-4.77,4.82-.73.69-1.48,1.35-2.25,2-.49.43-3.23,2.61-.65.61s-.22.1-.76.48c-1,.72-2.08,1.41-3.14,2.08-1.71,1.06-3.45,2.07-5.24,3-.89.46-1.8.89-2.7,1.34-4.46,2.27,3.28-1.13.53-.17a96.85,96.85,0,0,1-12.25,3.66,13.6,13.6,0,0,0-3,.56c.92-.47,4.7-.48,1.5-.21-2.51.21-5,.35-7.52.37l6,44.19,51.73-8-12-43.39a234.42,234.42,0,0,1-40.07,12.7q-5.15,1.13-10.33,2c-1.72.3-3.46.55-5.19.83-4.39.73,2.78-.28-.1,0-7,.74-14,1.41-21,1.65q-10.08.33-20.17-.17-5.25-.27-10.5-.77c-1.74-.17-3.48-.37-5.23-.56-5.94-.65,4.93.8-1-.12a243.75,243.75,0,0,1-40.84-9.94c-11.16-3.79-25.09,4.34-27.68,15.71-2.84,12.48,3.77,23.62,15.72,27.68Z"/><path class="cls-1" d="M682.06,443.06a207,207,0,0,1-27.71,28.68c-1.17,1-2.35,2-3.54,2.95-.53.43-5.2,4.15-2.54,2s-1.37,1-2,1.46q-2.18,1.59-4.39,3.11-8.22,5.68-16.94,10.58t-17.85,9a28.4,28.4,0,0,0-2.81,1.23s4.17-1.7,1.83-.78c-1.43.57-2.85,1.16-4.29,1.71q-4.66,1.8-9.4,3.39-9.84,3.3-20,5.65-4.48,1-9,1.89c-1.51.28-3,.55-4.54.8-.76.13-1.51.25-2.27.36s-5.3.8-1.57.25c3.27-.48.6-.09-.06,0l-3.05.34c-1.78.18-3.57.34-5.36.47q-5.73.45-11.5.56a205.8,205.8,0,0,1-23-.85c-11.75-1.07-23,11.12-22.5,22.5.59,13.11,9.91,21.36,22.5,22.5,60.5,5.51,120.93-15.08,168.2-52.44a207.7,207.7,0,0,0,33.64-33.55c3.86-4.84,6.59-9.46,6.59-15.91,0-5.52-2.45-12.11-6.59-15.91-8.15-7.48-24-9.83-31.82,0Z"/><path class="cls-1" d="M515.16,563.33l88.54-13.61-25.4-33.06a17.78,17.78,0,0,1-1.08,1.72c-1,1.4-.48.76,1.45-1.9a8.4,8.4,0,0,0-1.91,1.9c2.66-1.93,3.3-2.42,1.91-1.44-.55.39-1.12.75-1.7,1.09-.73.43-4.39,2.24-1,.63s-.51,0-1.15.15c-3.81,1.17,4,0,1.32-.08-.51,0-3-.32-3.36,0,.95-.8,5.71,1.2.68-.12l-6,44.19c66.33.81,132.23-39.36,160.38-99.74,5-10.65,3.35-24.76-8.07-30.79-10-5.26-25.48-3.32-30.79,8.07a147.24,147.24,0,0,1-10.79,19.32q-1.23,1.84-2.5,3.65c-.57.8-1.15,1.6-1.73,2.39-1.45,1.92-1.17,1.58.83-1-.63,2.44-5,6.1-6.65,7.9A157.3,157.3,0,0,1,653.37,487c-1.1.93-3.19,3.41-4.57,3.75,2.41-1.85,3-2.28,1.62-1.27-.59.45-1.18.89-1.78,1.32q-4.49,3.27-9.18,6.22a160,160,0,0,1-18.86,10.17c-.67.31-1.35.61-2,.9q-2.34,1,2-.82c-.35.79-4.64,1.82-5.5,2.14q-4.86,1.78-9.81,3.24c-6.65,1.95-13.46,2.82-20.15,4.46,6.65-1.63.38-.07-1.34.1q-2.21.21-4.41.36c-3.94.26-7.87.34-11.82.29-11.21-.13-20.64,8.67-22.1,19.51s5.22,21.81,16.12,24.69a50.11,50.11,0,0,0,55.61-22.63c4.66-7.78,3.67-18-1.76-25-5.94-7.7-14.4-9.49-23.65-8.07L503.2,519.94c-11.67,1.8-19.15,17-15.71,27.68,4.11,12.7,15.17,17.64,27.67,15.71Z"/><path class="cls-1" d="M594,205.41l-7.81,4,27.27,35.34L651,213.57c6.12-5.07,12.21-10.16,18.35-15.2q2-1.63,4-3.24a11.43,11.43,0,0,1,2-1.61c-.12,0-3.22,2.41-1.15.9,3-2.19,6-4.38,9.1-6.38a92.81,92.81,0,0,1,8.85-5c.75-.37,1.53-.71,2.29-1.08,2.4-1.17-1.47.7-1.47.64,0-.36,5-1.67,5.49-1.82,1.4-.39,3.4-.45,4.72-1.07.07,0-5,.47-2.54.33.7-.05,1.39-.14,2.09-.19,1.39-.09,2.79-.12,4.19-.09,1,0,6.35.54,2.54,0s.84.26,1.75.48c1.33.33,2.6.85,3.92,1.18,2.24.57-2.21-1-2.24-1a12.6,12.6,0,0,0,1.8.9c1.33.71,2.61,1.89,4,2.47-.13-.06-3.4-3.09-2-1.42.43.5,1,.92,1.46,1.4s.89,1,1.36,1.5c1.57,1.63-1.37-1.5-1.3-1.61a18.8,18.8,0,0,0,1.25,2.12c1.54,2-.92-1.33-.56-1.65s1.45,7.55,1.22,3.35c-.22-4-.15,3.48-.06,3.54-.22-.14,1-4.35.26-2-.3,1-.46,2-.76,3a9.52,9.52,0,0,0-.73,2.21c-.26-.6,2-4.19.46-1.08-.82,1.64-1.64,3.26-2.53,4.87-4.41,8-8.83,15.65-11.84,24.33h43.39a83,83,0,0,0-14.63-31.86c-9.28-12.27-21.61-24.23-38.09-24.37C676.2,166,660.33,182.14,663,201.84c2.42,18,17,27.48,33,32.69,11.2,3.63,25.07-4.24,27.68-15.72C726.5,206.47,720,195,708,191.13c-.43-.13-4.28-1.73-4.61-1.57,2.61,1.17,3.18,1.38,1.68.64A19.55,19.55,0,0,1,703,189c.86-.69,4.78,6,3.27,3.24-.85-1.47-.58-.8.81,2l.44,3.15c.07,8.75-7.62,15.15-15.81,13.19,3.85.92-2.62-1.94-.61-.39,4,3.1-1.2-1.53.24,0,.48.51,6.21,6.25,6.07,6.34l-1.49-2c.65.88,1.28,1.77,1.89,2.68.76,1.13,1.48,2.29,2.16,3.47s1.28,2.42,1.95,3.61c2.64,4.68-1.44-4.44.35.63a78.91,78.91,0,0,1,2.75,9.43c2,9.22,12.25,16.94,21.69,16.51,10.39-.46,18.32-6.76,21.7-16.51.7-2,1.56-1.72-.57,1a13.07,13.07,0,0,0,1-2.14c.8-1.65,1.68-3.27,2.58-4.88,1.92-3.45,4-6.82,5.78-10.33,4.8-9.35,8.44-19.59,8-30.27-1-23-15.24-40.68-36.11-49-15.43-6.14-34.32-5.11-49.56,1-18.34,7.39-33.11,19.44-48.21,32l-49.68,41.17c-8.62,7.14-8.05,21.41-1.76,29.54,7,9.12,18.91,11,29,5.8l7.81-4c10.49-5.39,14.41-21,8.07-30.79-6.89-10.7-19.56-13.83-30.78-8.07Z"/><path class="cls-1" d="M652.27,193.69,599.68,204.9l12,43.39,34.11-9.76c11.3-3.24,19.48-16,15.71-27.68s-15.56-19.19-27.68-15.72l-34.11,9.77c-11.3,3.23-19.48,16-15.71,27.67,3.93,12.16,15.33,18.35,27.68,15.72l52.58-11.21c11.53-2.46,19.31-16.59,15.72-27.68-3.94-12.16-15.33-18.35-27.68-15.71Z"/><path class="cls-1" d="M662.75,227.63c1.44,10.6,10.39,16.9,18.73,22.21,8.74,5.55,14.09,13.06,19.12,22,11.56,20.5,22.76,41.2,34.14,61.8,4.67,8.45,17.63.9,13-7.57-11.12-20.13-22.16-40.31-33.36-60.4-4.55-8.16-9.58-16.53-16.78-22.66-6.73-5.73-19-9.5-20.33-19.33-.54-4-5.7-6.23-9.23-5.24-4.33,1.21-5.78,5.18-5.24,9.22Z"/><path class="cls-1" d="M733.24,383.86a155.66,155.66,0,0,1-25.32,55.85c-4.76,6.65,4.19,13.21,10.26,10.27,15-7.29,24.35-21.86,26.29-38.19,1-8.64-12.39-9.79-14.73-2q-6.9,23-13.79,45.94c-2.78,9.26,11.69,13.22,14.46,4l13.79-46-14.73-2c-1.33,11.17-9,20.42-18.86,25.23l10.26,10.27a166.83,166.83,0,0,0,26.84-59.45c2.18-9.39-12.28-13.4-14.47-4Z"/><path class="cls-1" d="M179.27,667.66a22,22,0,0,0,24.65,21.83c11.9-1.26,28.28-6.71,32.05-19.47,3.62-12.25-7.05-22.55-18.95-22.44-6.3.06-12.18,2.82-17.39,6.16-5,3.21-10.16,8-16.37,8.31-8.88.5-9.63,11.56-2,14.73,7.95,3.3,16.84,4.58,25.42,4.82,8.3.23,17.17-2.47,20.2-11,2.52-7.11-.76-15.29-8.58-16.87-7.24-1.47-14.29,3.54-14.43,11.08-.17,9.65,14.83,9.65,15,0q-.47,3.76-3,3.54c-1.53.16-2.53-.81-3-2.93-.1,0-.55.74-1,.74-2.84.06-5.6.48-8.54.26a57.46,57.46,0,0,1-18.06-4.07l-2,14.73c8.16-.46,14.6-4.1,21.24-8.56,3.15-2.12,12.93-9.59,16.79-4.46,3.26,4.34-9.11,8-11.46,8.77-5.79,1.82-15.45,4-15.56-5.14-.11-9.64-15.11-9.67-15,0Z"/><path class="cls-1" d="M801.17,683.5c6,7.52,18.42,13,24.87,2.57,6.12-9.83-1.47-18.88-9.08-24.6-2.42-1.83-7.16-1.17-9.09,1.17l-5,6.1c-5,6.09,1.48,16.89,9.09,11.78A62.78,62.78,0,0,0,835.15,653c2.45-5.75-1.59-12.83-8.47-11-10,2.63-14.3,14.21-9.66,23.14,5.34,10.28,17.08,12.11,27.54,12.4,9.66.27,9.65-14.73,0-15-4-.11-8.83.11-12.26-2.25a5,5,0,0,1-2.28-3.15c-.24-.89.71-.69.64-.67l-8.47-11a49.16,49.16,0,0,1-17.85,22.13l9.09,11.78,5-6.11-9.08,1.18a14.76,14.76,0,0,1,2.88,2.51c-.19-.26,1.35,2.05.91,1.88l2.87-1.77a3.93,3.93,0,0,1-1.38-.9c-.66-1.14-2.06-2.2-2.89-3.25-2.54-3.19-7.95-2.6-10.61,0-3.17,3.1-2.5,7.46,0,10.61Z"/><path class="cls-1" d="M832.27,668.3c9.65,0,9.67-15,0-15s-9.67,15,0,15Z"/><path class="cls-2" d="M350.52,565.71l63.65,15.12c9.39,2.23,13.4-12.23,4-14.47l-63.65-15.12c-9.39-2.22-13.39,12.24-4,14.47Z"/><path class="cls-2" d="M363.79,573.29c4.62,18.49,21.48,31.72,40.4,32.47,9.66.38,9.64-14.62,0-15-12.39-.49-23-9.55-25.94-21.46-2.34-9.36-16.81-5.39-14.46,4Z"/><path class="cls-2" d="M330,568.34c19.8,24,44,48,73.55,59.38,15.41,6,32,7,48.17,4,16.92-3.09,32.74-10.51,48.24-17.68,8.75-4.05,1.14-17-7.57-13-13.84,6.4-27.84,12.76-42.87,15.82A74,74,0,0,1,406,612.65c-26.13-11-47.68-33.44-65.4-54.92-6.15-7.45-16.71,3.21-10.61,10.61Z"/><path class="cls-2" d="M488.46,608.05,492,692.31c.4,9.62,15.41,9.67,15,0l-3.54-84.26c-.4-9.62-15.4-9.67-15,0Z"/><path class="cls-2" d="M507.07,617.92c17.57,8.29,35.16,16.1,54.69,18.14s39.2-1.75,56.89-9.93c16.54-7.64,30.74-19.52,44.34-31.45,15.57-13.65,31-27.41,46.54-41.11,7.25-6.41-3.39-17-10.6-10.61q-21.63,19.11-43.25,38.21c-12.44,11-25.07,21.93-39.87,29.68a95.12,95.12,0,0,1-50.31,10.53c-18.11-1.2-34.68-8.78-50.86-16.41-8.69-4.09-16.31,8.83-7.57,12.95Z"/><path class="cls-2" d="M581.57,584.4a333.44,333.44,0,0,0,121-47.11c8.12-5.17.61-18.16-7.57-12.95a322.39,322.39,0,0,1-117.42,45.6c-9.49,1.67-5.47,16.13,4,14.46Z"/><path class="cls-2" d="M660,555.46l-62.63,45.35c-3.3,2.4-4.83,6.5-2.69,10.27,1.86,3.25,7,5,10.26,2.69l62.63-45.36c3.3-2.39,4.83-6.49,2.69-10.26-1.86-3.26-7-5.06-10.26-2.69Z"/><path class="cls-2" d="M414.57,589.69l-6.74,1.12a7.52,7.52,0,0,0-4.48,3.45,7.67,7.67,0,0,0-.76,5.78c1.36,4.19,5.07,5.93,9.23,5.23l6.74-1.12a7.51,7.51,0,0,0,4.48-3.44,7.68,7.68,0,0,0,.76-5.78c-1.36-4.2-5.07-5.93-9.23-5.24Z"/><path class="cls-2" d="M304.67,568.58l-7.2,92.19c-.75,9.63,14.26,9.58,15,0l7.2-92.19c.75-9.62-14.25-9.57-15,0Z"/><path class="cls-2" d="M713.7,540.41c12.6,31.24,14.55,64.89,16.22,98.15.49,9.6,15.49,9.66,15,0-1.74-34.48-3.69-69.76-16.75-102.14-1.51-3.74-5-6.42-9.23-5.24-3.55,1-6.76,5.44-5.24,9.23Z"/><path class="cls-2" d="M317.34,646.92a506.45,506.45,0,0,0,174.55,48.74c9.6.9,9.54-14.11,0-15a486.15,486.15,0,0,1-167-46.69c-8.65-4.2-16.26,8.73-7.57,12.95Z"/><path class="cls-2" d="M511,698.94c57.56,6.74,116.48-3.21,169-27.5A306.23,306.23,0,0,0,723.27,647c7.94-5.39.45-18.39-7.57-13A303.2,303.2,0,0,1,511,683.94c-4-.47-7.5,3.78-7.5,7.5,0,4.45,3.46,7,7.5,7.5Z"/><path class="cls-2" d="M494.07,402c9.65,0,9.67-15,0-15s-9.67,15,0,15Z"/><path class="cls-3" d="M496.58,378.36,484,399.43l13.71,1.79c-1.5-5.36,2.48-11.74,8.25-12,7.31-.38,10.36-10,3.78-14-13.06-7.87-31.38-.4-35.08,14.44h14.46l-1.5-5.45c-1.37-5-6.7-6.52-11-4.49-17.66,8.3-28.66,28.34-26.09,47.69s18.35,35.81,37.55,39.24c6.64,1.19,11.36-4.9,8.47-11-9-19.05-9-40.93-1.18-60.35,1.22-3-.82-6.93-3.45-8.47-3.11-1.82-6.42-.9-9.09,1.18-20.27,15.75-22.13,46.9-6.43,66.31,3.73,4.61,11,1.6,12.53-3.31a41.2,41.2,0,0,0-9.6-40.32c-3.06-3.26-9.78-2.86-11.78,1.51L461.2,426c-3.33,7.28,5.49,15.68,11.78,9.09l30.42-31.91-11.77-9.09-15,33.45c-3.89,8.66,7.7,15.92,12.95,7.57l16.72-26.57c5.18-8.23,12.93-17.25,15.13-26.88,1.85-8.09-1.8-16.23-10.2-18.2-7.78-1.82-14.8,2.9-15.43,10.87-.4,5.11,5.1,8.21,9.5,7.23,21.2-4.7,42.67-9.31,64.5-9,19.43.23,41.53,4.65,55.88,18.79,6.72,6.62,11.5,16.07,10.34,25.74-.91,7.62-5.69,14-11.68,18.49-14.85,11.19-35.75,14.59-53.68,16.88a236.84,236.84,0,0,1-76.7-2.78l-2,14.73c29.84-.63,52.51-29.69,43.49-58.84-1.87-6-6.32-11.7-5.36-18a2.49,2.49,0,0,1,.82-1.05,1.23,1.23,0,0,1-1.33-.18c0,.05.28.44.18.64.18-.35.29,3.11.29,2.78a28.48,28.48,0,0,1-.32,4.23C527.54,411,524.6,428,522,445.06c-1.43,9.54,10.9,13.07,14.47,4A230.54,230.54,0,0,0,552.25,371h-15a227.86,227.86,0,0,1-9.62,84.91l14.47,4,19.22-85.36H546.86a126.72,126.72,0,0,1-8.55,69.17c-1.61,3.75-1.09,8,2.69,10.27,3.24,1.94,8.53,1,10.26-2.7l14-29.54h-13a28.5,28.5,0,0,1-.7,23.76l13.71,5.78,3-10.84c1.22-4.37-2.32-9.9-7.24-9.49-10.53.88-17.63,8.11-18.93,18.47-.64,5.16,5.28,8.13,9.49,7.23l39.3-8.38c7.72-1.64,6.5-12.22,0-14.46l-24.2-8.35c-3.39-1.17-6.55.87-8.47,3.45-7.87,10.59.11,25.24,11.2,29.38,13,4.87,29.38-1,41.48-6.37,11.83-5.24,22.3-13.78,27-26.13,4.5-11.82,2.88-25.35-5.89-34.72-4.2-4.49-13.42-1.26-12.81,5.3,1.45,15.56-4.65,31.53-17.36,41.05l11,8.47,10.77-43.22c.87-3.52,1.83-7,2.63-10.57,1-4.42.58-6.91-2.44-10.41a48.61,48.61,0,0,0-13.55-10.77c-22.44-12.09-49.09-5.09-64.3,14.75-3.73,4.87,1.46,11,6.48,11.29,12,.67,22.42-4.89,34-6.37,4.26-.55,9.72-.59,13.15,2.41,2.49,2.2,4,5.59,2.12,8.54l13.71,1.79a27.84,27.84,0,0,0-22.78-20.91c-11.16-1.54-22.1,4.28-27.67,13.94-4.83,8.38,8.13,15.95,13,7.58,5.93-10.29,20.22-8,23,3.38,1.61,6.5,10.36,7.05,13.71,1.79,8.14-12.79-1.6-28.65-14.88-32.53-16.42-4.8-31.21,6.29-47.36,5.38L559,393.19c14.12-18.41,41.09-16.87,55.28.25l-1.93-7.29-13.87,55.7c-1.43,5.75,5.47,12.63,11,8.47,16.81-12.59,26.76-32.82,24.79-54l-12.8,5.3c4.78,5.11,4.77,12.57,2.51,18.85-2.73,7.6-9.39,12.8-16.33,16.42a74.83,74.83,0,0,1-24.78,7.9c-3.57.42-8.15.53-10.85-2.28-1.86-1.93-2.34-4-.77-6.08l-8.47,3.45L587,448.22V433.76l-39.29,8.38,9.49,7.23c.22-1.73,2.3-3.33,3.93-3.47l-7.23-9.49-3,10.83c-2.23,8,9.87,13.56,13.71,5.78a44.9,44.9,0,0,0,.71-38.9c-2.2-5-10.68-4.8-13,0l-14,29.54,13,7.57a145.16,145.16,0,0,0,10.06-80.73c-1.17-7.4-12.91-6.9-14.46,0l-19.23,85.37c-2.12,9.4,11.6,13.23,14.47,4A239.86,239.86,0,0,0,552.25,371c-.71-9.53-14.73-9.76-15,0A218.45,218.45,0,0,1,522,445.06l14.47,4,4.37-29.18c1.37-9.18,3.3-18.47,4-27.72.53-6.57-.95-14.41-6.9-18.25-6.5-4.2-14.47-2.22-19.2,3.64-5.25,6.49-4.93,14.51-2,21.93,3.06,7.82,6.44,14.4,5.39,23.08-1.85,15.32-15,26.51-30.25,26.83-8.15.17-10.56,13-2,14.73a251,251,0,0,0,78.82,3.55c21.75-2.55,46.23-6.46,64.21-20s23.25-36.19,11.87-56c-12-21-37.46-30.28-60.2-33.16-27.93-3.54-56.2,2.54-83.36,8.57l9.49,7.23c-.08,1.05-3,3.42-3.17,3.55a2.94,2.94,0,0,0-.64-.63l-.2,1.23c-.52.81-.78,2-1.24,2.92-2.76,5.34-6.39,10.33-9.59,15.41l-19.33,30.73,12.95,7.57,15-33.45c3.26-7.27-5.46-15.72-11.78-9.09l-30.43,31.91,11.78,9.09,6.34-13.84-11.78,1.51A26,26,0,0,1,474.45,447L487,443.67c-11-13.62-6.83-34.79,6.44-45.1l-12.53-7.29c-9.38,23.25-8,49.37,2.68,71.9l8.47-11c-13.37-2.39-25-12.91-26.77-26.77s6.63-27,18.9-32.73l-11-4.49,1.5,5.46c1.93,7,12.65,7.26,14.46,0a9,9,0,0,1,13.05-5.48l3.79-14c-15.39.8-26.93,15.95-22.72,31,1.75,6.25,10.41,7.32,13.71,1.79l12.58-21.07c5-8.31-8-15.86-12.95-7.57Z"/><path class="cls-3" d="M515.7,469.49A17.62,17.62,0,0,1,538,457.21c9.22,2.94,13.17-11.53,4-14.46-17.05-5.44-36.37,5.46-40.74,22.75-2.37,9.36,12.09,13.36,14.46,4Z"/><path class="cls-3" d="M461.91,404.31a27.83,27.83,0,0,0,.62,29.05c5.27,8.05,18.26.54,13-7.57-2.87-4.38-3.27-9.31-.62-13.91,4.82-8.38-8.14-15.95-13-7.57Z"/><path class="cls-3" d="M254,250.69l.07,41.26c0,5.89,6.31,9.08,11.28,6.48,9.3-4.87,13-15.55,11.79-25.53-1.42-11.5-9.78-20.88-10.94-32.3-.41-4-3.15-7.5-7.5-7.5-3.74,0-7.91,3.44-7.5,7.5,1,9.59,5.35,17.31,8.84,26.1,2.35,5.93,4.79,15.09-2.26,18.78L269.05,292,269,250.69c0-9.66-15-9.67-15,0Z"/><path class="cls-3" d="M282.33,139.41l-6,116.83c-.49,9.65,14.51,9.62,15,0l6-116.83c.5-9.65-14.5-9.63-15,0Z"/><path class="cls-3" d="M686.31,140.59a99.5,99.5,0,0,0,15.17,103.85c6.26,7.37,16.83-3.29,10.61-10.61-19.64-23.11-25-57.8-12.83-85.67,1.63-3.74,1.07-8-2.69-10.26-3.16-1.89-8.65-1-10.26,2.69Z"/><path class="cls-3" d="M689.94,187.76v4.5a7.49,7.49,0,0,0,7.5,7.5,7.63,7.63,0,0,0,7.5-7.5v-4.5a7.74,7.74,0,0,0-2.2-5.3,7.5,7.5,0,0,0-12.8,5.3Z"/><path class="cls-3" d="M213.51,653.33a43.6,43.6,0,0,1-20.87,29.75c-6,3.54-3.9,14.67,3.79,14a41.2,41.2,0,0,0,36.06-28.72c2.9-9.23-11.57-13.18-14.47-4-3,9.44-11.63,16.81-21.59,17.71l3.78,14A58.23,58.23,0,0,0,228,657.32c1.86-9.43-12.59-13.46-14.46-4Z"/><path class="cls-3" d="M801.06,657.56c-3.64,14.05,4.1,27.78,17.35,33,5.22,2.05,11-4.13,9.22-9.22-4.32-12.21-17.06-19.46-29.77-16-9.29,2.55-5.35,17,4,14.47,4.44-1.22,9.71.94,11.32,5.49l9.22-9.22c-5.56-2.19-8.3-9-6.87-14.53,2.42-9.35-12-13.34-14.46-4Z"/><path class="cls-3" d="M257,305.79c-20.31,41.39-22.55,90.43-7.34,133.87a168.93,168.93,0,0,0,34.43,58.28c17.07,18.68,38.52,33.27,61.33,44,25.8,12.15,53.33,19.95,81.32,25.12,9.44,1.74,13.49-12.71,4-14.46-46-8.49-93-24.12-127.71-56.83-31.16-29.42-48.07-71.48-48.3-114.14a153.17,153.17,0,0,1,15.23-68.28c4.24-8.63-8.7-16.24-13-7.57Z"/><path class="cls-4" d="M506,414.31l-9.4,23.44c-1.51,3.76,1.65,8.24,5.24,9.22,4.28,1.18,7.71-1.46,9.23-5.23l9.39-23.44c1.51-3.76-1.65-8.24-5.24-9.22-4.27-1.18-7.71,1.46-9.22,5.23Z"/><path class="cls-4" d="M578.72,407c-2.45,7.24-3.92,15.75,1.42,22.12,4.26,5.07,12.13,7.23,18,3.74,7.29-4.3,7.07-13.75,2.31-19.8a21,21,0,0,0-8.65-6.3c-2.56-1.09-5.36-1.91-7.22-4-6.44-7.22-17,3.42-10.61,10.61,2.75,3.07,6.32,4.73,10,6.28a17.38,17.38,0,0,1,3.8,1.79c.29.22.55.55.85.74,1.22.77-.35,1,.46,0a1.27,1.27,0,0,1,.39-1.25,2.48,2.48,0,0,1,1.9-1.37h.15a.45.45,0,0,1,.43.11q.6.35-.51-.27c.28.86-.34-.83-.15-.19-.51-1.67,1.08-6.07,1.82-8.26,1.3-3.84-1.5-8.2-5.24-9.23a7.65,7.65,0,0,0-9.23,5.24Z"/><path class="cls-5" d="M381.76,722.81l-30.71-26.22-18.18,23.56c84.53,44.87,182.31,50.2,275.35,35.74a801.25,801.25,0,0,0,79.51-16.84c7.84-2,12.6-10.72,10.48-18.45-2.25-8.18-10.51-12.21-18.46-10.48l-35.34,7.68,8,28.93a160.86,160.86,0,0,0,67.22-37.27L694,698.85c.12,3.29.11,6.56-.09,9.85-.09,1.5-.23,3-.39,4.51-.18,1.78,0,.06.05-.26-.14,1-.31,2-.49,3a111.34,111.34,0,0,1-5.35,18.82,7.32,7.32,0,0,1-.84,2c-.74,1.61-1.5,3.21-2.3,4.79-1.5,2.93-3.13,5.81-4.87,8.61a81.61,81.61,0,0,1-10.49,14.08A141.68,141.68,0,0,1,654.86,778a10.58,10.58,0,0,1-1.79,1.41c-1.44,1.05-2.89,2.09-4.36,3.08-3,2-6.13,4-9.3,5.78-12.65,7.19-24.31,11.48-38.93,15a180.7,180.7,0,0,1-41.7,5.17c-7.24.16-14.49,0-21.71-.47-3.49-.22-7-.51-10.45-.87-1.61-.16-3.21-.34-4.81-.53l-2.4-.3c1.62.22-.2,0-.81-.13a285.83,285.83,0,0,1-40.86-9.27q-10-3.09-19.8-6.91c-3.69-1.44-5.23-2.1-7.59-3.14q-4.8-2.12-9.52-4.41a259,259,0,0,1-75-54.07L355.22,754c1.9,0,3.79,0,5.69.2.3,0,3.57.42,2,.18-1.38-.21,1.21.24,1.17.23a92.78,92.78,0,0,1,11.6,3.13,122,122,0,0,1,19.41,9.2c14.33,8,28,17.09,43.11,23.66C469.51,804.17,504,810.23,538,806.87a196.71,196.71,0,0,0,55.64-13.42c7-2.88,11.82-8.46,10.75-16.46a15,15,0,0,0-14.73-13l-127.91-3-31.73-.74c-2.27,0-4.55-.09-6.83-.2-.52,0-3.11-.51-1.2-.09s-.31-.13-.53-.2c-3.05-1-.05,0,.13.24l-1-.59,1.29.89c1.88,3.57,3.51,6.74.44,10-1.12,1.18-1.86-.33-.75.35l.79-.23c-1,.08-1,.1.11.05a31,31,0,0,1,3.34.12c2.75.19-1.69-.27,1,.11,6,.81,11.93,1.76,17.91,2.54q15,2,30.08,3.08a559.58,559.58,0,0,0,122.75-4.79,535.27,535.27,0,0,0,59.22-12.1c3.9-1,7.75-2.12,11.71-2.87-3.18.6,1.53-.09,2.48-.1s1.68.05,2.52.06c-2.78,0-.28-.8.16.12l.57.15-1.48-.7c2.25,2-.26-.47-.29-.53,1.41,2.54-.18-.32-.22-.43-.35-1-.31-1.67-.58-2.61.7,2.45-.4.94.06,0,.32-.68,1.44-2.08-.13.2-.35.51-1.76,1.95-.22.29-1.6,1.72.29.06-1.07.77-.24.13-3.14,1.49-1.8.94a27.5,27.5,0,0,0-2.76.77c-2.35.63-4.74,1.07-7.12,1.5C652.83,758,647,759,641.22,760.08L606,766.39l-71.39,12.8c-7.33,1.31-11.66,9.69-10.75,16.46a15,15,0,0,0,14.73,13,283.51,283.51,0,0,0,125.8-26.91l-18.18-23.55c-2,1.59-2.13,1.77-3.58,2.84-1.8,1.33-3.62,2.63-5.48,3.9-3.24,2.2-6.56,4.3-9.95,6.27s-6.85,3.83-10.37,5.56c-3.71,1.82-6.78,3.18-9.5,4.24a167.54,167.54,0,0,1-23.28,7.2,123.79,123.79,0,0,1-22.6,3.37c-7.81.54-15.38,6.52-15,15,.35,7.67,6.62,15.58,15,15a186.6,186.6,0,0,0,106-42.17c5.71-4.67,5.42-14.36,1.17-19.7-4.92-6.18-12.38-7.11-19.35-3.86A250.11,250.11,0,0,1,538.6,778.65l4,29.47,72.37-13,35.21-6.31c11.42-2.05,23.4-3.17,33.9-8.43s18.66-17.21,17.47-29.24a26.7,26.7,0,0,0-21.61-23.87c-10.26-2-20.27.3-30.18,2.93q-16.89,4.5-34.06,7.87a527.53,527.53,0,0,1-135.19,8.58c-11.63-.74-23.25-1.83-34.8-3.35-10.3-1.35-23.24-5-34.16-.88-13.25,5-22.07,20.81-14.49,34.14,6,10.54,17.79,13.25,29,13.56,54.52,1.49,109.07,2.55,163.6,3.83l-4-29.46a182.8,182.8,0,0,1-22.93,7.73q-5.64,1.49-11.38,2.61c-1.92.37-3.83.72-5.76,1-.82.14-1.65.26-2.47.39q-1.57.22-.15,0l-1.66.2A197.66,197.66,0,0,1,518,777.77q-5.85,0-11.69-.46c-1.94-.14-3.89-.3-5.83-.5-1.1-.11-2.21-.24-3.32-.37a4.69,4.69,0,0,1-1-.12,185.44,185.44,0,0,1-23.66-5.05q-5.62-1.59-11.13-3.54c-3.91-1.39-7-2.6-9.6-3.75-14.5-6.47-27.74-15.28-41.58-23-17-9.47-35.24-17-55-17-13.14,0-19.59,16.34-10.61,25.6,42.53,43.84,99.42,74.11,159.65,84.49,62.32,10.74,134.72,3.37,181.45-43.59,23.94-24.07,39.56-57.27,38.29-91.61a15.19,15.19,0,0,0-25.61-10.61,128.58,128.58,0,0,1-54,29.56,15.24,15.24,0,0,0-10.48,18.45c2.25,8.18,10.51,12.21,18.45,10.48l35.35-7.68-8-28.93c-86.67,22.64-178.59,33.53-265.37,10.07A313,313,0,0,1,348,694.25c-6.57-3.49-14.79-2.24-19.35,3.86-4.16,5.58-4.59,14.77,1.18,19.7L360.55,744c6.15,5.25,15.16,6,21.21,0,5.39-5.39,6.19-15.93,0-21.22Z"/><path class="cls-6" d="M389.18,820.35,389,851.51c-.1,16.54,25.88,20.86,29.46,4,3.3-15.54,2.74-31.65-2.78-46.63L390.6,823.45c10.15,12,23.84,20.61,38.69,25.51a85.05,85.05,0,0,0,22.81,4,89,89,0,0,0,11.54-.44c2.11-.18,9.74-.87,9.6.28-.07.65-2.51-2-2.6-2.16-.43-.61,0-1.08-.29-1.59,0,0-.17,2.45,0,1.39-.4,2.55-1.9,7.78-2.78,11.29-2.06,8.31-4.27,16.59-6.21,24.92-.48,2,.22-.49.33-.33.48.68-3.11,2.75.59-.07-.4.31,3.07-2.36,2.91-1.88.19-.56.58.14-.84-.14,2.42.48-1-.22-1.78-.38-2.55-.54-5.1-1.14-7.66-1.71l-26.81-6L413.73,873c-2-.45-5.05-1.76-7.07-1.62-1.68.11-.33-.46-.07.17a11.17,11.17,0,0,0,1.65,1.81c.5.51.66,2.84.27.13a9,9,0,0,1,0,2.93c.14-1,.82-1.21,0-.64-1.48,1,1.29-1.75-.28.2a14.93,14.93,0,0,1,1.54-1.54c1.68-1.55-1.52.88.48-.29.85-.51,1.69-1,2.57-1.47.4-.2,3.36-1.48,1.17-.6l-18.46-10.47,2.71,17.58c1,6.18,8.47,11.28,14.47,11,7.2-.32,11.81-4.59,14.46-11a100.56,100.56,0,0,0,7.28-44.35l-19,14.47c1.64.58,1.67.57.07,0a25.63,25.63,0,0,1,2.28,1.29c2.85,1.48-1.07-1.52,1.11.84.34.38,3.23,3.65,2.31,2.4s1.41,2.51,1.66,2.93c1.64,2.72-.16-1.58.51,1.28.18.75,1,6,.78,2.43.1,1.31.06,2.61.08,3.92-.15,1.77-.14,1.74,0-.09a25.17,25.17,0,0,1-.67,2.55l28.93,8a62.44,62.44,0,0,1,1.09-6.52,26.82,26.82,0,0,1,.92-3.14,1.43,1.43,0,0,1-.75,1.27c-1.36.8-1.3.75.2-.15a4.47,4.47,0,0,1-2.48.76,7.46,7.46,0,0,1-6.56-3.6c-.5-1.4-.6-1.58-.3-.52s.23.87,0-.58a26,26,0,0,1,0,2.79c-.12,2.13-.55,4.23-.74,6.35-.55,6.23.8,11.49,3.22,17.17,4.25,10,21.56,9.7,25.9,0l2.53-5.64c3.31-7.39,2.14-16.13-5.38-20.53-6.41-3.74-17.2-2.05-20.53,5.38l-2.52,5.64H473c.79,1.85.5,1,.75-.35.3-1.62.35-3.36.54-5a39.54,39.54,0,0,0-.29-11.18c-1.43-8.82-7.82-16.66-16.56-19.07-8.53-2.35-18.17.59-24.33,6.85-6,6.06-8.37,13.91-9.47,22.11-1,7.74,1.85,16.48,10.48,18.45,8,1.82,16.12-2.41,18.45-10.48,6.62-22.89-7-46.78-29.12-54.41-8.89-3.07-19.57,5.11-19,14.46.81,13.2-1,23.87-6.21,36.38h28.93l-2.71-17.59c-1.14-7.42-11.55-13.24-18.45-10.47-11.14,4.47-21.67,10.8-25.73,22.83-3.77,11.2-.08,24.89,10.47,31,4.93,2.87,10.44,3.88,15.93,5.1L424,906c10.9,2.43,21.8,5.27,32.78,7.26,12.63,2.29,25.53-.29,31.4-13,4.72-10.22,6.35-22.35,9.05-33.24,3.08-12.4,5.88-25.9-4.25-36-9.22-9.2-21.13-8.87-33.15-8.07a67.84,67.84,0,0,1-7.68.1c-1,0-2-.13-3.06-.2-4.71-.36,2.53.61-2.1-.29-2.52-.49-5-1-7.48-1.77-1-.29-2-.6-2.93-.93,0,0-4.37-1.66-2.15-.73-10.13-4.25-15.66-8.69-22.57-16.83-9.52-11.23-30.18.73-25.07,14.59,3.9,10.58,4.9,20.74,2.78,30.69l29.47,4,.19-31.16c.05-7.85-6.93-15.36-15-15s-14.95,6.59-15,15Z"/><path class="cls-6" d="M557.26,852.22l4.1,25.49c1.19,7.39,2.43,14.42,5.87,21.18,8,15.76,25.39,18.28,41.27,18l24.62-.5c8.26-.17,16.72.18,24.92-.92,9.58-1.29,18.18-6.92,21-16.61,2.51-8.59,0-17.93-1.23-26.53l-8-57.12c-1-7.35-9.91-11.62-16.45-10.74-8,1.07-12.08,7.2-13,14.73.18-1.45.14-1.65-.14-.59q-.4,1.24,0,.09.55-1.45-.54.6l.63-.87c-.24.26-2.89,2.6-1.64,1.64s-2.16,1.23-2.1,1.19c-.81.49-1.9.83-.4.28a31.8,31.8,0,0,1-3.45,1,34.14,34.14,0,0,1-7,.85c-12.58.65-26.18.14-37.21,7.3-10.71,6.94-16.58,19.41-16,32.1.62,13.26,7.06,24.54,14.39,35.22,8.61,12.56,26.74,7.48,27.95-7.57l1.81-22.68c.29-3.62.61-7.23.86-10.85.22-2.13.25-2.63.09-1.49q-.52,4.71-6.63,6.42c-2.71.68-5.16.34-7-1.6-.29-.31-1.11-2.27-1.17-2.3,0-1,0-.6.11,1.14,0,.8,0,1.61,0,2.41,0,3-.32,6-.11,9.06.59,8.35,3.11,16.79,9.57,22.5,13.76,12.17,35.22,6.71,39.61-11.74,1.58-6.65.64-13.37.07-20.07l-2-23.38c-.67-7.8-6.42-15.38-15-15s-14.54,6.6-15,15c-1.49,27.14,11.64,52,32.81,68.37,6.42,4.95,16.8,1,20.52-5.38,4.53-7.75,1.06-15.56-5.38-20.53,1.56,1.21-.53-.55-1-1-.94-.84-1.85-1.71-2.74-2.61-.7-.71-1.39-1.45-2.06-2.2-.22-.25-2.56-3-1.71-2s-1.53-2.2-1.49-2.15q-.84-1.26-1.62-2.55a67.58,67.58,0,0,1-3.53-6.68c.67,1.45,0,.11-.24-.6-.43-1.19-.85-2.37-1.23-3.57a64.81,64.81,0,0,1-1.7-6.58c0,.09-.64-4-.46-2.48s-.17-2.61-.17-2.51a67.92,67.92,0,0,1,0-7.55h-30L622,860.27c.28,3.37.66,6.75.84,10.12.08,1.41.09,2.79,0,4.2.27-1.47.29-1.67,0-.61s-.17.88.36-.56c2.48-1.67,3.41-4.37,7.28-3.4,1.09.28,2.1,1.7,2.78,1.87q.83,1.44-.56-.94l.33.53c-.39-1.84-.49-2.15-.28-.93l-.08-1.68c.09-7.41.66-14.71-2.26-21.72-6.75-16.22-30.64-21.09-39.93-4.22-3.79,6.88-3.22,16.19-3.83,23.84l-1.89,23.67,28-7.58a104.25,104.25,0,0,1-8.38-13.59,27.58,27.58,0,0,1-1.9-6.08c.34,1.56,0,.72,0-.4,0-.35,0-4.18-.09-2.42-.1,1.53.54-2.23.56-2.3.25-1,.56-1.94.13-.4l.73-1.23c-.78.93-.82,1-.1.24,1.54-1.57-1.4.74.56-.49.61-.38,3.15-1.4,1.35-.77a31.15,31.15,0,0,1,9.65-1.65c12.11-.65,24-.54,35.11-6,11.66-5.68,18.41-16,20-28.62l-29.46,4,7.45,53.17c.52,3.71,1.31,8.77,1.62,11.54-.08-.73.11,4.14.15,4.17-2.4-1.73,3.85-5.85,4.68-6.36q-2.61.57-.16.17c-.7.06-1.4.09-2.11.11-2.2.08-4.4.09-6.6.14l-12.8.26c-8.86.18-17.72.4-26.58.54a71.89,71.89,0,0,1-9-.21c2.72.31-2.62-.7-3.24-1,2.57,1-2.1-1,.41.23-1.21-1.3-1.37-1.41-.46-.32l-.74-1.25c-.8-1.59-.88-1.74-.24-.47-.32-.95-.61-1.9-.85-2.88-.8-3.07-1.26-6.22-1.76-9.35q-2.22-13.73-4.42-27.45c-1.28-8-11.25-12.46-18.45-10.48-8.52,2.34-11.77,10.42-10.48,18.45Z"/><path class="cls-6" d="M580.58,925.24c7.85,0,15.37-6.9,15-15s-6.59-15-15-15c-7.84,0-15.36,6.9-15,15s6.6,15,15,15Z"/><path class="cls-6" d="M333.2,714.16A323.62,323.62,0,0,0,498.87,837.1c16.53,5.34,25.75-18.69,11.56-27.41-3.49-2.15-6.9-4.42-10.17-6.88,1.25.94-.13-.11-.59-.49-1-.82-2-1.63-2.94-2.46q-2.33-2-4.56-4.12-4.46-4.23-8.5-8.86a70.48,70.48,0,0,1-6.62-8.46A134.84,134.84,0,0,1,465,757.05c-.28-.62-.89-2.14-.29-.66-.38-.95-.75-1.9-1.12-2.86q-1.21-3.22-2.25-6.53c-1.3-4.15-2.37-8.37-3.26-12.63L433,749c37.07,45.49,87.5,79.53,143,98.26A295.75,295.75,0,0,0,623.7,859c7.71,1.24,16.51-2,18.45-10.47,1.64-7.21-2.19-17.13-10.48-18.46a295,295,0,0,1-40.88-9.54q-9.84-3.06-19.45-6.79c-1.48-.58-3-1.16-4.42-1.76l-2.2-.9c.32.13,1.51.64-.07,0q-5.1-2.21-10.11-4.59A301.44,301.44,0,0,1,518,785.78a247.52,247.52,0,0,1-30.9-23.7,295.24,295.24,0,0,1-32.85-34.33c-4.13-5.07-12.86-5.45-18.17-2.34-6,3.49-8.27,10.39-6.9,16.94,8.05,38.55,32.69,72.67,66.14,93.24l11.56-27.42A291.08,291.08,0,0,1,423.21,765a307,307,0,0,1-34.11-29.89,272.11,272.11,0,0,1-30-36.07c-4.62-6.64-13.13-9.7-20.52-5.38-6.57,3.84-10,13.84-5.38,20.52Z"/><path class="cls-6" d="M530.64,809.6c-5.46-1.3-10.86-2.83-16.17-4.66-2.65-.91-5.27-1.91-7.88-2.94-1-.4-.95-.38.05,0l-1.4-.61q-2.1-.93-4.18-1.9a172.34,172.34,0,0,1-28.23-16.83c-.53-.39-2.77-2.08-1.23-.89-1.22-.93-2.4-1.9-3.58-2.88q-3-2.43-5.8-5-6.24-5.64-11.92-11.88c-1.72-1.88-3.39-3.81-5-5.77-1-1.18-1.94-2.36-2.88-3.57,1.42,1.83-1.37-1.89-1.34-1.85-3.3-4.55-6.34-9.26-9.18-14.11l-9,22,11.56-4.53c10-3.9,15.49-16.61,6.62-25.07-17.33-16.51-41.21-25.71-65.21-24-14.95,1.1-20.25,19.47-7.57,28l38.42,25.71-3-23.56a21.87,21.87,0,0,1-1.93,1.8c1.32-1,1.27-1-.14,0-.74.46-1.5.88-2.29,1.27q2.4-.92,0,0c-1.27.36-2.52.7-3.81,1q-2.62.47.08,0c-.88.07-1.76.1-2.64.1s-1.76-.05-2.64-.12c1.8.28,1.83.27.08-.05-1.27-.35-2.54-.67-3.8-1.06,3.06,1-1.6-.94-2.3-1.32-1.41-1-1.45-1-.12,0a25.22,25.22,0,0,1-1.91-1.82A15,15,0,1,0,361,756.33a315.15,315.15,0,0,0,97.62,69.91c7.36,3.36,16.14,2.11,20.52-5.38,3.77-6.45,2-17.14-5.38-20.52a288.5,288.5,0,0,1-91.55-65.22L361,756.33c17.17,17.3,46.58,17.3,63.88.22,7.22-7.12,4.87-18.27-3-23.55l-38.43-25.71-7.57,28c2.36-.17,4.71-.27,7.07-.22,1.05,0,2.1.06,3.15.13.26,0,3.12.25,1.91.12a74.69,74.69,0,0,1,12.54,3.1c1,.34,2,.69,2.95,1.09,2.39,1-1.57-.77.75.37,2.12,1,4.21,2.12,6.23,3.34a40.06,40.06,0,0,1,9.4,7.24l6.62-25.07-11.57,4.52c-8.86,3.46-14.27,13-9,22C431.19,795,474.07,827,522.67,838.53c7.62,1.81,16.61-2.39,18.45-10.48,1.75-7.69-2.31-16.51-10.48-18.45Z"/><path class="cls-7" d="M330.92,685.18c97.13,44.4,208.38,54.1,311.89,27.81a461.65,461.65,0,0,0,84.86-30.89c7.31-3.49,9.22-14,5.38-20.52-4.38-7.48-13.19-8.88-20.52-5.38-88.5,42.19-193,52.2-288.31,29.63a432,432,0,0,1-78.15-26.55c-7.37-3.37-16.15-2.1-20.53,5.38-3.77,6.45-2,17.14,5.38,20.52Z"/><path class="cls-7" d="M325.53,681.42c7.84,0,15.36-6.9,15-15s-6.59-15-15-15c-7.85,0-15.36,6.9-15,15s6.59,15,15,15Z"/><path class="cls-8" d="M322.27,683.15a547,547,0,0,0,190.94,44.49c7.85.38,15.35-7.17,15-15a15.32,15.32,0,0,0-15-15,508.78,508.78,0,0,1-175.79-40.4c-7.44-3.2-16.09-2.2-20.53,5.39-3.7,6.33-2.09,17.29,5.38,20.52Z"/><path class="cls-8" d="M522.09,697.9l-14.73,12.21c-6.07,5-5.59,16.08,0,21.21,6.45,5.92,14.74,5.36,21.21,0l14.74-12.21c6.06-5,5.58-16.08,0-21.21-6.45-5.92-14.75-5.36-21.22,0Z"/><path class="cls-8" d="M543,702.61c-3,8-10.2,13.13-18.37,14.73-9.46,1.84-5.46,16.3,4,14.46,13.55-2.64,24.06-12.46,28.84-25.2,3.4-9.05-11.09-13-14.46-4Z"/><path class="cls-9" d="M424.83,933l-56.77,12.06,4,14.46,23.6-7.76c9.18-3,5.47-16.54-4-14.46L343,948c-6.08,1.34-13.43,2-18.18,6.42-5.09,4.76-6.3,13.15-1.09,18.34,4.24,4.21,10.43,4,15.95,4.16l25.63.58,47.33,1.08c13.09.3,28,2.37,40.4-3.06,11.55-5.07,17.94-17.23,16.61-29.65-2.76-25.75-31.29-37.06-54.13-35.46-27.27,1.9-52.92,18.36-65,43-2.44,4.95.47,11.35,6.48,11.28l93.87-1c8.58-.09,10-12.18,2-14.73a25.36,25.36,0,0,1-5.21-2c-.78-.45-1.39-1.19-2.13-1.63.24.14.15.55,0,.49a.41.41,0,0,1,.09-.3c.5-.77-.27-.93-2.31-.49-1.68.48-2.56.07-2.63-1.25v1.11c-.58,1.37-.84,2.76-1.56,4.1-4.62,8.59,7.53,15.49,13,7.58,9.92-14.48-.05-34.68-17.57-35.51-18.07-.86-28.46,18.4-20.69,33.81,2.26,4.48,8.44,4.61,11.78,1.52l21.14-19.65-11.78-9.09c-2.22,5.25-9.72,6.15-9.85-.8-.13-6.36-8.19-10.06-12.81-5.3-6.69,6.91-15.46,9.72-24.95,8.64l6.47,11.28c1.88-3.65,4.9-6.33,9.16-6.65l-7.23-9.5a36.42,36.42,0,0,1-12.09,21.6,35.21,35.21,0,0,1-9.65,6,34.64,34.64,0,0,1-6.64,1.94c-.69.14-1.44.17-2.13.33-2.48.58-1.27-.64-.69.63l1,3.79c0-1.62-.26-1.53-.73.28a4.17,4.17,0,0,1,1.47-.63,44.08,44.08,0,0,0,4.86-1.29l12-3.08,24.07-6.16c9.35-2.39,5.39-16.87-4-14.47L381,940c-6.64,1.7-13.66,2.95-20.1,5.32-5.69,2.09-10.55,6.73-10.55,13.2,0,6.94,5.85,11.29,12.31,11.74,10.87.77,22.38-5,30.48-11.79a49.48,49.48,0,0,0,17-29.12c.77-4.4-1.94-9.9-7.23-9.49-9.4.71-17.72,5.56-22.11,14.08-2.8,5.44.78,10.64,6.48,11.29a43.15,43.15,0,0,0,35.56-13l-12.8-5.31c.17,9.11,6.25,17.81,15.44,19.79,8.94,1.93,18.78-2.94,22.36-11.41,3.17-7.5-5.1-15.3-11.78-9.09L415,945.78l11.78,1.52c-2.77-5.5,1.54-12.07,7.74-11.24,6.68.88,7.95,8.07,4.61,12.93l13,7.58c3-5.53,5.17-12.59,2.21-18.6a11.86,11.86,0,0,0-17.62-4.43,14.89,14.89,0,0,0-4.8,17.82c3.13,6.92,10.17,9.92,17,12.09l2-14.73-93.87,1L363.43,961a64.28,64.28,0,0,1,39.89-33.33c15.36-4.42,37.27-3.84,47.76,10.29,4.61,6.21,5.76,16.64-.88,22-7.24,5.84-19.12,4-27.69,3.85l-74.93-1.71c-3.29-.08-6.58-.14-9.86-.23.29,0-3.28-.2-3.4-.12s-.4,0-.6-.09a3.74,3.74,0,0,1,1.45,3.68c1.34.41,6.35-1.67,7.94-2l9.73-2.14,42.81-9.42-4-14.46-23.61,7.76c-9.19,3-5.47,16.47,4,14.46l56.76-12c9.44-2,5.45-16.47-4-14.47Z"/><path class="cls-9" d="M453.1,918.35a51.69,51.69,0,0,1-43.74,42.22c-8.45,1.19-6.31,14.89,2,14.73l14.18-.26c9.64-.18,9.67-15.18,0-15l-14.18.26,2,14.73c26.75-3.78,49.6-26.11,54.22-52.69,1.64-9.44-12.81-13.5-14.47-4Z"/><path class="cls-9" d="M611.93,924.28l-6.09,11,27.42,3.58-1.74-6.25a15.28,15.28,0,0,0-18.45-10.48c-7.28,1.78-14.55,4.49-19.63,10.26-6,6.8-8.19,16.07-4.86,24.61,5.62,14.45,21.23,15.58,34.55,15.57l85.53-.12c7.85,0,15.37-6.89,15-15s-6.59-15-15-15l-63.65.09c-10.12,0-20.26-.07-30.38,0-1.77-.15-1.73-.12.11.09a19,19,0,0,1-2.47-.62,4.63,4.63,0,0,1,2.52,1.55,7.84,7.84,0,0,1,1.78,7.41c-.87,1.88-2.48,1.86,0,1.16q-1.43.79,1.17-.21c1.09-.29,2.19-.57,3.29-.83l-18.45-10.48,1.74,6.26c3.39,12.18,21.11,15,27.42,3.58l6.08-11a15.3,15.3,0,0,0-5.38-20.53c-6.88-4-16.6-1.73-20.52,5.39Z"/><path class="cls-9" d="M644.63,957.82l5.92.73c5.72.7,11.74-4.34,13.71-9.22,2.13-5.3,1.44-12.37-3.1-16.39L649.1,922.27l-18.18,23.56,28.59,16.72a15,15,0,0,0,15.14-25.9l-28.59-16.72a15,15,0,0,0-19.35,3.86c-4.22,5.66-4.51,14.66,1.18,19.7l12.05,10.66,10.61-25.6-5.92-.73c-7.82-1-15.34,7.58-15,15,.4,8.95,6.62,14,15,15Z"/><path class="cls-10" d="M459.4,580.15c-8.38-2.66-17.86-4.82-26-.28-6.89,3.82-11.88,11.87-9.39,19.84a15.47,15.47,0,0,0,16.39,10.36,12.43,12.43,0,0,0,8.9-5.59,15.46,15.46,0,0,0,2.22-5.39c.16-.63.33-1.26.52-1.88q-7-1.15-3.54-3.68l11,8.47c2.57-7,12.08-8.62,17.74-4.75l3.78-14c-8,.46-16.64,1.94-24.65,1.31-1.19-.09-4.44-.28-.72,1.85.37.21.48-.1,1.32,0,3.89.35,7.66.78,11.55,1.42,8.31,1.36,16.61,2.75,24.92,4.08,6.16,1,12.56,1.74,18.47-.74,13.21-5.56,12.26-25.83-2.38-28.63a15.34,15.34,0,0,0-16.18,7.9c-3.3,6.34-1,14.07,3.8,19,6.18,6.32,14.76,6.8,23.05,7.3a39,39,0,0,1,22.09,8.08l7.29-12.54-14.38-5.6c-6.42-2.5-11.39,5.76-8.47,11,5.23,9.41,14.18,17.09,25.3,17.76,10.92.65,21.52-5.95,24.24-16.81a21.94,21.94,0,0,0-14.34-25.87c-10.46-3.56-22.57,2.18-26.89,12.25-2.72,6.37,3.21,14.53,10.27,10.26,3.46-2.1,7.91.55,5.71,4.75-4.48,8.54,8.47,16.14,13,7.57,4-7.55,3.27-17-3-23.1s-16-6.54-23.19-2.17L548,592.57c1.58-3.7,5-7,9.3-5.59a6.8,6.8,0,0,1,3.58,10c-2.2,3.49-7.25,4.1-10.87,2.9-4.77-1.59-8-5.59-10.32-9.83l-8.47,11,14.38,5.61c6.82,2.65,13.07-8,7.29-12.54-6.66-5.29-14.08-9.38-22.47-11.19a76.62,76.62,0,0,0-11.9-1.36c-3.2-.19-7.46,0-10.11-2.17-1-.81-1-1.73-1.65-2.64-.5.8-.5.95,0,.46.57-.11.56-.14-.06-.07-.13.14.17.06-.8.27-7,1.52-15-1.1-21.89-2.23-12.77-2.1-39.51-10.82-43.11,8.81C437,605.2,470.08,598.9,481,598.27a7.57,7.57,0,0,0,3.79-14c-14.21-9.71-34.1-1.83-39.78,13.72-2.12,5.81,5.86,12.42,11,8.47,6-4.56,8.6-12.9,3-19.07a12.72,12.72,0,0,0-18-.31c-1.34,1.38-5.06,6.82-4.14,8.64-.38.93-.17.88.63-.13.82,0,1.08-.17.8-.48a1,1,0,0,1-.27-.3c-.2-.28-.11-.15.26.39,1-1,2.36-2.61,4.68-3,4.13-.68,8.64,1.17,12.47,2.38,9.22,2.93,13.17-11.55,4-14.46Z"/><path class="cls-10" d="M528.9,594.14h14.61c9.65,0,9.66-15,0-15H528.9c-9.65,0-9.67,15,0,15Z"/><path class="cls-11" d="M431.72,582.7c-6.2,7.2-6.92,18.62.23,25.59s18.25,6.55,25.59.23c3.07-2.64,2.71-7.89,0-10.6-3.05-3-7.53-2.65-10.61,0a3.28,3.28,0,0,1-4.61-4.61c2.64-3.07,3-7.59,0-10.61-2.7-2.7-7.95-3.08-10.6,0Z"/><path class="cls-11" d="M437.36,574.19c-4.24,6.58-7.76,13.76-6,21.8s8.56,12.7,16.4,13.33,16.16-2,23.73-3.52l28.14-5.54c9.46-1.86,5.46-16.33-4-14.47l-37.84,7.45c-2.58.51-9.09,2.71-11.36.45-2.84-2.82,2.47-9.69,3.91-11.93,5.24-8.13-7.74-15.66-13-7.57Z"/><path class="cls-11" d="M532.21,575.51c-7.64,9.63-14.3,23.93-2.25,33.29,4.87,3.78,11.14,5.12,16.95,6.8L569.22,622c9.29,2.68,13.25-11.79,4-14.47-9.51-2.74-19.06-5.38-28.54-8.24-1.8-.55-5.84-1.32-6.5-3.52-.9-3,3-7.58,4.66-9.69,2.54-3.2,3.06-7.48,0-10.61-2.58-2.64-8.09-3.16-10.61,0Z"/><path class="cls-11" d="M494.86,573.45a25.46,25.46,0,0,0,11.08,27.65c8.13,5.25,15.66-7.73,7.57-13a10,10,0,0,1-4.19-10.71c2.29-9.37-12.17-13.37-14.46-4Z"/></g><g id="Layer_1" data-name="Layer 1"><path class="cls-9" d="M623.37,179.34a169.76,169.76,0,0,1,77.79-40.28c9.42-2.09,5.44-16.56-4-14.46a184.82,184.82,0,0,0-84.41,44.13c-7.14,6.53,3.49,17.12,10.6,10.61Z"/><path class="cls-9" d="M701.47,138.83c9.65,0,9.67-15,0-15s-9.67,15,0,15Z"/><path class="cls-9" d="M700.88,137.63a105.73,105.73,0,0,1,39.47,21.64,109.69,109.69,0,0,1,15,15.94c4.41,5.78,10.28,13.4,11.82,20.61v-4c.8-.31.48-.06-1,.77l-1.28.93c-1.56,1.15-3.1,2.37-4.56,3.65a56.57,56.57,0,0,0-6.5,6.81,78,78,0,0,0-10.61,17c-6.42,14.15-9.16,29.29-11.67,44.51l13.71-1.79c-23.45-34.39-53.64-79.54-34.21-122.65,1.68-3.72,1-8-2.69-10.26-3.19-1.92-8.6-1-10.26,2.69-22.13,49.11,7,97.82,34.21,137.79,3.23,4.75,12.57,5.12,13.7-1.79,3-17.94,5.92-36.64,16.31-52a50,50,0,0,1,6.89-8.13c2.9-2.8,6.75-4.62,9.49-7.52,6.65-7,.9-16.25-3-23a122.62,122.62,0,0,0-70.89-55.66c-9.27-2.76-13.23,11.72-4,14.46Z"/><path class="cls-9" d="M709.25,239.06A69.7,69.7,0,0,0,707,260.67c.55,9.6,15.56,9.66,15,0a56.2,56.2,0,0,1,1.67-17.62c2.43-9.35-12-13.34-14.46-4Z"/><path class="cls-9" d="M356.91,200.78c9.65,0,9.66-15,0-15s-9.67,15,0,15Z"/><path class="cls-9" d="M364,189.11c-10.87-15-22.13-30.19-35.33-43.2-12.13-11.94-26.33-21-43.52-22.85-4-.43-7.5,3.76-7.5,7.5,0,4.42,3.45,7.07,7.5,7.5,14,1.51,25.68,10.95,35.17,20.74,11.29,11.65,21.2,24.78,30.73,37.88,2.4,3.3,6.49,4.84,10.26,2.69,3.26-1.85,5.07-7,2.69-10.26Z"/><path class="cls-9" d="M281.18,125.69c-9.4,5-9.82,16.61-10.9,25.94-1.43,12.25-2.2,24.56-2.53,36.89-.66,24.71.46,49.42,1.57,74.1l14-3.78a233.26,233.26,0,0,0-32.2-47A223,223,0,0,0,231.31,192c-3.5-3.1-7.11-6.07-10.79-8.94-1.81-1.41-3.62-2.8-5.46-4.16-1.11-.82-2.22-1.63-3.34-2.42-.44-.33-.89-.64-1.34-1q-1.69-1.35.42,1.07v4c-.83.59-.6.28.7-.93q1.11-1.2,2.25-2.37c1.14-1.17,2.29-2.33,3.46-3.46,2.74-2.65,5.57-5.21,8.48-7.65A150.64,150.64,0,0,1,244,153a156.63,156.63,0,0,1,41.62-17.67c9.33-2.46,5.37-16.93-4-14.46a170.91,170.91,0,0,0-75.07,42.27c-4.54,4.4-12,10.17-10.28,17.37,1.61,6.69,10.54,10.66,15.53,14.62a223.14,223.14,0,0,1,31.33,30.36,216.66,216.66,0,0,1,27.16,40.89c3.39,6.56,14.31,3.55,14-3.79-1-22.09-2-44.19-1.72-66.31.13-10.71.56-21.42,1.43-32.09.45-5.5,1-11,1.72-16.46.4-3.07.61-7.84,3-9.12,8.53-4.54,1-17.49-7.57-12.95Z"/><path class="cls-9" d="M235.6,216.12A707.82,707.82,0,0,1,246.87,315c.42,9.62,15.42,9.67,15,0a739,739,0,0,0-11.8-102.86c-1.77-9.47-16.23-5.46-14.47,4Z"/><path class="cls-9" d="M350.32,190c-37.78,33.9-73.91,71.76-96.4,117.82-21.28,43.58-29.7,95.68-14.32,142.54,15.06,45.91,52.45,78.68,96,97.19,51.12,21.72,107.67,23.79,162.38,26.1,51.18,2.16,104.63,2.86,152.56-17.81,43.23-18.65,75.8-55.12,93.46-98.34,38.39-93.93-4.94-202.86-81.83-263.13A263.26,263.26,0,0,0,532.69,140c-49.93-6.25-101.5,2.76-146.75,24.57a251,251,0,0,0-31.61,18.21c-8,5.37-.46,18.37,7.57,12.95a250.3,250.3,0,0,1,133.54-42.59A243.66,243.66,0,0,1,625,187.05c79.42,46.87,134.42,142.23,114.13,235.58-9,41.51-32.88,80.61-68.13,104.9-40.19,27.7-90,32.57-137.53,32.17-25.41-.21-50.88-1.44-76.25-3-26.83-1.66-53.67-4.43-79.82-10.95-42.79-10.66-85.59-32.75-109.91-70.91-25-39.25-25.41-89.07-11.56-132.35,14.61-45.67,45.5-84.31,79.13-117.6,8.39-8.31,17-16.34,25.83-24.23,7.2-6.46-3.44-17-10.61-10.6Z"/><path class="cls-9" d="M549.3,480.13c9.65,0,9.66-15,0-15s-9.67,15,0,15Z"/><path class="cls-9" d="M548.56,464.74c-30.55,2.79-73.09,6.19-91.12-25.13-7.27-12.66-5.36-27.43,1.89-39.62,8-13.39,20.91-22.6,35.49-27.62,16.45-5.66,33.86-6.93,51.12-7.59,18.38-.7,37.43-2,55.55,1.86,14.52,3.07,29,9.9,37.91,22.18,8.59,11.78,9.46,26.61,2.87,39.54-18.7,36.72-64.34,36.95-100,36.43-9.65-.14-9.66,14.86,0,15,39.21.57,83.36-1.22,108.34-36.24,10.15-14.24,14.49-33.2,8.2-49.93-6.17-16.38-19.8-28.81-35.64-35.76-19.49-8.54-41.07-9.09-62-8.55-20.71.52-41.89.9-62.06,6.13-18.21,4.71-35.13,13.85-46.93,28.75-11,13.87-17.07,31.53-13.13,49.17,4.35,19.48,20.65,33.84,38.45,41.23,22.46,9.32,47.47,7.31,71.1,5.15,9.54-.86,9.63-15.87,0-15Z"/><path class="cls-9" d="M498.72,406.36c-7.45,10.11-16.3,26.38-10.38,39.11a16.49,16.49,0,0,0,16.23,9.44c7.89-.57,13.85-5.53,18.12-11.87,7.42-11,14.75-27.06,6.55-39.53-7.49-11.41-25.46-10.34-29.86,3.13-3,9.2,11.47,13.14,14.46,4-.23.72-.29-.79,1-.23.26.1.55.15.82.26,1.93.78,2.27,4.39,2.21,6.06-.26,6.42-5,15.07-9.06,19.93-1,1.25-4.57,4.73-6.57,3.13-1.27-1-.83-4-.64-5.3,1.09-7.42,5.67-14.64,10-20.55,2.42-3.29.52-8.34-2.69-10.26-3.78-2.27-7.87-.55-10.26,2.69Z"/><path class="cls-9" d="M559.75,407.4c2.38,12.77,6.24,27.27,18.54,34,12.07,6.62,28,3.72,33.15-10.15,5.28-14.26-4.53-29.41-15.93-37.45-11-7.75-28.59-7.17-35,6.25-4.15,8.66,8.78,16.28,13,7.57C580,394,605,417.54,596.4,428c-3.7,4.48-11.15,1.09-14.26-2.41-5.25-5.91-6.53-14.65-7.93-22.14-1.77-9.48-16.23-5.47-14.46,4Z"/><path class="cls-9" d="M499.94,357.48c-2-39.09-5.19-81.65-34.11-111.18C453.33,233.55,437,224.89,419,223.7c-19.84-1.32-39.21,7.08-54.36,19.39s-26.55,29.25-35.35,46.58c-9.43,18.54-16.09,38.38-18.66,59.05-4.6,37,6.27,77,34.33,102.68,30.05,27.55,77.2,32.54,110.09,7.1,3.23-2.49,2.58-8,0-10.6-3.13-3.2-7.42-2.47-10.61,0-24.07,18.62-60,15.15-83.47-2.55-25.54-19.28-37.34-52.31-36.38-83.5.56-18.09,5.09-36,12.07-52.66,6.68-15.95,15.57-31.75,27.2-44.63s26.58-23,44-25.5c15-2.14,29.89,2.81,41.47,12.4,31.11,25.78,33.72,68.63,35.61,106,.49,9.6,15.49,9.66,15,0Z"/><path class="cls-9" d="M601.67,349.89a173.29,173.29,0,0,1-6-46.48c.12-12.33,1.38-25.29,6.73-36.58,5.18-10.92,13.93-18.88,26-21.22,12.5-2.43,25.79,1.33,36.38,8C676,260.71,685,271.05,692.6,281.81a287.62,287.62,0,0,1,22.79,37.79c12,24.14,19,53.2,8,79.07-10,23.41-39.23,39.78-62.94,25.24-8.25-5.05-15.8,7.91-7.57,13,25.41,15.57,58.88,5,76-17.85,19.4-25.94,17.92-61.61,6.78-90.55-6.29-16.31-15-31.51-24.54-46.12-8.59-13.17-18.21-26-30.62-35.87-23.8-18.84-62.07-25-83.46,1.1-10.43,12.72-14.54,29-15.85,45.09-1.67,20.47.79,41.42,6.08,61.2,2.5,9.32,17,5.37,14.47-4Z"/><path class="cls-9" d="M329.5,538.29c-26.7,53.85-29.51,118.59-6.18,174.16,20.58,49,60.54,89.73,109.39,110.84,29.27,12.65,60.79,17.9,92.44,20.1,32.09,2.23,65.77,2.78,96.55-7.93,49.71-17.29,85-61.34,101.69-110.05,20.58-60.1,11.26-126.24-6.63-185.75-2.33-7.77-4.84-15.48-7.46-23.16-3.1-9.09-17.59-5.19-14.46,4,19.52,57.29,33.57,120.23,19.89,180.48-10.43,45.93-37.93,90.18-80.31,112.7-25.86,13.75-55.29,16.48-84.12,15.89-30.87-.63-62.19-3.45-91.81-12.61-47.71-14.76-88.57-48.59-112.68-92.25-30.12-54.54-31-123.12-3.35-178.83,4.27-8.62-8.66-16.23-13-7.57Z"/><path class="cls-9" d="M316.69,651.87c9.65,0,9.67-15,0-15s-9.67,15,0,15Z"/><path class="cls-9" d="M312.12,652.18c99.68,58.32,221.22,73.2,331.9,40.05A422.92,422.92,0,0,0,733.8,653.5c8.36-4.82.81-17.78-7.57-13-96.71,55.76-213.85,69.16-320.6,36.45a405.08,405.08,0,0,1-85.94-37.77c-8.35-4.88-15.91,8.08-7.57,12.95Z"/><path class="cls-9" d="M377.71,791a274.35,274.35,0,0,1-7.14,107.95c-1,3.65,1.22,8.5,5.24,9.23l100.28,18.14a7.74,7.74,0,0,0,9.23-5.24l28.58-80.58c3.23-9.12-11.26-13-14.47-4q-14.28,40.29-28.57,80.59l9.22-5.24L379.8,893.67,385,902.9A293.18,293.18,0,0,0,392.17,787c-.54-4-5.7-6.23-9.22-5.24-4.33,1.21-5.79,5.18-5.24,9.22Z"/><path class="cls-9" d="M663.08,804.24c-4.88,38.15,1,76.69,16,112L685.57,905,573.65,913.1l7.23,5.5L564.94,839c-1.9-9.46-16.36-5.46-14.47,4l15.95,79.65a7.52,7.52,0,0,0,7.23,5.51L685.57,920c6.11-.45,8.75-5.94,6.47-11.29-14-32.85-18.48-69.11-14-104.44.52-4-3.81-7.5-7.5-7.5-4.48,0-7,3.46-7.5,7.5Z"/><path class="cls-9" d="M394.76,905.8a245.14,245.14,0,0,1-57.55,36.43c-9.63,4.38-21.06,7.63-26,17.94-4.71,9.76-1,20.83,9,25.14,9.84,4.2,22.18,2.69,32.61,2.85l38.32.58,38.32.58c10.89.17,23.62,1.85,33.6-3.58,9.83-5.35,13.64-16.24,13.67-26.89,0-12.25-6.12-24.83-1.49-36.76,1.48-3.8-1.63-8.19-5.24-9.23-4.23-1.21-7.76,1.48-9.22,5.24-3.81,9.8-1.95,20.11-.17,30.13,1.17,6.65,2.81,15.88-1.66,21.75-4.81,6.31-15.77,4.55-22.62,4.45l-33.4-.51q-32.93-.49-65.83-1c-4.48-.07-17.6,0-11.54-7.72,2.31-3,6.56-4.54,9.88-6,4.74-2,9.48-4,14.13-6.26a259.7,259.7,0,0,0,55.8-36.56c7.37-6.26-3.29-16.83-10.6-10.6Z"/><path class="cls-9" d="M647.47,920.06c5.54,14.44,18.33,22.54,32.44,27.39,7.69,2.65,15.68,4.36,23.27,7.29A39.79,39.79,0,0,1,713.29,960c1.08.84,5.27,4.6,4.11,6.34-.64,1-5.31.75-6.3.77-4.93.12-9.87.14-14.81.21l-28.64.39-29.62.41c-7.74.11-15.89.86-23.55-.51-7.9-1.4-13.52-5.72-14.9-13.92-1.59-9.4,2.59-18.94,5.95-27.49,1.49-3.79-1.64-8.19-5.24-9.22-4.24-1.22-7.75,1.48-9.22,5.24-6.84,17.4-12.26,40.41,5.18,53.73,7.19,5.5,16.33,7,25.17,7.28,10.78.35,21.63-.18,32.41-.33l33.57-.46,16.79-.23c5.15-.07,10.7.28,15.74-1,8.8-2.33,14.46-10.75,11.91-19.79s-10.75-15-19-18.77c-10-4.51-20.74-6.55-31-10.36-7.86-2.94-16.76-7.93-19.93-16.19-3.43-8.92-17.94-5.05-14.47,4Z"/><path class="cls-9" d="M330.55,553.23c9.66,0,9.67-15,0-15s-9.66,15,0,15Z"/><path class="cls-9" d="M472.8,373.83c2.57-25.89-.63-52.93-10.22-77.19-4-10.16-10.1-20.46-21.41-23.47s-22.88,2-30.86,9.87c-8.4,8.26-14.11,19.55-19.58,29.84-6.22,11.67-11.7,23.95-15,36.79-5.72,22.16-4.88,47.37,7.58,67.21,12.87,20.48,38.47,32.93,62.32,25.86,9.24-2.74,5.31-17.22-4-14.47-15.86,4.71-33.13-2.63-43-15.49-11.13-14.46-13.31-34.61-10-52.09,3.85-20.46,13.74-39.5,24.68-57,4.56-7.31,10.68-15.51,20-16.33,8.59-.77,12.79,7.9,15.37,14.7a158,158,0,0,1,9.15,71.8c-.4,4,3.73,7.5,7.5,7.5,4.39,0,7.1-3.45,7.5-7.5Z"/><path class="cls-9" d="M629.09,354.74A166.54,166.54,0,0,1,634,299.92c1.5-5.66,3.27-15.49,9.36-18.22,6.95-3.13,13.66,4.78,16.92,9.81,9.64,14.91,17.28,31.65,23.84,48.11q5.08,12.72,9.19,25.82c2.18,6.95,4.86,14.7,3.71,22.1-1.27,8.1-8.58,11.37-16.16,10.55-8.85-.95-16.63-7.23-23.4-12.51-3.22-2.51-7.46-3.08-10.61,0-2.62,2.56-3.19,8.12,0,10.6,8.39,6.55,17.16,13.51,27.76,16,9.72,2.27,20.44.82,28.23-5.71,17.24-14.45,6.72-40.74.58-58-7.73-21.72-17.19-43.51-29.34-63.16-5.43-8.78-12.94-16.93-23.59-18.73s-19.84,3.65-24.94,12.84c-5.72,10.3-8,23.12-9.76,34.63a182.46,182.46,0,0,0-1.68,40.71c.69,9.58,15.7,9.65,15,0Z"/><path class="cls-9" d="M459.92,377.31a411.62,411.62,0,0,0-2.09-45.1q-1-9.79-2.46-19.54c-.92-6.27-1.59-12.84-4.45-18.59-5.56-11.17-18.88-13.56-29.07-7.06-5.26,3.36-8.91,8.51-12.44,13.52-3.78,5.39-7.52,10.81-11.08,16.34-12.77,19.85-23.68,42.94-20.94,67.15,2.31,20.46,13.11,41.06,32.68,49.66,12.16,5.34,26.93,4.73,34.1-8,3.49-6.2,4.92-13.56,6.83-20.34l6.74-24c1.88-6.66-5.34-11.25-11-8.47-11.54,5.66-18,17.15-18.41,29.77-.11,3.68,1.63,13.69-2.59,16.15-3.92,2.27-8.68-6.59-10.42-9.07l-12.64-18.08c-1.86-2.66-4-5.28-5.58-8.1,0,0-1.19-2.53-1.3-2.58a6.76,6.76,0,0,0-2.78.82l.92,1c2.71,6.47,7.53,12.7,11.09,18.76L417,421.87c3.59,6.12,14.52,3.87,14-3.78a65.35,65.35,0,0,1,19.68-51.93l-12.53-7.3c-2.68,6.81-8.7,22.21-18.86,18.76-7.54-2.57-3.85-17-5.26-22.86-2.5-10.39-14.5-15.27-22.67-7.38-9.47,9.15-3,21.29,4,29.36,4,4.6,10.72,1.57,12.54-3.31l23.43-62.89c1.15-3.07-.76-6.9-3.44-8.47-3.12-1.82-6.43-.91-9.09,1.17-14.55,11.37-20.47,31.83-14.85,49.31,2.18,6.8,12.58,7.46,14.46,0l8.75-34.69a43.62,43.62,0,0,1,1.81-6.68,11.5,11.5,0,0,0,.89-1.66c.18.71-2-.24-2-.13,0-.09,2.14,3.54,2.28,3.91a69.33,69.33,0,0,1,2.05,7.37c3.9,15,7.76,41.82-12.53,47.28L428,371.4c-7-13.25-5.52-30.52,4.07-42.17l-12.81-5.3-.56,41.46h15L433.28,346c-.13-5.54-6.31-9.53-11.28-6.47a41,41,0,0,0-18.15,23.55c-2.73,9.52-2.14,22.7,8.58,26.85,8.16,3.16,17.54-1.62,21.78-8.86,6-10.23.54-22.17-4.69-31.39-3-5.21-9.85-4.48-13,0A47.39,47.39,0,0,0,410,389.25c2.55,9.3,17,5.35,14.47-4a32.73,32.73,0,0,1,5-28h-13c2.29,4,6.67,10.47,5,15.37a4.76,4.76,0,0,1-2.17,2.7c-1.32.8-2.07.09-1.47.78-2.21-2.56.31-9.61,1.43-12.13a25.62,25.62,0,0,1,10.18-11.49L418.28,346l.46,19.36c.23,9.64,14.87,9.68,15,0l.56-41.46c.09-6.08-8.56-10.45-12.8-5.3A54.62,54.62,0,0,0,415.09,379a7.62,7.62,0,0,0,8.47,3.45c12.65-3.41,21.43-14.09,25.07-26.36,4.36-14.72.78-31.88-3.9-46.12-1.92-5.84-5.31-12.31-11.56-14.38-6.47-2.14-13.06.83-16.48,6.59-3.72,6.26-4.72,14.41-6.47,21.36l-6.32,25.05h14.46c-4.16-12.94.36-26.4,11-34.71l-12.53-7.3-23.43,62.89,12.53-3.31c-1.38-1.57-3.4-3.51-4.09-5.58a14.14,14.14,0,0,0-.46-1.48c-.51-1,.94-.27,0-.92-3.06-2.07-1.64,4.16-1.68,5.81-.23,9.32,1.29,19.08,9.31,25,7.84,5.78,18.86,4.73,26.71-.54,8.91-6,13.06-16,16.84-25.56,2.88-7.33-7.55-12.13-12.53-7.3a79.88,79.88,0,0,0-24.08,62.54l14-3.79-12.42-21.16c-4-6.76-7.49-14.36-12.52-20.4-4.15-5-11.15-7.84-17.25-4.37s-8,11.15-6,17.52c2.17,6.91,7.77,13,11.87,18.85,4.58,6.56,8.93,13.39,13.92,19.64,4,5.06,9.46,9.55,16.21,9.88s12.59-3.53,15.94-9.17c4.54-7.64,3-15.89,3.77-24.26.65-6.85,4.83-12,10.89-15l-11-8.47c-3.11,11.06-6.17,22.14-9.34,33.19-1,3.48-1.91,8.28-5.15,10.42s-8.28.84-11.7-.52c-14.18-5.67-22.11-20.7-24.48-35.07-3-18.13,4-36,12.85-51.43,5.13-8.94,11-17.44,16.91-25.87,3-4.29,11.86-15.6,15.7-6.12,1.94,4.8,2.24,10.58,3,15.64.93,6.47,1.66,13,2.25,19.46q1.8,20.07,1.62,40.22c-.06,9.65,14.94,9.66,15,0Z"/><path class="cls-9" d="M424.7,308.52l4.23,52.65,9.49-7.23c-5.42-2.07-8.23-9.11-11.4-13.47-4-5.49-9.06-10.41-15.91-11.94-6.19-1.38-12.66.26-16.81,5.18s-5.27,12.47-1.36,17.89c2.39,3.31,6.5,4.84,10.26,2.69,3.27-1.85,5.05-7,2.69-10.26-.9-1.24-.73-.47-.19-.66a3.18,3.18,0,0,1,2.83,0c3.6,1.2,5.88,5.07,7.84,8,4.86,7.37,9.55,13.74,18.06,17,4.36,1.67,9.86-2.66,9.5-7.23l-4.23-52.65c-.77-9.56-15.77-9.64-15,0Z"/><path class="cls-9" d="M636.33,362.52l3.2-38.94c.5-6.07.94-12.14,1.5-18.2.49-5.23,1.23-11.69,5.4-15.41,8.34-7.45,13.67,7.67,16.29,13.31L678.89,338C684,348.91,690,359.79,693.55,371.3c1.49,4.84,2.78,10.34,1.61,15.39s-4.44,5.47-9,4.23c-18.64-5.1-34.82-21.08-42.08-38.69a70.53,70.53,0,0,1-5-31.83,66.48,66.48,0,0,1,3.27-16.2c.16-.48,2.72-6.25.16-3.82-1,.92.95-2.73,0,.46-.32,1.09-.12,2.42-.54,3.66-1.81,5.37-5,10.16-6.6,15.67a62.39,62.39,0,0,0-2.4,17.07,61,61,0,0,0,9,32,62.73,62.73,0,0,0,21.12,20.65c7.35,4.37,20.18,10.71,28.47,5.5,5.12-3.22,6.09-9.19,4.75-14.69-1.51-6.17-4-12.25-6-18.28q-6.24-18.81-12.47-37.62L671,304.1c-1.93-5.82-3.3-12.62-6.71-17.81-3.2-4.86-8.68-7.81-14.53-6.22-5.45,1.48-8.62,6.83-10.06,11.92-6.91,24.33-1,52.86,11,74.52,3.74,6.74,13.68,3.39,14-3.79L667,307.23c.34-8.37-12.92-10.31-14.73-2a112.41,112.41,0,0,0,10.25,76.38c3.5,6.69,14,3.45,14-3.79l-.24-40.61h-15l3.95,40.86c1,10.62,2.72,21.44,14.55,24.75a22.33,22.33,0,0,0,24.57-9.64c5.78-9.49,3.9-21.7-1.67-30.78-4.13-6.73-13.26-3.36-14,3.79l-1.55,15.48c-.4,4,3.73,7.5,7.5,7.5,4.39,0,7.09-3.45,7.5-7.5l1.55-15.48-14,3.78c2.68,4.37,5.17,11.67,1.29,16.21-2,2.38-7.13,3.7-9.28.88-1.59-2.09-1.27-6.49-1.51-9l-1.32-13.62-2.63-27.24c-.91-9.42-15.06-9.84-15,0l.24,40.61,14-3.78a96.05,96.05,0,0,1-8.74-64.83l-14.73-2-2.26,55.49,14-3.78a91.21,91.21,0,0,1-10.92-33.24,93.77,93.77,0,0,1-.44-17,79.64,79.64,0,0,1,.9-8.15c.17-1,1.54-6,1.27-6.3l-2.77.13.27.6c-.06.16,1.41,3.72,1.4,3.71,1.06,3.13,2.08,6.27,3.12,9.4l6.86,20.69,12.48,37.61L679,375.8c.31.94,2.19,8.76,2.91,8.88l2.12-2.43c-.73-.15-1.46-.33-2.18-.54-1-.26-1.9-.55-2.84-.87a43.1,43.1,0,0,1-7.65-3.53,46.51,46.51,0,0,1-19.82-22.17,47.42,47.42,0,0,1-.55-34.2c3.76-10.14,11.56-21.18,2.15-31a13.52,13.52,0,0,0-14.26-3.69c-5.58,1.94-8.43,7.14-10.35,12.36a80.09,80.09,0,0,0-4.12,35.28,83.46,83.46,0,0,0,31,57.15c14.42,11.39,47.35,27.63,54.21-.37,2.93-11.93-1.4-24.25-6.14-35.07-5.27-12.06-11.06-23.91-16.61-35.84l-9.54-20.49c-2.68-5.78-5.1-11.76-9-16.86-7.88-10.31-21.19-12.73-31.4-4-10.79,9.19-10.72,24.42-11.78,37.41l-3.84,46.73c-.79,9.62,14.22,9.57,15,0Z"/><path class="cls-9" d="M465.05,516.34c32.62,14.21,69.65,22,105.28,18C602,530.83,634,514.75,644,482.42c2.88-9.24-11.6-13.19-14.47-4C621,505.9,591.43,518,565,519.86c-31.34,2.23-63.6-4-92.34-16.47-3.74-1.63-8-1.07-10.26,2.69-1.89,3.16-1,8.65,2.69,10.26Z"/><path class="cls-9" d="M512.4,352.69c.08-38.34-22.68-74.58-55.72-93.45-33.63-19.19-75.08-17-108.41,1.72-34.77,19.55-56.3,55.16-58.6,94.84-2.41,41.46,16.14,82.05,49.36,107,39,29.23,93.51,30.68,132.09,0,3.2-2.54,2.61-7.94,0-10.6-3.1-3.17-7.45-2.51-10.6,0-29.82,23.67-72.22,23.44-104.11,4.24-30.81-18.55-50-52-51.79-87.77C302.91,334,317.45,300.23,346.13,280c26.84-18.89,62.5-25.62,93.33-12.66,33.59,14.11,58,48.66,57.94,85.32,0,9.65,15,9.67,15,0Z"/><path class="cls-9" d="M293.86,366.74c-11.62,8.16-25.71,12.73-40,10.69-11.81-1.69-23.89-7.63-30.77-17.65-19.6-28.51,7.28-61.66,25.38-82.68,6.27-7.28-4.3-17.93-10.61-10.6-19.48,22.61-40.17,48.73-35.43,80.6,4,26.79,28.45,43.67,54.24,45.62,15.79,1.19,31.88-4,44.74-13,7.84-5.51.35-18.52-7.58-12.95Z"/><path class="cls-9" d="M375.78,169.9a873.73,873.73,0,0,1,222.78-26.71c9.66.09,9.67-14.91,0-15a890,890,0,0,0-226.77,27.25c-9.35,2.37-5.38,16.84,4,14.46Z"/><path class="cls-9" d="M441.09,142.42,424.18,87.56l-8.75-28.37L411.35,46c-.71-2.28-3.6-8.09-2.24-10.48,1.06-1.88,5.54-1.5,7.39-1.55,4.58-.11,9.16-.12,13.75-.18l28.47-.37,57.93-.75-7.5-7.5a673.07,673.07,0,0,0-3,110.78c.53,9.6,15.53,9.66,15,0a673.07,673.07,0,0,1,3-110.78c.44-4-3.79-7.55-7.5-7.5-33.38.43-66.78.52-100.15,1.3-6.22.15-13,.93-17.7,5.51-5.35,5.27-5.51,12.7-3.71,19.55,4.2,16,9.75,31.76,14.62,47.57l16.91,54.86c2.84,9.19,17.32,5.27,14.47-4Z"/><path class="cls-9" d="M403.3,32.74a238.61,238.61,0,0,1,21.34,73.75c1.28,10.57,2.73,21.92,10.72,29.77,7.79,7.66,19.05,9.32,29.51,8.26s22.71-2.92,31.57-8.79c10.72-7.09,13.06-19.3,13.64-31.31.66-13.74,1.05-27.5,1.58-41.26.43-11.2,2-24.53-8.22-32.11-4.94-3.67-11.13-4.63-17.15-4.81-7.55-.22-15.13,0-22.68,0l-47.51.16c-5.44,0-9.67,6.44-6.48,11.28,9.11,13.79,14.48,29.22,18.91,45,4.78,17.07,9.06,34.29,13.55,51.44,1.79,6.83,13.06,7.46,14.46,0a165.27,165.27,0,0,0-3.37-76.76c-2.93-10.08-8.72-23.72-21.94-19.73a12.14,12.14,0,0,0-8.34,12.5c.38,5.79,4.39,10.49,9.07,13.51,2,1.31,5.57,1.51,7.57,0a62,62,0,0,1,55.63-10.3l4-14.46c-19.55-3.51-39.62.23-56.16,11.41-5.74,3.88-4.15,14.39,3.78,14L491.58,62l-2-14.74-43.12,11c-8.06,2.06-6.58,15.16,2,14.73l18.26-.91c4.45-.22,12-2,16.25-.06a4.35,4.35,0,1,1-3.81,7.8c-3.62-1.81-5.77-6.63-9.36-8.85a15.43,15.43,0,0,0-13.46-1.39c-9.79,3.88-9.58,16.69-.62,21.42,10.1,5.33,17.56-2,23.57-9.24,1.31-1.58,5.06-5.48,7.69-4.17,1.47.74-.37,2.86-1.52,3.81-3.44,2.81-9.29,2.92-13.46,3.71-4.93.92-9.84,2.37-14,5.34-7.41,5.35-10.77,15.79-5.73,24,6.92,11.18,20.67,2.65,28.14-3.48a46.9,46.9,0,0,0,16.27-27.44c1.2-6.49-7.39-13.78-12.53-7.3-7.14,9-14.34,18-21.42,27-6,7.7-10.95,17.79-3.87,26.61,6.74,8.41,17.5,5.74,23.09-2.35,6.52-9.44,11.74-20.09,17.49-30,4.3-7.43-5.62-15-11.78-9.09-7.45,7.11-14.61,16-12.48,27,1.93,10.06,13.59,17.78,23.22,12.13,8-4.72,10.06-17.66,1.47-23-8-5-19.7,1.14-19.26,10.77s15.43,9.66,15,0c.19,4.37-4.14,1.47-5,.37-.22-.3.11-.87,0-1a.75.75,0,0,1,.55-.2c.48,0,.28-.15-.61-.51a10.67,10.67,0,0,1-.85-2.37c-.41-5,5.33-9.55,8.51-12.58l-11.78-9.09-11,19c-1.88,3.25-3.59,6.74-5.72,9.84-.57.84-2.3,2-.38,1.76,2.8-.37,0,.45.83-.78,1.32-2,2.06-4.47,3.62-6.52,2.19-2.89,4.51-5.69,6.76-8.53L494.8,86.82l-12.54-7.3c-2.28,12.39-10.82,22.5-23,26.05l5.77.76c.35.21-.76.65-.1-1a5.77,5.77,0,0,1,1.15-2.17c2.32-2.48,6.78-3,9.94-3.59,8.2-1.53,16.62-2.95,22.15-9.86,5.13-6.41,6.23-15.86.3-22.19-4.83-5.17-12.71-6-19.16-3.72-7.09,2.51-11.44,8.22-16.12,13.76-.3.36-.26.7,0,.31l-.19,0c-1.94-.43-2.23,1.4-.85,5.47.09.26-.93,0-.72.29.05.07.52,0,.65.2A41,41,0,0,0,470.48,92c13.81,9.47,32.84-2.56,29.94-19.07-1.66-9.46-9.31-15.36-18.58-16.27-10.85-1.06-22.51.78-33.38,1.32l2,14.73,43.12-11c8.06-2.06,6.58-15.18-2-14.73l-44.81,2.35,3.79,14a60.61,60.61,0,0,1,44.6-9.9c9.37,1.68,13.38-11.64,4-14.46C476.44,32.12,450.91,36.4,432,50.76h7.57A4.4,4.4,0,0,1,438,49.41c-.3-.86-.4-.88-.31-.08.29,0-2.46,2.53-2.47,2.85s1.64,3.38,1.85,4c.61,1.74,1.13,3.51,1.64,5.27a147.36,147.36,0,0,1,4.74,22.37,149.3,149.3,0,0,1-1.37,46.41h14.46c-4.63-17.71-9-35.52-14-53.14-4.66-16.38-10.5-32.62-19.94-46.91L416.1,41.44c23.57-.08,47.37-1.14,70.92-.17,3.12.13,7.1.35,8.86,3.33,2.16,3.66,1.12,9.61,1,13.6l-1.37,35.73c-.31,8.38,1.29,21.89-5.74,28.14-6,5.3-17.21,6.6-24.87,7.45s-16.85.6-21.22-6.91-4.14-18.24-5.42-26.75a251.71,251.71,0,0,0-22-70.69c-4.15-8.71-17.09-1.11-12.95,7.57Z"/><path class="cls-9" d="M441.41,34.39a98.28,98.28,0,0,0-9.28,51.17c1.55,16.14,6.54,36.4,19.36,47.47,6.48,5.6,14.69,7.78,23.09,8.24,7.66.42,16.73.24,24.07-2.14,20.24-6.58,13.16-31.31,11.46-47.08C509,81.83,507.61,71.6,507,61.34c-.58-9.39-.24-18.76,5-26.87s-7.74-15.67-13-7.57c-8,12.47-7.86,27.5-6.41,41.73,1.63,16.06,4.41,32.27,5.1,48.39.12,2.7.31,5.64-2.19,7.26-2.27,1.46-5.82,1.45-8.4,1.65-6.63.51-13.92,1.2-20.31-1.07-12.58-4.46-17.07-23-19.05-34.64A82.45,82.45,0,0,1,454.36,42c4.08-8.69-8.85-16.31-12.95-7.57Z"/><path class="cls-9" d="M696.43,520.36c35,25.11,70.07,50,104.9,75.33,5.82,4.23,12.43,9.14,14.86,16.2,2.95,8.54-1.56,17.86-5.64,25.21-6.69,12.07-15.75,29.06-30.14,33-17.13,4.69-30.93-13.48-39.63-25.45-2.39-3.31-6.49-4.84-10.26-2.7-3.25,1.86-5.06,7-2.69,10.27,10.88,15,24.41,31.5,44.16,33.45s34.27-13.73,44.16-28.86C827,640.2,839.54,617.88,826.29,599c-5.7-8.14-13.86-13.73-21.83-19.45l-30.79-22.11-69.67-50c-3.31-2.38-8.32-.55-10.26,2.69-2.24,3.75-.58,7.91,2.69,10.26Z"/><path class="cls-9" d="M332.27,551.29c9.65,0,9.67-15,0-15s-9.67,15,0,15Z"/><path class="cls-9" d="M329.46,539,270.3,575.63c-9.79,6.07-19.61,12.11-29.39,18.22-7.74,4.84-15.72,10.26-20.36,18.37-9.67,16.89-.57,39.53,6.68,55.77,7.51,16.81,21.44,29.24,40.64,29.06,23.47-.21,41.12-16.54,56.6-32.26,6.79-6.88-3.81-17.5-10.6-10.61-11.47,11.64-24,24.74-40.88,27.48-15.86,2.57-26.38-6.89-32.5-20.56a142.74,142.74,0,0,1-7.42-21.73c-2-7.64-3-15.82,2.34-22.35,4.9-6,12.33-9.76,18.8-13.77l25.35-15.72L337,551.91c8.19-5.08.67-18.06-7.57-13Z"/><path class="cls-9" d="M214.91,634.87l-59.42,27.45c-7.2,3.33-3,13.67,3.79,14,5,.23,20,.55,18.78,9-.2,1.4-1.5,2.44-2.34,3.51a14.31,14.31,0,0,0-3.14,6.24c-1.16,5.78,2.86,10.85,8.4,12,5,1,9.86-1.48,14.37-3.29,5.09-2,10.14-4.16,15.18-6.29,10.22-4.32,20.41-8.7,30.76-12.73,3.75-1.46,6.41-5,5.23-9.22-1-3.6-5.41-6.72-9.22-5.24-9.65,3.76-19.18,7.79-28.71,11.85-4.29,1.83-8.6,3.65-12.92,5.42-3.85,1.58-9.44,5.18-13.7,4.64l3.79,1,1.29,1.85v4c.35-1.94,2.75-3.57,3.73-5.28a17.58,17.58,0,0,0,2.19-7.24,21.19,21.19,0,0,0-4.34-14.14c-6.89-9.27-18.62-10.62-29.35-11.11l3.78,14,59.42-27.46c8.75-4.05,1.14-17-7.57-13Z"/><path class="cls-9" d="M817.88,635.27a160.86,160.86,0,0,0,39.69,49.2l5.3-12.8-17-2.11c-4.8-.59-9.82-1.71-14.66-1.19-11.59,1.26-15.3,13.69-7.75,22a30,30,0,0,0,5.54,4.51,17.82,17.82,0,0,0,2.24,1.45c1.44.65.16,1.21,1.32,0,1.93-2.05-.37-2-2.08-2.75-2.59-1.21-5.08-2.75-7.59-4.11L790.63,672c-8.49-4.61-16.07,8.34-7.57,13l34,18.47c8.64,4.7,22,11,28.67-.44a12.93,12.93,0,0,0-.81-13.69c-2.09-3.16-6.81-7.43-10.36-8.89-.68-1.35-1.08-1-1.23,1,.18,1-.06,1.66-.73,1.82,0,0,2,0,2.52.08,2.95.17,5.92.7,8.86,1.07l18.94,2.34c6.33.78,10.09-8.83,5.31-12.8a149.89,149.89,0,0,1-37.35-46.17c-4.47-8.56-17.42-1-13,7.57Z"/><path class="cls-9" d="M322.16,695.11c9.65,0,9.67-15,0-15s-9.67,15,0,15Z"/><path class="cls-9" d="M320.82,691.61c97.78,52,214.21,63.12,319.87,29.67A418.92,418.92,0,0,0,724.84,684c8.34-4.86.8-17.83-7.57-13-91.86,53.46-202.83,68.38-305.46,40.6a401,401,0,0,1-83.42-33c-8.52-4.53-16.11,8.42-7.57,13Z"/><path class="cls-9" d="M497,739.27l3.57,46.13c.74,9.57,15.75,9.65,15,0L512,739.27c-.74-9.57-15.75-9.65-15,0Z"/><path class="cls-9" d="M530,762.52c9.65,0,9.67-15,0-15s-9.67,15,0,15Z"/><path class="cls-9" d="M485.54,572.09c-2.26,14.11,1.45,32.24,18.15,35,17.56,2.93,26-14.72,29.43-28.71,2.33-9.37-12.14-13.37-14.46-4-1.39,5.6-3.82,18.38-11.87,18-7.44-.33-7.61-11.2-6.79-16.35.65-4-1-8-5.24-9.22-3.56-1-8.58,1.24-9.22,5.23Z"/><path class="cls-9" d="M492.67,572l-29.06-3.48c-8.68-1-17.56-2.78-26.3-3-8.28-.2-16.05,3.06-20,10.63-3.21,6.16-3.42,13.65-3,20.42.38,6.44,1.42,13.23,5.28,18.59,4.8,6.65,12.43,8.67,20.3,7.2,8.87-1.67,17.65-5.35,26.25-8.1l28.17-9c9.16-2.93,5.24-17.41-4-14.46l-43.19,13.81c-3.57,1.14-11.68,5.46-15,2.34-2.71-2.55-2.74-8.21-2.88-11.63-.15-3.81-.78-9.77,1.83-13,3.26-4,12.7-1.19,17.05-.67L492.67,587c4,.48,7.5-3.79,7.5-7.5,0-4.45-3.46-7-7.5-7.5Z"/><path class="cls-9" d="M525.86,582.24c11.8,3.71,22.82-1.46,34.64-.6,4.32.32,8.29,1.77,9.91,6.09,1.69,4.52,1,10.06.65,14.75-.26,3.37-.55,8.67-4.32,10-4.34,1.51-10.47-1.38-14.48-2.81a140,140,0,0,1-33-17.39c-7.93-5.55-15.43,7.45-7.57,13,13.05,9.15,28.08,17.11,43.58,21.15,6.49,1.69,13.82,2.22,19.86-1.25,6.48-3.72,9.39-10.64,10.41-17.72,1.91-13.33,1.78-30-11.7-37.37-6.21-3.37-13.7-3.87-20.6-3.12-7.77.84-15.66,3.3-23.36.88-9.23-2.9-13.18,11.57-4,14.46Z"/><path class="cls-9" d="M493.28,606.71l3.27,87.64c.36,9.63,15.36,9.67,15,0l-3.27-87.64c-.36-9.62-15.36-9.67-15,0Z"/><path class="cls-9" d="M521,636.68c9.66,0,9.67-15,0-15s-9.66,15,0,15Z"/><path class="cls-9" d="M522.16,659.15c9.65,0,9.67-15,0-15s-9.67,15,0,15Z"/><path class="cls-9" d="M522.16,682.75c9.65,0,9.67-15,0-15s-9.67,15,0,15Z"/><path class="cls-9" d="M574.14,605c8,8.4,18.27,17.15,30.7,15.76,6.45-.72,11.46-4.23,16.32-8.26,5.71-4.72,11.27-9.65,16.91-14.48l66.48-57c7.34-6.3-3.31-16.86-10.61-10.61L636.42,579.7c-9.1,7.8-17.93,16.52-27.64,23.56-9.19,6.67-17.77-2.34-24-8.91-6.68-7-17.28,3.62-10.6,10.61Z"/><path class="cls-9" d="M413.58,596.87c-2.71,4.94-9.13,4.45-13.6,2.34-7.3-3.44-13.14-10.4-18.88-15.85L339.8,544.1c-7-6.65-17.62,3.94-10.61,10.61,16.91,16.07,33.56,32.46,50.76,48.21,6.92,6.33,14.91,12.15,24.59,12.77,8.78.56,17.67-3.39,22-11.25,4.66-8.46-8.29-16-12.95-7.57Z"/></g></svg>